M48
; DRILL file {KiCad (6.0.5)} date Wed 15 Jun 2022 12:21:05 BST
; FORMAT={-:-/ absolute / inch / decimal}
; #@! TF.CreationDate,2022-06-15T12:21:05+01:00
; #@! TF.GenerationSoftware,Kicad,Pcbnew,(6.0.5)
; #@! TF.FileFunction,Plated,1,2,PTH
FMAT,2
INCH
; #@! TA.AperFunction,Plated,PTH,ComponentDrill
T1C0.0315
; #@! TA.AperFunction,Plated,PTH,ComponentDrill
T2C0.0394
%
G90
G05
T1
X0.8268Y-1.1386
X0.8268Y-1.5386
X1.0709Y-1.1386
X1.0709Y-1.5386
X1.315Y-1.1386
X1.315Y-1.5386
X1.5591Y-1.1386
X1.5591Y-1.5386
X1.7972Y-1.1499
X1.7972Y-1.2499
X1.7972Y-1.4667
X1.7972Y-1.5667
X2.0972Y-1.1499
X2.0972Y-1.2499
X2.0972Y-1.4667
X2.0972Y-1.5667
X2.3287Y-1.1499
X2.3287Y-1.2499
X2.3287Y-1.4667
X2.3287Y-1.5667
X2.6287Y-1.1499
X2.6287Y-1.2499
X2.6287Y-1.4667
X2.6287Y-1.5667
X2.8661Y-1.1386
X2.8661Y-1.5386
X3.1102Y-1.1386
X3.1102Y-1.5386
T2
X1.0197Y-0.8252
X1.0197Y-0.9252
X1.1197Y-0.8252
X1.1197Y-0.9252
X1.2197Y-0.8252
X1.2197Y-0.9252
X1.3197Y-0.8252
X1.3197Y-0.9252
X1.4197Y-0.8252
X1.4197Y-0.9252
X1.5197Y-0.8252
X1.5197Y-0.9252
X1.6191Y-1.7913
X1.6197Y-0.8252
X1.6197Y-0.9252
X1.7191Y-1.7913
X1.7197Y-0.8252
X1.7197Y-0.9252
X1.8191Y-1.7913
X1.8197Y-0.8252
X1.8197Y-0.9252
X1.9191Y-1.7913
X1.9197Y-0.8252
X1.9197Y-0.9252
X2.0191Y-1.7913
X2.0197Y-0.8252
X2.0197Y-0.9252
X2.1191Y-1.7913
X2.1197Y-0.8252
X2.1197Y-0.9252
X2.2191Y-1.7913
X2.2197Y-0.8252
X2.2197Y-0.9252
X2.3191Y-1.7913
X2.3197Y-0.8252
X2.3197Y-0.9252
X2.4197Y-0.8252
X2.4197Y-0.9252
X2.5197Y-0.8252
X2.5197Y-0.9252
X2.6197Y-0.8252
X2.6197Y-0.9252
X2.7197Y-0.8252
X2.7197Y-0.9252
X2.8197Y-0.8252
X2.8197Y-0.9252
X2.9197Y-0.8252
X2.9197Y-0.9252
T0
M30
