%TF.GenerationSoftware,KiCad,Pcbnew,(6.0.5)*%
%TF.CreationDate,2022-06-15T12:21:02+01:00*%
%TF.ProjectId,PiKVM,50694b56-4d2e-46b6-9963-61645f706362,rev?*%
%TF.SameCoordinates,Original*%
%TF.FileFunction,Legend,Top*%
%TF.FilePolarity,Positive*%
%FSLAX46Y46*%
G04 Gerber Fmt 4.6, Leading zero omitted, Abs format (unit mm)*
G04 Created by KiCad (PCBNEW (6.0.5)) date 2022-06-15 12:21:02*
%MOMM*%
%LPD*%
G01*
G04 APERTURE LIST*
%ADD10C,0.150000*%
%ADD11C,0.075000*%
%ADD12C,0.120000*%
%ADD13C,0.300000*%
%ADD14R,1.600000X1.600000*%
%ADD15O,1.600000X1.600000*%
%ADD16R,1.700000X1.700000*%
%ADD17O,1.700000X1.700000*%
%ADD18C,1.600000*%
%ADD19C,6.200000*%
G04 APERTURE END LIST*
D10*
X48985000Y-47500000D02*
X40095000Y-47500000D01*
X40095000Y-48389000D02*
X48985000Y-48389000D01*
X48985000Y-48389000D02*
X48985000Y-47500000D01*
X40095000Y-47500000D02*
X40095000Y-48389000D01*
X43778000Y-48389000D02*
X43778000Y-47500000D01*
X46572000Y-48389000D02*
X46572000Y-47500000D01*
X42000000Y-48389000D02*
X42000000Y-47500000D01*
D11*
X46762619Y-47967514D02*
X47143571Y-47967514D01*
X46953095Y-48157990D02*
X46953095Y-47777038D01*
X47381666Y-48157990D02*
X47381666Y-47657990D01*
X47381666Y-47896085D02*
X47667380Y-47896085D01*
X47667380Y-48157990D02*
X47667380Y-47657990D01*
X47905476Y-48157990D02*
X47905476Y-47657990D01*
X48024523Y-47657990D01*
X48095952Y-47681800D01*
X48143571Y-47729419D01*
X48167380Y-47777038D01*
X48191190Y-47872276D01*
X48191190Y-47943704D01*
X48167380Y-48038942D01*
X48143571Y-48086561D01*
X48095952Y-48134180D01*
X48024523Y-48157990D01*
X47905476Y-48157990D01*
X48405476Y-48157990D02*
X48405476Y-47657990D01*
X48524523Y-47657990D01*
X48595952Y-47681800D01*
X48643571Y-47729419D01*
X48667380Y-47777038D01*
X48691190Y-47872276D01*
X48691190Y-47943704D01*
X48667380Y-48038942D01*
X48643571Y-48086561D01*
X48595952Y-48134180D01*
X48524523Y-48157990D01*
X48405476Y-48157990D01*
X42615190Y-48208790D02*
X42448523Y-47970695D01*
X42329476Y-48208790D02*
X42329476Y-47708790D01*
X42519952Y-47708790D01*
X42567571Y-47732600D01*
X42591380Y-47756409D01*
X42615190Y-47804028D01*
X42615190Y-47875457D01*
X42591380Y-47923076D01*
X42567571Y-47946885D01*
X42519952Y-47970695D01*
X42329476Y-47970695D01*
X42805666Y-48184980D02*
X42877095Y-48208790D01*
X42996142Y-48208790D01*
X43043761Y-48184980D01*
X43067571Y-48161171D01*
X43091380Y-48113552D01*
X43091380Y-48065933D01*
X43067571Y-48018314D01*
X43043761Y-47994504D01*
X42996142Y-47970695D01*
X42900904Y-47946885D01*
X42853285Y-47923076D01*
X42829476Y-47899266D01*
X42805666Y-47851647D01*
X42805666Y-47804028D01*
X42829476Y-47756409D01*
X42853285Y-47732600D01*
X42900904Y-47708790D01*
X43019952Y-47708790D01*
X43091380Y-47732600D01*
X43234238Y-47708790D02*
X43519952Y-47708790D01*
X43377095Y-48208790D02*
X43377095Y-47708790D01*
X40317333Y-48234190D02*
X40317333Y-47734190D01*
X40507809Y-47734190D01*
X40555428Y-47758000D01*
X40579238Y-47781809D01*
X40603047Y-47829428D01*
X40603047Y-47900857D01*
X40579238Y-47948476D01*
X40555428Y-47972285D01*
X40507809Y-47996095D01*
X40317333Y-47996095D01*
X40769714Y-47734190D02*
X40888761Y-48234190D01*
X40984000Y-47877047D01*
X41079238Y-48234190D01*
X41198285Y-47734190D01*
X41674476Y-48234190D02*
X41507809Y-47996095D01*
X41388761Y-48234190D02*
X41388761Y-47734190D01*
X41579238Y-47734190D01*
X41626857Y-47758000D01*
X41650666Y-47781809D01*
X41674476Y-47829428D01*
X41674476Y-47900857D01*
X41650666Y-47948476D01*
X41626857Y-47972285D01*
X41579238Y-47996095D01*
X41388761Y-47996095D01*
X44005152Y-48018314D02*
X44386104Y-48018314D01*
X44195628Y-48208790D02*
X44195628Y-47827838D01*
X44624200Y-48208790D02*
X44624200Y-47708790D01*
X44814676Y-47708790D01*
X44862295Y-47732600D01*
X44886104Y-47756409D01*
X44909914Y-47804028D01*
X44909914Y-47875457D01*
X44886104Y-47923076D01*
X44862295Y-47946885D01*
X44814676Y-47970695D01*
X44624200Y-47970695D01*
X45362295Y-48208790D02*
X45124200Y-48208790D01*
X45124200Y-47708790D01*
X45528961Y-47946885D02*
X45695628Y-47946885D01*
X45767057Y-48208790D02*
X45528961Y-48208790D01*
X45528961Y-47708790D01*
X45767057Y-47708790D01*
X45981342Y-48208790D02*
X45981342Y-47708790D01*
X46100390Y-47708790D01*
X46171819Y-47732600D01*
X46219438Y-47780219D01*
X46243247Y-47827838D01*
X46267057Y-47923076D01*
X46267057Y-47994504D01*
X46243247Y-48089742D01*
X46219438Y-48137361D01*
X46171819Y-48184980D01*
X46100390Y-48208790D01*
X45981342Y-48208790D01*
D10*
%TO.C,U2*%
X48698095Y-34375712D02*
X48698095Y-35185236D01*
X48745714Y-35280474D01*
X48793333Y-35328093D01*
X48888571Y-35375712D01*
X49079047Y-35375712D01*
X49174285Y-35328093D01*
X49221904Y-35280474D01*
X49269523Y-35185236D01*
X49269523Y-34375712D01*
X49698095Y-34470951D02*
X49745714Y-34423332D01*
X49840952Y-34375712D01*
X50079047Y-34375712D01*
X50174285Y-34423332D01*
X50221904Y-34470951D01*
X50269523Y-34566189D01*
X50269523Y-34661427D01*
X50221904Y-34804284D01*
X49650476Y-35375712D01*
X50269523Y-35375712D01*
%TO.C,J2*%
X37807380Y-45833333D02*
X38521666Y-45833333D01*
X38664523Y-45880952D01*
X38759761Y-45976190D01*
X38807380Y-46119047D01*
X38807380Y-46214285D01*
X37902619Y-45404761D02*
X37855000Y-45357142D01*
X37807380Y-45261904D01*
X37807380Y-45023809D01*
X37855000Y-44928571D01*
X37902619Y-44880952D01*
X37997857Y-44833333D01*
X38093095Y-44833333D01*
X38235952Y-44880952D01*
X38807380Y-45452380D01*
X38807380Y-44833333D01*
%TO.C,R4*%
X37682380Y-34166666D02*
X37206190Y-34500000D01*
X37682380Y-34738095D02*
X36682380Y-34738095D01*
X36682380Y-34357142D01*
X36730000Y-34261904D01*
X36777619Y-34214285D01*
X36872857Y-34166666D01*
X37015714Y-34166666D01*
X37110952Y-34214285D01*
X37158571Y-34261904D01*
X37206190Y-34357142D01*
X37206190Y-34738095D01*
X37015714Y-33309523D02*
X37682380Y-33309523D01*
X36634761Y-33547619D02*
X37349047Y-33785714D01*
X37349047Y-33166666D01*
%TO.C,R2*%
X25282380Y-34166666D02*
X24806190Y-34500000D01*
X25282380Y-34738095D02*
X24282380Y-34738095D01*
X24282380Y-34357142D01*
X24330000Y-34261904D01*
X24377619Y-34214285D01*
X24472857Y-34166666D01*
X24615714Y-34166666D01*
X24710952Y-34214285D01*
X24758571Y-34261904D01*
X24806190Y-34357142D01*
X24806190Y-34738095D01*
X24377619Y-33785714D02*
X24330000Y-33738095D01*
X24282380Y-33642857D01*
X24282380Y-33404761D01*
X24330000Y-33309523D01*
X24377619Y-33261904D01*
X24472857Y-33214285D01*
X24568095Y-33214285D01*
X24710952Y-33261904D01*
X25282380Y-33833333D01*
X25282380Y-33214285D01*
%TO.C,U1*%
X48698095Y-26329046D02*
X48698095Y-27138570D01*
X48745714Y-27233808D01*
X48793333Y-27281427D01*
X48888571Y-27329046D01*
X49079047Y-27329046D01*
X49174285Y-27281427D01*
X49221904Y-27233808D01*
X49269523Y-27138570D01*
X49269523Y-26329046D01*
X50269523Y-27329046D02*
X49698095Y-27329046D01*
X49983809Y-27329046D02*
X49983809Y-26329046D01*
X49888571Y-26471904D01*
X49793333Y-26567142D01*
X49698095Y-26614761D01*
%TO.C,R3*%
X31482380Y-34166666D02*
X31006190Y-34500000D01*
X31482380Y-34738095D02*
X30482380Y-34738095D01*
X30482380Y-34357142D01*
X30530000Y-34261904D01*
X30577619Y-34214285D01*
X30672857Y-34166666D01*
X30815714Y-34166666D01*
X30910952Y-34214285D01*
X30958571Y-34261904D01*
X31006190Y-34357142D01*
X31006190Y-34738095D01*
X30482380Y-33833333D02*
X30482380Y-33214285D01*
X30863333Y-33547619D01*
X30863333Y-33404761D01*
X30910952Y-33309523D01*
X30958571Y-33261904D01*
X31053809Y-33214285D01*
X31291904Y-33214285D01*
X31387142Y-33261904D01*
X31434761Y-33309523D01*
X31482380Y-33404761D01*
X31482380Y-33690476D01*
X31434761Y-33785714D01*
X31387142Y-33833333D01*
%TO.C,R1*%
X19082380Y-34166666D02*
X18606190Y-34500000D01*
X19082380Y-34738095D02*
X18082380Y-34738095D01*
X18082380Y-34357142D01*
X18130000Y-34261904D01*
X18177619Y-34214285D01*
X18272857Y-34166666D01*
X18415714Y-34166666D01*
X18510952Y-34214285D01*
X18558571Y-34261904D01*
X18606190Y-34357142D01*
X18606190Y-34738095D01*
X19082380Y-33214285D02*
X19082380Y-33785714D01*
X19082380Y-33500000D02*
X18082380Y-33500000D01*
X18225238Y-33595238D01*
X18320476Y-33690476D01*
X18368095Y-33785714D01*
%TO.C,U3*%
X62198095Y-26329046D02*
X62198095Y-27138570D01*
X62245714Y-27233808D01*
X62293333Y-27281427D01*
X62388571Y-27329046D01*
X62579047Y-27329046D01*
X62674285Y-27281427D01*
X62721904Y-27233808D01*
X62769523Y-27138570D01*
X62769523Y-26329046D01*
X63150476Y-26329046D02*
X63769523Y-26329046D01*
X63436190Y-26709999D01*
X63579047Y-26709999D01*
X63674285Y-26757618D01*
X63721904Y-26805237D01*
X63769523Y-26900475D01*
X63769523Y-27138570D01*
X63721904Y-27233808D01*
X63674285Y-27281427D01*
X63579047Y-27329046D01*
X63293333Y-27329046D01*
X63198095Y-27281427D01*
X63150476Y-27233808D01*
%TO.C,R5*%
X75622380Y-34166666D02*
X75146190Y-34500000D01*
X75622380Y-34738095D02*
X74622380Y-34738095D01*
X74622380Y-34357142D01*
X74670000Y-34261904D01*
X74717619Y-34214285D01*
X74812857Y-34166666D01*
X74955714Y-34166666D01*
X75050952Y-34214285D01*
X75098571Y-34261904D01*
X75146190Y-34357142D01*
X75146190Y-34738095D01*
X74622380Y-33261904D02*
X74622380Y-33738095D01*
X75098571Y-33785714D01*
X75050952Y-33738095D01*
X75003333Y-33642857D01*
X75003333Y-33404761D01*
X75050952Y-33309523D01*
X75098571Y-33261904D01*
X75193809Y-33214285D01*
X75431904Y-33214285D01*
X75527142Y-33261904D01*
X75574761Y-33309523D01*
X75622380Y-33404761D01*
X75622380Y-33642857D01*
X75574761Y-33738095D01*
X75527142Y-33785714D01*
%TO.C,U4*%
X62198095Y-34375712D02*
X62198095Y-35185236D01*
X62245714Y-35280474D01*
X62293333Y-35328093D01*
X62388571Y-35375712D01*
X62579047Y-35375712D01*
X62674285Y-35328093D01*
X62721904Y-35280474D01*
X62769523Y-35185236D01*
X62769523Y-34375712D01*
X63674285Y-34709046D02*
X63674285Y-35375712D01*
X63436190Y-34328093D02*
X63198095Y-35042379D01*
X63817142Y-35042379D01*
%TO.C,R6*%
X81822380Y-34166666D02*
X81346190Y-34500000D01*
X81822380Y-34738095D02*
X80822380Y-34738095D01*
X80822380Y-34357142D01*
X80870000Y-34261904D01*
X80917619Y-34214285D01*
X81012857Y-34166666D01*
X81155714Y-34166666D01*
X81250952Y-34214285D01*
X81298571Y-34261904D01*
X81346190Y-34357142D01*
X81346190Y-34738095D01*
X80822380Y-33309523D02*
X80822380Y-33500000D01*
X80870000Y-33595238D01*
X80917619Y-33642857D01*
X81060476Y-33738095D01*
X81250952Y-33785714D01*
X81631904Y-33785714D01*
X81727142Y-33738095D01*
X81774761Y-33690476D01*
X81822380Y-33595238D01*
X81822380Y-33404761D01*
X81774761Y-33309523D01*
X81727142Y-33261904D01*
X81631904Y-33214285D01*
X81393809Y-33214285D01*
X81298571Y-33261904D01*
X81250952Y-33309523D01*
X81203333Y-33404761D01*
X81203333Y-33595238D01*
X81250952Y-33690476D01*
X81298571Y-33738095D01*
X81393809Y-33785714D01*
D12*
%TO.C,U2*%
X46810000Y-41123332D02*
X52110000Y-41123332D01*
X48460000Y-35923332D02*
X46810000Y-35923332D01*
X52110000Y-41123332D02*
X52110000Y-35923332D01*
X46810000Y-35923332D02*
X46810000Y-41123332D01*
X52110000Y-35923332D02*
X50460000Y-35923332D01*
X48460000Y-35923332D02*
G75*
G03*
X50460000Y-35923332I1000000J0D01*
G01*
%TO.C,J2*%
X60235000Y-46830000D02*
X60235000Y-44170000D01*
X39795000Y-44170000D02*
X41125000Y-44170000D01*
X42395000Y-44170000D02*
X60235000Y-44170000D01*
X39795000Y-45500000D02*
X39795000Y-44170000D01*
X42395000Y-46830000D02*
X60235000Y-46830000D01*
X42395000Y-46830000D02*
X42395000Y-44170000D01*
%TO.C,R4*%
X40970000Y-37270000D02*
X40970000Y-30730000D01*
X39600000Y-38040000D02*
X39600000Y-37270000D01*
X39600000Y-29960000D02*
X39600000Y-30730000D01*
X40970000Y-30730000D02*
X38230000Y-30730000D01*
X38230000Y-37270000D02*
X40970000Y-37270000D01*
X38230000Y-30730000D02*
X38230000Y-37270000D01*
%TO.C,R2*%
X27200000Y-38040000D02*
X27200000Y-37270000D01*
X25830000Y-30730000D02*
X25830000Y-37270000D01*
X25830000Y-37270000D02*
X28570000Y-37270000D01*
X28570000Y-37270000D02*
X28570000Y-30730000D01*
X27200000Y-29960000D02*
X27200000Y-30730000D01*
X28570000Y-30730000D02*
X25830000Y-30730000D01*
%TO.C,U1*%
X52110000Y-27876666D02*
X50460000Y-27876666D01*
X52110000Y-33076666D02*
X52110000Y-27876666D01*
X46810000Y-33076666D02*
X52110000Y-33076666D01*
X46810000Y-27876666D02*
X46810000Y-33076666D01*
X48460000Y-27876666D02*
X46810000Y-27876666D01*
X48460000Y-27876666D02*
G75*
G03*
X50460000Y-27876666I1000000J0D01*
G01*
%TO.C,R3*%
X32030000Y-30730000D02*
X32030000Y-37270000D01*
X33400000Y-29960000D02*
X33400000Y-30730000D01*
X34770000Y-37270000D02*
X34770000Y-30730000D01*
X33400000Y-38040000D02*
X33400000Y-37270000D01*
X34770000Y-30730000D02*
X32030000Y-30730000D01*
X32030000Y-37270000D02*
X34770000Y-37270000D01*
%TO.C,R1*%
X22370000Y-30730000D02*
X19630000Y-30730000D01*
X19630000Y-30730000D02*
X19630000Y-37270000D01*
X22370000Y-37270000D02*
X22370000Y-30730000D01*
X21000000Y-38040000D02*
X21000000Y-37270000D01*
X21000000Y-29960000D02*
X21000000Y-30730000D01*
X19630000Y-37270000D02*
X22370000Y-37270000D01*
%TO.C,U3*%
X60310000Y-33076666D02*
X65610000Y-33076666D01*
X65610000Y-27876666D02*
X63960000Y-27876666D01*
X65610000Y-33076666D02*
X65610000Y-27876666D01*
X60310000Y-27876666D02*
X60310000Y-33076666D01*
X61960000Y-27876666D02*
X60310000Y-27876666D01*
X61960000Y-27876666D02*
G75*
G03*
X63960000Y-27876666I1000000J0D01*
G01*
%TO.C,R5*%
X71430000Y-30730000D02*
X71430000Y-37270000D01*
X72800000Y-38040000D02*
X72800000Y-37270000D01*
X72800000Y-29960000D02*
X72800000Y-30730000D01*
X74170000Y-37270000D02*
X74170000Y-30730000D01*
X71430000Y-37270000D02*
X74170000Y-37270000D01*
X74170000Y-30730000D02*
X71430000Y-30730000D01*
%TO.C,U4*%
X60310000Y-41123332D02*
X65610000Y-41123332D01*
X65610000Y-41123332D02*
X65610000Y-35923332D01*
X61960000Y-35923332D02*
X60310000Y-35923332D01*
X65610000Y-35923332D02*
X63960000Y-35923332D01*
X60310000Y-35923332D02*
X60310000Y-41123332D01*
X61960000Y-35923332D02*
G75*
G03*
X63960000Y-35923332I1000000J0D01*
G01*
%TO.C,R6*%
X80370000Y-37270000D02*
X80370000Y-30730000D01*
X80370000Y-30730000D02*
X77630000Y-30730000D01*
X79000000Y-29960000D02*
X79000000Y-30730000D01*
X77630000Y-30730000D02*
X77630000Y-37270000D01*
X77630000Y-37270000D02*
X80370000Y-37270000D01*
X79000000Y-38040000D02*
X79000000Y-37270000D01*
%TD*%
%LPC*%
D13*
X28214285Y-45178571D02*
X28214285Y-46178571D01*
X27714285Y-45178571D02*
X27714285Y-45964285D01*
X27642857Y-46107142D01*
X27500000Y-46178571D01*
X28500000Y-45178571D02*
X27571428Y-45178571D01*
X27428571Y-45250000D01*
X27357142Y-45392857D01*
X29071428Y-45607142D02*
X30214285Y-45607142D01*
X30928571Y-46178571D02*
X30928571Y-44678571D01*
X31071428Y-45607142D02*
X31500000Y-46178571D01*
X31500000Y-45178571D02*
X30928571Y-45750000D01*
X32000000Y-45178571D02*
X32357142Y-46178571D01*
X32714285Y-45178571D01*
X33285714Y-46178571D02*
X33285714Y-45178571D01*
X33285714Y-45321428D02*
X33357142Y-45250000D01*
X33500000Y-45178571D01*
X33714285Y-45178571D01*
X33857142Y-45250000D01*
X33928571Y-45392857D01*
X33928571Y-46178571D01*
X33928571Y-45392857D02*
X34000000Y-45250000D01*
X34142857Y-45178571D01*
X34357142Y-45178571D01*
X34500000Y-45250000D01*
X34571428Y-45392857D01*
X34571428Y-46178571D01*
D14*
%TO.C,U2*%
X45650000Y-37253332D03*
D15*
X45650000Y-39793332D03*
X53270000Y-39793332D03*
X53270000Y-37253332D03*
%TD*%
D16*
%TO.C,J2*%
X41125000Y-45500000D03*
D17*
X43665000Y-45500000D03*
X46205000Y-45500000D03*
X48745000Y-45500000D03*
X51285000Y-45500000D03*
X53825000Y-45500000D03*
X56365000Y-45500000D03*
X58905000Y-45500000D03*
%TD*%
D18*
%TO.C,R4*%
X39600000Y-39080000D03*
D15*
X39600000Y-28920000D03*
%TD*%
D19*
%TO.C,REF\u002A\u002A*%
X79000000Y-45500000D03*
%TD*%
D18*
%TO.C,R2*%
X27200000Y-39080000D03*
D15*
X27200000Y-28920000D03*
%TD*%
D14*
%TO.C,U1*%
X45650000Y-29206666D03*
D15*
X45650000Y-31746666D03*
X53270000Y-31746666D03*
X53270000Y-29206666D03*
%TD*%
D18*
%TO.C,R3*%
X33400000Y-39080000D03*
D15*
X33400000Y-28920000D03*
%TD*%
D18*
%TO.C,R1*%
X21000000Y-39080000D03*
D15*
X21000000Y-28920000D03*
%TD*%
D19*
%TO.C,REF\u002A\u002A*%
X21000000Y-45500000D03*
%TD*%
%TO.C,REF\u002A\u002A*%
X79000000Y-22500000D03*
%TD*%
D14*
%TO.C,U3*%
X59150000Y-29206666D03*
D15*
X59150000Y-31746666D03*
X66770000Y-31746666D03*
X66770000Y-29206666D03*
%TD*%
D19*
%TO.C,REF\u002A\u002A*%
X21000000Y-22500000D03*
%TD*%
D18*
%TO.C,R5*%
X72800000Y-28920000D03*
D15*
X72800000Y-39080000D03*
%TD*%
D14*
%TO.C,U4*%
X59150000Y-37253332D03*
D15*
X59150000Y-39793332D03*
X66770000Y-39793332D03*
X66770000Y-37253332D03*
%TD*%
D18*
%TO.C,R6*%
X79000000Y-28920000D03*
D15*
X79000000Y-39080000D03*
%TD*%
D16*
%TO.C,J1*%
X25900000Y-23500000D03*
D17*
X25900000Y-20960000D03*
X28440000Y-23500000D03*
X28440000Y-20960000D03*
X30980000Y-23500000D03*
X30980000Y-20960000D03*
X33520000Y-23500000D03*
X33520000Y-20960000D03*
X36060000Y-23500000D03*
X36060000Y-20960000D03*
X38600000Y-23500000D03*
X38600000Y-20960000D03*
X41140000Y-23500000D03*
X41140000Y-20960000D03*
X43680000Y-23500000D03*
X43680000Y-20960000D03*
X46220000Y-23500000D03*
X46220000Y-20960000D03*
X48760000Y-23500000D03*
X48760000Y-20960000D03*
X51300000Y-23500000D03*
X51300000Y-20960000D03*
X53840000Y-23500000D03*
X53840000Y-20960000D03*
X56380000Y-23500000D03*
X56380000Y-20960000D03*
X58920000Y-23500000D03*
X58920000Y-20960000D03*
X61460000Y-23500000D03*
X61460000Y-20960000D03*
X64000000Y-23500000D03*
X64000000Y-20960000D03*
X66540000Y-23500000D03*
X66540000Y-20960000D03*
X69080000Y-23500000D03*
X69080000Y-20960000D03*
X71620000Y-23500000D03*
X71620000Y-20960000D03*
X74160000Y-23500000D03*
X74160000Y-20960000D03*
%TD*%
M02*
