%TF.GenerationSoftware,KiCad,Pcbnew,(6.0.5)*%
%TF.CreationDate,2022-06-14T19:42:58+01:00*%
%TF.ProjectId,PiKVM,50694b56-4d2e-46b6-9963-61645f706362,rev?*%
%TF.SameCoordinates,Original*%
%TF.FileFunction,Copper,L1,Top*%
%TF.FilePolarity,Positive*%
%FSLAX46Y46*%
G04 Gerber Fmt 4.6, Leading zero omitted, Abs format (unit mm)*
G04 Created by KiCad (PCBNEW (6.0.5)) date 2022-06-14 19:42:58*
%MOMM*%
%LPD*%
G01*
G04 APERTURE LIST*
%TA.AperFunction,ComponentPad*%
%ADD10R,1.600000X1.600000*%
%TD*%
%TA.AperFunction,ComponentPad*%
%ADD11O,1.600000X1.600000*%
%TD*%
%TA.AperFunction,ComponentPad*%
%ADD12R,1.700000X1.700000*%
%TD*%
%TA.AperFunction,ComponentPad*%
%ADD13O,1.700000X1.700000*%
%TD*%
%TA.AperFunction,ComponentPad*%
%ADD14C,1.600000*%
%TD*%
%TA.AperFunction,Conductor*%
%ADD15C,0.250000*%
%TD*%
%TA.AperFunction,Conductor*%
%ADD16C,0.200000*%
%TD*%
G04 APERTURE END LIST*
D10*
%TO.P,U3,1*%
%TO.N,Net-(R5-Pad1)*%
X57140000Y-44455000D03*
D11*
%TO.P,U3,2*%
%TO.N,PLED-*%
X57140000Y-41915000D03*
%TO.P,U3,3*%
%TO.N,PLED*%
X49520000Y-41915000D03*
%TO.P,U3,4*%
%TO.N,+3V3*%
X49520000Y-44455000D03*
%TD*%
D12*
%TO.P,J2,1,Pin_1*%
%TO.N,PWR+*%
X71095000Y-27940000D03*
D13*
%TO.P,J2,2,Pin_2*%
%TO.N,GND2*%
X71095000Y-30480000D03*
%TO.P,J2,3,Pin_3*%
%TO.N,RST+*%
X71095000Y-33020000D03*
%TO.P,J2,4,Pin_4*%
%TO.N,GND2*%
X71095000Y-35560000D03*
%TO.P,J2,5,Pin_5*%
%TO.N,PLED+*%
X71095000Y-38100000D03*
%TO.P,J2,6,Pin_6*%
%TO.N,PLED-*%
X71095000Y-40640000D03*
%TO.P,J2,7,Pin_7*%
%TO.N,IDLE_LED+*%
X71095000Y-43180000D03*
%TO.P,J2,8,Pin_8*%
%TO.N,IDLE_LED-*%
X71095000Y-45720000D03*
%TD*%
D14*
%TO.P,R3,1*%
%TO.N,GND1*%
X35560000Y-43180000D03*
D11*
%TO.P,R3,2*%
%TO.N,PLED*%
X45720000Y-43180000D03*
%TD*%
D14*
%TO.P,R1,1*%
%TO.N,GND1*%
X35560000Y-30480000D03*
D11*
%TO.P,R1,2*%
%TO.N,Net-(R1-Pad2)*%
X45720000Y-30480000D03*
%TD*%
D10*
%TO.P,U1,1*%
%TO.N,PWRSW*%
X49540000Y-27940000D03*
D11*
%TO.P,U1,2*%
%TO.N,Net-(R1-Pad2)*%
X49540000Y-30480000D03*
%TO.P,U1,3*%
%TO.N,GND2*%
X57160000Y-30480000D03*
%TO.P,U1,4*%
%TO.N,PWR+*%
X57160000Y-27940000D03*
%TD*%
D10*
%TO.P,U4,1*%
%TO.N,Net-(R6-Pad1)*%
X57140000Y-52075000D03*
D11*
%TO.P,U4,2*%
%TO.N,IDLE_LED-*%
X57140000Y-49535000D03*
%TO.P,U4,3*%
%TO.N,IDLE_LED*%
X49520000Y-49535000D03*
%TO.P,U4,4*%
%TO.N,+3V3*%
X49520000Y-52075000D03*
%TD*%
D14*
%TO.P,R6,1*%
%TO.N,Net-(R6-Pad1)*%
X66040000Y-40640000D03*
D11*
%TO.P,R6,2*%
%TO.N,IDLE_LED+*%
X66040000Y-50800000D03*
%TD*%
D14*
%TO.P,R2,1*%
%TO.N,GND1*%
X35560000Y-35560000D03*
D11*
%TO.P,R2,2*%
%TO.N,Net-(R2-Pad2)*%
X45720000Y-35560000D03*
%TD*%
D14*
%TO.P,R5,1*%
%TO.N,Net-(R5-Pad1)*%
X60960000Y-40640000D03*
D11*
%TO.P,R5,2*%
%TO.N,PLED+*%
X60960000Y-50800000D03*
%TD*%
D10*
%TO.P,U2,1*%
%TO.N,RSTSW*%
X49540000Y-34285000D03*
D11*
%TO.P,U2,2*%
%TO.N,Net-(R2-Pad2)*%
X49540000Y-36825000D03*
%TO.P,U2,3*%
%TO.N,GND2*%
X57160000Y-36825000D03*
%TO.P,U2,4*%
%TO.N,RST+*%
X57160000Y-34285000D03*
%TD*%
D14*
%TO.P,R4,1*%
%TO.N,GND1*%
X35560000Y-48260000D03*
D11*
%TO.P,R4,2*%
%TO.N,IDLE_LED*%
X45720000Y-48260000D03*
%TD*%
D12*
%TO.P,J1,1,3V3*%
%TO.N,+3V3*%
X30480000Y-27950000D03*
D13*
%TO.P,J1,2,5V*%
%TO.N,unconnected-(J1-Pad2)*%
X33020000Y-27950000D03*
%TO.P,J1,3,SDA/GPIO2*%
%TO.N,unconnected-(J1-Pad3)*%
X30480000Y-30490000D03*
%TO.P,J1,4,5V*%
%TO.N,unconnected-(J1-Pad4)*%
X33020000Y-30490000D03*
%TO.P,J1,5,SCL/GPIO3*%
%TO.N,unconnected-(J1-Pad5)*%
X30480000Y-33030000D03*
%TO.P,J1,6,GND*%
%TO.N,GND1*%
X33020000Y-33030000D03*
%TO.P,J1,7,GCLK0/GPIO4*%
%TO.N,unconnected-(J1-Pad7)*%
X30480000Y-35570000D03*
%TO.P,J1,8,GPIO14/TXD*%
%TO.N,unconnected-(J1-Pad8)*%
X33020000Y-35570000D03*
%TO.P,J1,9,GND*%
%TO.N,GND1*%
X30480000Y-38110000D03*
%TO.P,J1,10,GPIO15/RXD*%
%TO.N,unconnected-(J1-Pad10)*%
X33020000Y-38110000D03*
%TO.P,J1,11,GPIO17*%
%TO.N,unconnected-(J1-Pad11)*%
X30480000Y-40650000D03*
%TO.P,J1,12,GPIO18/PWM0*%
%TO.N,unconnected-(J1-Pad12)*%
X33020000Y-40650000D03*
%TO.P,J1,13,GPIO27*%
%TO.N,RSTSW*%
X30480000Y-43190000D03*
%TO.P,J1,14,GND*%
%TO.N,GND1*%
X33020000Y-43190000D03*
%TO.P,J1,15,GPIO22*%
%TO.N,IDLE_LED*%
X30480000Y-45730000D03*
%TO.P,J1,16,GPIO23*%
%TO.N,PWRSW*%
X33020000Y-45730000D03*
%TO.P,J1,17,3V3*%
%TO.N,+3V3*%
X30480000Y-48270000D03*
%TO.P,J1,18,GPIO24*%
%TO.N,PLED*%
X33020000Y-48270000D03*
%TD*%
D15*
%TO.N,GND1*%
X33030000Y-43180000D02*
X33020000Y-43190000D01*
X35560000Y-43180000D02*
X33030000Y-43180000D01*
%TO.N,PLED*%
X33020000Y-48270000D02*
X38110000Y-43180000D01*
X45720000Y-43180000D02*
X48255000Y-43180000D01*
X38110000Y-43180000D02*
X45720000Y-43180000D01*
X48255000Y-43180000D02*
X49520000Y-41915000D01*
%TO.N,IDLE_LED*%
X31845489Y-48756499D02*
X32618990Y-49530000D01*
X30480000Y-45730000D02*
X31845489Y-47095489D01*
X45720000Y-48260000D02*
X48245000Y-48260000D01*
X31845489Y-47095489D02*
X31845489Y-48756499D01*
X44450000Y-49530000D02*
X45720000Y-48260000D01*
X32618990Y-49530000D02*
X44450000Y-49530000D01*
X48245000Y-48260000D02*
X49520000Y-49535000D01*
%TO.N,RSTSW*%
X41046010Y-34285000D02*
X33421010Y-41910000D01*
X49540000Y-34285000D02*
X41046010Y-34285000D01*
X33421010Y-41910000D02*
X31760000Y-41910000D01*
X31760000Y-41910000D02*
X30480000Y-43190000D01*
%TO.N,PWRSW*%
X33020000Y-45730000D02*
X34600300Y-45730000D01*
X34600300Y-45730000D02*
X42380789Y-37949511D01*
X50005789Y-37949511D02*
X50800000Y-37155300D01*
X50800000Y-29200000D02*
X49540000Y-27940000D01*
X50800000Y-37155300D02*
X50800000Y-29200000D01*
X42380789Y-37949511D02*
X50005789Y-37949511D01*
%TO.N,Net-(R1-Pad2)*%
X45720000Y-30480000D02*
X49540000Y-30480000D01*
%TO.N,Net-(R2-Pad2)*%
X45720000Y-35560000D02*
X48275000Y-35560000D01*
X48275000Y-35560000D02*
X49540000Y-36825000D01*
%TO.N,PWR+*%
X57160000Y-27940000D02*
X71095000Y-27940000D01*
%TO.N,RST+*%
X57160000Y-34285000D02*
X69830000Y-34285000D01*
X69830000Y-34285000D02*
X71095000Y-33020000D01*
D16*
%TO.N,PLED+*%
X60960000Y-48235000D02*
X71095000Y-38100000D01*
X60960000Y-50800000D02*
X60960000Y-48235000D01*
%TO.N,IDLE_LED+*%
X66040000Y-48235000D02*
X71095000Y-43180000D01*
X66040000Y-50800000D02*
X66040000Y-48235000D01*
D15*
%TO.N,Net-(R5-Pad1)*%
X57145000Y-44455000D02*
X60960000Y-40640000D01*
X57140000Y-44455000D02*
X57145000Y-44455000D01*
%TO.N,Net-(R6-Pad1)*%
X57140000Y-51454638D02*
X66040000Y-42554638D01*
X57140000Y-52075000D02*
X57140000Y-51454638D01*
X66040000Y-42554638D02*
X66040000Y-40640000D01*
%TD*%
%TA.AperFunction,Conductor*%
%TO.N,Net-(R2-Pad2)*%
G36*
X46076237Y-34844091D02*
G01*
X46217116Y-34920676D01*
X46217989Y-34921202D01*
X46317291Y-34987363D01*
X46341072Y-35003207D01*
X46341722Y-35003673D01*
X46447382Y-35085018D01*
X46447663Y-35085240D01*
X46543306Y-35163682D01*
X46636015Y-35236668D01*
X46636196Y-35236789D01*
X46636205Y-35236796D01*
X46677036Y-35264185D01*
X46732991Y-35301721D01*
X46773757Y-35322276D01*
X46841173Y-35356269D01*
X46841180Y-35356272D01*
X46841555Y-35356461D01*
X46969031Y-35398507D01*
X47122738Y-35425480D01*
X47123090Y-35425498D01*
X47123091Y-35425498D01*
X47144330Y-35426578D01*
X47298895Y-35434435D01*
X47306983Y-35438278D01*
X47310000Y-35446120D01*
X47310000Y-35673880D01*
X47306573Y-35682153D01*
X47298895Y-35685564D01*
X47142432Y-35693518D01*
X47123091Y-35694501D01*
X47123090Y-35694501D01*
X47122738Y-35694519D01*
X46969031Y-35721492D01*
X46841555Y-35763538D01*
X46841180Y-35763727D01*
X46841173Y-35763730D01*
X46773757Y-35797723D01*
X46732991Y-35818278D01*
X46677036Y-35855814D01*
X46636205Y-35883203D01*
X46636196Y-35883210D01*
X46636015Y-35883331D01*
X46543306Y-35956317D01*
X46543267Y-35956349D01*
X46447665Y-36034757D01*
X46447382Y-36034981D01*
X46341722Y-36116326D01*
X46341072Y-36116792D01*
X46218001Y-36198789D01*
X46217102Y-36199331D01*
X46076236Y-36275909D01*
X46067331Y-36276850D01*
X46062538Y-36274063D01*
X45487856Y-35721419D01*
X45328769Y-35568433D01*
X45325181Y-35560229D01*
X45328769Y-35551567D01*
X45449985Y-35435000D01*
X45813923Y-35085018D01*
X46062538Y-34845937D01*
X46070877Y-34842672D01*
X46076237Y-34844091D01*
G37*
%TD.AperFunction*%
%TD*%
%TA.AperFunction,Conductor*%
%TO.N,Net-(R2-Pad2)*%
G36*
X48512341Y-35619767D02*
G01*
X48642957Y-35737746D01*
X48642968Y-35737755D01*
X48643234Y-35737995D01*
X48770994Y-35827609D01*
X48890864Y-35888017D01*
X49006337Y-35926077D01*
X49120908Y-35948650D01*
X49238072Y-35962595D01*
X49361164Y-35974758D01*
X49361477Y-35974794D01*
X49493759Y-35991994D01*
X49494542Y-35992122D01*
X49519380Y-35997097D01*
X49639545Y-36021166D01*
X49640564Y-36021418D01*
X49794326Y-36066879D01*
X49801288Y-36072511D01*
X49802707Y-36077870D01*
X49822604Y-37095677D01*
X49819339Y-37104016D01*
X49810677Y-37107604D01*
X48792870Y-37087707D01*
X48784666Y-37084119D01*
X48781879Y-37079326D01*
X48736418Y-36925564D01*
X48736166Y-36924545D01*
X48707123Y-36779545D01*
X48706993Y-36778756D01*
X48689797Y-36646503D01*
X48689756Y-36646144D01*
X48677605Y-36523175D01*
X48677595Y-36523072D01*
X48663650Y-36405908D01*
X48641077Y-36291337D01*
X48603017Y-36175864D01*
X48542609Y-36055994D01*
X48497717Y-35991993D01*
X48453200Y-35928526D01*
X48453198Y-35928524D01*
X48452995Y-35928234D01*
X48452755Y-35927968D01*
X48452746Y-35927957D01*
X48334767Y-35797341D01*
X48331764Y-35788905D01*
X48335176Y-35781226D01*
X48496226Y-35620176D01*
X48504499Y-35616749D01*
X48512341Y-35619767D01*
G37*
%TD.AperFunction*%
%TD*%
%TA.AperFunction,Conductor*%
%TO.N,PWR+*%
G36*
X70730674Y-27180943D02*
G01*
X71401570Y-27826111D01*
X71511231Y-27931567D01*
X71514819Y-27939771D01*
X71511231Y-27948433D01*
X70997513Y-28442451D01*
X70730674Y-28699057D01*
X70722335Y-28702322D01*
X70716966Y-28700898D01*
X70566255Y-28618775D01*
X70565336Y-28618218D01*
X70535926Y-28598492D01*
X70434286Y-28530317D01*
X70433642Y-28529850D01*
X70321311Y-28442451D01*
X70321015Y-28442213D01*
X70219582Y-28357864D01*
X70219544Y-28357832D01*
X70121258Y-28279195D01*
X70018451Y-28209021D01*
X69903273Y-28149914D01*
X69832153Y-28126046D01*
X69768278Y-28104609D01*
X69768275Y-28104608D01*
X69767872Y-28104473D01*
X69658834Y-28085016D01*
X69604758Y-28075366D01*
X69604754Y-28075366D01*
X69604398Y-28075302D01*
X69595763Y-28074856D01*
X69416096Y-28065573D01*
X69408011Y-28061724D01*
X69405000Y-28053889D01*
X69405000Y-27826111D01*
X69408427Y-27817838D01*
X69416096Y-27814427D01*
X69604030Y-27804716D01*
X69604398Y-27804697D01*
X69604754Y-27804633D01*
X69604758Y-27804633D01*
X69658834Y-27794983D01*
X69767872Y-27775526D01*
X69768275Y-27775391D01*
X69768278Y-27775390D01*
X69832153Y-27753953D01*
X69903273Y-27730085D01*
X70018451Y-27670978D01*
X70121258Y-27600804D01*
X70219544Y-27522167D01*
X70321015Y-27437786D01*
X70321311Y-27437548D01*
X70353926Y-27412172D01*
X70433642Y-27350149D01*
X70434286Y-27349682D01*
X70565336Y-27261781D01*
X70566255Y-27261224D01*
X70716966Y-27179102D01*
X70725870Y-27178153D01*
X70730674Y-27180943D01*
G37*
%TD.AperFunction*%
%TD*%
%TA.AperFunction,Conductor*%
%TO.N,PWR+*%
G36*
X57516237Y-27224091D02*
G01*
X57657116Y-27300676D01*
X57657989Y-27301202D01*
X57757291Y-27367363D01*
X57781072Y-27383207D01*
X57781722Y-27383673D01*
X57887382Y-27465018D01*
X57887663Y-27465240D01*
X57983306Y-27543682D01*
X58076015Y-27616668D01*
X58076196Y-27616789D01*
X58076205Y-27616796D01*
X58117036Y-27644185D01*
X58172991Y-27681721D01*
X58213757Y-27702276D01*
X58281173Y-27736269D01*
X58281180Y-27736272D01*
X58281555Y-27736461D01*
X58409031Y-27778507D01*
X58562738Y-27805480D01*
X58563090Y-27805498D01*
X58563091Y-27805498D01*
X58584330Y-27806578D01*
X58738895Y-27814435D01*
X58746983Y-27818278D01*
X58750000Y-27826120D01*
X58750000Y-28053880D01*
X58746573Y-28062153D01*
X58738895Y-28065564D01*
X58582432Y-28073518D01*
X58563091Y-28074501D01*
X58563090Y-28074501D01*
X58562738Y-28074519D01*
X58409031Y-28101492D01*
X58281555Y-28143538D01*
X58281180Y-28143727D01*
X58281173Y-28143730D01*
X58213757Y-28177723D01*
X58172991Y-28198278D01*
X58117036Y-28235814D01*
X58076205Y-28263203D01*
X58076196Y-28263210D01*
X58076015Y-28263331D01*
X57983306Y-28336317D01*
X57983267Y-28336349D01*
X57887665Y-28414757D01*
X57887382Y-28414981D01*
X57781722Y-28496326D01*
X57781072Y-28496792D01*
X57658001Y-28578789D01*
X57657102Y-28579331D01*
X57516236Y-28655909D01*
X57507331Y-28656850D01*
X57502538Y-28654063D01*
X56927856Y-28101419D01*
X56768769Y-27948433D01*
X56765181Y-27940229D01*
X56768769Y-27931567D01*
X56889985Y-27815000D01*
X57253923Y-27465018D01*
X57502538Y-27225937D01*
X57510877Y-27222672D01*
X57516237Y-27224091D01*
G37*
%TD.AperFunction*%
%TD*%
%TA.AperFunction,Conductor*%
%TO.N,RST+*%
G36*
X57516237Y-33569091D02*
G01*
X57657116Y-33645676D01*
X57657989Y-33646202D01*
X57757291Y-33712363D01*
X57781072Y-33728207D01*
X57781722Y-33728673D01*
X57887382Y-33810018D01*
X57887663Y-33810240D01*
X57983306Y-33888682D01*
X58076015Y-33961668D01*
X58076196Y-33961789D01*
X58076205Y-33961796D01*
X58117036Y-33989185D01*
X58172991Y-34026721D01*
X58213757Y-34047276D01*
X58281173Y-34081269D01*
X58281180Y-34081272D01*
X58281555Y-34081461D01*
X58409031Y-34123507D01*
X58562738Y-34150480D01*
X58563090Y-34150498D01*
X58563091Y-34150498D01*
X58584330Y-34151578D01*
X58738895Y-34159435D01*
X58746983Y-34163278D01*
X58750000Y-34171120D01*
X58750000Y-34398880D01*
X58746573Y-34407153D01*
X58738895Y-34410564D01*
X58582432Y-34418518D01*
X58563091Y-34419501D01*
X58563090Y-34419501D01*
X58562738Y-34419519D01*
X58409031Y-34446492D01*
X58281555Y-34488538D01*
X58281180Y-34488727D01*
X58281173Y-34488730D01*
X58213757Y-34522723D01*
X58172991Y-34543278D01*
X58117036Y-34580814D01*
X58076205Y-34608203D01*
X58076196Y-34608210D01*
X58076015Y-34608331D01*
X57983306Y-34681317D01*
X57983267Y-34681349D01*
X57887665Y-34759757D01*
X57887382Y-34759981D01*
X57781722Y-34841326D01*
X57781072Y-34841792D01*
X57658001Y-34923789D01*
X57657102Y-34924331D01*
X57516236Y-35000909D01*
X57507331Y-35001850D01*
X57502538Y-34999063D01*
X56927856Y-34446419D01*
X56768769Y-34293433D01*
X56765181Y-34285229D01*
X56768769Y-34276567D01*
X56889985Y-34160000D01*
X57253923Y-33810018D01*
X57502538Y-33570937D01*
X57510877Y-33567672D01*
X57516237Y-33569091D01*
G37*
%TD.AperFunction*%
%TD*%
%TA.AperFunction,Conductor*%
%TO.N,RST+*%
G36*
X71391694Y-32722983D02*
G01*
X71395282Y-32731645D01*
X71391719Y-32913912D01*
X71383320Y-33343588D01*
X71374117Y-33814353D01*
X71370529Y-33822557D01*
X71365726Y-33825346D01*
X71271345Y-33853149D01*
X71201087Y-33873845D01*
X71200043Y-33874101D01*
X71045241Y-33904608D01*
X71044428Y-33904739D01*
X70903205Y-33922366D01*
X70902827Y-33922407D01*
X70848020Y-33927447D01*
X70771411Y-33934492D01*
X70771384Y-33934495D01*
X70646521Y-33948362D01*
X70646512Y-33948363D01*
X70646308Y-33948386D01*
X70646093Y-33948426D01*
X70646090Y-33948427D01*
X70613751Y-33954528D01*
X70523993Y-33971461D01*
X70523655Y-33971570D01*
X70523650Y-33971571D01*
X70501762Y-33978613D01*
X70400754Y-34011109D01*
X70336500Y-34043073D01*
X70273277Y-34074523D01*
X70273272Y-34074526D01*
X70272880Y-34074721D01*
X70136659Y-34169686D01*
X70136388Y-34169931D01*
X70136386Y-34169932D01*
X69996630Y-34295957D01*
X69988191Y-34298952D01*
X69980522Y-34295541D01*
X69819459Y-34134478D01*
X69816032Y-34126205D01*
X69819043Y-34118370D01*
X69945067Y-33978613D01*
X69945068Y-33978611D01*
X69945313Y-33978340D01*
X70040278Y-33842119D01*
X70040473Y-33841727D01*
X70040476Y-33841722D01*
X70071926Y-33778499D01*
X70103890Y-33714245D01*
X70143538Y-33591006D01*
X70166613Y-33468691D01*
X70180507Y-33343588D01*
X70192592Y-33212172D01*
X70192633Y-33211794D01*
X70210260Y-33070571D01*
X70210391Y-33069758D01*
X70240898Y-32914956D01*
X70241154Y-32913912D01*
X70289653Y-32749275D01*
X70295278Y-32742307D01*
X70300645Y-32740883D01*
X71061851Y-32726003D01*
X71383355Y-32719718D01*
X71391694Y-32722983D01*
G37*
%TD.AperFunction*%
%TD*%
%TA.AperFunction,Conductor*%
%TO.N,PLED+*%
G36*
X71391694Y-37802983D02*
G01*
X71395282Y-37811645D01*
X71374117Y-38894323D01*
X71370529Y-38902527D01*
X71365688Y-38905328D01*
X71198955Y-38953853D01*
X71197831Y-38954121D01*
X71040992Y-38983371D01*
X71040101Y-38983502D01*
X70985102Y-38989430D01*
X70896899Y-38998935D01*
X70896486Y-38998972D01*
X70763143Y-39008244D01*
X70636402Y-39019016D01*
X70636392Y-39019017D01*
X70636183Y-39019035D01*
X70635982Y-39019067D01*
X70635969Y-39019069D01*
X70512485Y-39038988D01*
X70512483Y-39038989D01*
X70512114Y-39039048D01*
X70511757Y-39039154D01*
X70511751Y-39039155D01*
X70392511Y-39074442D01*
X70387233Y-39076004D01*
X70386815Y-39076203D01*
X70386810Y-39076205D01*
X70304539Y-39115383D01*
X70257840Y-39137622D01*
X70120229Y-39231620D01*
X69978950Y-39358323D01*
X69970504Y-39361295D01*
X69962866Y-39357885D01*
X69837115Y-39232134D01*
X69833688Y-39223861D01*
X69836677Y-39216050D01*
X69963379Y-39074770D01*
X70057377Y-38937159D01*
X70118995Y-38807766D01*
X70155951Y-38682885D01*
X70156011Y-38682514D01*
X70175930Y-38559030D01*
X70175932Y-38559017D01*
X70175964Y-38558816D01*
X70186755Y-38431856D01*
X70196027Y-38298513D01*
X70196065Y-38298086D01*
X70211497Y-38154898D01*
X70211628Y-38154007D01*
X70240877Y-37997170D01*
X70241145Y-37996045D01*
X70289672Y-37829311D01*
X70295274Y-37822326D01*
X70300677Y-37820883D01*
X71383355Y-37799718D01*
X71391694Y-37802983D01*
G37*
%TD.AperFunction*%
%TD*%
%TA.AperFunction,Conductor*%
%TO.N,PLED+*%
G36*
X61057185Y-49213427D02*
G01*
X61060595Y-49221072D01*
X61070128Y-49398407D01*
X61098767Y-49552406D01*
X61143298Y-49679544D01*
X61201101Y-49787366D01*
X61269559Y-49883419D01*
X61269700Y-49883588D01*
X61346013Y-49975205D01*
X61346101Y-49975308D01*
X61427818Y-50070240D01*
X61428092Y-50070570D01*
X61512391Y-50176086D01*
X61512916Y-50176796D01*
X61597234Y-50300410D01*
X61597828Y-50301379D01*
X61675868Y-50443751D01*
X61676839Y-50452653D01*
X61674041Y-50457485D01*
X60968433Y-51191231D01*
X60960229Y-51194819D01*
X60951567Y-51191231D01*
X60245959Y-50457485D01*
X60242694Y-50449146D01*
X60244132Y-50443751D01*
X60322171Y-50301379D01*
X60322765Y-50300410D01*
X60407083Y-50176796D01*
X60407608Y-50176086D01*
X60491907Y-50070570D01*
X60492181Y-50070240D01*
X60573898Y-49975308D01*
X60573986Y-49975205D01*
X60650299Y-49883588D01*
X60650440Y-49883419D01*
X60718898Y-49787366D01*
X60776701Y-49679544D01*
X60821232Y-49552406D01*
X60849871Y-49398407D01*
X60859405Y-49221072D01*
X60863271Y-49212995D01*
X60871088Y-49210000D01*
X61048912Y-49210000D01*
X61057185Y-49213427D01*
G37*
%TD.AperFunction*%
%TD*%
%TA.AperFunction,Conductor*%
%TO.N,Net-(R1-Pad2)*%
G36*
X49197462Y-29765937D02*
G01*
X49446077Y-30005018D01*
X49810016Y-30355000D01*
X49931231Y-30471567D01*
X49934819Y-30479771D01*
X49931231Y-30488433D01*
X49772144Y-30641419D01*
X49197462Y-31194063D01*
X49189123Y-31197328D01*
X49183764Y-31195909D01*
X49042897Y-31119331D01*
X49041998Y-31118789D01*
X48918927Y-31036792D01*
X48918277Y-31036326D01*
X48812617Y-30954981D01*
X48812334Y-30954757D01*
X48716732Y-30876349D01*
X48716693Y-30876317D01*
X48623984Y-30803331D01*
X48623803Y-30803210D01*
X48623794Y-30803203D01*
X48582963Y-30775814D01*
X48527008Y-30738278D01*
X48486242Y-30717723D01*
X48418826Y-30683730D01*
X48418819Y-30683727D01*
X48418444Y-30683538D01*
X48290968Y-30641492D01*
X48137261Y-30614519D01*
X48136909Y-30614501D01*
X48136908Y-30614501D01*
X48117482Y-30613514D01*
X47961105Y-30605564D01*
X47953018Y-30601722D01*
X47950000Y-30593880D01*
X47950000Y-30366120D01*
X47953427Y-30357847D01*
X47961105Y-30354435D01*
X48115559Y-30346583D01*
X48136908Y-30345498D01*
X48136909Y-30345498D01*
X48137261Y-30345480D01*
X48290968Y-30318507D01*
X48418444Y-30276461D01*
X48418819Y-30276272D01*
X48418826Y-30276269D01*
X48486242Y-30242276D01*
X48527008Y-30221721D01*
X48582963Y-30184185D01*
X48623794Y-30156796D01*
X48623803Y-30156789D01*
X48623984Y-30156668D01*
X48716693Y-30083682D01*
X48812336Y-30005240D01*
X48812617Y-30005018D01*
X48918277Y-29923673D01*
X48918927Y-29923207D01*
X49041997Y-29841211D01*
X49042896Y-29840669D01*
X49183764Y-29764091D01*
X49192669Y-29763150D01*
X49197462Y-29765937D01*
G37*
%TD.AperFunction*%
%TD*%
%TA.AperFunction,Conductor*%
%TO.N,IDLE_LED+*%
G36*
X71391694Y-42882983D02*
G01*
X71395282Y-42891645D01*
X71374117Y-43974323D01*
X71370529Y-43982527D01*
X71365688Y-43985328D01*
X71198955Y-44033853D01*
X71197831Y-44034121D01*
X71040992Y-44063371D01*
X71040101Y-44063502D01*
X70985102Y-44069430D01*
X70896899Y-44078935D01*
X70896486Y-44078972D01*
X70763143Y-44088244D01*
X70636402Y-44099016D01*
X70636392Y-44099017D01*
X70636183Y-44099035D01*
X70635982Y-44099067D01*
X70635969Y-44099069D01*
X70512485Y-44118988D01*
X70512483Y-44118989D01*
X70512114Y-44119048D01*
X70511757Y-44119154D01*
X70511751Y-44119155D01*
X70392511Y-44154442D01*
X70387233Y-44156004D01*
X70386815Y-44156203D01*
X70386810Y-44156205D01*
X70304539Y-44195383D01*
X70257840Y-44217622D01*
X70120229Y-44311620D01*
X69978950Y-44438323D01*
X69970504Y-44441295D01*
X69962866Y-44437885D01*
X69837115Y-44312134D01*
X69833688Y-44303861D01*
X69836677Y-44296050D01*
X69963379Y-44154770D01*
X70057377Y-44017159D01*
X70118995Y-43887766D01*
X70155951Y-43762885D01*
X70156011Y-43762514D01*
X70175930Y-43639030D01*
X70175932Y-43639017D01*
X70175964Y-43638816D01*
X70186755Y-43511856D01*
X70196027Y-43378513D01*
X70196065Y-43378086D01*
X70211497Y-43234898D01*
X70211628Y-43234007D01*
X70240877Y-43077170D01*
X70241145Y-43076045D01*
X70289672Y-42909311D01*
X70295274Y-42902326D01*
X70300677Y-42900883D01*
X71383355Y-42879718D01*
X71391694Y-42882983D01*
G37*
%TD.AperFunction*%
%TD*%
%TA.AperFunction,Conductor*%
%TO.N,IDLE_LED+*%
G36*
X66137185Y-49213427D02*
G01*
X66140595Y-49221072D01*
X66150128Y-49398407D01*
X66178767Y-49552406D01*
X66223298Y-49679544D01*
X66281101Y-49787366D01*
X66349559Y-49883419D01*
X66349700Y-49883588D01*
X66426013Y-49975205D01*
X66426101Y-49975308D01*
X66507818Y-50070240D01*
X66508092Y-50070570D01*
X66592391Y-50176086D01*
X66592916Y-50176796D01*
X66677234Y-50300410D01*
X66677828Y-50301379D01*
X66755868Y-50443751D01*
X66756839Y-50452653D01*
X66754041Y-50457485D01*
X66048433Y-51191231D01*
X66040229Y-51194819D01*
X66031567Y-51191231D01*
X65325959Y-50457485D01*
X65322694Y-50449146D01*
X65324132Y-50443751D01*
X65402171Y-50301379D01*
X65402765Y-50300410D01*
X65487083Y-50176796D01*
X65487608Y-50176086D01*
X65571907Y-50070570D01*
X65572181Y-50070240D01*
X65653898Y-49975308D01*
X65653986Y-49975205D01*
X65730299Y-49883588D01*
X65730440Y-49883419D01*
X65798898Y-49787366D01*
X65856701Y-49679544D01*
X65901232Y-49552406D01*
X65929871Y-49398407D01*
X65939405Y-49221072D01*
X65943271Y-49212995D01*
X65951088Y-49210000D01*
X66128912Y-49210000D01*
X66137185Y-49213427D01*
G37*
%TD.AperFunction*%
%TD*%
%TA.AperFunction,Conductor*%
%TO.N,Net-(R5-Pad1)*%
G36*
X58188776Y-43250178D02*
G01*
X58349822Y-43411224D01*
X58353249Y-43419497D01*
X58350230Y-43427340D01*
X58231472Y-43558743D01*
X58141355Y-43686931D01*
X58141164Y-43687307D01*
X58141164Y-43687308D01*
X58080654Y-43806778D01*
X58080652Y-43806784D01*
X58080459Y-43807164D01*
X58041904Y-43922951D01*
X58018811Y-44037803D01*
X58018783Y-44038032D01*
X58004314Y-44155122D01*
X58004295Y-44155286D01*
X57991514Y-44278570D01*
X57991471Y-44278929D01*
X57973567Y-44411472D01*
X57973437Y-44412231D01*
X57943586Y-44557565D01*
X57943329Y-44558580D01*
X57896982Y-44712703D01*
X57891318Y-44719639D01*
X57885955Y-44721033D01*
X56868066Y-44736395D01*
X56859742Y-44733093D01*
X56856192Y-44724415D01*
X56880625Y-43706705D01*
X56884250Y-43698517D01*
X56889051Y-43695752D01*
X57043176Y-43650877D01*
X57044188Y-43650631D01*
X57189482Y-43622037D01*
X57190261Y-43621911D01*
X57322751Y-43605016D01*
X57323099Y-43604977D01*
X57375400Y-43599891D01*
X57446341Y-43592993D01*
X57446383Y-43592988D01*
X57446403Y-43592986D01*
X57563405Y-43579145D01*
X57563406Y-43579145D01*
X57563633Y-43579118D01*
X57563852Y-43579075D01*
X57563864Y-43579073D01*
X57661190Y-43559904D01*
X57678304Y-43556533D01*
X57713479Y-43544925D01*
X57793453Y-43518532D01*
X57793457Y-43518530D01*
X57793861Y-43518397D01*
X57913810Y-43457875D01*
X57969061Y-43419089D01*
X58041368Y-43368329D01*
X58041369Y-43368328D01*
X58041657Y-43368126D01*
X58172206Y-43250178D01*
X58172659Y-43249769D01*
X58181096Y-43246766D01*
X58188776Y-43250178D01*
G37*
%TD.AperFunction*%
%TD*%
%TA.AperFunction,Conductor*%
%TO.N,Net-(R5-Pad1)*%
G36*
X61239016Y-40360661D02*
G01*
X61242604Y-40369323D01*
X61222707Y-41387130D01*
X61219119Y-41395334D01*
X61214326Y-41398121D01*
X61060564Y-41443581D01*
X61059545Y-41443833D01*
X60939380Y-41467902D01*
X60914542Y-41472877D01*
X60913759Y-41473005D01*
X60781477Y-41490205D01*
X60781164Y-41490241D01*
X60658072Y-41502404D01*
X60540908Y-41516349D01*
X60426337Y-41538922D01*
X60310864Y-41576982D01*
X60190994Y-41637390D01*
X60063234Y-41727004D01*
X59986847Y-41796001D01*
X59932341Y-41845233D01*
X59923905Y-41848236D01*
X59916226Y-41844824D01*
X59755176Y-41683774D01*
X59751749Y-41675501D01*
X59754766Y-41667660D01*
X59872995Y-41536765D01*
X59905656Y-41490202D01*
X59962369Y-41409347D01*
X59962609Y-41409005D01*
X60023017Y-41289135D01*
X60061077Y-41173662D01*
X60083650Y-41059091D01*
X60097595Y-40941927D01*
X60109758Y-40818835D01*
X60109797Y-40818496D01*
X60126993Y-40686243D01*
X60127123Y-40685454D01*
X60156166Y-40540454D01*
X60156418Y-40539435D01*
X60201879Y-40385674D01*
X60207511Y-40378712D01*
X60212870Y-40377293D01*
X61230677Y-40357396D01*
X61239016Y-40360661D01*
G37*
%TD.AperFunction*%
%TD*%
%TA.AperFunction,Conductor*%
%TO.N,Net-(R6-Pad1)*%
G36*
X57795013Y-50638871D02*
G01*
X57956020Y-50799878D01*
X57959447Y-50808151D01*
X57956535Y-50815875D01*
X57867071Y-50917655D01*
X57866759Y-50918010D01*
X57801666Y-51021814D01*
X57764224Y-51121296D01*
X57750156Y-51218700D01*
X57755187Y-51316273D01*
X57755268Y-51316683D01*
X57755269Y-51316688D01*
X57773478Y-51408383D01*
X57775042Y-51416260D01*
X57805444Y-51520907D01*
X57805475Y-51521002D01*
X57805482Y-51521024D01*
X57842117Y-51632461D01*
X57842144Y-51632546D01*
X57880709Y-51752928D01*
X57880847Y-51753390D01*
X57914943Y-51877165D01*
X57913836Y-51886051D01*
X57910205Y-51889972D01*
X57345066Y-52271121D01*
X57073596Y-52454210D01*
X57067014Y-52458649D01*
X57058239Y-52460434D01*
X57050772Y-52455491D01*
X57050022Y-52454210D01*
X56578266Y-51517163D01*
X56577606Y-51508233D01*
X56580750Y-51503333D01*
X56707036Y-51385927D01*
X56707745Y-51385319D01*
X56828445Y-51289868D01*
X56829194Y-51289322D01*
X56941689Y-51214032D01*
X56942324Y-51213636D01*
X57050137Y-51151069D01*
X57050475Y-51150880D01*
X57157128Y-51093617D01*
X57265707Y-51034449D01*
X57265709Y-51034448D01*
X57265828Y-51034383D01*
X57287567Y-51021315D01*
X57379616Y-50965983D01*
X57379629Y-50965975D01*
X57379788Y-50965879D01*
X57502385Y-50880716D01*
X57636997Y-50771505D01*
X57778738Y-50638609D01*
X57787117Y-50635450D01*
X57795013Y-50638871D01*
G37*
%TD.AperFunction*%
%TD*%
%TA.AperFunction,Conductor*%
%TO.N,Net-(R6-Pad1)*%
G36*
X66048433Y-40248769D02*
G01*
X66754063Y-40982538D01*
X66757328Y-40990877D01*
X66755909Y-40996236D01*
X66679331Y-41137102D01*
X66678789Y-41138001D01*
X66596792Y-41261072D01*
X66596326Y-41261722D01*
X66514981Y-41367382D01*
X66514759Y-41367663D01*
X66436317Y-41463306D01*
X66363331Y-41556015D01*
X66363210Y-41556196D01*
X66363203Y-41556205D01*
X66335814Y-41597036D01*
X66298278Y-41652991D01*
X66298115Y-41653315D01*
X66243730Y-41761173D01*
X66243727Y-41761180D01*
X66243538Y-41761555D01*
X66201492Y-41889031D01*
X66174519Y-42042738D01*
X66174501Y-42043090D01*
X66174501Y-42043091D01*
X66165565Y-42218894D01*
X66161723Y-42226982D01*
X66153880Y-42230000D01*
X65926120Y-42230000D01*
X65917847Y-42226573D01*
X65914435Y-42218894D01*
X65905498Y-42043091D01*
X65905498Y-42043090D01*
X65905480Y-42042738D01*
X65878507Y-41889031D01*
X65836461Y-41761555D01*
X65836272Y-41761180D01*
X65836269Y-41761173D01*
X65781884Y-41653315D01*
X65781721Y-41652991D01*
X65744185Y-41597036D01*
X65716796Y-41556205D01*
X65716789Y-41556196D01*
X65716668Y-41556015D01*
X65643682Y-41463306D01*
X65565240Y-41367663D01*
X65565018Y-41367382D01*
X65483673Y-41261722D01*
X65483207Y-41261072D01*
X65467363Y-41237291D01*
X65401202Y-41137989D01*
X65400676Y-41137116D01*
X65324091Y-40996236D01*
X65323150Y-40987331D01*
X65325937Y-40982538D01*
X66031567Y-40248769D01*
X66039771Y-40245181D01*
X66048433Y-40248769D01*
G37*
%TD.AperFunction*%
%TD*%
%TA.AperFunction,Conductor*%
%TO.N,Net-(R1-Pad2)*%
G36*
X46076237Y-29764091D02*
G01*
X46217116Y-29840676D01*
X46217989Y-29841202D01*
X46317291Y-29907363D01*
X46341072Y-29923207D01*
X46341722Y-29923673D01*
X46447382Y-30005018D01*
X46447663Y-30005240D01*
X46543306Y-30083682D01*
X46636015Y-30156668D01*
X46636196Y-30156789D01*
X46636205Y-30156796D01*
X46677036Y-30184185D01*
X46732991Y-30221721D01*
X46773757Y-30242276D01*
X46841173Y-30276269D01*
X46841180Y-30276272D01*
X46841555Y-30276461D01*
X46969031Y-30318507D01*
X47122738Y-30345480D01*
X47123090Y-30345498D01*
X47123091Y-30345498D01*
X47144330Y-30346578D01*
X47298895Y-30354435D01*
X47306983Y-30358278D01*
X47310000Y-30366120D01*
X47310000Y-30593880D01*
X47306573Y-30602153D01*
X47298895Y-30605564D01*
X47142432Y-30613518D01*
X47123091Y-30614501D01*
X47123090Y-30614501D01*
X47122738Y-30614519D01*
X46969031Y-30641492D01*
X46841555Y-30683538D01*
X46841180Y-30683727D01*
X46841173Y-30683730D01*
X46773757Y-30717723D01*
X46732991Y-30738278D01*
X46677036Y-30775814D01*
X46636205Y-30803203D01*
X46636196Y-30803210D01*
X46636015Y-30803331D01*
X46543306Y-30876317D01*
X46543267Y-30876349D01*
X46447665Y-30954757D01*
X46447382Y-30954981D01*
X46341722Y-31036326D01*
X46341072Y-31036792D01*
X46218001Y-31118789D01*
X46217102Y-31119331D01*
X46076236Y-31195909D01*
X46067331Y-31196850D01*
X46062538Y-31194063D01*
X45487856Y-30641419D01*
X45328769Y-30488433D01*
X45325181Y-30480229D01*
X45328769Y-30471567D01*
X45449985Y-30355000D01*
X45813923Y-30005018D01*
X46062538Y-29765937D01*
X46070877Y-29762672D01*
X46076237Y-29764091D01*
G37*
%TD.AperFunction*%
%TD*%
%TA.AperFunction,Conductor*%
%TO.N,PLED*%
G36*
X34134478Y-46994459D02*
G01*
X34295541Y-47155522D01*
X34298968Y-47163795D01*
X34295957Y-47171630D01*
X34199114Y-47279025D01*
X34169686Y-47311659D01*
X34074721Y-47447880D01*
X34074526Y-47448272D01*
X34074523Y-47448277D01*
X34064989Y-47467443D01*
X34011109Y-47575754D01*
X33971461Y-47698993D01*
X33948386Y-47821308D01*
X33948363Y-47821512D01*
X33948362Y-47821521D01*
X33934492Y-47946411D01*
X33934483Y-47946504D01*
X33922407Y-48077827D01*
X33922366Y-48078205D01*
X33904739Y-48219428D01*
X33904608Y-48220241D01*
X33874101Y-48375043D01*
X33873845Y-48376087D01*
X33825347Y-48540725D01*
X33819722Y-48547693D01*
X33814355Y-48549117D01*
X33053149Y-48563997D01*
X32731645Y-48570282D01*
X32723306Y-48567017D01*
X32719718Y-48558355D01*
X32729108Y-48078015D01*
X32740883Y-47475646D01*
X32744471Y-47467443D01*
X32749274Y-47464654D01*
X32837282Y-47438728D01*
X32913912Y-47416154D01*
X32914956Y-47415898D01*
X33069758Y-47385391D01*
X33070571Y-47385260D01*
X33211794Y-47367633D01*
X33212172Y-47367592D01*
X33266979Y-47362552D01*
X33343588Y-47355507D01*
X33344109Y-47355449D01*
X33468478Y-47341637D01*
X33468487Y-47341636D01*
X33468691Y-47341613D01*
X33468906Y-47341573D01*
X33468909Y-47341572D01*
X33501248Y-47335471D01*
X33591006Y-47318538D01*
X33591344Y-47318429D01*
X33591349Y-47318428D01*
X33645322Y-47301064D01*
X33714245Y-47278890D01*
X33778499Y-47246926D01*
X33841722Y-47215476D01*
X33841727Y-47215473D01*
X33842119Y-47215278D01*
X33978340Y-47120313D01*
X33978613Y-47120067D01*
X34118370Y-46994043D01*
X34126809Y-46991048D01*
X34134478Y-46994459D01*
G37*
%TD.AperFunction*%
%TD*%
%TA.AperFunction,Conductor*%
%TO.N,PLED*%
G36*
X46076237Y-42464091D02*
G01*
X46217116Y-42540676D01*
X46217989Y-42541202D01*
X46317291Y-42607363D01*
X46341072Y-42623207D01*
X46341722Y-42623673D01*
X46447382Y-42705018D01*
X46447663Y-42705240D01*
X46543306Y-42783682D01*
X46636015Y-42856668D01*
X46636196Y-42856789D01*
X46636205Y-42856796D01*
X46677036Y-42884185D01*
X46732991Y-42921721D01*
X46773757Y-42942276D01*
X46841173Y-42976269D01*
X46841180Y-42976272D01*
X46841555Y-42976461D01*
X46969031Y-43018507D01*
X47122738Y-43045480D01*
X47123090Y-43045498D01*
X47123091Y-43045498D01*
X47144330Y-43046578D01*
X47298895Y-43054435D01*
X47306983Y-43058278D01*
X47310000Y-43066120D01*
X47310000Y-43293880D01*
X47306573Y-43302153D01*
X47298895Y-43305564D01*
X47142432Y-43313518D01*
X47123091Y-43314501D01*
X47123090Y-43314501D01*
X47122738Y-43314519D01*
X46969031Y-43341492D01*
X46841555Y-43383538D01*
X46841180Y-43383727D01*
X46841173Y-43383730D01*
X46773757Y-43417723D01*
X46732991Y-43438278D01*
X46677036Y-43475814D01*
X46636205Y-43503203D01*
X46636196Y-43503210D01*
X46636015Y-43503331D01*
X46543306Y-43576317D01*
X46543267Y-43576349D01*
X46447665Y-43654757D01*
X46447382Y-43654981D01*
X46341722Y-43736326D01*
X46341072Y-43736792D01*
X46218001Y-43818789D01*
X46217102Y-43819331D01*
X46076236Y-43895909D01*
X46067331Y-43896850D01*
X46062538Y-43894063D01*
X45721679Y-43566275D01*
X45721678Y-43566275D01*
X45320000Y-43180000D01*
X45720000Y-42795339D01*
X45813923Y-42705018D01*
X46062538Y-42465937D01*
X46070877Y-42462672D01*
X46076237Y-42464091D01*
G37*
%TD.AperFunction*%
%TD*%
%TA.AperFunction,Conductor*%
%TO.N,PLED*%
G36*
X45377462Y-42465937D02*
G01*
X45718321Y-42793725D01*
X45718322Y-42793725D01*
X46120000Y-43180000D01*
X45720000Y-43564661D01*
X45718408Y-43566192D01*
X45377462Y-43894063D01*
X45369123Y-43897328D01*
X45363764Y-43895909D01*
X45222897Y-43819331D01*
X45221998Y-43818789D01*
X45098927Y-43736792D01*
X45098277Y-43736326D01*
X44992617Y-43654981D01*
X44992334Y-43654757D01*
X44896732Y-43576349D01*
X44896693Y-43576317D01*
X44803984Y-43503331D01*
X44803803Y-43503210D01*
X44803794Y-43503203D01*
X44762963Y-43475814D01*
X44707008Y-43438278D01*
X44666242Y-43417723D01*
X44598826Y-43383730D01*
X44598819Y-43383727D01*
X44598444Y-43383538D01*
X44470968Y-43341492D01*
X44317261Y-43314519D01*
X44316909Y-43314501D01*
X44316908Y-43314501D01*
X44297482Y-43313514D01*
X44141105Y-43305564D01*
X44133018Y-43301722D01*
X44130000Y-43293880D01*
X44130000Y-43066120D01*
X44133427Y-43057847D01*
X44141105Y-43054435D01*
X44295559Y-43046583D01*
X44316908Y-43045498D01*
X44316909Y-43045498D01*
X44317261Y-43045480D01*
X44470968Y-43018507D01*
X44598444Y-42976461D01*
X44598819Y-42976272D01*
X44598826Y-42976269D01*
X44666242Y-42942276D01*
X44707008Y-42921721D01*
X44762963Y-42884185D01*
X44803794Y-42856796D01*
X44803803Y-42856789D01*
X44803984Y-42856668D01*
X44896693Y-42783682D01*
X44992336Y-42705240D01*
X44992617Y-42705018D01*
X45098277Y-42623673D01*
X45098927Y-42623207D01*
X45221997Y-42541211D01*
X45222896Y-42540669D01*
X45363764Y-42464091D01*
X45372669Y-42463150D01*
X45377462Y-42465937D01*
G37*
%TD.AperFunction*%
%TD*%
%TA.AperFunction,Conductor*%
%TO.N,PLED*%
G36*
X49799016Y-41635661D02*
G01*
X49802604Y-41644323D01*
X49782707Y-42662130D01*
X49779119Y-42670334D01*
X49774326Y-42673121D01*
X49620564Y-42718581D01*
X49619545Y-42718833D01*
X49499380Y-42742902D01*
X49474542Y-42747877D01*
X49473759Y-42748005D01*
X49341477Y-42765205D01*
X49341164Y-42765241D01*
X49218072Y-42777404D01*
X49100908Y-42791349D01*
X48986337Y-42813922D01*
X48870864Y-42851982D01*
X48750994Y-42912390D01*
X48623234Y-43002004D01*
X48546847Y-43071001D01*
X48492341Y-43120233D01*
X48483905Y-43123236D01*
X48476226Y-43119824D01*
X48315176Y-42958774D01*
X48311749Y-42950501D01*
X48314766Y-42942660D01*
X48432995Y-42811765D01*
X48465656Y-42765202D01*
X48522369Y-42684347D01*
X48522609Y-42684005D01*
X48583017Y-42564135D01*
X48621077Y-42448662D01*
X48643650Y-42334091D01*
X48657595Y-42216927D01*
X48669758Y-42093835D01*
X48669797Y-42093496D01*
X48686993Y-41961243D01*
X48687123Y-41960454D01*
X48716166Y-41815454D01*
X48716418Y-41814435D01*
X48761879Y-41660674D01*
X48767511Y-41653712D01*
X48772870Y-41652293D01*
X49790677Y-41632396D01*
X49799016Y-41635661D01*
G37*
%TD.AperFunction*%
%TD*%
%TA.AperFunction,Conductor*%
%TO.N,IDLE_LED*%
G36*
X30513149Y-45436003D02*
G01*
X31274354Y-45450883D01*
X31282557Y-45454471D01*
X31285347Y-45459275D01*
X31333845Y-45623912D01*
X31334101Y-45624956D01*
X31364608Y-45779758D01*
X31364739Y-45780571D01*
X31382366Y-45921794D01*
X31382407Y-45922172D01*
X31394492Y-46053588D01*
X31408386Y-46178691D01*
X31431461Y-46301006D01*
X31471109Y-46424245D01*
X31503073Y-46488499D01*
X31534523Y-46551722D01*
X31534526Y-46551727D01*
X31534721Y-46552119D01*
X31629686Y-46688340D01*
X31629931Y-46688611D01*
X31629932Y-46688613D01*
X31755957Y-46828370D01*
X31758952Y-46836809D01*
X31755541Y-46844478D01*
X31594478Y-47005541D01*
X31586205Y-47008968D01*
X31578370Y-47005957D01*
X31438613Y-46879932D01*
X31438611Y-46879931D01*
X31438340Y-46879686D01*
X31302119Y-46784721D01*
X31301727Y-46784526D01*
X31301722Y-46784523D01*
X31238499Y-46753073D01*
X31174245Y-46721109D01*
X31073237Y-46688613D01*
X31051349Y-46681571D01*
X31051344Y-46681570D01*
X31051006Y-46681461D01*
X30961248Y-46664528D01*
X30928909Y-46658427D01*
X30928906Y-46658426D01*
X30928691Y-46658386D01*
X30928487Y-46658363D01*
X30928478Y-46658362D01*
X30803615Y-46644495D01*
X30803588Y-46644492D01*
X30726979Y-46637447D01*
X30672172Y-46632407D01*
X30671794Y-46632366D01*
X30530571Y-46614739D01*
X30529758Y-46614608D01*
X30374956Y-46584101D01*
X30373912Y-46583845D01*
X30267437Y-46552480D01*
X30209274Y-46535346D01*
X30202307Y-46529722D01*
X30200883Y-46524353D01*
X30191681Y-46053588D01*
X30183281Y-45623912D01*
X30179718Y-45441645D01*
X30182983Y-45433306D01*
X30191645Y-45429718D01*
X30513149Y-45436003D01*
G37*
%TD.AperFunction*%
%TD*%
%TA.AperFunction,Conductor*%
%TO.N,IDLE_LED*%
G36*
X46076237Y-47544091D02*
G01*
X46217116Y-47620676D01*
X46217989Y-47621202D01*
X46317291Y-47687363D01*
X46341072Y-47703207D01*
X46341722Y-47703673D01*
X46447382Y-47785018D01*
X46447663Y-47785240D01*
X46543306Y-47863682D01*
X46636015Y-47936668D01*
X46636196Y-47936789D01*
X46636205Y-47936796D01*
X46677036Y-47964185D01*
X46732991Y-48001721D01*
X46773757Y-48022276D01*
X46841173Y-48056269D01*
X46841180Y-48056272D01*
X46841555Y-48056461D01*
X46969031Y-48098507D01*
X47122738Y-48125480D01*
X47123090Y-48125498D01*
X47123091Y-48125498D01*
X47144330Y-48126578D01*
X47298895Y-48134435D01*
X47306983Y-48138278D01*
X47310000Y-48146120D01*
X47310000Y-48373880D01*
X47306573Y-48382153D01*
X47298895Y-48385564D01*
X47142432Y-48393518D01*
X47123091Y-48394501D01*
X47123090Y-48394501D01*
X47122738Y-48394519D01*
X46969031Y-48421492D01*
X46841555Y-48463538D01*
X46841180Y-48463727D01*
X46841173Y-48463730D01*
X46773757Y-48497723D01*
X46732991Y-48518278D01*
X46677036Y-48555814D01*
X46636205Y-48583203D01*
X46636196Y-48583210D01*
X46636015Y-48583331D01*
X46543306Y-48656317D01*
X46543267Y-48656349D01*
X46447665Y-48734757D01*
X46447382Y-48734981D01*
X46341722Y-48816326D01*
X46341072Y-48816792D01*
X46218001Y-48898789D01*
X46217106Y-48899329D01*
X46202702Y-48907159D01*
X46076236Y-48975909D01*
X46067331Y-48976850D01*
X46062538Y-48974063D01*
X45986494Y-48900935D01*
X45986493Y-48900934D01*
X45320000Y-48260000D01*
X45606054Y-47984915D01*
X45606055Y-47984915D01*
X45732122Y-47863682D01*
X46062538Y-47545937D01*
X46070877Y-47542672D01*
X46076237Y-47544091D01*
G37*
%TD.AperFunction*%
%TD*%
%TA.AperFunction,Conductor*%
%TO.N,IDLE_LED*%
G36*
X45984815Y-48899321D02*
G01*
X45984772Y-48901528D01*
X45982707Y-49007130D01*
X45979119Y-49015334D01*
X45974326Y-49018121D01*
X45820564Y-49063581D01*
X45819545Y-49063833D01*
X45699380Y-49087902D01*
X45674542Y-49092877D01*
X45673759Y-49093005D01*
X45541477Y-49110205D01*
X45541164Y-49110241D01*
X45418072Y-49122404D01*
X45300908Y-49136349D01*
X45186337Y-49158922D01*
X45070864Y-49196982D01*
X44950994Y-49257390D01*
X44823234Y-49347004D01*
X44746847Y-49416001D01*
X44692341Y-49465233D01*
X44683905Y-49468236D01*
X44676226Y-49464824D01*
X44515176Y-49303774D01*
X44511749Y-49295501D01*
X44514766Y-49287660D01*
X44632995Y-49156765D01*
X44665656Y-49110202D01*
X44722369Y-49029347D01*
X44722609Y-49029005D01*
X44783017Y-48909135D01*
X44821077Y-48793662D01*
X44843650Y-48679091D01*
X44857595Y-48561927D01*
X44869758Y-48438835D01*
X44869797Y-48438496D01*
X44886993Y-48306243D01*
X44887123Y-48305454D01*
X44916166Y-48160454D01*
X44916418Y-48159435D01*
X44961879Y-48005674D01*
X44967511Y-47998712D01*
X44972870Y-47997293D01*
X45435036Y-47988258D01*
X45606055Y-47984915D01*
X46002842Y-47977158D01*
X45984815Y-48899321D01*
G37*
%TD.AperFunction*%
%TD*%
%TA.AperFunction,Conductor*%
%TO.N,IDLE_LED*%
G36*
X48492341Y-48329767D02*
G01*
X48622957Y-48447746D01*
X48622968Y-48447755D01*
X48623234Y-48447995D01*
X48750994Y-48537609D01*
X48870864Y-48598017D01*
X48986337Y-48636077D01*
X49100908Y-48658650D01*
X49218072Y-48672595D01*
X49341164Y-48684758D01*
X49341477Y-48684794D01*
X49473759Y-48701994D01*
X49474542Y-48702122D01*
X49499380Y-48707097D01*
X49619545Y-48731166D01*
X49620564Y-48731418D01*
X49774326Y-48776879D01*
X49781288Y-48782511D01*
X49782707Y-48787870D01*
X49802604Y-49805677D01*
X49799339Y-49814016D01*
X49790677Y-49817604D01*
X48772870Y-49797707D01*
X48764666Y-49794119D01*
X48761879Y-49789326D01*
X48716418Y-49635564D01*
X48716166Y-49634545D01*
X48687123Y-49489545D01*
X48686993Y-49488756D01*
X48669797Y-49356503D01*
X48669756Y-49356144D01*
X48657605Y-49233175D01*
X48657595Y-49233072D01*
X48643650Y-49115908D01*
X48621077Y-49001337D01*
X48583017Y-48885864D01*
X48522609Y-48765994D01*
X48477717Y-48701993D01*
X48433200Y-48638526D01*
X48433198Y-48638524D01*
X48432995Y-48638234D01*
X48432755Y-48637968D01*
X48432746Y-48637957D01*
X48314767Y-48507341D01*
X48311764Y-48498905D01*
X48315176Y-48491226D01*
X48476226Y-48330176D01*
X48484499Y-48326749D01*
X48492341Y-48329767D01*
G37*
%TD.AperFunction*%
%TD*%
%TA.AperFunction,Conductor*%
%TO.N,RSTSW*%
G36*
X49197462Y-33570937D02*
G01*
X49446077Y-33810018D01*
X49810016Y-34160000D01*
X49931231Y-34276567D01*
X49934819Y-34284771D01*
X49931231Y-34293433D01*
X49772144Y-34446419D01*
X49197462Y-34999063D01*
X49189123Y-35002328D01*
X49183764Y-35000909D01*
X49042897Y-34924331D01*
X49041998Y-34923789D01*
X48918927Y-34841792D01*
X48918277Y-34841326D01*
X48812617Y-34759981D01*
X48812334Y-34759757D01*
X48716732Y-34681349D01*
X48716693Y-34681317D01*
X48623984Y-34608331D01*
X48623803Y-34608210D01*
X48623794Y-34608203D01*
X48582963Y-34580814D01*
X48527008Y-34543278D01*
X48486242Y-34522723D01*
X48418826Y-34488730D01*
X48418819Y-34488727D01*
X48418444Y-34488538D01*
X48290968Y-34446492D01*
X48137261Y-34419519D01*
X48136909Y-34419501D01*
X48136908Y-34419501D01*
X48117482Y-34418514D01*
X47961105Y-34410564D01*
X47953018Y-34406722D01*
X47950000Y-34398880D01*
X47950000Y-34171120D01*
X47953427Y-34162847D01*
X47961105Y-34159435D01*
X48115559Y-34151583D01*
X48136908Y-34150498D01*
X48136909Y-34150498D01*
X48137261Y-34150480D01*
X48290968Y-34123507D01*
X48418444Y-34081461D01*
X48418819Y-34081272D01*
X48418826Y-34081269D01*
X48486242Y-34047276D01*
X48527008Y-34026721D01*
X48582963Y-33989185D01*
X48623794Y-33961796D01*
X48623803Y-33961789D01*
X48623984Y-33961668D01*
X48716693Y-33888682D01*
X48812336Y-33810240D01*
X48812617Y-33810018D01*
X48918277Y-33728673D01*
X48918927Y-33728207D01*
X49041997Y-33646211D01*
X49042896Y-33645669D01*
X49183764Y-33569091D01*
X49192669Y-33568150D01*
X49197462Y-33570937D01*
G37*
%TD.AperFunction*%
%TD*%
%TA.AperFunction,Conductor*%
%TO.N,RSTSW*%
G36*
X31594478Y-41914459D02*
G01*
X31755541Y-42075522D01*
X31758968Y-42083795D01*
X31755957Y-42091630D01*
X31659114Y-42199025D01*
X31629686Y-42231659D01*
X31534721Y-42367880D01*
X31534526Y-42368272D01*
X31534523Y-42368277D01*
X31524989Y-42387443D01*
X31471109Y-42495754D01*
X31431461Y-42618993D01*
X31408386Y-42741308D01*
X31408363Y-42741512D01*
X31408362Y-42741521D01*
X31394492Y-42866411D01*
X31394483Y-42866504D01*
X31382407Y-42997827D01*
X31382366Y-42998205D01*
X31364739Y-43139428D01*
X31364608Y-43140241D01*
X31334101Y-43295043D01*
X31333845Y-43296087D01*
X31285347Y-43460725D01*
X31279722Y-43467693D01*
X31274355Y-43469117D01*
X30513149Y-43483997D01*
X30191645Y-43490282D01*
X30183306Y-43487017D01*
X30179718Y-43478355D01*
X30189108Y-42998015D01*
X30200883Y-42395646D01*
X30204471Y-42387443D01*
X30209274Y-42384654D01*
X30297282Y-42358728D01*
X30373912Y-42336154D01*
X30374956Y-42335898D01*
X30529758Y-42305391D01*
X30530571Y-42305260D01*
X30671794Y-42287633D01*
X30672172Y-42287592D01*
X30726979Y-42282552D01*
X30803588Y-42275507D01*
X30804109Y-42275449D01*
X30928478Y-42261637D01*
X30928487Y-42261636D01*
X30928691Y-42261613D01*
X30928906Y-42261573D01*
X30928909Y-42261572D01*
X30961248Y-42255471D01*
X31051006Y-42238538D01*
X31051344Y-42238429D01*
X31051349Y-42238428D01*
X31105322Y-42221064D01*
X31174245Y-42198890D01*
X31238499Y-42166926D01*
X31301722Y-42135476D01*
X31301727Y-42135473D01*
X31302119Y-42135278D01*
X31438340Y-42040313D01*
X31438613Y-42040067D01*
X31578370Y-41914043D01*
X31586809Y-41911048D01*
X31594478Y-41914459D01*
G37*
%TD.AperFunction*%
%TD*%
%TA.AperFunction,Conductor*%
%TO.N,PWRSW*%
G36*
X33398212Y-44969717D02*
G01*
X33540361Y-45056735D01*
X33541837Y-45057806D01*
X33674839Y-45171051D01*
X33675657Y-45171817D01*
X33796453Y-45296482D01*
X33796726Y-45296775D01*
X33908790Y-45421835D01*
X34015539Y-45536038D01*
X34120528Y-45628237D01*
X34227440Y-45687431D01*
X34228515Y-45687576D01*
X34228518Y-45687577D01*
X34338648Y-45702441D01*
X34339959Y-45702618D01*
X34341216Y-45702207D01*
X34341217Y-45702207D01*
X34460794Y-45663118D01*
X34460795Y-45663117D01*
X34461769Y-45662799D01*
X34462575Y-45662166D01*
X34462577Y-45662165D01*
X34588392Y-45563379D01*
X34597015Y-45560965D01*
X34603890Y-45564308D01*
X34764526Y-45724944D01*
X34767953Y-45733217D01*
X34763997Y-45741987D01*
X34641111Y-45850496D01*
X34639817Y-45851488D01*
X34516865Y-45932727D01*
X34515413Y-45933543D01*
X34399273Y-45988263D01*
X34397951Y-45988789D01*
X34328328Y-46011692D01*
X34286576Y-46025426D01*
X34285730Y-46025670D01*
X34255245Y-46033212D01*
X34177009Y-46052568D01*
X34069482Y-46077956D01*
X33961845Y-46110113D01*
X33852374Y-46157424D01*
X33739347Y-46228272D01*
X33739006Y-46228569D01*
X33739005Y-46228569D01*
X33627380Y-46325533D01*
X33618887Y-46328371D01*
X33613793Y-46326795D01*
X32608338Y-45737813D01*
X32602932Y-45730675D01*
X32604157Y-45721804D01*
X32606142Y-45719285D01*
X32639115Y-45687577D01*
X33383993Y-44971263D01*
X33392332Y-44967998D01*
X33398212Y-44969717D01*
G37*
%TD.AperFunction*%
%TD*%
%TA.AperFunction,Conductor*%
%TO.N,PWRSW*%
G36*
X50287130Y-27677293D02*
G01*
X50295334Y-27680881D01*
X50298121Y-27685674D01*
X50343581Y-27839435D01*
X50343833Y-27840454D01*
X50372876Y-27985454D01*
X50373006Y-27986243D01*
X50390202Y-28118496D01*
X50390241Y-28118835D01*
X50402404Y-28241927D01*
X50416349Y-28359091D01*
X50438922Y-28473662D01*
X50476982Y-28589135D01*
X50537390Y-28709005D01*
X50537630Y-28709347D01*
X50594344Y-28790202D01*
X50627004Y-28836765D01*
X50627244Y-28837031D01*
X50627253Y-28837042D01*
X50745233Y-28967659D01*
X50748236Y-28976095D01*
X50744824Y-28983774D01*
X50583774Y-29144824D01*
X50575501Y-29148251D01*
X50567659Y-29145233D01*
X50437042Y-29027253D01*
X50437031Y-29027244D01*
X50436765Y-29027004D01*
X50309005Y-28937390D01*
X50189135Y-28876982D01*
X50073662Y-28838922D01*
X49959091Y-28816349D01*
X49841927Y-28802404D01*
X49718835Y-28790241D01*
X49718522Y-28790205D01*
X49586240Y-28773005D01*
X49585457Y-28772877D01*
X49560619Y-28767902D01*
X49440454Y-28743833D01*
X49439435Y-28743581D01*
X49285674Y-28698121D01*
X49278712Y-28692489D01*
X49277293Y-28687130D01*
X49257396Y-27669323D01*
X49260661Y-27660984D01*
X49269323Y-27657396D01*
X50287130Y-27677293D01*
G37*
%TD.AperFunction*%
%TD*%
%TA.AperFunction,Conductor*%
%TO.N,GND2*%
G36*
X72360018Y-25910000D02*
G01*
X72374852Y-25912310D01*
X72374855Y-25912310D01*
X72383724Y-25913691D01*
X72393659Y-25912392D01*
X72394746Y-25912250D01*
X72423431Y-25911793D01*
X72496741Y-25919013D01*
X72526212Y-25921916D01*
X72550432Y-25926733D01*
X72669546Y-25962866D01*
X72692355Y-25972315D01*
X72802124Y-26030987D01*
X72822655Y-26044705D01*
X72918876Y-26123671D01*
X72936329Y-26141124D01*
X73015295Y-26237345D01*
X73029013Y-26257876D01*
X73087685Y-26367645D01*
X73097134Y-26390454D01*
X73133267Y-26509568D01*
X73138084Y-26533789D01*
X73147541Y-26629809D01*
X73147091Y-26645868D01*
X73147800Y-26645877D01*
X73147690Y-26654853D01*
X73146309Y-26663724D01*
X73147473Y-26672626D01*
X73147473Y-26672628D01*
X73150436Y-26695283D01*
X73151500Y-26711621D01*
X73151500Y-53290633D01*
X73150000Y-53310018D01*
X73146309Y-53333724D01*
X73147473Y-53342626D01*
X73147750Y-53344746D01*
X73148207Y-53373431D01*
X73140987Y-53446741D01*
X73138084Y-53476212D01*
X73133267Y-53500432D01*
X73097134Y-53619546D01*
X73087685Y-53642355D01*
X73029013Y-53752124D01*
X73015295Y-53772655D01*
X72936329Y-53868876D01*
X72918876Y-53886329D01*
X72822655Y-53965295D01*
X72802124Y-53979013D01*
X72692355Y-54037685D01*
X72669546Y-54047134D01*
X72550432Y-54083267D01*
X72526211Y-54088084D01*
X72430191Y-54097541D01*
X72414132Y-54097091D01*
X72414123Y-54097800D01*
X72405147Y-54097690D01*
X72396276Y-54096309D01*
X72387374Y-54097473D01*
X72387372Y-54097473D01*
X72374856Y-54099110D01*
X72364714Y-54100436D01*
X72348379Y-54101500D01*
X54736000Y-54101500D01*
X54667879Y-54081498D01*
X54621386Y-54027842D01*
X54610000Y-53975500D01*
X54610000Y-49535000D01*
X55826502Y-49535000D01*
X55846457Y-49763087D01*
X55847881Y-49768400D01*
X55847881Y-49768402D01*
X55875640Y-49871997D01*
X55905716Y-49984243D01*
X55908039Y-49989224D01*
X55908039Y-49989225D01*
X56000151Y-50186762D01*
X56000154Y-50186767D01*
X56002477Y-50191749D01*
X56133802Y-50379300D01*
X56295700Y-50541198D01*
X56300211Y-50544357D01*
X56304424Y-50547892D01*
X56303473Y-50549026D01*
X56343471Y-50599071D01*
X56350776Y-50669690D01*
X56318742Y-50733049D01*
X56257538Y-50769030D01*
X56240483Y-50772082D01*
X56229684Y-50773255D01*
X56093295Y-50824385D01*
X55976739Y-50911739D01*
X55889385Y-51028295D01*
X55838255Y-51164684D01*
X55831500Y-51226866D01*
X55831500Y-52923134D01*
X55838255Y-52985316D01*
X55889385Y-53121705D01*
X55976739Y-53238261D01*
X56093295Y-53325615D01*
X56229684Y-53376745D01*
X56291866Y-53383500D01*
X57988134Y-53383500D01*
X58050316Y-53376745D01*
X58186705Y-53325615D01*
X58303261Y-53238261D01*
X58390615Y-53121705D01*
X58441745Y-52985316D01*
X58448500Y-52923134D01*
X58448500Y-51226866D01*
X58448131Y-51223469D01*
X58442598Y-51172534D01*
X58442598Y-51172532D01*
X58441745Y-51164684D01*
X58438623Y-51156356D01*
X58438566Y-51155579D01*
X58437145Y-51149602D01*
X58438112Y-51149372D01*
X58433440Y-51085549D01*
X58467510Y-51023032D01*
X59883131Y-49607411D01*
X59945443Y-49573385D01*
X60016258Y-49578450D01*
X60073094Y-49620997D01*
X60097905Y-49687517D01*
X60082814Y-49756891D01*
X60070667Y-49775153D01*
X60006799Y-49855095D01*
X60006765Y-49855138D01*
X60006421Y-49855569D01*
X59994724Y-49870784D01*
X59994199Y-49871494D01*
X59993874Y-49871951D01*
X59993841Y-49871997D01*
X59983220Y-49886949D01*
X59982872Y-49887439D01*
X59898554Y-50011053D01*
X59884974Y-50032043D01*
X59884380Y-50033012D01*
X59871880Y-50054559D01*
X59828341Y-50133991D01*
X59826969Y-50136429D01*
X59825629Y-50138749D01*
X59822477Y-50143251D01*
X59820153Y-50148234D01*
X59820152Y-50148236D01*
X59819723Y-50149156D01*
X59816019Y-50156468D01*
X59795672Y-50193589D01*
X59795667Y-50193600D01*
X59793841Y-50196931D01*
X59792429Y-50200457D01*
X59773196Y-50248477D01*
X59770424Y-50254878D01*
X59728041Y-50345770D01*
X59725716Y-50350757D01*
X59724294Y-50356065D01*
X59724293Y-50356067D01*
X59667881Y-50566598D01*
X59666457Y-50571913D01*
X59646502Y-50800000D01*
X59666457Y-51028087D01*
X59667881Y-51033400D01*
X59667881Y-51033402D01*
X59720636Y-51230283D01*
X59725716Y-51249243D01*
X59728039Y-51254224D01*
X59728039Y-51254225D01*
X59820151Y-51451762D01*
X59820154Y-51451767D01*
X59822477Y-51456749D01*
X59953802Y-51644300D01*
X60115700Y-51806198D01*
X60120208Y-51809355D01*
X60120211Y-51809357D01*
X60198389Y-51864098D01*
X60303251Y-51937523D01*
X60308233Y-51939846D01*
X60308238Y-51939849D01*
X60505775Y-52031961D01*
X60510757Y-52034284D01*
X60516065Y-52035706D01*
X60516067Y-52035707D01*
X60726598Y-52092119D01*
X60726600Y-52092119D01*
X60731913Y-52093543D01*
X60960000Y-52113498D01*
X61188087Y-52093543D01*
X61193400Y-52092119D01*
X61193402Y-52092119D01*
X61403933Y-52035707D01*
X61403935Y-52035706D01*
X61409243Y-52034284D01*
X61414225Y-52031961D01*
X61611762Y-51939849D01*
X61611767Y-51939846D01*
X61616749Y-51937523D01*
X61721611Y-51864098D01*
X61799789Y-51809357D01*
X61799792Y-51809355D01*
X61804300Y-51806198D01*
X61966198Y-51644300D01*
X62097523Y-51456749D01*
X62099846Y-51451767D01*
X62099849Y-51451762D01*
X62191961Y-51254225D01*
X62191961Y-51254224D01*
X62194284Y-51249243D01*
X62199365Y-51230283D01*
X62252119Y-51033402D01*
X62252119Y-51033400D01*
X62253543Y-51028087D01*
X62273498Y-50800000D01*
X62253543Y-50571913D01*
X62252119Y-50566598D01*
X62195707Y-50356067D01*
X62195706Y-50356065D01*
X62194284Y-50350757D01*
X62191959Y-50345770D01*
X62142996Y-50240767D01*
X62139207Y-50231742D01*
X62126158Y-50196928D01*
X62103980Y-50156468D01*
X62100278Y-50149158D01*
X62099850Y-50148240D01*
X62099848Y-50148236D01*
X62097523Y-50143251D01*
X62094366Y-50138744D01*
X62093050Y-50136464D01*
X62091675Y-50134020D01*
X62048481Y-50055218D01*
X62048474Y-50055205D01*
X62048118Y-50054556D01*
X62047741Y-50053905D01*
X62044882Y-50048978D01*
X62035619Y-50033012D01*
X62035025Y-50032043D01*
X62021445Y-50011053D01*
X61937127Y-49887439D01*
X61936779Y-49886949D01*
X61926158Y-49871997D01*
X61926125Y-49871951D01*
X61925800Y-49871494D01*
X61925275Y-49870784D01*
X61913578Y-49855569D01*
X61913234Y-49855138D01*
X61913200Y-49855095D01*
X61829506Y-49750337D01*
X61829495Y-49750323D01*
X61829279Y-49750053D01*
X61823162Y-49742542D01*
X61822888Y-49742212D01*
X61822682Y-49741968D01*
X61817200Y-49735484D01*
X61817127Y-49735398D01*
X61816993Y-49735240D01*
X61816842Y-49735064D01*
X61816757Y-49734965D01*
X61738624Y-49644197D01*
X61737305Y-49642639D01*
X61679529Y-49573277D01*
X61673735Y-49565764D01*
X61642884Y-49522477D01*
X61634443Y-49508882D01*
X61619360Y-49480748D01*
X61611492Y-49462867D01*
X61599606Y-49428933D01*
X61594646Y-49410316D01*
X61582593Y-49345501D01*
X61580651Y-49329229D01*
X61580651Y-49329219D01*
X61577682Y-49274007D01*
X61573424Y-49194788D01*
X61573423Y-49194779D01*
X61573355Y-49193508D01*
X61572940Y-49189092D01*
X61569494Y-49152489D01*
X61569813Y-49152459D01*
X61568500Y-49138334D01*
X61568500Y-48539239D01*
X61588502Y-48471118D01*
X61605405Y-48450144D01*
X69518092Y-40537457D01*
X69580404Y-40503431D01*
X69651219Y-40508496D01*
X69708055Y-40551043D01*
X69732978Y-40619298D01*
X69745110Y-40829715D01*
X69746247Y-40834761D01*
X69746248Y-40834767D01*
X69766119Y-40922939D01*
X69794222Y-41047639D01*
X69878266Y-41254616D01*
X69994987Y-41445088D01*
X70141250Y-41613938D01*
X70313126Y-41756632D01*
X70363281Y-41785940D01*
X70386445Y-41799476D01*
X70435169Y-41851114D01*
X70448240Y-41920897D01*
X70421509Y-41986669D01*
X70381055Y-42020027D01*
X70374405Y-42023489D01*
X70368607Y-42026507D01*
X70364474Y-42029610D01*
X70364471Y-42029612D01*
X70194100Y-42157530D01*
X70189965Y-42160635D01*
X70186393Y-42164373D01*
X70049376Y-42307753D01*
X70035629Y-42322138D01*
X69909743Y-42506680D01*
X69815688Y-42709305D01*
X69807960Y-42737171D01*
X69801283Y-42755560D01*
X69796630Y-42765814D01*
X69748103Y-42932548D01*
X69741623Y-42957048D01*
X69741355Y-42958173D01*
X69736080Y-42983029D01*
X69735937Y-42983798D01*
X69735930Y-42983831D01*
X69711832Y-43113049D01*
X69706831Y-43139866D01*
X69706746Y-43140377D01*
X69706740Y-43140410D01*
X69704703Y-43152636D01*
X69703590Y-43159312D01*
X69703459Y-43160203D01*
X69700954Y-43179874D01*
X69685522Y-43323062D01*
X69684586Y-43332568D01*
X69684548Y-43332995D01*
X69683764Y-43342893D01*
X69675417Y-43462939D01*
X69674833Y-43471334D01*
X69674684Y-43473264D01*
X69666346Y-43571371D01*
X69665193Y-43580752D01*
X69656509Y-43634586D01*
X69655520Y-43640715D01*
X69651949Y-43656400D01*
X69640851Y-43693904D01*
X69633793Y-43712316D01*
X69620844Y-43739510D01*
X69615090Y-43751593D01*
X69605374Y-43768490D01*
X69563155Y-43830297D01*
X69552920Y-43843344D01*
X69454391Y-43953210D01*
X69428222Y-43984848D01*
X69427965Y-43984635D01*
X69418951Y-43995500D01*
X65643766Y-47770685D01*
X65631375Y-47781552D01*
X65606013Y-47801013D01*
X65581526Y-47832925D01*
X65581523Y-47832928D01*
X65508476Y-47928124D01*
X65508476Y-47928125D01*
X65447162Y-48076150D01*
X65431500Y-48195115D01*
X65431500Y-48195120D01*
X65426250Y-48235000D01*
X65427328Y-48243188D01*
X65430422Y-48266690D01*
X65431500Y-48283136D01*
X65431500Y-49156703D01*
X65429075Y-49181303D01*
X65426646Y-49193505D01*
X65426405Y-49197993D01*
X65426404Y-49197999D01*
X65419350Y-49329219D01*
X65417408Y-49345493D01*
X65405352Y-49410318D01*
X65400393Y-49428929D01*
X65388508Y-49462863D01*
X65380639Y-49480748D01*
X65365556Y-49508882D01*
X65357115Y-49522477D01*
X65326262Y-49565767D01*
X65320468Y-49573280D01*
X65262697Y-49642636D01*
X65261378Y-49644194D01*
X65237638Y-49671774D01*
X65183005Y-49735242D01*
X65177111Y-49742212D01*
X65176837Y-49742542D01*
X65170720Y-49750053D01*
X65170504Y-49750323D01*
X65170493Y-49750337D01*
X65086799Y-49855095D01*
X65086765Y-49855138D01*
X65086421Y-49855569D01*
X65074724Y-49870784D01*
X65074199Y-49871494D01*
X65073874Y-49871951D01*
X65073841Y-49871997D01*
X65063220Y-49886949D01*
X65062872Y-49887439D01*
X64978554Y-50011053D01*
X64964974Y-50032043D01*
X64964380Y-50033012D01*
X64951880Y-50054559D01*
X64908341Y-50133991D01*
X64906969Y-50136429D01*
X64905629Y-50138749D01*
X64902477Y-50143251D01*
X64900153Y-50148234D01*
X64900152Y-50148236D01*
X64899723Y-50149156D01*
X64896019Y-50156468D01*
X64875672Y-50193589D01*
X64875667Y-50193600D01*
X64873841Y-50196931D01*
X64872429Y-50200457D01*
X64853196Y-50248477D01*
X64850424Y-50254878D01*
X64808041Y-50345770D01*
X64805716Y-50350757D01*
X64804294Y-50356065D01*
X64804293Y-50356067D01*
X64747881Y-50566598D01*
X64746457Y-50571913D01*
X64726502Y-50800000D01*
X64746457Y-51028087D01*
X64747881Y-51033400D01*
X64747881Y-51033402D01*
X64800636Y-51230283D01*
X64805716Y-51249243D01*
X64808039Y-51254224D01*
X64808039Y-51254225D01*
X64900151Y-51451762D01*
X64900154Y-51451767D01*
X64902477Y-51456749D01*
X65033802Y-51644300D01*
X65195700Y-51806198D01*
X65200208Y-51809355D01*
X65200211Y-51809357D01*
X65278389Y-51864098D01*
X65383251Y-51937523D01*
X65388233Y-51939846D01*
X65388238Y-51939849D01*
X65585775Y-52031961D01*
X65590757Y-52034284D01*
X65596065Y-52035706D01*
X65596067Y-52035707D01*
X65806598Y-52092119D01*
X65806600Y-52092119D01*
X65811913Y-52093543D01*
X66040000Y-52113498D01*
X66268087Y-52093543D01*
X66273400Y-52092119D01*
X66273402Y-52092119D01*
X66483933Y-52035707D01*
X66483935Y-52035706D01*
X66489243Y-52034284D01*
X66494225Y-52031961D01*
X66691762Y-51939849D01*
X66691767Y-51939846D01*
X66696749Y-51937523D01*
X66801611Y-51864098D01*
X66879789Y-51809357D01*
X66879792Y-51809355D01*
X66884300Y-51806198D01*
X67046198Y-51644300D01*
X67177523Y-51456749D01*
X67179846Y-51451767D01*
X67179849Y-51451762D01*
X67271961Y-51254225D01*
X67271961Y-51254224D01*
X67274284Y-51249243D01*
X67279365Y-51230283D01*
X67332119Y-51033402D01*
X67332119Y-51033400D01*
X67333543Y-51028087D01*
X67353498Y-50800000D01*
X67333543Y-50571913D01*
X67332119Y-50566598D01*
X67275707Y-50356067D01*
X67275706Y-50356065D01*
X67274284Y-50350757D01*
X67271959Y-50345770D01*
X67222996Y-50240767D01*
X67219207Y-50231742D01*
X67206158Y-50196928D01*
X67183980Y-50156468D01*
X67180278Y-50149158D01*
X67179850Y-50148240D01*
X67179848Y-50148236D01*
X67177523Y-50143251D01*
X67174366Y-50138744D01*
X67173050Y-50136464D01*
X67171675Y-50134020D01*
X67128481Y-50055218D01*
X67128474Y-50055205D01*
X67128118Y-50054556D01*
X67127741Y-50053905D01*
X67124882Y-50048978D01*
X67115619Y-50033012D01*
X67115025Y-50032043D01*
X67101445Y-50011053D01*
X67017127Y-49887439D01*
X67016779Y-49886949D01*
X67006158Y-49871997D01*
X67006125Y-49871951D01*
X67005800Y-49871494D01*
X67005275Y-49870784D01*
X66993578Y-49855569D01*
X66993234Y-49855138D01*
X66993200Y-49855095D01*
X66909506Y-49750337D01*
X66909495Y-49750323D01*
X66909279Y-49750053D01*
X66903162Y-49742542D01*
X66902888Y-49742212D01*
X66902682Y-49741968D01*
X66897200Y-49735484D01*
X66897127Y-49735398D01*
X66896993Y-49735240D01*
X66896842Y-49735064D01*
X66896757Y-49734965D01*
X66818624Y-49644197D01*
X66817305Y-49642639D01*
X66759529Y-49573277D01*
X66753735Y-49565764D01*
X66722884Y-49522477D01*
X66714443Y-49508882D01*
X66699360Y-49480748D01*
X66691492Y-49462867D01*
X66679606Y-49428933D01*
X66674646Y-49410316D01*
X66662593Y-49345501D01*
X66660651Y-49329229D01*
X66660651Y-49329219D01*
X66657682Y-49274007D01*
X66653424Y-49194788D01*
X66653423Y-49194779D01*
X66653355Y-49193508D01*
X66652940Y-49189092D01*
X66649494Y-49152489D01*
X66649813Y-49152459D01*
X66648500Y-49138334D01*
X66648500Y-48539239D01*
X66668502Y-48471118D01*
X66685405Y-48450144D01*
X69518092Y-45617457D01*
X69580404Y-45583431D01*
X69651219Y-45588496D01*
X69708055Y-45631043D01*
X69732978Y-45699298D01*
X69745110Y-45909715D01*
X69746247Y-45914761D01*
X69746248Y-45914767D01*
X69766119Y-46002939D01*
X69794222Y-46127639D01*
X69878266Y-46334616D01*
X69994987Y-46525088D01*
X70141250Y-46693938D01*
X70313126Y-46836632D01*
X70506000Y-46949338D01*
X70714692Y-47029030D01*
X70719760Y-47030061D01*
X70719763Y-47030062D01*
X70827017Y-47051883D01*
X70933597Y-47073567D01*
X70938772Y-47073757D01*
X70938774Y-47073757D01*
X71151673Y-47081564D01*
X71151677Y-47081564D01*
X71156837Y-47081753D01*
X71161957Y-47081097D01*
X71161959Y-47081097D01*
X71373288Y-47054025D01*
X71373289Y-47054025D01*
X71378416Y-47053368D01*
X71383366Y-47051883D01*
X71587429Y-46990661D01*
X71587434Y-46990659D01*
X71592384Y-46989174D01*
X71792994Y-46890896D01*
X71974860Y-46761173D01*
X72133096Y-46603489D01*
X72192594Y-46520689D01*
X72260435Y-46426277D01*
X72263453Y-46422077D01*
X72362430Y-46221811D01*
X72427370Y-46008069D01*
X72456529Y-45786590D01*
X72457102Y-45763131D01*
X72458074Y-45723365D01*
X72458074Y-45723361D01*
X72458156Y-45720000D01*
X72439852Y-45497361D01*
X72385431Y-45280702D01*
X72296354Y-45075840D01*
X72175014Y-44888277D01*
X72024670Y-44723051D01*
X72020619Y-44719852D01*
X72020615Y-44719848D01*
X71853414Y-44587800D01*
X71853410Y-44587798D01*
X71849359Y-44584598D01*
X71808053Y-44561796D01*
X71758084Y-44511364D01*
X71743312Y-44441921D01*
X71768428Y-44375516D01*
X71795780Y-44348909D01*
X71839603Y-44317650D01*
X71974860Y-44221173D01*
X71981596Y-44214461D01*
X72129435Y-44067137D01*
X72133096Y-44063489D01*
X72187365Y-43987966D01*
X72260435Y-43886277D01*
X72263453Y-43882077D01*
X72282593Y-43843351D01*
X72360136Y-43686453D01*
X72360137Y-43686451D01*
X72362430Y-43681811D01*
X72427370Y-43468069D01*
X72456529Y-43246590D01*
X72458156Y-43180000D01*
X72439852Y-42957361D01*
X72385431Y-42740702D01*
X72296354Y-42535840D01*
X72175014Y-42348277D01*
X72024670Y-42183051D01*
X72020619Y-42179852D01*
X72020615Y-42179848D01*
X71853414Y-42047800D01*
X71853410Y-42047798D01*
X71849359Y-42044598D01*
X71808053Y-42021796D01*
X71758084Y-41971364D01*
X71743312Y-41901921D01*
X71768428Y-41835516D01*
X71795780Y-41808909D01*
X71844207Y-41774366D01*
X71974860Y-41681173D01*
X72006788Y-41649357D01*
X72129435Y-41527137D01*
X72133096Y-41523489D01*
X72164498Y-41479789D01*
X72260435Y-41346277D01*
X72263453Y-41342077D01*
X72272159Y-41324463D01*
X72360136Y-41146453D01*
X72360137Y-41146451D01*
X72362430Y-41141811D01*
X72394900Y-41034940D01*
X72425865Y-40933023D01*
X72425865Y-40933021D01*
X72427370Y-40928069D01*
X72456529Y-40706590D01*
X72456965Y-40688749D01*
X72458074Y-40643365D01*
X72458074Y-40643361D01*
X72458156Y-40640000D01*
X72439852Y-40417361D01*
X72385431Y-40200702D01*
X72296354Y-39995840D01*
X72175014Y-39808277D01*
X72024670Y-39643051D01*
X72020619Y-39639852D01*
X72020615Y-39639848D01*
X71853414Y-39507800D01*
X71853410Y-39507798D01*
X71849359Y-39504598D01*
X71808053Y-39481796D01*
X71758084Y-39431364D01*
X71743312Y-39361921D01*
X71768428Y-39295516D01*
X71795780Y-39268909D01*
X71839603Y-39237650D01*
X71974860Y-39141173D01*
X72133096Y-38983489D01*
X72187365Y-38907966D01*
X72260435Y-38806277D01*
X72263453Y-38802077D01*
X72282593Y-38763351D01*
X72360136Y-38606453D01*
X72360137Y-38606451D01*
X72362430Y-38601811D01*
X72427370Y-38388069D01*
X72456529Y-38166590D01*
X72458156Y-38100000D01*
X72439852Y-37877361D01*
X72385431Y-37660702D01*
X72296354Y-37455840D01*
X72256906Y-37394862D01*
X72177822Y-37272617D01*
X72177820Y-37272614D01*
X72175014Y-37268277D01*
X72024670Y-37103051D01*
X72020619Y-37099852D01*
X72020615Y-37099848D01*
X71853414Y-36967800D01*
X71853410Y-36967798D01*
X71849359Y-36964598D01*
X71807569Y-36941529D01*
X71757598Y-36891097D01*
X71742826Y-36821654D01*
X71767942Y-36755248D01*
X71795294Y-36728641D01*
X71970328Y-36603792D01*
X71978200Y-36597139D01*
X72129052Y-36446812D01*
X72135730Y-36438965D01*
X72260003Y-36266020D01*
X72265313Y-36257183D01*
X72359670Y-36066267D01*
X72363469Y-36056672D01*
X72425377Y-35852910D01*
X72427555Y-35842837D01*
X72428986Y-35831962D01*
X72426775Y-35817778D01*
X72413617Y-35814000D01*
X69778225Y-35814000D01*
X69764694Y-35817973D01*
X69763257Y-35827966D01*
X69793565Y-35962446D01*
X69796645Y-35972275D01*
X69876770Y-36169603D01*
X69881413Y-36178794D01*
X69992694Y-36360388D01*
X69998777Y-36368699D01*
X70138213Y-36529667D01*
X70145580Y-36536883D01*
X70309434Y-36672916D01*
X70317881Y-36678831D01*
X70386969Y-36719203D01*
X70435693Y-36770842D01*
X70448764Y-36840625D01*
X70422033Y-36906396D01*
X70381584Y-36939752D01*
X70368607Y-36946507D01*
X70364474Y-36949610D01*
X70364471Y-36949612D01*
X70340247Y-36967800D01*
X70189965Y-37080635D01*
X70035629Y-37242138D01*
X69909743Y-37426680D01*
X69815688Y-37629305D01*
X69807960Y-37657171D01*
X69801283Y-37675560D01*
X69796630Y-37685814D01*
X69748103Y-37852548D01*
X69741623Y-37877048D01*
X69741355Y-37878173D01*
X69736080Y-37903029D01*
X69735937Y-37903798D01*
X69735930Y-37903831D01*
X69706938Y-38059290D01*
X69706831Y-38059866D01*
X69703590Y-38079312D01*
X69703459Y-38080203D01*
X69700954Y-38099874D01*
X69685522Y-38243062D01*
X69684586Y-38252568D01*
X69684548Y-38252995D01*
X69683764Y-38262893D01*
X69675417Y-38382939D01*
X69674833Y-38391334D01*
X69674684Y-38393264D01*
X69666346Y-38491371D01*
X69665193Y-38500752D01*
X69656509Y-38554586D01*
X69655520Y-38560715D01*
X69651949Y-38576400D01*
X69640851Y-38613904D01*
X69633793Y-38632316D01*
X69615090Y-38671593D01*
X69605374Y-38688490D01*
X69563155Y-38750297D01*
X69552920Y-38763344D01*
X69454391Y-38873210D01*
X69428222Y-38904848D01*
X69427965Y-38904635D01*
X69418951Y-38915500D01*
X67565596Y-40768855D01*
X67503284Y-40802881D01*
X67432469Y-40797816D01*
X67375633Y-40755269D01*
X67350822Y-40688749D01*
X67350981Y-40668777D01*
X67353019Y-40645485D01*
X67353019Y-40645475D01*
X67353498Y-40640000D01*
X67333543Y-40411913D01*
X67328898Y-40394577D01*
X67275707Y-40196067D01*
X67275706Y-40196065D01*
X67274284Y-40190757D01*
X67271961Y-40185775D01*
X67179849Y-39988238D01*
X67179846Y-39988233D01*
X67177523Y-39983251D01*
X67104098Y-39878389D01*
X67049357Y-39800211D01*
X67049355Y-39800208D01*
X67046198Y-39795700D01*
X66884300Y-39633802D01*
X66879792Y-39630645D01*
X66879789Y-39630643D01*
X66801611Y-39575902D01*
X66696749Y-39502477D01*
X66691767Y-39500154D01*
X66691762Y-39500151D01*
X66494225Y-39408039D01*
X66494224Y-39408039D01*
X66489243Y-39405716D01*
X66483935Y-39404294D01*
X66483933Y-39404293D01*
X66273402Y-39347881D01*
X66273400Y-39347881D01*
X66268087Y-39346457D01*
X66040000Y-39326502D01*
X65811913Y-39346457D01*
X65806600Y-39347881D01*
X65806598Y-39347881D01*
X65596067Y-39404293D01*
X65596065Y-39404294D01*
X65590757Y-39405716D01*
X65585776Y-39408039D01*
X65585775Y-39408039D01*
X65388238Y-39500151D01*
X65388233Y-39500154D01*
X65383251Y-39502477D01*
X65278389Y-39575902D01*
X65200211Y-39630643D01*
X65200208Y-39630645D01*
X65195700Y-39633802D01*
X65033802Y-39795700D01*
X65030645Y-39800208D01*
X65030643Y-39800211D01*
X64975902Y-39878389D01*
X64902477Y-39983251D01*
X64900154Y-39988233D01*
X64900151Y-39988238D01*
X64808039Y-40185775D01*
X64805716Y-40190757D01*
X64804294Y-40196065D01*
X64804293Y-40196067D01*
X64751102Y-40394577D01*
X64746457Y-40411913D01*
X64726502Y-40640000D01*
X64746457Y-40868087D01*
X64747881Y-40873400D01*
X64747881Y-40873402D01*
X64804109Y-41083244D01*
X64805716Y-41089243D01*
X64808039Y-41094225D01*
X64808041Y-41094230D01*
X64856153Y-41197408D01*
X64860095Y-41206844D01*
X64871378Y-41237268D01*
X64871383Y-41237280D01*
X64872944Y-41241488D01*
X64875094Y-41245443D01*
X64897560Y-41286771D01*
X64899563Y-41290742D01*
X64900151Y-41291760D01*
X64902477Y-41296749D01*
X64903522Y-41298241D01*
X64904040Y-41300378D01*
X64904748Y-41299993D01*
X64935037Y-41355709D01*
X64949529Y-41382368D01*
X64960843Y-41402124D01*
X64961369Y-41402997D01*
X64973864Y-41422707D01*
X65055869Y-41545790D01*
X65065876Y-41560266D01*
X65066342Y-41560916D01*
X65076787Y-41574973D01*
X65158132Y-41680633D01*
X65162091Y-41685709D01*
X65162313Y-41685990D01*
X65162453Y-41686164D01*
X65162465Y-41686179D01*
X65167468Y-41692393D01*
X65168197Y-41693299D01*
X65168403Y-41693551D01*
X65168411Y-41693560D01*
X65242567Y-41783977D01*
X65244145Y-41785940D01*
X65298148Y-41854536D01*
X65303777Y-41862275D01*
X65333199Y-41906135D01*
X65341061Y-41919587D01*
X65356544Y-41950295D01*
X65363695Y-41967553D01*
X65368509Y-41982149D01*
X65374811Y-42001252D01*
X65376310Y-42005798D01*
X65380755Y-42023489D01*
X65392907Y-42092739D01*
X65394640Y-42108119D01*
X65400776Y-42228805D01*
X65401279Y-42238704D01*
X65384762Y-42307753D01*
X65364537Y-42334197D01*
X58577433Y-49121300D01*
X58515121Y-49155326D01*
X58444306Y-49150261D01*
X58387470Y-49107714D01*
X58374143Y-49085455D01*
X58279848Y-48883238D01*
X58277523Y-48878251D01*
X58146198Y-48690700D01*
X57984300Y-48528802D01*
X57979792Y-48525645D01*
X57979789Y-48525643D01*
X57871965Y-48450144D01*
X57796749Y-48397477D01*
X57791767Y-48395154D01*
X57791762Y-48395151D01*
X57594225Y-48303039D01*
X57594224Y-48303039D01*
X57589243Y-48300716D01*
X57583935Y-48299294D01*
X57583933Y-48299293D01*
X57373402Y-48242881D01*
X57373400Y-48242881D01*
X57368087Y-48241457D01*
X57140000Y-48221502D01*
X56911913Y-48241457D01*
X56906600Y-48242881D01*
X56906598Y-48242881D01*
X56696067Y-48299293D01*
X56696065Y-48299294D01*
X56690757Y-48300716D01*
X56685776Y-48303039D01*
X56685775Y-48303039D01*
X56488238Y-48395151D01*
X56488233Y-48395154D01*
X56483251Y-48397477D01*
X56408035Y-48450144D01*
X56300211Y-48525643D01*
X56300208Y-48525645D01*
X56295700Y-48528802D01*
X56133802Y-48690700D01*
X56002477Y-48878251D01*
X56000154Y-48883233D01*
X56000151Y-48883238D01*
X55908039Y-49080775D01*
X55905716Y-49085757D01*
X55904294Y-49091065D01*
X55904293Y-49091067D01*
X55855274Y-49274007D01*
X55846457Y-49306913D01*
X55826502Y-49535000D01*
X54610000Y-49535000D01*
X54610000Y-41915000D01*
X55826502Y-41915000D01*
X55846457Y-42143087D01*
X55847881Y-42148400D01*
X55847881Y-42148402D01*
X55893433Y-42318401D01*
X55905716Y-42364243D01*
X55908039Y-42369224D01*
X55908039Y-42369225D01*
X56000151Y-42566762D01*
X56000154Y-42566767D01*
X56002477Y-42571749D01*
X56005634Y-42576257D01*
X56120780Y-42740702D01*
X56133802Y-42759300D01*
X56295700Y-42921198D01*
X56300211Y-42924357D01*
X56304424Y-42927892D01*
X56303473Y-42929026D01*
X56343471Y-42979071D01*
X56350776Y-43049690D01*
X56318742Y-43113049D01*
X56257538Y-43149030D01*
X56240483Y-43152082D01*
X56229684Y-43153255D01*
X56093295Y-43204385D01*
X55976739Y-43291739D01*
X55889385Y-43408295D01*
X55838255Y-43544684D01*
X55831500Y-43606866D01*
X55831500Y-45303134D01*
X55838255Y-45365316D01*
X55889385Y-45501705D01*
X55976739Y-45618261D01*
X56093295Y-45705615D01*
X56229684Y-45756745D01*
X56291866Y-45763500D01*
X57988134Y-45763500D01*
X58050316Y-45756745D01*
X58186705Y-45705615D01*
X58303261Y-45618261D01*
X58390615Y-45501705D01*
X58441745Y-45365316D01*
X58448500Y-45303134D01*
X58448500Y-44664360D01*
X58451077Y-44639009D01*
X58476328Y-44516073D01*
X58476338Y-44516020D01*
X58476436Y-44515545D01*
X58477224Y-44511364D01*
X58479474Y-44499414D01*
X58479475Y-44499410D01*
X58479567Y-44498920D01*
X58479697Y-44498161D01*
X58482445Y-44480212D01*
X58487617Y-44441921D01*
X58500322Y-44347872D01*
X58500334Y-44347779D01*
X58500349Y-44347669D01*
X58501327Y-44339998D01*
X58501370Y-44339639D01*
X58502277Y-44331521D01*
X58514095Y-44217529D01*
X58514413Y-44214461D01*
X58514692Y-44212004D01*
X58525473Y-44124746D01*
X58526991Y-44115378D01*
X58537567Y-44062775D01*
X58541547Y-44047811D01*
X58552744Y-44014185D01*
X58559886Y-43997060D01*
X58578622Y-43960068D01*
X58587949Y-43944536D01*
X58629067Y-43886048D01*
X58638650Y-43874046D01*
X58731197Y-43771646D01*
X58758070Y-43739347D01*
X58758266Y-43739510D01*
X58767524Y-43728380D01*
X60246739Y-42249165D01*
X60265545Y-42233687D01*
X60272808Y-42228805D01*
X60276538Y-42226298D01*
X60279875Y-42223284D01*
X60378224Y-42134451D01*
X60390326Y-42124801D01*
X60447880Y-42084431D01*
X60463523Y-42075070D01*
X60499500Y-42056939D01*
X60516755Y-42049795D01*
X60549422Y-42039028D01*
X60564506Y-42035072D01*
X60580695Y-42031882D01*
X60616304Y-42024866D01*
X60625756Y-42023375D01*
X60700443Y-42014485D01*
X60712458Y-42013055D01*
X60714960Y-42012783D01*
X60831471Y-42001271D01*
X60831589Y-42001259D01*
X60831658Y-42001252D01*
X60831743Y-42001243D01*
X60831810Y-42001236D01*
X60839568Y-42000407D01*
X60839610Y-42000402D01*
X60839838Y-42000378D01*
X60840015Y-42000358D01*
X60840048Y-42000354D01*
X60840088Y-42000349D01*
X60840151Y-42000342D01*
X60840218Y-42000334D01*
X60840292Y-42000325D01*
X60843113Y-41999979D01*
X60847688Y-41999419D01*
X60847929Y-41999388D01*
X60848014Y-41999377D01*
X60979457Y-41982286D01*
X60979494Y-41982281D01*
X60979970Y-41982219D01*
X60980400Y-41982156D01*
X60980450Y-41982149D01*
X60996108Y-41979851D01*
X60996147Y-41979845D01*
X60996603Y-41979778D01*
X60997386Y-41979650D01*
X61002798Y-41978666D01*
X61014873Y-41976471D01*
X61014918Y-41976462D01*
X61015393Y-41976376D01*
X61103871Y-41958654D01*
X61159704Y-41947471D01*
X61159739Y-41947464D01*
X61160396Y-41947332D01*
X61161017Y-41947193D01*
X61161060Y-41947184D01*
X61182201Y-41942455D01*
X61182227Y-41942449D01*
X61182821Y-41942316D01*
X61183840Y-41942064D01*
X61206152Y-41936010D01*
X61206726Y-41935840D01*
X61206773Y-41935827D01*
X61288049Y-41911797D01*
X61359914Y-41890550D01*
X61370173Y-41886126D01*
X61387448Y-41880124D01*
X61403929Y-41875708D01*
X61403931Y-41875707D01*
X61409243Y-41874284D01*
X61419850Y-41869338D01*
X61611762Y-41779849D01*
X61611767Y-41779846D01*
X61616749Y-41777523D01*
X61746153Y-41686913D01*
X61799789Y-41649357D01*
X61799792Y-41649355D01*
X61804300Y-41646198D01*
X61966198Y-41484300D01*
X61982671Y-41460775D01*
X62038008Y-41381745D01*
X62097523Y-41296749D01*
X62099846Y-41291767D01*
X62099849Y-41291762D01*
X62191961Y-41094225D01*
X62191961Y-41094224D01*
X62194284Y-41089243D01*
X62195892Y-41083244D01*
X62252119Y-40873402D01*
X62252119Y-40873400D01*
X62253543Y-40868087D01*
X62273498Y-40640000D01*
X62253543Y-40411913D01*
X62248898Y-40394577D01*
X62195707Y-40196067D01*
X62195706Y-40196065D01*
X62194284Y-40190757D01*
X62191961Y-40185775D01*
X62099849Y-39988238D01*
X62099846Y-39988233D01*
X62097523Y-39983251D01*
X62024098Y-39878389D01*
X61969357Y-39800211D01*
X61969355Y-39800208D01*
X61966198Y-39795700D01*
X61804300Y-39633802D01*
X61799792Y-39630645D01*
X61799789Y-39630643D01*
X61721611Y-39575902D01*
X61616749Y-39502477D01*
X61611767Y-39500154D01*
X61611762Y-39500151D01*
X61414225Y-39408039D01*
X61414224Y-39408039D01*
X61409243Y-39405716D01*
X61403935Y-39404294D01*
X61403933Y-39404293D01*
X61193402Y-39347881D01*
X61193400Y-39347881D01*
X61188087Y-39346457D01*
X60960000Y-39326502D01*
X60731913Y-39346457D01*
X60726600Y-39347881D01*
X60726598Y-39347881D01*
X60516067Y-39404293D01*
X60516065Y-39404294D01*
X60510757Y-39405716D01*
X60505776Y-39408039D01*
X60505775Y-39408039D01*
X60308238Y-39500151D01*
X60308233Y-39500154D01*
X60303251Y-39502477D01*
X60198389Y-39575902D01*
X60120211Y-39630643D01*
X60120208Y-39630645D01*
X60115700Y-39633802D01*
X59953802Y-39795700D01*
X59950645Y-39800208D01*
X59950643Y-39800211D01*
X59895902Y-39878389D01*
X59822477Y-39983251D01*
X59820154Y-39988233D01*
X59820151Y-39988238D01*
X59728039Y-40185775D01*
X59725716Y-40190757D01*
X59724294Y-40196065D01*
X59724293Y-40196067D01*
X59719528Y-40213851D01*
X59712336Y-40233797D01*
X59709451Y-40240083D01*
X59663990Y-40393844D01*
X59663793Y-40394568D01*
X59663791Y-40394577D01*
X59658971Y-40412342D01*
X59657935Y-40416159D01*
X59657683Y-40417178D01*
X59652667Y-40439605D01*
X59652529Y-40440292D01*
X59652526Y-40440308D01*
X59633068Y-40537457D01*
X59623624Y-40584605D01*
X59620454Y-40601972D01*
X59620324Y-40602761D01*
X59617779Y-40620033D01*
X59617704Y-40620610D01*
X59606525Y-40706590D01*
X59600583Y-40752286D01*
X59599662Y-40759808D01*
X59599623Y-40760147D01*
X59598747Y-40768341D01*
X59598718Y-40768636D01*
X59587216Y-40885039D01*
X59586944Y-40887541D01*
X59576625Y-40974239D01*
X59575131Y-40983705D01*
X59564927Y-41035493D01*
X59560971Y-41050577D01*
X59550204Y-41083244D01*
X59543060Y-41100499D01*
X59524929Y-41136476D01*
X59515569Y-41152118D01*
X59475196Y-41209677D01*
X59465552Y-41221771D01*
X59393758Y-41301257D01*
X59373698Y-41323466D01*
X59346883Y-41355709D01*
X59346682Y-41355542D01*
X59337443Y-41366653D01*
X58666110Y-42037985D01*
X58603798Y-42072010D01*
X58532982Y-42066945D01*
X58476147Y-42024398D01*
X58451336Y-41957878D01*
X58451494Y-41937908D01*
X58453019Y-41920476D01*
X58453019Y-41920475D01*
X58453498Y-41915000D01*
X58433543Y-41686913D01*
X58423480Y-41649357D01*
X58375707Y-41471067D01*
X58375706Y-41471065D01*
X58374284Y-41465757D01*
X58371961Y-41460775D01*
X58279849Y-41263238D01*
X58279846Y-41263233D01*
X58277523Y-41258251D01*
X58192249Y-41136468D01*
X58149357Y-41075211D01*
X58149355Y-41075208D01*
X58146198Y-41070700D01*
X57984300Y-40908802D01*
X57979792Y-40905645D01*
X57979789Y-40905643D01*
X57871352Y-40829715D01*
X57796749Y-40777477D01*
X57791767Y-40775154D01*
X57791762Y-40775151D01*
X57594225Y-40683039D01*
X57594224Y-40683039D01*
X57589243Y-40680716D01*
X57583935Y-40679294D01*
X57583933Y-40679293D01*
X57373402Y-40622881D01*
X57373400Y-40622881D01*
X57368087Y-40621457D01*
X57140000Y-40601502D01*
X56911913Y-40621457D01*
X56906600Y-40622881D01*
X56906598Y-40622881D01*
X56696067Y-40679293D01*
X56696065Y-40679294D01*
X56690757Y-40680716D01*
X56685776Y-40683039D01*
X56685775Y-40683039D01*
X56488238Y-40775151D01*
X56488233Y-40775154D01*
X56483251Y-40777477D01*
X56408648Y-40829715D01*
X56300211Y-40905643D01*
X56300208Y-40905645D01*
X56295700Y-40908802D01*
X56133802Y-41070700D01*
X56130645Y-41075208D01*
X56130643Y-41075211D01*
X56087751Y-41136468D01*
X56002477Y-41258251D01*
X56000154Y-41263233D01*
X56000151Y-41263238D01*
X55908039Y-41460775D01*
X55905716Y-41465757D01*
X55904294Y-41471065D01*
X55904293Y-41471067D01*
X55856520Y-41649357D01*
X55846457Y-41686913D01*
X55826502Y-41915000D01*
X54610000Y-41915000D01*
X54610000Y-37091522D01*
X55877273Y-37091522D01*
X55924764Y-37268761D01*
X55928510Y-37279053D01*
X56020586Y-37476511D01*
X56026069Y-37486007D01*
X56151028Y-37664467D01*
X56158084Y-37672875D01*
X56312125Y-37826916D01*
X56320533Y-37833972D01*
X56498993Y-37958931D01*
X56508489Y-37964414D01*
X56705947Y-38056490D01*
X56716239Y-38060236D01*
X56888503Y-38106394D01*
X56902599Y-38106058D01*
X56906000Y-38098116D01*
X56906000Y-38092967D01*
X57414000Y-38092967D01*
X57417973Y-38106498D01*
X57426522Y-38107727D01*
X57603761Y-38060236D01*
X57614053Y-38056490D01*
X57811511Y-37964414D01*
X57821007Y-37958931D01*
X57999467Y-37833972D01*
X58007875Y-37826916D01*
X58161916Y-37672875D01*
X58168972Y-37664467D01*
X58293931Y-37486007D01*
X58299414Y-37476511D01*
X58391490Y-37279053D01*
X58395236Y-37268761D01*
X58441394Y-37096497D01*
X58441058Y-37082401D01*
X58433116Y-37079000D01*
X57432115Y-37079000D01*
X57416876Y-37083475D01*
X57415671Y-37084865D01*
X57414000Y-37092548D01*
X57414000Y-38092967D01*
X56906000Y-38092967D01*
X56906000Y-37097115D01*
X56901525Y-37081876D01*
X56900135Y-37080671D01*
X56892452Y-37079000D01*
X55892033Y-37079000D01*
X55878502Y-37082973D01*
X55877273Y-37091522D01*
X54610000Y-37091522D01*
X54610000Y-34285000D01*
X55846502Y-34285000D01*
X55866457Y-34513087D01*
X55867881Y-34518400D01*
X55867881Y-34518402D01*
X55919710Y-34711827D01*
X55925716Y-34734243D01*
X55928039Y-34739224D01*
X55928039Y-34739225D01*
X56020151Y-34936762D01*
X56020154Y-34936767D01*
X56022477Y-34941749D01*
X56057774Y-34992158D01*
X56120427Y-35081635D01*
X56153802Y-35129300D01*
X56315700Y-35291198D01*
X56320208Y-35294355D01*
X56320211Y-35294357D01*
X56336839Y-35306000D01*
X56503251Y-35422523D01*
X56508233Y-35424846D01*
X56508238Y-35424849D01*
X56543049Y-35441081D01*
X56596334Y-35487998D01*
X56615795Y-35556275D01*
X56595253Y-35624235D01*
X56543049Y-35669471D01*
X56508489Y-35685586D01*
X56498993Y-35691069D01*
X56320533Y-35816028D01*
X56312125Y-35823084D01*
X56158084Y-35977125D01*
X56151028Y-35985533D01*
X56026069Y-36163993D01*
X56020586Y-36173489D01*
X55928510Y-36370947D01*
X55924764Y-36381239D01*
X55878606Y-36553503D01*
X55878942Y-36567599D01*
X55886884Y-36571000D01*
X58427967Y-36571000D01*
X58441498Y-36567027D01*
X58442727Y-36558478D01*
X58395236Y-36381239D01*
X58391490Y-36370947D01*
X58299414Y-36173489D01*
X58293931Y-36163993D01*
X58168972Y-35985533D01*
X58161916Y-35977125D01*
X58007875Y-35823084D01*
X57999467Y-35816028D01*
X57821007Y-35691069D01*
X57811507Y-35685584D01*
X57779765Y-35670783D01*
X57726479Y-35623867D01*
X57707018Y-35555589D01*
X57727559Y-35487629D01*
X57772834Y-35445889D01*
X57806774Y-35427438D01*
X57810742Y-35425436D01*
X57811752Y-35424853D01*
X57816749Y-35422523D01*
X57818243Y-35421477D01*
X57820379Y-35420959D01*
X57819994Y-35420251D01*
X57821622Y-35419366D01*
X57902356Y-35375477D01*
X57922230Y-35364092D01*
X57923129Y-35363550D01*
X57942719Y-35351127D01*
X57943265Y-35350763D01*
X57943310Y-35350734D01*
X58065362Y-35269415D01*
X58065790Y-35269130D01*
X58080266Y-35259123D01*
X58080916Y-35258657D01*
X58094973Y-35248212D01*
X58200633Y-35166867D01*
X58206077Y-35162617D01*
X58206360Y-35162393D01*
X58213301Y-35156801D01*
X58215670Y-35154858D01*
X58303997Y-35082418D01*
X58305957Y-35080842D01*
X58374549Y-35026842D01*
X58382282Y-35021217D01*
X58426132Y-34991803D01*
X58439591Y-34983936D01*
X58470295Y-34968455D01*
X58487553Y-34961304D01*
X58503639Y-34955998D01*
X58525801Y-34948688D01*
X58543489Y-34944244D01*
X58612739Y-34932092D01*
X58628120Y-34930359D01*
X58642507Y-34929628D01*
X58764965Y-34923402D01*
X58766256Y-34923283D01*
X58766261Y-34923283D01*
X58806718Y-34919565D01*
X58806742Y-34919824D01*
X58821138Y-34918500D01*
X69698901Y-34918500D01*
X69767022Y-34938502D01*
X69813515Y-34992158D01*
X69823619Y-35062432D01*
X69817154Y-35088000D01*
X69814776Y-35094463D01*
X69759389Y-35294183D01*
X69760912Y-35302607D01*
X69773292Y-35306000D01*
X72413344Y-35306000D01*
X72426875Y-35302027D01*
X72428180Y-35292947D01*
X72386214Y-35125875D01*
X72382894Y-35116124D01*
X72297972Y-34920814D01*
X72293105Y-34911739D01*
X72177426Y-34732926D01*
X72171136Y-34724757D01*
X72027806Y-34567240D01*
X72020273Y-34560215D01*
X71853139Y-34428222D01*
X71844556Y-34422520D01*
X71807602Y-34402120D01*
X71757631Y-34351687D01*
X71742859Y-34282245D01*
X71767975Y-34215839D01*
X71795327Y-34189232D01*
X71818797Y-34172491D01*
X71974860Y-34061173D01*
X72133096Y-33903489D01*
X72263453Y-33722077D01*
X72300758Y-33646597D01*
X72360136Y-33526453D01*
X72360137Y-33526451D01*
X72362430Y-33521811D01*
X72427370Y-33308069D01*
X72456529Y-33086590D01*
X72458156Y-33020000D01*
X72439852Y-32797361D01*
X72385431Y-32580702D01*
X72296354Y-32375840D01*
X72175014Y-32188277D01*
X72024670Y-32023051D01*
X72020619Y-32019852D01*
X72020615Y-32019848D01*
X71853414Y-31887800D01*
X71853410Y-31887798D01*
X71849359Y-31884598D01*
X71807569Y-31861529D01*
X71757598Y-31811097D01*
X71742826Y-31741654D01*
X71767942Y-31675248D01*
X71795294Y-31648641D01*
X71970328Y-31523792D01*
X71978200Y-31517139D01*
X72129052Y-31366812D01*
X72135730Y-31358965D01*
X72260003Y-31186020D01*
X72265313Y-31177183D01*
X72359670Y-30986267D01*
X72363469Y-30976672D01*
X72425377Y-30772910D01*
X72427555Y-30762837D01*
X72428986Y-30751962D01*
X72426775Y-30737778D01*
X72413617Y-30734000D01*
X69778225Y-30734000D01*
X69764694Y-30737973D01*
X69763257Y-30747966D01*
X69793565Y-30882446D01*
X69796645Y-30892275D01*
X69876770Y-31089603D01*
X69881413Y-31098794D01*
X69992694Y-31280388D01*
X69998777Y-31288699D01*
X70138213Y-31449667D01*
X70145580Y-31456883D01*
X70309434Y-31592916D01*
X70317881Y-31598831D01*
X70386969Y-31639203D01*
X70435693Y-31690842D01*
X70448764Y-31760625D01*
X70422033Y-31826396D01*
X70381584Y-31859752D01*
X70368607Y-31866507D01*
X70364474Y-31869610D01*
X70364471Y-31869612D01*
X70340247Y-31887800D01*
X70189965Y-32000635D01*
X70035629Y-32162138D01*
X69909743Y-32346680D01*
X69815688Y-32549305D01*
X69808359Y-32575733D01*
X69801515Y-32594486D01*
X69797081Y-32604172D01*
X69748582Y-32768809D01*
X69742429Y-32791619D01*
X69742173Y-32792663D01*
X69742032Y-32793302D01*
X69742025Y-32793331D01*
X69739994Y-32802522D01*
X69737088Y-32815670D01*
X69706581Y-32970472D01*
X69706484Y-32971013D01*
X69706480Y-32971035D01*
X69706397Y-32971502D01*
X69703430Y-32988071D01*
X69703299Y-32988884D01*
X69703225Y-32989400D01*
X69703219Y-32989441D01*
X69701742Y-32999780D01*
X69700714Y-33006971D01*
X69683087Y-33148194D01*
X69682127Y-33156422D01*
X69682086Y-33156800D01*
X69681250Y-33165149D01*
X69681236Y-33165305D01*
X69681231Y-33165353D01*
X69669718Y-33290553D01*
X69669478Y-33292918D01*
X69668365Y-33302939D01*
X69658930Y-33387889D01*
X69657516Y-33397339D01*
X69646347Y-33456544D01*
X69642479Y-33471766D01*
X69629815Y-33511132D01*
X69622681Y-33528664D01*
X69601523Y-33571196D01*
X69592073Y-33587134D01*
X69584806Y-33597558D01*
X69529440Y-33642001D01*
X69481444Y-33651500D01*
X58802206Y-33651500D01*
X58777966Y-33649146D01*
X58764964Y-33646597D01*
X58628110Y-33639640D01*
X58612733Y-33637906D01*
X58543488Y-33625754D01*
X58525800Y-33621310D01*
X58487553Y-33608695D01*
X58470293Y-33601544D01*
X58439593Y-33586065D01*
X58426127Y-33578194D01*
X58403128Y-33562765D01*
X58402940Y-33562638D01*
X58382274Y-33548775D01*
X58374525Y-33543139D01*
X58305940Y-33489145D01*
X58303977Y-33487567D01*
X58213560Y-33413411D01*
X58213551Y-33413403D01*
X58213299Y-33413197D01*
X58205990Y-33407313D01*
X58205709Y-33407091D01*
X58200633Y-33403132D01*
X58193109Y-33397339D01*
X58095403Y-33322118D01*
X58095400Y-33322115D01*
X58094973Y-33321787D01*
X58088442Y-33316934D01*
X58081355Y-33311668D01*
X58081339Y-33311656D01*
X58080916Y-33311342D01*
X58080266Y-33310876D01*
X58071622Y-33304900D01*
X58066207Y-33301157D01*
X58066187Y-33301143D01*
X58065790Y-33300869D01*
X57942707Y-33218864D01*
X57922997Y-33206369D01*
X57922124Y-33205843D01*
X57921452Y-33205458D01*
X57903023Y-33194904D01*
X57902987Y-33194884D01*
X57902369Y-33194530D01*
X57819993Y-33149749D01*
X57820281Y-33149220D01*
X57818420Y-33148647D01*
X57816749Y-33147477D01*
X57811750Y-33145146D01*
X57810742Y-33144564D01*
X57806775Y-33142563D01*
X57764799Y-33119744D01*
X57761490Y-33117945D01*
X57757999Y-33116557D01*
X57757992Y-33116554D01*
X57710154Y-33097538D01*
X57703449Y-33094645D01*
X57614225Y-33053039D01*
X57614224Y-33053038D01*
X57609243Y-33050716D01*
X57603935Y-33049294D01*
X57603933Y-33049293D01*
X57393402Y-32992881D01*
X57393400Y-32992881D01*
X57388087Y-32991457D01*
X57160000Y-32971502D01*
X56931913Y-32991457D01*
X56926600Y-32992881D01*
X56926598Y-32992881D01*
X56716067Y-33049293D01*
X56716065Y-33049294D01*
X56710757Y-33050716D01*
X56705776Y-33053039D01*
X56705775Y-33053039D01*
X56508238Y-33145151D01*
X56508233Y-33145154D01*
X56503251Y-33147477D01*
X56401300Y-33218864D01*
X56320211Y-33275643D01*
X56320208Y-33275645D01*
X56315700Y-33278802D01*
X56153802Y-33440700D01*
X56150645Y-33445208D01*
X56150643Y-33445211D01*
X56120985Y-33487567D01*
X56022477Y-33628251D01*
X56020154Y-33633233D01*
X56020151Y-33633238D01*
X55976767Y-33726277D01*
X55925716Y-33835757D01*
X55924294Y-33841065D01*
X55924293Y-33841067D01*
X55867881Y-34051598D01*
X55866457Y-34056913D01*
X55846502Y-34285000D01*
X54610000Y-34285000D01*
X54610000Y-30746522D01*
X55877273Y-30746522D01*
X55924764Y-30923761D01*
X55928510Y-30934053D01*
X56020586Y-31131511D01*
X56026069Y-31141007D01*
X56151028Y-31319467D01*
X56158084Y-31327875D01*
X56312125Y-31481916D01*
X56320533Y-31488972D01*
X56498993Y-31613931D01*
X56508489Y-31619414D01*
X56705947Y-31711490D01*
X56716239Y-31715236D01*
X56888503Y-31761394D01*
X56902599Y-31761058D01*
X56906000Y-31753116D01*
X56906000Y-31747967D01*
X57414000Y-31747967D01*
X57417973Y-31761498D01*
X57426522Y-31762727D01*
X57603761Y-31715236D01*
X57614053Y-31711490D01*
X57811511Y-31619414D01*
X57821007Y-31613931D01*
X57999467Y-31488972D01*
X58007875Y-31481916D01*
X58161916Y-31327875D01*
X58168972Y-31319467D01*
X58293931Y-31141007D01*
X58299414Y-31131511D01*
X58391490Y-30934053D01*
X58395236Y-30923761D01*
X58441394Y-30751497D01*
X58441058Y-30737401D01*
X58433116Y-30734000D01*
X57432115Y-30734000D01*
X57416876Y-30738475D01*
X57415671Y-30739865D01*
X57414000Y-30747548D01*
X57414000Y-31747967D01*
X56906000Y-31747967D01*
X56906000Y-30752115D01*
X56901525Y-30736876D01*
X56900135Y-30735671D01*
X56892452Y-30734000D01*
X55892033Y-30734000D01*
X55878502Y-30737973D01*
X55877273Y-30746522D01*
X54610000Y-30746522D01*
X54610000Y-27940000D01*
X55846502Y-27940000D01*
X55866457Y-28168087D01*
X55925716Y-28389243D01*
X55928039Y-28394224D01*
X55928039Y-28394225D01*
X56020151Y-28591762D01*
X56020154Y-28591767D01*
X56022477Y-28596749D01*
X56057963Y-28647428D01*
X56120427Y-28736635D01*
X56153802Y-28784300D01*
X56315700Y-28946198D01*
X56320208Y-28949355D01*
X56320211Y-28949357D01*
X56398389Y-29004098D01*
X56503251Y-29077523D01*
X56508233Y-29079846D01*
X56508238Y-29079849D01*
X56543049Y-29096081D01*
X56596334Y-29142998D01*
X56615795Y-29211275D01*
X56595253Y-29279235D01*
X56543049Y-29324471D01*
X56508489Y-29340586D01*
X56498993Y-29346069D01*
X56320533Y-29471028D01*
X56312125Y-29478084D01*
X56158084Y-29632125D01*
X56151028Y-29640533D01*
X56026069Y-29818993D01*
X56020586Y-29828489D01*
X55928510Y-30025947D01*
X55924764Y-30036239D01*
X55878606Y-30208503D01*
X55878942Y-30222599D01*
X55886884Y-30226000D01*
X58427967Y-30226000D01*
X58441498Y-30222027D01*
X58442727Y-30213478D01*
X58395236Y-30036239D01*
X58391490Y-30025947D01*
X58299414Y-29828489D01*
X58293931Y-29818993D01*
X58168972Y-29640533D01*
X58161916Y-29632125D01*
X58007875Y-29478084D01*
X57999467Y-29471028D01*
X57821007Y-29346069D01*
X57811507Y-29340584D01*
X57779765Y-29325783D01*
X57726479Y-29278867D01*
X57707018Y-29210589D01*
X57727559Y-29142629D01*
X57772834Y-29100889D01*
X57806774Y-29082438D01*
X57810742Y-29080436D01*
X57811752Y-29079853D01*
X57816749Y-29077523D01*
X57818243Y-29076477D01*
X57820379Y-29075959D01*
X57819994Y-29075251D01*
X57821622Y-29074366D01*
X57902356Y-29030477D01*
X57922230Y-29019092D01*
X57923129Y-29018550D01*
X57942719Y-29006127D01*
X57943265Y-29005763D01*
X57943310Y-29005734D01*
X58065362Y-28924415D01*
X58065790Y-28924130D01*
X58080266Y-28914123D01*
X58080916Y-28913657D01*
X58094973Y-28903212D01*
X58200633Y-28821867D01*
X58206077Y-28817617D01*
X58206360Y-28817393D01*
X58213301Y-28811801D01*
X58215670Y-28809858D01*
X58303997Y-28737418D01*
X58305957Y-28735842D01*
X58374549Y-28681842D01*
X58382282Y-28676217D01*
X58426132Y-28646803D01*
X58439591Y-28638936D01*
X58470295Y-28623455D01*
X58487553Y-28616304D01*
X58503639Y-28610998D01*
X58525801Y-28603688D01*
X58543489Y-28599244D01*
X58612739Y-28587092D01*
X58628120Y-28585359D01*
X58642507Y-28584628D01*
X58764965Y-28578402D01*
X58766256Y-28578283D01*
X58766261Y-28578283D01*
X58806718Y-28574565D01*
X58806742Y-28574824D01*
X58821138Y-28573500D01*
X69352484Y-28573500D01*
X69376826Y-28575874D01*
X69383343Y-28577157D01*
X69389600Y-28578389D01*
X69524508Y-28585359D01*
X69537940Y-28586053D01*
X69553573Y-28587844D01*
X69599074Y-28595963D01*
X69631251Y-28601705D01*
X69649245Y-28606307D01*
X69650629Y-28606772D01*
X69708832Y-28647428D01*
X69735816Y-28713097D01*
X69736500Y-28726211D01*
X69736500Y-28838134D01*
X69743255Y-28900316D01*
X69794385Y-29036705D01*
X69881739Y-29153261D01*
X69998295Y-29240615D01*
X70006704Y-29243767D01*
X70006705Y-29243768D01*
X70115960Y-29284726D01*
X70172725Y-29327367D01*
X70197425Y-29393929D01*
X70182218Y-29463278D01*
X70162825Y-29489759D01*
X70039590Y-29618717D01*
X70033104Y-29626727D01*
X69913098Y-29802649D01*
X69908000Y-29811623D01*
X69818338Y-30004783D01*
X69814775Y-30014470D01*
X69759389Y-30214183D01*
X69760912Y-30222607D01*
X69773292Y-30226000D01*
X72413344Y-30226000D01*
X72426875Y-30222027D01*
X72428180Y-30212947D01*
X72386214Y-30045875D01*
X72382894Y-30036124D01*
X72297972Y-29840814D01*
X72293105Y-29831739D01*
X72177426Y-29652926D01*
X72171136Y-29644757D01*
X72027293Y-29486677D01*
X71996241Y-29422831D01*
X72004635Y-29352333D01*
X72049812Y-29297564D01*
X72076256Y-29283895D01*
X72183297Y-29243767D01*
X72191705Y-29240615D01*
X72308261Y-29153261D01*
X72395615Y-29036705D01*
X72446745Y-28900316D01*
X72453500Y-28838134D01*
X72453500Y-27041866D01*
X72446745Y-26979684D01*
X72395615Y-26843295D01*
X72308261Y-26726739D01*
X72191705Y-26639385D01*
X72055316Y-26588255D01*
X71993134Y-26581500D01*
X70196866Y-26581500D01*
X70134684Y-26588255D01*
X69998295Y-26639385D01*
X69881739Y-26726739D01*
X69794385Y-26843295D01*
X69743255Y-26979684D01*
X69736500Y-27041866D01*
X69736500Y-27153789D01*
X69716498Y-27221910D01*
X69662842Y-27268403D01*
X69650564Y-27273249D01*
X69649168Y-27273718D01*
X69631254Y-27278293D01*
X69617463Y-27280754D01*
X69553570Y-27292155D01*
X69537941Y-27293946D01*
X69389598Y-27301611D01*
X69348051Y-27305455D01*
X69348025Y-27305179D01*
X69333708Y-27306500D01*
X58802206Y-27306500D01*
X58777966Y-27304146D01*
X58764964Y-27301597D01*
X58628110Y-27294640D01*
X58612733Y-27292906D01*
X58543488Y-27280754D01*
X58525800Y-27276310D01*
X58487553Y-27263695D01*
X58470293Y-27256544D01*
X58439595Y-27241066D01*
X58426127Y-27233194D01*
X58403128Y-27217765D01*
X58402940Y-27217638D01*
X58382274Y-27203775D01*
X58374525Y-27198139D01*
X58305940Y-27144145D01*
X58303977Y-27142567D01*
X58213560Y-27068411D01*
X58213551Y-27068403D01*
X58213299Y-27068197D01*
X58205990Y-27062313D01*
X58205709Y-27062091D01*
X58200633Y-27058132D01*
X58183944Y-27045283D01*
X58095403Y-26977118D01*
X58095400Y-26977115D01*
X58094973Y-26976787D01*
X58080916Y-26966342D01*
X58080266Y-26965876D01*
X58065790Y-26955869D01*
X57942707Y-26873864D01*
X57922997Y-26861369D01*
X57922124Y-26860843D01*
X57906164Y-26851703D01*
X57903023Y-26849904D01*
X57902987Y-26849884D01*
X57902369Y-26849530D01*
X57819993Y-26804749D01*
X57820281Y-26804220D01*
X57818420Y-26803647D01*
X57816749Y-26802477D01*
X57811750Y-26800146D01*
X57810742Y-26799564D01*
X57806775Y-26797563D01*
X57764799Y-26774744D01*
X57761490Y-26772945D01*
X57757999Y-26771557D01*
X57757992Y-26771554D01*
X57710154Y-26752538D01*
X57703449Y-26749645D01*
X57614225Y-26708039D01*
X57614224Y-26708038D01*
X57609243Y-26705716D01*
X57603935Y-26704294D01*
X57603933Y-26704293D01*
X57393402Y-26647881D01*
X57393400Y-26647881D01*
X57388087Y-26646457D01*
X57160000Y-26626502D01*
X56931913Y-26646457D01*
X56926600Y-26647881D01*
X56926598Y-26647881D01*
X56716067Y-26704293D01*
X56716065Y-26704294D01*
X56710757Y-26705716D01*
X56705776Y-26708039D01*
X56705775Y-26708039D01*
X56508238Y-26800151D01*
X56508233Y-26800154D01*
X56503251Y-26802477D01*
X56401300Y-26873864D01*
X56320211Y-26930643D01*
X56320208Y-26930645D01*
X56315700Y-26933802D01*
X56153802Y-27095700D01*
X56150645Y-27100208D01*
X56150643Y-27100211D01*
X56095902Y-27178389D01*
X56022477Y-27283251D01*
X56020154Y-27288233D01*
X56020151Y-27288238D01*
X55928039Y-27485775D01*
X55925716Y-27490757D01*
X55866457Y-27711913D01*
X55846502Y-27940000D01*
X54610000Y-27940000D01*
X54610000Y-26034500D01*
X54630002Y-25966379D01*
X54683658Y-25919886D01*
X54736000Y-25908500D01*
X72340633Y-25908500D01*
X72360018Y-25910000D01*
G37*
%TD.AperFunction*%
%TD*%
%TA.AperFunction,Conductor*%
%TO.N,GND1*%
G36*
X52012121Y-25928502D02*
G01*
X52058614Y-25982158D01*
X52070000Y-26034500D01*
X52070000Y-53975500D01*
X52049998Y-54043621D01*
X51996342Y-54090114D01*
X51944000Y-54101500D01*
X29259367Y-54101500D01*
X29239982Y-54100000D01*
X29225148Y-54097690D01*
X29225145Y-54097690D01*
X29216276Y-54096309D01*
X29206341Y-54097608D01*
X29205254Y-54097750D01*
X29176569Y-54098207D01*
X29103259Y-54090987D01*
X29073788Y-54088084D01*
X29049568Y-54083267D01*
X28930454Y-54047134D01*
X28907645Y-54037685D01*
X28797876Y-53979013D01*
X28777345Y-53965295D01*
X28681124Y-53886329D01*
X28663671Y-53868876D01*
X28584705Y-53772655D01*
X28570987Y-53752124D01*
X28512315Y-53642355D01*
X28502866Y-53619546D01*
X28466733Y-53500432D01*
X28461916Y-53476212D01*
X28452711Y-53382755D01*
X28452607Y-53359151D01*
X28452768Y-53357354D01*
X28453576Y-53352552D01*
X28453729Y-53340000D01*
X28449773Y-53312376D01*
X28448500Y-53294514D01*
X28448500Y-48236695D01*
X29117251Y-48236695D01*
X29117548Y-48241848D01*
X29117548Y-48241851D01*
X29120860Y-48299291D01*
X29130110Y-48459715D01*
X29131247Y-48464761D01*
X29131248Y-48464767D01*
X29146558Y-48532699D01*
X29179222Y-48677639D01*
X29211231Y-48756468D01*
X29259970Y-48876498D01*
X29263266Y-48884616D01*
X29305306Y-48953220D01*
X29352580Y-49030363D01*
X29379987Y-49075088D01*
X29526250Y-49243938D01*
X29698126Y-49386632D01*
X29891000Y-49499338D01*
X29895825Y-49501180D01*
X29895826Y-49501181D01*
X29908784Y-49506129D01*
X30099692Y-49579030D01*
X30104760Y-49580061D01*
X30104763Y-49580062D01*
X30200521Y-49599544D01*
X30318597Y-49623567D01*
X30323772Y-49623757D01*
X30323774Y-49623757D01*
X30536673Y-49631564D01*
X30536677Y-49631564D01*
X30541837Y-49631753D01*
X30546957Y-49631097D01*
X30546959Y-49631097D01*
X30758288Y-49604025D01*
X30758289Y-49604025D01*
X30763416Y-49603368D01*
X30786405Y-49596471D01*
X30972429Y-49540661D01*
X30972434Y-49540659D01*
X30977384Y-49539174D01*
X31177994Y-49440896D01*
X31293775Y-49358311D01*
X31357304Y-49312997D01*
X31424378Y-49289723D01*
X31493386Y-49306407D01*
X31519567Y-49326481D01*
X32115333Y-49922247D01*
X32122877Y-49930537D01*
X32126990Y-49937018D01*
X32132767Y-49942443D01*
X32176657Y-49983658D01*
X32179499Y-49986413D01*
X32199221Y-50006135D01*
X32202345Y-50008558D01*
X32202349Y-50008562D01*
X32202414Y-50008612D01*
X32211435Y-50016317D01*
X32243669Y-50046586D01*
X32250617Y-50050405D01*
X32250619Y-50050407D01*
X32261422Y-50056346D01*
X32277949Y-50067202D01*
X32287688Y-50074757D01*
X32287690Y-50074758D01*
X32293950Y-50079614D01*
X32334530Y-50097174D01*
X32345178Y-50102391D01*
X32369966Y-50116018D01*
X32383930Y-50123695D01*
X32391606Y-50125666D01*
X32391609Y-50125667D01*
X32403552Y-50128733D01*
X32422257Y-50135137D01*
X32440845Y-50143181D01*
X32448668Y-50144420D01*
X32448678Y-50144423D01*
X32484514Y-50150099D01*
X32496134Y-50152505D01*
X32527949Y-50160673D01*
X32538960Y-50163500D01*
X32559214Y-50163500D01*
X32578924Y-50165051D01*
X32598933Y-50168220D01*
X32606825Y-50167474D01*
X32625570Y-50165702D01*
X32642952Y-50164059D01*
X32654809Y-50163500D01*
X44371233Y-50163500D01*
X44382416Y-50164027D01*
X44389909Y-50165702D01*
X44397835Y-50165453D01*
X44397836Y-50165453D01*
X44457986Y-50163562D01*
X44461945Y-50163500D01*
X44489856Y-50163500D01*
X44493791Y-50163003D01*
X44493856Y-50162995D01*
X44505693Y-50162062D01*
X44537951Y-50161048D01*
X44541970Y-50160922D01*
X44549889Y-50160673D01*
X44569343Y-50155021D01*
X44588700Y-50151013D01*
X44600930Y-50149468D01*
X44600931Y-50149468D01*
X44608797Y-50148474D01*
X44616168Y-50145555D01*
X44616170Y-50145555D01*
X44649912Y-50132196D01*
X44661142Y-50128351D01*
X44695983Y-50118229D01*
X44695984Y-50118229D01*
X44703593Y-50116018D01*
X44710412Y-50111985D01*
X44710417Y-50111983D01*
X44721028Y-50105707D01*
X44738776Y-50097012D01*
X44757617Y-50089552D01*
X44793387Y-50063564D01*
X44803307Y-50057048D01*
X44834535Y-50038580D01*
X44834538Y-50038578D01*
X44841362Y-50034542D01*
X44855683Y-50020221D01*
X44870717Y-50007380D01*
X44872431Y-50006135D01*
X44887107Y-49995472D01*
X44915298Y-49961395D01*
X44923288Y-49952616D01*
X45006740Y-49869164D01*
X45025544Y-49853688D01*
X45032800Y-49848811D01*
X45032803Y-49848808D01*
X45036538Y-49846298D01*
X45065311Y-49820309D01*
X45138224Y-49754451D01*
X45150326Y-49744801D01*
X45207880Y-49704431D01*
X45223523Y-49695070D01*
X45259500Y-49676939D01*
X45276755Y-49669795D01*
X45309422Y-49659028D01*
X45324506Y-49655072D01*
X45340695Y-49651882D01*
X45376304Y-49644866D01*
X45385756Y-49643375D01*
X45444113Y-49636429D01*
X45472458Y-49633055D01*
X45474960Y-49632783D01*
X45591471Y-49621271D01*
X45591589Y-49621259D01*
X45591658Y-49621252D01*
X45591743Y-49621243D01*
X45591810Y-49621236D01*
X45599568Y-49620407D01*
X45599610Y-49620402D01*
X45599838Y-49620378D01*
X45600015Y-49620358D01*
X45600048Y-49620354D01*
X45600088Y-49620349D01*
X45600151Y-49620342D01*
X45600218Y-49620334D01*
X45600292Y-49620325D01*
X45603113Y-49619979D01*
X45607688Y-49619419D01*
X45607929Y-49619388D01*
X45608014Y-49619377D01*
X45739457Y-49602286D01*
X45739494Y-49602281D01*
X45739970Y-49602219D01*
X45740400Y-49602156D01*
X45740450Y-49602149D01*
X45756108Y-49599851D01*
X45756147Y-49599845D01*
X45756603Y-49599778D01*
X45757386Y-49599650D01*
X45762798Y-49598666D01*
X45774873Y-49596471D01*
X45774918Y-49596462D01*
X45775393Y-49596376D01*
X45829888Y-49585461D01*
X45919704Y-49567471D01*
X45919739Y-49567464D01*
X45920396Y-49567332D01*
X45921017Y-49567193D01*
X45921060Y-49567184D01*
X45942201Y-49562455D01*
X45942227Y-49562449D01*
X45942821Y-49562316D01*
X45943840Y-49562064D01*
X45966152Y-49556010D01*
X45966726Y-49555840D01*
X45966773Y-49555827D01*
X46041622Y-49533697D01*
X46119914Y-49510550D01*
X46130173Y-49506126D01*
X46147448Y-49500124D01*
X46163924Y-49495710D01*
X46163932Y-49495707D01*
X46169243Y-49494284D01*
X46174228Y-49491959D01*
X46174232Y-49491958D01*
X46237447Y-49462480D01*
X46277418Y-49443842D01*
X46286845Y-49439904D01*
X46321490Y-49427055D01*
X46366775Y-49402437D01*
X46370745Y-49400435D01*
X46371757Y-49399851D01*
X46376749Y-49397523D01*
X46378243Y-49396477D01*
X46380379Y-49395959D01*
X46379994Y-49395251D01*
X46447945Y-49358311D01*
X46447947Y-49358310D01*
X46462351Y-49350480D01*
X46462969Y-49350126D01*
X46481765Y-49339354D01*
X46481791Y-49339339D01*
X46482382Y-49339000D01*
X46483277Y-49338460D01*
X46502719Y-49326127D01*
X46625790Y-49244130D01*
X46640266Y-49234123D01*
X46640916Y-49233657D01*
X46654973Y-49223212D01*
X46760633Y-49141867D01*
X46766077Y-49137617D01*
X46766360Y-49137393D01*
X46773301Y-49131801D01*
X46782298Y-49124422D01*
X46863997Y-49057418D01*
X46865957Y-49055842D01*
X46934549Y-49001842D01*
X46942282Y-48996217D01*
X46986132Y-48966803D01*
X46999591Y-48958936D01*
X47030295Y-48943455D01*
X47047553Y-48936304D01*
X47063639Y-48930998D01*
X47085801Y-48923688D01*
X47103489Y-48919244D01*
X47172739Y-48907092D01*
X47188120Y-48905359D01*
X47202507Y-48904628D01*
X47324965Y-48898402D01*
X47326256Y-48898283D01*
X47326261Y-48898283D01*
X47366718Y-48894565D01*
X47366742Y-48894824D01*
X47381138Y-48893500D01*
X47915623Y-48893500D01*
X47983744Y-48913502D01*
X48009128Y-48935044D01*
X48025545Y-48953220D01*
X48035194Y-48965320D01*
X48075568Y-49022879D01*
X48084929Y-49038523D01*
X48103060Y-49074500D01*
X48110204Y-49091755D01*
X48120971Y-49124422D01*
X48124927Y-49139506D01*
X48135131Y-49191294D01*
X48136625Y-49200760D01*
X48146944Y-49287458D01*
X48147216Y-49289960D01*
X48158745Y-49406638D01*
X48159572Y-49414410D01*
X48159613Y-49414769D01*
X48160583Y-49422713D01*
X48177779Y-49554966D01*
X48177855Y-49555485D01*
X48177861Y-49555525D01*
X48178825Y-49562064D01*
X48180324Y-49572238D01*
X48180454Y-49573027D01*
X48183624Y-49590394D01*
X48183721Y-49590881D01*
X48183729Y-49590920D01*
X48200114Y-49672724D01*
X48212667Y-49735394D01*
X48217683Y-49757821D01*
X48217935Y-49758840D01*
X48223990Y-49781154D01*
X48269451Y-49934916D01*
X48270943Y-49938378D01*
X48270949Y-49938393D01*
X48273875Y-49945180D01*
X48279874Y-49962443D01*
X48285716Y-49984243D01*
X48288041Y-49989229D01*
X48380151Y-50186762D01*
X48380154Y-50186767D01*
X48382477Y-50191749D01*
X48513802Y-50379300D01*
X48675700Y-50541198D01*
X48680208Y-50544355D01*
X48680211Y-50544357D01*
X48758389Y-50599098D01*
X48863251Y-50672523D01*
X48868233Y-50674846D01*
X48868238Y-50674849D01*
X48902457Y-50690805D01*
X48955742Y-50737722D01*
X48975203Y-50805999D01*
X48954661Y-50873959D01*
X48902457Y-50919195D01*
X48868238Y-50935151D01*
X48868233Y-50935154D01*
X48863251Y-50937477D01*
X48758389Y-51010902D01*
X48680211Y-51065643D01*
X48680208Y-51065645D01*
X48675700Y-51068802D01*
X48513802Y-51230700D01*
X48382477Y-51418251D01*
X48380154Y-51423233D01*
X48380151Y-51423238D01*
X48288039Y-51620775D01*
X48285716Y-51625757D01*
X48226457Y-51846913D01*
X48206502Y-52075000D01*
X48226457Y-52303087D01*
X48285716Y-52524243D01*
X48288039Y-52529224D01*
X48288039Y-52529225D01*
X48380151Y-52726762D01*
X48380154Y-52726767D01*
X48382477Y-52731749D01*
X48513802Y-52919300D01*
X48675700Y-53081198D01*
X48680208Y-53084355D01*
X48680211Y-53084357D01*
X48758389Y-53139098D01*
X48863251Y-53212523D01*
X48868233Y-53214846D01*
X48868238Y-53214849D01*
X49039082Y-53294514D01*
X49070757Y-53309284D01*
X49076065Y-53310706D01*
X49076067Y-53310707D01*
X49286598Y-53367119D01*
X49286600Y-53367119D01*
X49291913Y-53368543D01*
X49520000Y-53388498D01*
X49748087Y-53368543D01*
X49753400Y-53367119D01*
X49753402Y-53367119D01*
X49963933Y-53310707D01*
X49963935Y-53310706D01*
X49969243Y-53309284D01*
X50000918Y-53294514D01*
X50171762Y-53214849D01*
X50171767Y-53214846D01*
X50176749Y-53212523D01*
X50281611Y-53139098D01*
X50359789Y-53084357D01*
X50359792Y-53084355D01*
X50364300Y-53081198D01*
X50526198Y-52919300D01*
X50657523Y-52731749D01*
X50659846Y-52726767D01*
X50659849Y-52726762D01*
X50751961Y-52529225D01*
X50751961Y-52529224D01*
X50754284Y-52524243D01*
X50813543Y-52303087D01*
X50833498Y-52075000D01*
X50813543Y-51846913D01*
X50754284Y-51625757D01*
X50751961Y-51620775D01*
X50659849Y-51423238D01*
X50659846Y-51423233D01*
X50657523Y-51418251D01*
X50526198Y-51230700D01*
X50364300Y-51068802D01*
X50359792Y-51065645D01*
X50359789Y-51065643D01*
X50281611Y-51010902D01*
X50176749Y-50937477D01*
X50171767Y-50935154D01*
X50171762Y-50935151D01*
X50137543Y-50919195D01*
X50084258Y-50872278D01*
X50064797Y-50804001D01*
X50085339Y-50736041D01*
X50137543Y-50690805D01*
X50171762Y-50674849D01*
X50171767Y-50674846D01*
X50176749Y-50672523D01*
X50281611Y-50599098D01*
X50359789Y-50544357D01*
X50359792Y-50544355D01*
X50364300Y-50541198D01*
X50526198Y-50379300D01*
X50657523Y-50191749D01*
X50659846Y-50186767D01*
X50659849Y-50186762D01*
X50751961Y-49989225D01*
X50751961Y-49989224D01*
X50754284Y-49984243D01*
X50762759Y-49952616D01*
X50812119Y-49768402D01*
X50812119Y-49768400D01*
X50813543Y-49763087D01*
X50833498Y-49535000D01*
X50813543Y-49306913D01*
X50812119Y-49301598D01*
X50755707Y-49091067D01*
X50755706Y-49091065D01*
X50754284Y-49085757D01*
X50747258Y-49070689D01*
X50659849Y-48883238D01*
X50659846Y-48883233D01*
X50657523Y-48878251D01*
X50569519Y-48752568D01*
X50529357Y-48695211D01*
X50529355Y-48695208D01*
X50526198Y-48690700D01*
X50364300Y-48528802D01*
X50359792Y-48525645D01*
X50359789Y-48525643D01*
X50258253Y-48454547D01*
X50176749Y-48397477D01*
X50171767Y-48395154D01*
X50171762Y-48395151D01*
X49974225Y-48303039D01*
X49974224Y-48303039D01*
X49969243Y-48300716D01*
X49963930Y-48299292D01*
X49963926Y-48299291D01*
X49946150Y-48294528D01*
X49926201Y-48287335D01*
X49919916Y-48284451D01*
X49775831Y-48241851D01*
X49766804Y-48239182D01*
X49766789Y-48239178D01*
X49766154Y-48238990D01*
X49765521Y-48238818D01*
X49765499Y-48238812D01*
X49744478Y-48233108D01*
X49744468Y-48233105D01*
X49743840Y-48232935D01*
X49742821Y-48232683D01*
X49742227Y-48232550D01*
X49742201Y-48232544D01*
X49721060Y-48227815D01*
X49721017Y-48227806D01*
X49720396Y-48227667D01*
X49719739Y-48227535D01*
X49719704Y-48227528D01*
X49602632Y-48204079D01*
X49575393Y-48198623D01*
X49574918Y-48198537D01*
X49574873Y-48198528D01*
X49562798Y-48196333D01*
X49557386Y-48195349D01*
X49556603Y-48195221D01*
X49556147Y-48195154D01*
X49556108Y-48195148D01*
X49540450Y-48192850D01*
X49540400Y-48192843D01*
X49539970Y-48192780D01*
X49539494Y-48192718D01*
X49539457Y-48192713D01*
X49408014Y-48175622D01*
X49407929Y-48175611D01*
X49407688Y-48175580D01*
X49403113Y-48175020D01*
X49400292Y-48174674D01*
X49400218Y-48174665D01*
X49400151Y-48174657D01*
X49400088Y-48174650D01*
X49400048Y-48174645D01*
X49400015Y-48174641D01*
X49399838Y-48174621D01*
X49399610Y-48174597D01*
X49399568Y-48174592D01*
X49391810Y-48173763D01*
X49391743Y-48173756D01*
X49391658Y-48173747D01*
X49391589Y-48173740D01*
X49391471Y-48173728D01*
X49274960Y-48162216D01*
X49272458Y-48161944D01*
X49244113Y-48158570D01*
X49185756Y-48151624D01*
X49176304Y-48150133D01*
X49134037Y-48141805D01*
X49124506Y-48139927D01*
X49109422Y-48135971D01*
X49076755Y-48125204D01*
X49059500Y-48118060D01*
X49023523Y-48099929D01*
X49007881Y-48090569D01*
X48950322Y-48050196D01*
X48938223Y-48040548D01*
X48935236Y-48037850D01*
X48836536Y-47948700D01*
X48804320Y-47921905D01*
X48804485Y-47921706D01*
X48793355Y-47912450D01*
X48748652Y-47867747D01*
X48741112Y-47859461D01*
X48737000Y-47852982D01*
X48687348Y-47806356D01*
X48684507Y-47803602D01*
X48664770Y-47783865D01*
X48661573Y-47781385D01*
X48652551Y-47773680D01*
X48620321Y-47743414D01*
X48613375Y-47739595D01*
X48613372Y-47739593D01*
X48602566Y-47733652D01*
X48586047Y-47722801D01*
X48585583Y-47722441D01*
X48570041Y-47710386D01*
X48562772Y-47707241D01*
X48562768Y-47707238D01*
X48529463Y-47692826D01*
X48518813Y-47687609D01*
X48480060Y-47666305D01*
X48460437Y-47661267D01*
X48441734Y-47654863D01*
X48430420Y-47649967D01*
X48430419Y-47649967D01*
X48423145Y-47646819D01*
X48415322Y-47645580D01*
X48415312Y-47645577D01*
X48379476Y-47639901D01*
X48367856Y-47637495D01*
X48332711Y-47628472D01*
X48332710Y-47628472D01*
X48325030Y-47626500D01*
X48304776Y-47626500D01*
X48285065Y-47624949D01*
X48272886Y-47623020D01*
X48265057Y-47621780D01*
X48257165Y-47622526D01*
X48221039Y-47625941D01*
X48209181Y-47626500D01*
X47362206Y-47626500D01*
X47337966Y-47624146D01*
X47324964Y-47621597D01*
X47188110Y-47614640D01*
X47172733Y-47612906D01*
X47103488Y-47600754D01*
X47085800Y-47596310D01*
X47047553Y-47583695D01*
X47030293Y-47576544D01*
X46999595Y-47561066D01*
X46986127Y-47553194D01*
X46963128Y-47537765D01*
X46962940Y-47537638D01*
X46942274Y-47523775D01*
X46934525Y-47518139D01*
X46865940Y-47464145D01*
X46863977Y-47462567D01*
X46773560Y-47388411D01*
X46773551Y-47388403D01*
X46773299Y-47388197D01*
X46765990Y-47382313D01*
X46765709Y-47382091D01*
X46760633Y-47378132D01*
X46654973Y-47296787D01*
X46640916Y-47286342D01*
X46640266Y-47285876D01*
X46625790Y-47275869D01*
X46502707Y-47193864D01*
X46482997Y-47181369D01*
X46482124Y-47180843D01*
X46481452Y-47180458D01*
X46463023Y-47169904D01*
X46462987Y-47169884D01*
X46462369Y-47169530D01*
X46379993Y-47124749D01*
X46380281Y-47124220D01*
X46378420Y-47123647D01*
X46376749Y-47122477D01*
X46371750Y-47120146D01*
X46370742Y-47119564D01*
X46366775Y-47117563D01*
X46324799Y-47094744D01*
X46321490Y-47092945D01*
X46317999Y-47091557D01*
X46317992Y-47091554D01*
X46270154Y-47072538D01*
X46263449Y-47069645D01*
X46174225Y-47028039D01*
X46174224Y-47028038D01*
X46169243Y-47025716D01*
X46163935Y-47024294D01*
X46163933Y-47024293D01*
X45953402Y-46967881D01*
X45953400Y-46967881D01*
X45948087Y-46966457D01*
X45720000Y-46946502D01*
X45491913Y-46966457D01*
X45486600Y-46967881D01*
X45486598Y-46967881D01*
X45276067Y-47024293D01*
X45276065Y-47024294D01*
X45270757Y-47025716D01*
X45265776Y-47028039D01*
X45265775Y-47028039D01*
X45068238Y-47120151D01*
X45068233Y-47120154D01*
X45063251Y-47122477D01*
X44961300Y-47193864D01*
X44880211Y-47250643D01*
X44880208Y-47250645D01*
X44875700Y-47253802D01*
X44713802Y-47415700D01*
X44582477Y-47603251D01*
X44580154Y-47608233D01*
X44580151Y-47608238D01*
X44499409Y-47781392D01*
X44485716Y-47810757D01*
X44484294Y-47816065D01*
X44484293Y-47816067D01*
X44479528Y-47833851D01*
X44472336Y-47853797D01*
X44469451Y-47860083D01*
X44468173Y-47864406D01*
X44468171Y-47864411D01*
X44443250Y-47948700D01*
X44423990Y-48013844D01*
X44417935Y-48036159D01*
X44417683Y-48037178D01*
X44412667Y-48059605D01*
X44412529Y-48060292D01*
X44412526Y-48060308D01*
X44385457Y-48195455D01*
X44383624Y-48204605D01*
X44380454Y-48221972D01*
X44380324Y-48222761D01*
X44380248Y-48223277D01*
X44377933Y-48238990D01*
X44377779Y-48240033D01*
X44377704Y-48240610D01*
X44372004Y-48284451D01*
X44360583Y-48372286D01*
X44359662Y-48379808D01*
X44359623Y-48380147D01*
X44358747Y-48388341D01*
X44358718Y-48388636D01*
X44347216Y-48505039D01*
X44346944Y-48507541D01*
X44336625Y-48594239D01*
X44335131Y-48603705D01*
X44324927Y-48655493D01*
X44320971Y-48670577D01*
X44310204Y-48703244D01*
X44303060Y-48720499D01*
X44284929Y-48756476D01*
X44275569Y-48772118D01*
X44235199Y-48829673D01*
X44225547Y-48841777D01*
X44213641Y-48854958D01*
X44153136Y-48892102D01*
X44120138Y-48896500D01*
X36904194Y-48896500D01*
X36836073Y-48876498D01*
X36789580Y-48822842D01*
X36779476Y-48752568D01*
X36790000Y-48717249D01*
X36791488Y-48714058D01*
X36795236Y-48703761D01*
X36851625Y-48493312D01*
X36853528Y-48482519D01*
X36872517Y-48265475D01*
X36872517Y-48254525D01*
X36853528Y-48037481D01*
X36851625Y-48026688D01*
X36795236Y-47816239D01*
X36791490Y-47805947D01*
X36699414Y-47608489D01*
X36693931Y-47598994D01*
X36657491Y-47546952D01*
X36647012Y-47538576D01*
X36633566Y-47545644D01*
X35649095Y-48530115D01*
X35586783Y-48564141D01*
X35515968Y-48559076D01*
X35470905Y-48530115D01*
X35289885Y-48349095D01*
X35255859Y-48286783D01*
X35260924Y-48215968D01*
X35289885Y-48170905D01*
X36275077Y-47185713D01*
X36281507Y-47173938D01*
X36272211Y-47161923D01*
X36221006Y-47126069D01*
X36211511Y-47120586D01*
X36014053Y-47028510D01*
X36003761Y-47024764D01*
X35793312Y-46968375D01*
X35782519Y-46966472D01*
X35565475Y-46947483D01*
X35554516Y-46947483D01*
X35552972Y-46947618D01*
X35552300Y-46947483D01*
X35549019Y-46947483D01*
X35549019Y-46946823D01*
X35483368Y-46933626D01*
X35432378Y-46884224D01*
X35416192Y-46815097D01*
X35439947Y-46748193D01*
X35452902Y-46733002D01*
X36591056Y-45594849D01*
X38335500Y-43850405D01*
X38397812Y-43816379D01*
X38424595Y-43813500D01*
X44077795Y-43813500D01*
X44102035Y-43815854D01*
X44110612Y-43817536D01*
X44110622Y-43817537D01*
X44115033Y-43818402D01*
X44251893Y-43825359D01*
X44267268Y-43827093D01*
X44336515Y-43839245D01*
X44354198Y-43843688D01*
X44371400Y-43849362D01*
X44392447Y-43856304D01*
X44409704Y-43863454D01*
X44412132Y-43864678D01*
X44440404Y-43878933D01*
X44453872Y-43886805D01*
X44476871Y-43902234D01*
X44476906Y-43902258D01*
X44488615Y-43910112D01*
X44497717Y-43916217D01*
X44497730Y-43916226D01*
X44505457Y-43921847D01*
X44574045Y-43975842D01*
X44575969Y-43977389D01*
X44592425Y-43990886D01*
X44666698Y-44051801D01*
X44666760Y-44051851D01*
X44666829Y-44051907D01*
X44670381Y-44054769D01*
X44673639Y-44057393D01*
X44673922Y-44057617D01*
X44679366Y-44061867D01*
X44785026Y-44143212D01*
X44799083Y-44153657D01*
X44799733Y-44154123D01*
X44814209Y-44164130D01*
X44814637Y-44164415D01*
X44936689Y-44245734D01*
X44936734Y-44245763D01*
X44937280Y-44246127D01*
X44956870Y-44258550D01*
X44957769Y-44259092D01*
X44977645Y-44270478D01*
X45048196Y-44308831D01*
X45060007Y-44315252D01*
X45059717Y-44315786D01*
X45061585Y-44316357D01*
X45063251Y-44317523D01*
X45068229Y-44319844D01*
X45069231Y-44320423D01*
X45073224Y-44322437D01*
X45118512Y-44347056D01*
X45122010Y-44348447D01*
X45122013Y-44348448D01*
X45169865Y-44367471D01*
X45176564Y-44370361D01*
X45270757Y-44414284D01*
X45276065Y-44415706D01*
X45276067Y-44415707D01*
X45486598Y-44472119D01*
X45486600Y-44472119D01*
X45491913Y-44473543D01*
X45720000Y-44493498D01*
X45948087Y-44473543D01*
X45953400Y-44472119D01*
X45953402Y-44472119D01*
X46163933Y-44415707D01*
X46163935Y-44415706D01*
X46169243Y-44414284D01*
X46197486Y-44401114D01*
X46277412Y-44363844D01*
X46286846Y-44359903D01*
X46321490Y-44347055D01*
X46366775Y-44322437D01*
X46370745Y-44320435D01*
X46371757Y-44319851D01*
X46376749Y-44317523D01*
X46378243Y-44316477D01*
X46380379Y-44315959D01*
X46379994Y-44315251D01*
X46462356Y-44270477D01*
X46482230Y-44259092D01*
X46483129Y-44258550D01*
X46502719Y-44246127D01*
X46503265Y-44245763D01*
X46503310Y-44245734D01*
X46625362Y-44164415D01*
X46625790Y-44164130D01*
X46640266Y-44154123D01*
X46640916Y-44153657D01*
X46654973Y-44143212D01*
X46760633Y-44061867D01*
X46766077Y-44057617D01*
X46766360Y-44057393D01*
X46773301Y-44051801D01*
X46775670Y-44049858D01*
X46863997Y-43977418D01*
X46865957Y-43975842D01*
X46934549Y-43921842D01*
X46942282Y-43916217D01*
X46963090Y-43902259D01*
X46986132Y-43886803D01*
X46999591Y-43878936D01*
X47030295Y-43863455D01*
X47047553Y-43856304D01*
X47068599Y-43849362D01*
X47085801Y-43843688D01*
X47103489Y-43839244D01*
X47172739Y-43827092D01*
X47188120Y-43825359D01*
X47202507Y-43824628D01*
X47324965Y-43818402D01*
X47326256Y-43818283D01*
X47326261Y-43818283D01*
X47366718Y-43814565D01*
X47366742Y-43814824D01*
X47381138Y-43813500D01*
X48176233Y-43813500D01*
X48187431Y-43814031D01*
X48191087Y-43814848D01*
X48255360Y-43840535D01*
X48296575Y-43898344D01*
X48299994Y-43969258D01*
X48291723Y-43992874D01*
X48285716Y-44005757D01*
X48284294Y-44011065D01*
X48284293Y-44011067D01*
X48244378Y-44160031D01*
X48226457Y-44226913D01*
X48206502Y-44455000D01*
X48226457Y-44683087D01*
X48227881Y-44688400D01*
X48227881Y-44688402D01*
X48238987Y-44729848D01*
X48285716Y-44904243D01*
X48288039Y-44909224D01*
X48288039Y-44909225D01*
X48380151Y-45106762D01*
X48380154Y-45106767D01*
X48382477Y-45111749D01*
X48385634Y-45116257D01*
X48489293Y-45264297D01*
X48513802Y-45299300D01*
X48675700Y-45461198D01*
X48680208Y-45464355D01*
X48680211Y-45464357D01*
X48758389Y-45519098D01*
X48863251Y-45592523D01*
X48868233Y-45594846D01*
X48868238Y-45594849D01*
X49065775Y-45686961D01*
X49070757Y-45689284D01*
X49076065Y-45690706D01*
X49076067Y-45690707D01*
X49286598Y-45747119D01*
X49286600Y-45747119D01*
X49291913Y-45748543D01*
X49520000Y-45768498D01*
X49748087Y-45748543D01*
X49753400Y-45747119D01*
X49753402Y-45747119D01*
X49963933Y-45690707D01*
X49963935Y-45690706D01*
X49969243Y-45689284D01*
X49974225Y-45686961D01*
X50171762Y-45594849D01*
X50171767Y-45594846D01*
X50176749Y-45592523D01*
X50281611Y-45519098D01*
X50359789Y-45464357D01*
X50359792Y-45464355D01*
X50364300Y-45461198D01*
X50526198Y-45299300D01*
X50550708Y-45264297D01*
X50654366Y-45116257D01*
X50657523Y-45111749D01*
X50659846Y-45106767D01*
X50659849Y-45106762D01*
X50751961Y-44909225D01*
X50751961Y-44909224D01*
X50754284Y-44904243D01*
X50801014Y-44729848D01*
X50812119Y-44688402D01*
X50812119Y-44688400D01*
X50813543Y-44683087D01*
X50833498Y-44455000D01*
X50813543Y-44226913D01*
X50795622Y-44160031D01*
X50755707Y-44011067D01*
X50755706Y-44011065D01*
X50754284Y-44005757D01*
X50747258Y-43990689D01*
X50659849Y-43803238D01*
X50659846Y-43803233D01*
X50657523Y-43798251D01*
X50582993Y-43691811D01*
X50529357Y-43615211D01*
X50529355Y-43615208D01*
X50526198Y-43610700D01*
X50364300Y-43448802D01*
X50359792Y-43445645D01*
X50359789Y-43445643D01*
X50258253Y-43374547D01*
X50176749Y-43317477D01*
X50171767Y-43315154D01*
X50171762Y-43315151D01*
X50137543Y-43299195D01*
X50084258Y-43252278D01*
X50064797Y-43184001D01*
X50085339Y-43116041D01*
X50137543Y-43070805D01*
X50171762Y-43054849D01*
X50171767Y-43054846D01*
X50176749Y-43052523D01*
X50281611Y-42979098D01*
X50359789Y-42924357D01*
X50359792Y-42924355D01*
X50364300Y-42921198D01*
X50526198Y-42759300D01*
X50535709Y-42745718D01*
X50648320Y-42584892D01*
X50657523Y-42571749D01*
X50659846Y-42566767D01*
X50659849Y-42566762D01*
X50751961Y-42369225D01*
X50751961Y-42369224D01*
X50754284Y-42364243D01*
X50755892Y-42358244D01*
X50812119Y-42148402D01*
X50812119Y-42148400D01*
X50813543Y-42143087D01*
X50833498Y-41915000D01*
X50813543Y-41686913D01*
X50808898Y-41669577D01*
X50755707Y-41471067D01*
X50755706Y-41471065D01*
X50754284Y-41465757D01*
X50666989Y-41278551D01*
X50659849Y-41263238D01*
X50659846Y-41263233D01*
X50657523Y-41258251D01*
X50526198Y-41070700D01*
X50364300Y-40908802D01*
X50359792Y-40905645D01*
X50359789Y-40905643D01*
X50258253Y-40834547D01*
X50176749Y-40777477D01*
X50171767Y-40775154D01*
X50171762Y-40775151D01*
X49974225Y-40683039D01*
X49974224Y-40683039D01*
X49969243Y-40680716D01*
X49963935Y-40679294D01*
X49963933Y-40679293D01*
X49753402Y-40622881D01*
X49753400Y-40622881D01*
X49748087Y-40621457D01*
X49520000Y-40601502D01*
X49291913Y-40621457D01*
X49286600Y-40622881D01*
X49286598Y-40622881D01*
X49076067Y-40679293D01*
X49076065Y-40679294D01*
X49070757Y-40680716D01*
X49065776Y-40683039D01*
X49065775Y-40683039D01*
X48868238Y-40775151D01*
X48868233Y-40775154D01*
X48863251Y-40777477D01*
X48781747Y-40834547D01*
X48680211Y-40905643D01*
X48680208Y-40905645D01*
X48675700Y-40908802D01*
X48513802Y-41070700D01*
X48382477Y-41258251D01*
X48380154Y-41263233D01*
X48380151Y-41263238D01*
X48373011Y-41278551D01*
X48285716Y-41465757D01*
X48284294Y-41471065D01*
X48284293Y-41471067D01*
X48279528Y-41488851D01*
X48272336Y-41508797D01*
X48269451Y-41515083D01*
X48223990Y-41668844D01*
X48217935Y-41691159D01*
X48217683Y-41692178D01*
X48212667Y-41714605D01*
X48212529Y-41715292D01*
X48212526Y-41715308D01*
X48193665Y-41809476D01*
X48183624Y-41859605D01*
X48183532Y-41860110D01*
X48183528Y-41860130D01*
X48182365Y-41866502D01*
X48180454Y-41876972D01*
X48180324Y-41877761D01*
X48180248Y-41878277D01*
X48179043Y-41886457D01*
X48177779Y-41895033D01*
X48177704Y-41895610D01*
X48162214Y-42014744D01*
X48160583Y-42027286D01*
X48159662Y-42034808D01*
X48159623Y-42035147D01*
X48159599Y-42035374D01*
X48159588Y-42035470D01*
X48159158Y-42039495D01*
X48158747Y-42043341D01*
X48154184Y-42089521D01*
X48147216Y-42160039D01*
X48146944Y-42162541D01*
X48140488Y-42216787D01*
X48136625Y-42249239D01*
X48135133Y-42258695D01*
X48128117Y-42294304D01*
X48124927Y-42310493D01*
X48120971Y-42325577D01*
X48110204Y-42358244D01*
X48103060Y-42375499D01*
X48084929Y-42411476D01*
X48075569Y-42427118D01*
X48037733Y-42481061D01*
X48035199Y-42484673D01*
X48025551Y-42496773D01*
X48018155Y-42504961D01*
X47957649Y-42542103D01*
X47924654Y-42546500D01*
X47362206Y-42546500D01*
X47337966Y-42544146D01*
X47324964Y-42541597D01*
X47188110Y-42534640D01*
X47172733Y-42532906D01*
X47103488Y-42520754D01*
X47085800Y-42516310D01*
X47047553Y-42503695D01*
X47030293Y-42496544D01*
X46999595Y-42481066D01*
X46986127Y-42473194D01*
X46963128Y-42457765D01*
X46962940Y-42457638D01*
X46942274Y-42443775D01*
X46934525Y-42438139D01*
X46865940Y-42384145D01*
X46863977Y-42382567D01*
X46773560Y-42308411D01*
X46773551Y-42308403D01*
X46773299Y-42308197D01*
X46765990Y-42302313D01*
X46765709Y-42302091D01*
X46760633Y-42298132D01*
X46714408Y-42262544D01*
X46655403Y-42217118D01*
X46655400Y-42217115D01*
X46654973Y-42216787D01*
X46640916Y-42206342D01*
X46640266Y-42205876D01*
X46625790Y-42195869D01*
X46502707Y-42113864D01*
X46482997Y-42101369D01*
X46482124Y-42100843D01*
X46481452Y-42100458D01*
X46463023Y-42089904D01*
X46462987Y-42089884D01*
X46462369Y-42089530D01*
X46379993Y-42044749D01*
X46380281Y-42044220D01*
X46378420Y-42043647D01*
X46376749Y-42042477D01*
X46371750Y-42040146D01*
X46370742Y-42039564D01*
X46366775Y-42037563D01*
X46324799Y-42014744D01*
X46321490Y-42012945D01*
X46317999Y-42011557D01*
X46317992Y-42011554D01*
X46270154Y-41992538D01*
X46263449Y-41989645D01*
X46174225Y-41948039D01*
X46174224Y-41948038D01*
X46169243Y-41945716D01*
X46163935Y-41944294D01*
X46163933Y-41944293D01*
X45953402Y-41887881D01*
X45953400Y-41887881D01*
X45948087Y-41886457D01*
X45720000Y-41866502D01*
X45491913Y-41886457D01*
X45486600Y-41887881D01*
X45486598Y-41887881D01*
X45276067Y-41944293D01*
X45276065Y-41944294D01*
X45270757Y-41945716D01*
X45265774Y-41948039D01*
X45265770Y-41948041D01*
X45162590Y-41996154D01*
X45153157Y-42000095D01*
X45118513Y-42012943D01*
X45078924Y-42034464D01*
X45073219Y-42037565D01*
X45069241Y-42039572D01*
X45068238Y-42040151D01*
X45063251Y-42042477D01*
X45061770Y-42043514D01*
X45059626Y-42044034D01*
X45060012Y-42044745D01*
X44978249Y-42089192D01*
X44978205Y-42089216D01*
X44977645Y-42089521D01*
X44957768Y-42100908D01*
X44956869Y-42101450D01*
X44937280Y-42113872D01*
X44936689Y-42114266D01*
X44936644Y-42114295D01*
X44814727Y-42195523D01*
X44814683Y-42195553D01*
X44814210Y-42195868D01*
X44813750Y-42196186D01*
X44813722Y-42196205D01*
X44800207Y-42205548D01*
X44799733Y-42205876D01*
X44799083Y-42206342D01*
X44785026Y-42216787D01*
X44784599Y-42217115D01*
X44784596Y-42217118D01*
X44725592Y-42262544D01*
X44679366Y-42298132D01*
X44674290Y-42302091D01*
X44674009Y-42302313D01*
X44666700Y-42308197D01*
X44666448Y-42308403D01*
X44666439Y-42308411D01*
X44576022Y-42382567D01*
X44574059Y-42384145D01*
X44505463Y-42438148D01*
X44497724Y-42443777D01*
X44453864Y-42473199D01*
X44440412Y-42481061D01*
X44409704Y-42496544D01*
X44392446Y-42503695D01*
X44388608Y-42504961D01*
X44354198Y-42516311D01*
X44336510Y-42520755D01*
X44267260Y-42532907D01*
X44251879Y-42534640D01*
X44208927Y-42536824D01*
X44115035Y-42541597D01*
X44113753Y-42541715D01*
X44113737Y-42541716D01*
X44073226Y-42545441D01*
X44073202Y-42545178D01*
X44058835Y-42546500D01*
X38983894Y-42546500D01*
X38915773Y-42526498D01*
X38869280Y-42472842D01*
X38859176Y-42402568D01*
X38888670Y-42337988D01*
X38894799Y-42331405D01*
X42606289Y-38619916D01*
X42668601Y-38585890D01*
X42695384Y-38583011D01*
X49927022Y-38583011D01*
X49938205Y-38583538D01*
X49945698Y-38585213D01*
X49953624Y-38584964D01*
X49953625Y-38584964D01*
X50013775Y-38583073D01*
X50017734Y-38583011D01*
X50045645Y-38583011D01*
X50049580Y-38582514D01*
X50049645Y-38582506D01*
X50061482Y-38581573D01*
X50093740Y-38580559D01*
X50097759Y-38580433D01*
X50105678Y-38580184D01*
X50125132Y-38574532D01*
X50144489Y-38570524D01*
X50156719Y-38568979D01*
X50156720Y-38568979D01*
X50164586Y-38567985D01*
X50171957Y-38565066D01*
X50171959Y-38565066D01*
X50205701Y-38551707D01*
X50216931Y-38547862D01*
X50251772Y-38537740D01*
X50251773Y-38537740D01*
X50259382Y-38535529D01*
X50266201Y-38531496D01*
X50266206Y-38531494D01*
X50276817Y-38525218D01*
X50294565Y-38516523D01*
X50313406Y-38509063D01*
X50349176Y-38483075D01*
X50359096Y-38476559D01*
X50390324Y-38458091D01*
X50390327Y-38458089D01*
X50397151Y-38454053D01*
X50411472Y-38439732D01*
X50426506Y-38426891D01*
X50436483Y-38419642D01*
X50442896Y-38414983D01*
X50447947Y-38408878D01*
X50447952Y-38408873D01*
X50471088Y-38380907D01*
X50479076Y-38372129D01*
X51192253Y-37658952D01*
X51200539Y-37651412D01*
X51207018Y-37647300D01*
X51253644Y-37597648D01*
X51256398Y-37594807D01*
X51276135Y-37575070D01*
X51278615Y-37571873D01*
X51286320Y-37562851D01*
X51311159Y-37536400D01*
X51316586Y-37530621D01*
X51320405Y-37523675D01*
X51320407Y-37523672D01*
X51326348Y-37512866D01*
X51337199Y-37496347D01*
X51337559Y-37495883D01*
X51349614Y-37480341D01*
X51352759Y-37473072D01*
X51352762Y-37473068D01*
X51367174Y-37439763D01*
X51372391Y-37429113D01*
X51393695Y-37390360D01*
X51398733Y-37370737D01*
X51405137Y-37352034D01*
X51410033Y-37340720D01*
X51410033Y-37340719D01*
X51413181Y-37333445D01*
X51414420Y-37325622D01*
X51414423Y-37325612D01*
X51420099Y-37289776D01*
X51422505Y-37278156D01*
X51431528Y-37243011D01*
X51431528Y-37243010D01*
X51433500Y-37235330D01*
X51433500Y-37215076D01*
X51435051Y-37195365D01*
X51436980Y-37183186D01*
X51438220Y-37175357D01*
X51434059Y-37131338D01*
X51433500Y-37119481D01*
X51433500Y-29278767D01*
X51434027Y-29267584D01*
X51435702Y-29260091D01*
X51435206Y-29244293D01*
X51433562Y-29192014D01*
X51433500Y-29188055D01*
X51433500Y-29160144D01*
X51432995Y-29156144D01*
X51432062Y-29144301D01*
X51430922Y-29108029D01*
X51430673Y-29100110D01*
X51425022Y-29080658D01*
X51421014Y-29061306D01*
X51419467Y-29049063D01*
X51418474Y-29041203D01*
X51415556Y-29033832D01*
X51402200Y-29000097D01*
X51398355Y-28988870D01*
X51395283Y-28978297D01*
X51386018Y-28946407D01*
X51375707Y-28928972D01*
X51367012Y-28911224D01*
X51359552Y-28892383D01*
X51333564Y-28856613D01*
X51327048Y-28846693D01*
X51308580Y-28815465D01*
X51308578Y-28815462D01*
X51304542Y-28808638D01*
X51290221Y-28794317D01*
X51277380Y-28779283D01*
X51270131Y-28769306D01*
X51265472Y-28762893D01*
X51231395Y-28734702D01*
X51222616Y-28726712D01*
X51149164Y-28653260D01*
X51133688Y-28634456D01*
X51128811Y-28627200D01*
X51128808Y-28627197D01*
X51126298Y-28623462D01*
X51034449Y-28521774D01*
X51024801Y-28509675D01*
X50984433Y-28452124D01*
X50975069Y-28436475D01*
X50956940Y-28400500D01*
X50949792Y-28383238D01*
X50939027Y-28350576D01*
X50935072Y-28335493D01*
X50924868Y-28283705D01*
X50923374Y-28274239D01*
X50913055Y-28187541D01*
X50912783Y-28185039D01*
X50901281Y-28068636D01*
X50901252Y-28068341D01*
X50900376Y-28060147D01*
X50900337Y-28059808D01*
X50899416Y-28052286D01*
X50886117Y-27950000D01*
X50882295Y-27920610D01*
X50882220Y-27920033D01*
X50879675Y-27902761D01*
X50879545Y-27901972D01*
X50876375Y-27884605D01*
X50850954Y-27757688D01*
X50848500Y-27732942D01*
X50848500Y-27091866D01*
X50841745Y-27029684D01*
X50790615Y-26893295D01*
X50703261Y-26776739D01*
X50586705Y-26689385D01*
X50450316Y-26638255D01*
X50388134Y-26631500D01*
X48691866Y-26631500D01*
X48629684Y-26638255D01*
X48493295Y-26689385D01*
X48376739Y-26776739D01*
X48289385Y-26893295D01*
X48238255Y-27029684D01*
X48231500Y-27091866D01*
X48231500Y-28788134D01*
X48238255Y-28850316D01*
X48289385Y-28986705D01*
X48376739Y-29103261D01*
X48493295Y-29190615D01*
X48501703Y-29193767D01*
X48622286Y-29238972D01*
X48622289Y-29238973D01*
X48629684Y-29241745D01*
X48634734Y-29242294D01*
X48695294Y-29276889D01*
X48728116Y-29339844D01*
X48721691Y-29410549D01*
X48674366Y-29469114D01*
X48634210Y-29495868D01*
X48633749Y-29496187D01*
X48633722Y-29496205D01*
X48620207Y-29505548D01*
X48619733Y-29505876D01*
X48619083Y-29506342D01*
X48605026Y-29516787D01*
X48499366Y-29598132D01*
X48494290Y-29602091D01*
X48494009Y-29602313D01*
X48486700Y-29608197D01*
X48486448Y-29608403D01*
X48486439Y-29608411D01*
X48396022Y-29682567D01*
X48394059Y-29684145D01*
X48325463Y-29738148D01*
X48317724Y-29743777D01*
X48273864Y-29773199D01*
X48260412Y-29781061D01*
X48229704Y-29796544D01*
X48212446Y-29803695D01*
X48196360Y-29809001D01*
X48174198Y-29816311D01*
X48156510Y-29820755D01*
X48087260Y-29832907D01*
X48071879Y-29834640D01*
X48028927Y-29836824D01*
X47935035Y-29841597D01*
X47933753Y-29841715D01*
X47933737Y-29841716D01*
X47893226Y-29845441D01*
X47893202Y-29845178D01*
X47878835Y-29846500D01*
X47362206Y-29846500D01*
X47337966Y-29844146D01*
X47324964Y-29841597D01*
X47188110Y-29834640D01*
X47172733Y-29832906D01*
X47103488Y-29820754D01*
X47085800Y-29816310D01*
X47047553Y-29803695D01*
X47030293Y-29796544D01*
X46999593Y-29781065D01*
X46986127Y-29773194D01*
X46963128Y-29757765D01*
X46962940Y-29757638D01*
X46942274Y-29743775D01*
X46934525Y-29738139D01*
X46865940Y-29684145D01*
X46863977Y-29682567D01*
X46773560Y-29608411D01*
X46773551Y-29608403D01*
X46773299Y-29608197D01*
X46765990Y-29602313D01*
X46765709Y-29602091D01*
X46760633Y-29598132D01*
X46654973Y-29516787D01*
X46640916Y-29506342D01*
X46640266Y-29505876D01*
X46627238Y-29496870D01*
X46626207Y-29496157D01*
X46626187Y-29496143D01*
X46625790Y-29495869D01*
X46502707Y-29413864D01*
X46482997Y-29401369D01*
X46482124Y-29400843D01*
X46481452Y-29400458D01*
X46463023Y-29389904D01*
X46462987Y-29389884D01*
X46462369Y-29389530D01*
X46379993Y-29344749D01*
X46380281Y-29344220D01*
X46378420Y-29343647D01*
X46376749Y-29342477D01*
X46371750Y-29340146D01*
X46370742Y-29339564D01*
X46366775Y-29337563D01*
X46324799Y-29314744D01*
X46321490Y-29312945D01*
X46317999Y-29311557D01*
X46317992Y-29311554D01*
X46270154Y-29292538D01*
X46263449Y-29289645D01*
X46174225Y-29248039D01*
X46174224Y-29248038D01*
X46169243Y-29245716D01*
X46163935Y-29244294D01*
X46163933Y-29244293D01*
X45953402Y-29187881D01*
X45953400Y-29187881D01*
X45948087Y-29186457D01*
X45720000Y-29166502D01*
X45491913Y-29186457D01*
X45486600Y-29187881D01*
X45486598Y-29187881D01*
X45276067Y-29244293D01*
X45276065Y-29244294D01*
X45270757Y-29245716D01*
X45265776Y-29248039D01*
X45265775Y-29248039D01*
X45068238Y-29340151D01*
X45068233Y-29340154D01*
X45063251Y-29342477D01*
X44961300Y-29413864D01*
X44880211Y-29470643D01*
X44880208Y-29470645D01*
X44875700Y-29473802D01*
X44713802Y-29635700D01*
X44582477Y-29823251D01*
X44580154Y-29828233D01*
X44580151Y-29828238D01*
X44493245Y-30014610D01*
X44485716Y-30030757D01*
X44484294Y-30036065D01*
X44484293Y-30036067D01*
X44427881Y-30246598D01*
X44426457Y-30251913D01*
X44406502Y-30480000D01*
X44426457Y-30708087D01*
X44427881Y-30713400D01*
X44427881Y-30713402D01*
X44477248Y-30897639D01*
X44485716Y-30929243D01*
X44488039Y-30934224D01*
X44488039Y-30934225D01*
X44580151Y-31131762D01*
X44580154Y-31131767D01*
X44582477Y-31136749D01*
X44621218Y-31192077D01*
X44696080Y-31298990D01*
X44713802Y-31324300D01*
X44875700Y-31486198D01*
X44880208Y-31489355D01*
X44880211Y-31489357D01*
X44939931Y-31531173D01*
X45063251Y-31617523D01*
X45068233Y-31619846D01*
X45068238Y-31619849D01*
X45253633Y-31706299D01*
X45270757Y-31714284D01*
X45276065Y-31715706D01*
X45276067Y-31715707D01*
X45486598Y-31772119D01*
X45486600Y-31772119D01*
X45491913Y-31773543D01*
X45720000Y-31793498D01*
X45948087Y-31773543D01*
X45953400Y-31772119D01*
X45953402Y-31772119D01*
X46163933Y-31715707D01*
X46163935Y-31715706D01*
X46169243Y-31714284D01*
X46197486Y-31701114D01*
X46277412Y-31663844D01*
X46286846Y-31659903D01*
X46321490Y-31647055D01*
X46366775Y-31622437D01*
X46370745Y-31620435D01*
X46371757Y-31619851D01*
X46376749Y-31617523D01*
X46378243Y-31616477D01*
X46380379Y-31615959D01*
X46379994Y-31615251D01*
X46382422Y-31613931D01*
X46462356Y-31570477D01*
X46482230Y-31559092D01*
X46483129Y-31558550D01*
X46502719Y-31546127D01*
X46503265Y-31545763D01*
X46503310Y-31545734D01*
X46625362Y-31464415D01*
X46625790Y-31464130D01*
X46640266Y-31454123D01*
X46640916Y-31453657D01*
X46654973Y-31443212D01*
X46760633Y-31361867D01*
X46766077Y-31357617D01*
X46766360Y-31357393D01*
X46773301Y-31351801D01*
X46775670Y-31349858D01*
X46863997Y-31277418D01*
X46865957Y-31275842D01*
X46934549Y-31221842D01*
X46942282Y-31216217D01*
X46963090Y-31202259D01*
X46986132Y-31186803D01*
X46999591Y-31178936D01*
X47030295Y-31163455D01*
X47047553Y-31156304D01*
X47063639Y-31150998D01*
X47085801Y-31143688D01*
X47103489Y-31139244D01*
X47172739Y-31127092D01*
X47188120Y-31125359D01*
X47202507Y-31124628D01*
X47324965Y-31118402D01*
X47326256Y-31118283D01*
X47326261Y-31118283D01*
X47366718Y-31114565D01*
X47366742Y-31114824D01*
X47381138Y-31113500D01*
X47897795Y-31113500D01*
X47922035Y-31115854D01*
X47930612Y-31117536D01*
X47930622Y-31117537D01*
X47935033Y-31118402D01*
X48071893Y-31125359D01*
X48087268Y-31127093D01*
X48156515Y-31139245D01*
X48174198Y-31143688D01*
X48204928Y-31153824D01*
X48212447Y-31156304D01*
X48229706Y-31163455D01*
X48260404Y-31178933D01*
X48273872Y-31186805D01*
X48296871Y-31202234D01*
X48296906Y-31202258D01*
X48308615Y-31210112D01*
X48317717Y-31216217D01*
X48317730Y-31216226D01*
X48325457Y-31221847D01*
X48394045Y-31275842D01*
X48395969Y-31277389D01*
X48412425Y-31290886D01*
X48486698Y-31351801D01*
X48486760Y-31351851D01*
X48486829Y-31351907D01*
X48490381Y-31354769D01*
X48493639Y-31357393D01*
X48493922Y-31357617D01*
X48499366Y-31361867D01*
X48605026Y-31443212D01*
X48619083Y-31453657D01*
X48619733Y-31454123D01*
X48634209Y-31464130D01*
X48634637Y-31464415D01*
X48756689Y-31545734D01*
X48756734Y-31545763D01*
X48757280Y-31546127D01*
X48776870Y-31558550D01*
X48777769Y-31559092D01*
X48797645Y-31570478D01*
X48868952Y-31609242D01*
X48880007Y-31615252D01*
X48879717Y-31615786D01*
X48881585Y-31616357D01*
X48883251Y-31617523D01*
X48888229Y-31619844D01*
X48889231Y-31620423D01*
X48893224Y-31622437D01*
X48938512Y-31647056D01*
X48942010Y-31648447D01*
X48942013Y-31648448D01*
X48989865Y-31667471D01*
X48996564Y-31670361D01*
X49090757Y-31714284D01*
X49096065Y-31715706D01*
X49096067Y-31715707D01*
X49306598Y-31772119D01*
X49306600Y-31772119D01*
X49311913Y-31773543D01*
X49540000Y-31793498D01*
X49768087Y-31773543D01*
X49773400Y-31772119D01*
X49773402Y-31772119D01*
X49890225Y-31740816D01*
X49989243Y-31714284D01*
X49994227Y-31711960D01*
X49997403Y-31710804D01*
X50068257Y-31706299D01*
X50130298Y-31740816D01*
X50163829Y-31803396D01*
X50166500Y-31829204D01*
X50166500Y-32850500D01*
X50146498Y-32918621D01*
X50092842Y-32965114D01*
X50040500Y-32976500D01*
X48691866Y-32976500D01*
X48629684Y-32983255D01*
X48493295Y-33034385D01*
X48376739Y-33121739D01*
X48289385Y-33238295D01*
X48238255Y-33374684D01*
X48231500Y-33436866D01*
X48231500Y-33506781D01*
X48211498Y-33574902D01*
X48157842Y-33621395D01*
X48127278Y-33630885D01*
X48113303Y-33633337D01*
X48087259Y-33637907D01*
X48071879Y-33639640D01*
X48028927Y-33641824D01*
X47935035Y-33646597D01*
X47933753Y-33646715D01*
X47933737Y-33646716D01*
X47893226Y-33650441D01*
X47893202Y-33650178D01*
X47878835Y-33651500D01*
X41124773Y-33651500D01*
X41113589Y-33650973D01*
X41106101Y-33649299D01*
X41098178Y-33649548D01*
X41038043Y-33651438D01*
X41034085Y-33651500D01*
X41006154Y-33651500D01*
X41002239Y-33651995D01*
X41002235Y-33651995D01*
X41002177Y-33652003D01*
X41002148Y-33652006D01*
X40990306Y-33652939D01*
X40946120Y-33654327D01*
X40928754Y-33659372D01*
X40926668Y-33659978D01*
X40907316Y-33663986D01*
X40895078Y-33665532D01*
X40895076Y-33665533D01*
X40887213Y-33666526D01*
X40846096Y-33682806D01*
X40834895Y-33686641D01*
X40792416Y-33698982D01*
X40785597Y-33703015D01*
X40785592Y-33703017D01*
X40774981Y-33709293D01*
X40757231Y-33717990D01*
X40738393Y-33725448D01*
X40731977Y-33730109D01*
X40731976Y-33730110D01*
X40702635Y-33751428D01*
X40692711Y-33757947D01*
X40661470Y-33776422D01*
X40661465Y-33776426D01*
X40654647Y-33780458D01*
X40640323Y-33794782D01*
X40625291Y-33807621D01*
X40608903Y-33819528D01*
X40592803Y-33838990D01*
X40580722Y-33853593D01*
X40572732Y-33862373D01*
X34413243Y-40021862D01*
X34350931Y-40055888D01*
X34280116Y-40050823D01*
X34223280Y-40008276D01*
X34218367Y-40001223D01*
X34100014Y-39818277D01*
X33949670Y-39653051D01*
X33945619Y-39649852D01*
X33945615Y-39649848D01*
X33778414Y-39517800D01*
X33778410Y-39517798D01*
X33774359Y-39514598D01*
X33733053Y-39491796D01*
X33683084Y-39441364D01*
X33668312Y-39371921D01*
X33693428Y-39305516D01*
X33720780Y-39278909D01*
X33764603Y-39247650D01*
X33899860Y-39151173D01*
X34058096Y-38993489D01*
X34188453Y-38812077D01*
X34201995Y-38784678D01*
X34285136Y-38616453D01*
X34285137Y-38616451D01*
X34287430Y-38611811D01*
X34335361Y-38454053D01*
X34350865Y-38403023D01*
X34350865Y-38403021D01*
X34352370Y-38398069D01*
X34381529Y-38176590D01*
X34383156Y-38110000D01*
X34364852Y-37887361D01*
X34310431Y-37670702D01*
X34221354Y-37465840D01*
X34140410Y-37340720D01*
X34102822Y-37282617D01*
X34102820Y-37282614D01*
X34100014Y-37278277D01*
X33949670Y-37113051D01*
X33945619Y-37109852D01*
X33945615Y-37109848D01*
X33778414Y-36977800D01*
X33778410Y-36977798D01*
X33774359Y-36974598D01*
X33733053Y-36951796D01*
X33683084Y-36901364D01*
X33668312Y-36831921D01*
X33693428Y-36765516D01*
X33720780Y-36738909D01*
X33774505Y-36700587D01*
X33850947Y-36646062D01*
X34838493Y-36646062D01*
X34847789Y-36658077D01*
X34898994Y-36693931D01*
X34908489Y-36699414D01*
X35105947Y-36791490D01*
X35116239Y-36795236D01*
X35326688Y-36851625D01*
X35337481Y-36853528D01*
X35554525Y-36872517D01*
X35565475Y-36872517D01*
X35782519Y-36853528D01*
X35793312Y-36851625D01*
X36003761Y-36795236D01*
X36014053Y-36791490D01*
X36211511Y-36699414D01*
X36221006Y-36693931D01*
X36273048Y-36657491D01*
X36281424Y-36647012D01*
X36274356Y-36633566D01*
X35572812Y-35932022D01*
X35558868Y-35924408D01*
X35557035Y-35924539D01*
X35550420Y-35928790D01*
X34844923Y-36634287D01*
X34838493Y-36646062D01*
X33850947Y-36646062D01*
X33899860Y-36611173D01*
X33941823Y-36569357D01*
X33988461Y-36522881D01*
X34058096Y-36453489D01*
X34066534Y-36441747D01*
X34185435Y-36276277D01*
X34188453Y-36272077D01*
X34207359Y-36233822D01*
X34255472Y-36181616D01*
X34324173Y-36163709D01*
X34391650Y-36185787D01*
X34423529Y-36217379D01*
X34462509Y-36273048D01*
X34472988Y-36281424D01*
X34486434Y-36274356D01*
X35187978Y-35572812D01*
X35194356Y-35561132D01*
X35924408Y-35561132D01*
X35924539Y-35562965D01*
X35928790Y-35569580D01*
X36634287Y-36275077D01*
X36646062Y-36281507D01*
X36658077Y-36272211D01*
X36693931Y-36221006D01*
X36699414Y-36211511D01*
X36791490Y-36014053D01*
X36795236Y-36003761D01*
X36851625Y-35793312D01*
X36853528Y-35782519D01*
X36872517Y-35565475D01*
X36872517Y-35554525D01*
X36853528Y-35337481D01*
X36851625Y-35326688D01*
X36795236Y-35116239D01*
X36791490Y-35105947D01*
X36699414Y-34908489D01*
X36693931Y-34898994D01*
X36657491Y-34846952D01*
X36647012Y-34838576D01*
X36633566Y-34845644D01*
X35932022Y-35547188D01*
X35924408Y-35561132D01*
X35194356Y-35561132D01*
X35195592Y-35558868D01*
X35195461Y-35557035D01*
X35191210Y-35550420D01*
X34485713Y-34844923D01*
X34473938Y-34838493D01*
X34461923Y-34847789D01*
X34426066Y-34898998D01*
X34424344Y-34901980D01*
X34423242Y-34903031D01*
X34422912Y-34903502D01*
X34422817Y-34903436D01*
X34372959Y-34950972D01*
X34303245Y-34964405D01*
X34237335Y-34938016D01*
X34209435Y-34907416D01*
X34102822Y-34742617D01*
X34102820Y-34742614D01*
X34100014Y-34738277D01*
X33949670Y-34573051D01*
X33945619Y-34569852D01*
X33945615Y-34569848D01*
X33822970Y-34472988D01*
X34838576Y-34472988D01*
X34845644Y-34486434D01*
X35547188Y-35187978D01*
X35561132Y-35195592D01*
X35562965Y-35195461D01*
X35569580Y-35191210D01*
X36275077Y-34485713D01*
X36281507Y-34473938D01*
X36272211Y-34461923D01*
X36221006Y-34426069D01*
X36211511Y-34420586D01*
X36014053Y-34328510D01*
X36003761Y-34324764D01*
X35793312Y-34268375D01*
X35782519Y-34266472D01*
X35565475Y-34247483D01*
X35554525Y-34247483D01*
X35337481Y-34266472D01*
X35326688Y-34268375D01*
X35116239Y-34324764D01*
X35105947Y-34328510D01*
X34908489Y-34420586D01*
X34898994Y-34426069D01*
X34846952Y-34462509D01*
X34838576Y-34472988D01*
X33822970Y-34472988D01*
X33778414Y-34437800D01*
X33778410Y-34437798D01*
X33774359Y-34434598D01*
X33732569Y-34411529D01*
X33682598Y-34361097D01*
X33667826Y-34291654D01*
X33692942Y-34225248D01*
X33720294Y-34198641D01*
X33895328Y-34073792D01*
X33903200Y-34067139D01*
X34054052Y-33916812D01*
X34060730Y-33908965D01*
X34185003Y-33736020D01*
X34190313Y-33727183D01*
X34284670Y-33536267D01*
X34288469Y-33526672D01*
X34350377Y-33322910D01*
X34352555Y-33312837D01*
X34353986Y-33301962D01*
X34351775Y-33287778D01*
X34338617Y-33284000D01*
X32892000Y-33284000D01*
X32823879Y-33263998D01*
X32777386Y-33210342D01*
X32766000Y-33158000D01*
X32766000Y-32902000D01*
X32786002Y-32833879D01*
X32839658Y-32787386D01*
X32892000Y-32776000D01*
X34338344Y-32776000D01*
X34351875Y-32772027D01*
X34353180Y-32762947D01*
X34311214Y-32595875D01*
X34307894Y-32586124D01*
X34222972Y-32390814D01*
X34218105Y-32381739D01*
X34102426Y-32202926D01*
X34096136Y-32194757D01*
X33952806Y-32037240D01*
X33945273Y-32030215D01*
X33778139Y-31898222D01*
X33769556Y-31892520D01*
X33732602Y-31872120D01*
X33682631Y-31821687D01*
X33667859Y-31752245D01*
X33692975Y-31685839D01*
X33720327Y-31659232D01*
X33759026Y-31631628D01*
X33850947Y-31566062D01*
X34838493Y-31566062D01*
X34847789Y-31578077D01*
X34898994Y-31613931D01*
X34908489Y-31619414D01*
X35105947Y-31711490D01*
X35116239Y-31715236D01*
X35326688Y-31771625D01*
X35337481Y-31773528D01*
X35554525Y-31792517D01*
X35565475Y-31792517D01*
X35782519Y-31773528D01*
X35793312Y-31771625D01*
X36003761Y-31715236D01*
X36014053Y-31711490D01*
X36211511Y-31619414D01*
X36221006Y-31613931D01*
X36273048Y-31577491D01*
X36281424Y-31567012D01*
X36274356Y-31553566D01*
X35572812Y-30852022D01*
X35558868Y-30844408D01*
X35557035Y-30844539D01*
X35550420Y-30848790D01*
X34844923Y-31554287D01*
X34838493Y-31566062D01*
X33850947Y-31566062D01*
X33899860Y-31531173D01*
X33941823Y-31489357D01*
X34054435Y-31377137D01*
X34058096Y-31373489D01*
X34066534Y-31361747D01*
X34185435Y-31196277D01*
X34188453Y-31192077D01*
X34207359Y-31153822D01*
X34255472Y-31101616D01*
X34324173Y-31083709D01*
X34391650Y-31105787D01*
X34423529Y-31137379D01*
X34462509Y-31193048D01*
X34472988Y-31201424D01*
X34486434Y-31194356D01*
X35187978Y-30492812D01*
X35194356Y-30481132D01*
X35924408Y-30481132D01*
X35924539Y-30482965D01*
X35928790Y-30489580D01*
X36634287Y-31195077D01*
X36646062Y-31201507D01*
X36658077Y-31192211D01*
X36693931Y-31141006D01*
X36699414Y-31131511D01*
X36791490Y-30934053D01*
X36795236Y-30923761D01*
X36851625Y-30713312D01*
X36853528Y-30702519D01*
X36872517Y-30485475D01*
X36872517Y-30474525D01*
X36853528Y-30257481D01*
X36851625Y-30246688D01*
X36795236Y-30036239D01*
X36791490Y-30025947D01*
X36699414Y-29828489D01*
X36693931Y-29818994D01*
X36657491Y-29766952D01*
X36647012Y-29758576D01*
X36633566Y-29765644D01*
X35932022Y-30467188D01*
X35924408Y-30481132D01*
X35194356Y-30481132D01*
X35195592Y-30478868D01*
X35195461Y-30477035D01*
X35191210Y-30470420D01*
X34485713Y-29764923D01*
X34473938Y-29758493D01*
X34461923Y-29767789D01*
X34426066Y-29818998D01*
X34424344Y-29821980D01*
X34423242Y-29823031D01*
X34422912Y-29823502D01*
X34422817Y-29823436D01*
X34372959Y-29870972D01*
X34303245Y-29884405D01*
X34237335Y-29858016D01*
X34209435Y-29827416D01*
X34102822Y-29662617D01*
X34102820Y-29662614D01*
X34100014Y-29658277D01*
X33949670Y-29493051D01*
X33945619Y-29489852D01*
X33945615Y-29489848D01*
X33822970Y-29392988D01*
X34838576Y-29392988D01*
X34845644Y-29406434D01*
X35547188Y-30107978D01*
X35561132Y-30115592D01*
X35562965Y-30115461D01*
X35569580Y-30111210D01*
X36275077Y-29405713D01*
X36281507Y-29393938D01*
X36272211Y-29381923D01*
X36221006Y-29346069D01*
X36211511Y-29340586D01*
X36014053Y-29248510D01*
X36003761Y-29244764D01*
X35793312Y-29188375D01*
X35782519Y-29186472D01*
X35565475Y-29167483D01*
X35554525Y-29167483D01*
X35337481Y-29186472D01*
X35326688Y-29188375D01*
X35116239Y-29244764D01*
X35105947Y-29248510D01*
X34908489Y-29340586D01*
X34898994Y-29346069D01*
X34846952Y-29382509D01*
X34838576Y-29392988D01*
X33822970Y-29392988D01*
X33778414Y-29357800D01*
X33778410Y-29357798D01*
X33774359Y-29354598D01*
X33733053Y-29331796D01*
X33683084Y-29281364D01*
X33668312Y-29211921D01*
X33693428Y-29145516D01*
X33720780Y-29118909D01*
X33787754Y-29071137D01*
X33899860Y-28991173D01*
X34058096Y-28833489D01*
X34071048Y-28815465D01*
X34185435Y-28656277D01*
X34188453Y-28652077D01*
X34192145Y-28644608D01*
X34285136Y-28456453D01*
X34285137Y-28456451D01*
X34287430Y-28451811D01*
X34352370Y-28238069D01*
X34381529Y-28016590D01*
X34383156Y-27950000D01*
X34364852Y-27727361D01*
X34310431Y-27510702D01*
X34221354Y-27305840D01*
X34100014Y-27118277D01*
X33949670Y-26953051D01*
X33945619Y-26949852D01*
X33945615Y-26949848D01*
X33778414Y-26817800D01*
X33778410Y-26817798D01*
X33774359Y-26814598D01*
X33578789Y-26706638D01*
X33573920Y-26704914D01*
X33573916Y-26704912D01*
X33373087Y-26633795D01*
X33373083Y-26633794D01*
X33368212Y-26632069D01*
X33363119Y-26631162D01*
X33363116Y-26631161D01*
X33153373Y-26593800D01*
X33153367Y-26593799D01*
X33148284Y-26592894D01*
X33074452Y-26591992D01*
X32930081Y-26590228D01*
X32930079Y-26590228D01*
X32924911Y-26590165D01*
X32704091Y-26623955D01*
X32491756Y-26693357D01*
X32293607Y-26796507D01*
X32289474Y-26799610D01*
X32289471Y-26799612D01*
X32119100Y-26927530D01*
X32114965Y-26930635D01*
X32058537Y-26989684D01*
X32034283Y-27015064D01*
X31972759Y-27050494D01*
X31901846Y-27047037D01*
X31844060Y-27005791D01*
X31825207Y-26972243D01*
X31783767Y-26861703D01*
X31780615Y-26853295D01*
X31693261Y-26736739D01*
X31576705Y-26649385D01*
X31440316Y-26598255D01*
X31378134Y-26591500D01*
X29581866Y-26591500D01*
X29519684Y-26598255D01*
X29383295Y-26649385D01*
X29266739Y-26736739D01*
X29179385Y-26853295D01*
X29128255Y-26989684D01*
X29121500Y-27051866D01*
X29121500Y-28848134D01*
X29128255Y-28910316D01*
X29179385Y-29046705D01*
X29266739Y-29163261D01*
X29383295Y-29250615D01*
X29391704Y-29253767D01*
X29391705Y-29253768D01*
X29500451Y-29294535D01*
X29557216Y-29337176D01*
X29581916Y-29403738D01*
X29566709Y-29473087D01*
X29547316Y-29499568D01*
X29540843Y-29506342D01*
X29443508Y-29608197D01*
X29420629Y-29632138D01*
X29294743Y-29816680D01*
X29200688Y-30019305D01*
X29140989Y-30234570D01*
X29117251Y-30456695D01*
X29117548Y-30461848D01*
X29117548Y-30461851D01*
X29118910Y-30485475D01*
X29130110Y-30679715D01*
X29131247Y-30684761D01*
X29131248Y-30684767D01*
X29152275Y-30778069D01*
X29179222Y-30897639D01*
X29194078Y-30934225D01*
X29254777Y-31083709D01*
X29263266Y-31104616D01*
X29308807Y-31178933D01*
X29377291Y-31290688D01*
X29379987Y-31295088D01*
X29526250Y-31463938D01*
X29698126Y-31606632D01*
X29740902Y-31631628D01*
X29771445Y-31649476D01*
X29820169Y-31701114D01*
X29833240Y-31770897D01*
X29806509Y-31836669D01*
X29766055Y-31870027D01*
X29753607Y-31876507D01*
X29749474Y-31879610D01*
X29749471Y-31879612D01*
X29725247Y-31897800D01*
X29574965Y-32010635D01*
X29420629Y-32172138D01*
X29294743Y-32356680D01*
X29200688Y-32559305D01*
X29140989Y-32774570D01*
X29117251Y-32996695D01*
X29117548Y-33001848D01*
X29117548Y-33001851D01*
X29124461Y-33121739D01*
X29130110Y-33219715D01*
X29131247Y-33224761D01*
X29131248Y-33224767D01*
X29144597Y-33284000D01*
X29179222Y-33437639D01*
X29263266Y-33644616D01*
X29299054Y-33703017D01*
X29359586Y-33801796D01*
X29379987Y-33835088D01*
X29526250Y-34003938D01*
X29698126Y-34146632D01*
X29768595Y-34187811D01*
X29771445Y-34189476D01*
X29820169Y-34241114D01*
X29833240Y-34310897D01*
X29806509Y-34376669D01*
X29766055Y-34410027D01*
X29753607Y-34416507D01*
X29749474Y-34419610D01*
X29749471Y-34419612D01*
X29579100Y-34547530D01*
X29574965Y-34550635D01*
X29420629Y-34712138D01*
X29294743Y-34896680D01*
X29200688Y-35099305D01*
X29140989Y-35314570D01*
X29117251Y-35536695D01*
X29117548Y-35541848D01*
X29117548Y-35541851D01*
X29129812Y-35754547D01*
X29130110Y-35759715D01*
X29131247Y-35764761D01*
X29131248Y-35764767D01*
X29152275Y-35858069D01*
X29179222Y-35977639D01*
X29194078Y-36014225D01*
X29254777Y-36163709D01*
X29263266Y-36184616D01*
X29302704Y-36248973D01*
X29377291Y-36370688D01*
X29379987Y-36375088D01*
X29526250Y-36543938D01*
X29698126Y-36686632D01*
X29763626Y-36724907D01*
X29771955Y-36729774D01*
X29820679Y-36781412D01*
X29833750Y-36851195D01*
X29807019Y-36916967D01*
X29766562Y-36950327D01*
X29758457Y-36954546D01*
X29749738Y-36960036D01*
X29579433Y-37087905D01*
X29571726Y-37094748D01*
X29424590Y-37248717D01*
X29418104Y-37256727D01*
X29298098Y-37432649D01*
X29293000Y-37441623D01*
X29203338Y-37634783D01*
X29199775Y-37644470D01*
X29144389Y-37844183D01*
X29145912Y-37852607D01*
X29158292Y-37856000D01*
X30608000Y-37856000D01*
X30676121Y-37876002D01*
X30722614Y-37929658D01*
X30734000Y-37982000D01*
X30734000Y-38238000D01*
X30713998Y-38306121D01*
X30660342Y-38352614D01*
X30608000Y-38364000D01*
X29163225Y-38364000D01*
X29149694Y-38367973D01*
X29148257Y-38377966D01*
X29178565Y-38512446D01*
X29181645Y-38522275D01*
X29261770Y-38719603D01*
X29266413Y-38728794D01*
X29377694Y-38910388D01*
X29383777Y-38918699D01*
X29523213Y-39079667D01*
X29530580Y-39086883D01*
X29694434Y-39222916D01*
X29702881Y-39228831D01*
X29771969Y-39269203D01*
X29820693Y-39320842D01*
X29833764Y-39390625D01*
X29807033Y-39456396D01*
X29766584Y-39489752D01*
X29753607Y-39496507D01*
X29749474Y-39499610D01*
X29749471Y-39499612D01*
X29725247Y-39517800D01*
X29574965Y-39630635D01*
X29420629Y-39792138D01*
X29294743Y-39976680D01*
X29280077Y-40008276D01*
X29213946Y-40150744D01*
X29200688Y-40179305D01*
X29140989Y-40394570D01*
X29117251Y-40616695D01*
X29117548Y-40621848D01*
X29117548Y-40621851D01*
X29120860Y-40679293D01*
X29130110Y-40839715D01*
X29131247Y-40844761D01*
X29131248Y-40844767D01*
X29146558Y-40912699D01*
X29179222Y-41057639D01*
X29263266Y-41264616D01*
X29379987Y-41455088D01*
X29526250Y-41623938D01*
X29698126Y-41766632D01*
X29768595Y-41807811D01*
X29771445Y-41809476D01*
X29820169Y-41861114D01*
X29833240Y-41930897D01*
X29806509Y-41996669D01*
X29766055Y-42030027D01*
X29753607Y-42036507D01*
X29749474Y-42039610D01*
X29749471Y-42039612D01*
X29587378Y-42161315D01*
X29574965Y-42170635D01*
X29530861Y-42216787D01*
X29443508Y-42308197D01*
X29420629Y-42332138D01*
X29417715Y-42336410D01*
X29417714Y-42336411D01*
X29372585Y-42402568D01*
X29294743Y-42516680D01*
X29200688Y-42719305D01*
X29140989Y-42934570D01*
X29117251Y-43156695D01*
X29117548Y-43161848D01*
X29117548Y-43161851D01*
X29118042Y-43170420D01*
X29130110Y-43379715D01*
X29131247Y-43384761D01*
X29131248Y-43384767D01*
X29146558Y-43452699D01*
X29179222Y-43597639D01*
X29263266Y-43804616D01*
X29300072Y-43864678D01*
X29368655Y-43976595D01*
X29379987Y-43995088D01*
X29526250Y-44163938D01*
X29698126Y-44306632D01*
X29763626Y-44344907D01*
X29771445Y-44349476D01*
X29820169Y-44401114D01*
X29833240Y-44470897D01*
X29806509Y-44536669D01*
X29766055Y-44570027D01*
X29753607Y-44576507D01*
X29749474Y-44579610D01*
X29749471Y-44579612D01*
X29579100Y-44707530D01*
X29574965Y-44710635D01*
X29571393Y-44714373D01*
X29475724Y-44814485D01*
X29420629Y-44872138D01*
X29417720Y-44876403D01*
X29417714Y-44876411D01*
X29374698Y-44939470D01*
X29294743Y-45056680D01*
X29200688Y-45259305D01*
X29140989Y-45474570D01*
X29117251Y-45696695D01*
X29130110Y-45919715D01*
X29131247Y-45924761D01*
X29131248Y-45924767D01*
X29155304Y-46031508D01*
X29179222Y-46137639D01*
X29263266Y-46344616D01*
X29379987Y-46535088D01*
X29526250Y-46703938D01*
X29698126Y-46846632D01*
X29762457Y-46884224D01*
X29771445Y-46889476D01*
X29820169Y-46941114D01*
X29833240Y-47010897D01*
X29806509Y-47076669D01*
X29766055Y-47110027D01*
X29753607Y-47116507D01*
X29749474Y-47119610D01*
X29749471Y-47119612D01*
X29650036Y-47194270D01*
X29574965Y-47250635D01*
X29530861Y-47296787D01*
X29443508Y-47388197D01*
X29420629Y-47412138D01*
X29294743Y-47596680D01*
X29265908Y-47658801D01*
X29210696Y-47777745D01*
X29200688Y-47799305D01*
X29140989Y-48014570D01*
X29117251Y-48236695D01*
X28448500Y-48236695D01*
X28448500Y-26723250D01*
X28450246Y-26702345D01*
X28452770Y-26687344D01*
X28452770Y-26687341D01*
X28453576Y-26682552D01*
X28453729Y-26670000D01*
X28452788Y-26663429D01*
X28452123Y-26633218D01*
X28461916Y-26533789D01*
X28466733Y-26509568D01*
X28502866Y-26390454D01*
X28512315Y-26367645D01*
X28570987Y-26257876D01*
X28584705Y-26237345D01*
X28663671Y-26141124D01*
X28681124Y-26123671D01*
X28777345Y-26044705D01*
X28797876Y-26030987D01*
X28907645Y-25972315D01*
X28930454Y-25962866D01*
X29049568Y-25926733D01*
X29073789Y-25921916D01*
X29169809Y-25912459D01*
X29185868Y-25912909D01*
X29185877Y-25912200D01*
X29194853Y-25912310D01*
X29203724Y-25913691D01*
X29212626Y-25912527D01*
X29212628Y-25912527D01*
X29227677Y-25910559D01*
X29235286Y-25909564D01*
X29251621Y-25908500D01*
X51944000Y-25908500D01*
X52012121Y-25928502D01*
G37*
%TD.AperFunction*%
%TA.AperFunction,Conductor*%
G36*
X44445708Y-34938502D02*
G01*
X44492201Y-34992158D01*
X44502305Y-35062432D01*
X44491782Y-35097748D01*
X44485716Y-35110757D01*
X44462984Y-35195592D01*
X44429728Y-35319707D01*
X44426457Y-35331913D01*
X44406502Y-35560000D01*
X44426457Y-35788087D01*
X44427881Y-35793400D01*
X44427881Y-35793402D01*
X44477248Y-35977639D01*
X44485716Y-36009243D01*
X44488039Y-36014224D01*
X44488039Y-36014225D01*
X44580151Y-36211762D01*
X44580154Y-36211767D01*
X44582477Y-36216749D01*
X44621218Y-36272077D01*
X44696080Y-36378990D01*
X44713802Y-36404300D01*
X44875700Y-36566198D01*
X44880208Y-36569355D01*
X44880211Y-36569357D01*
X44939931Y-36611173D01*
X45063251Y-36697523D01*
X45068233Y-36699846D01*
X45068238Y-36699849D01*
X45264765Y-36791490D01*
X45270757Y-36794284D01*
X45276065Y-36795706D01*
X45276067Y-36795707D01*
X45486598Y-36852119D01*
X45486600Y-36852119D01*
X45491913Y-36853543D01*
X45720000Y-36873498D01*
X45948087Y-36853543D01*
X45953400Y-36852119D01*
X45953402Y-36852119D01*
X46163933Y-36795707D01*
X46163935Y-36795706D01*
X46169243Y-36794284D01*
X46197486Y-36781114D01*
X46277412Y-36743844D01*
X46286846Y-36739903D01*
X46321490Y-36727055D01*
X46366775Y-36702437D01*
X46370745Y-36700435D01*
X46371757Y-36699851D01*
X46376749Y-36697523D01*
X46378243Y-36696477D01*
X46380379Y-36695959D01*
X46379994Y-36695251D01*
X46382422Y-36693931D01*
X46462356Y-36650477D01*
X46482230Y-36639092D01*
X46483129Y-36638550D01*
X46502719Y-36626127D01*
X46503265Y-36625763D01*
X46503310Y-36625734D01*
X46625362Y-36544415D01*
X46625790Y-36544130D01*
X46640266Y-36534123D01*
X46640916Y-36533657D01*
X46654973Y-36523212D01*
X46760633Y-36441867D01*
X46766077Y-36437617D01*
X46766360Y-36437393D01*
X46773301Y-36431801D01*
X46794491Y-36414422D01*
X46863997Y-36357418D01*
X46865957Y-36355842D01*
X46934549Y-36301842D01*
X46942282Y-36296217D01*
X46964211Y-36281507D01*
X46986132Y-36266803D01*
X46999591Y-36258936D01*
X47030295Y-36243455D01*
X47047553Y-36236304D01*
X47063639Y-36230998D01*
X47085801Y-36223688D01*
X47103489Y-36219244D01*
X47172739Y-36207092D01*
X47188120Y-36205359D01*
X47202507Y-36204628D01*
X47324965Y-36198402D01*
X47326256Y-36198283D01*
X47326261Y-36198283D01*
X47366718Y-36194565D01*
X47366742Y-36194824D01*
X47381138Y-36193500D01*
X47944656Y-36193500D01*
X48012777Y-36213502D01*
X48038160Y-36235043D01*
X48045545Y-36243219D01*
X48055195Y-36255322D01*
X48095568Y-36312881D01*
X48104929Y-36328523D01*
X48123060Y-36364500D01*
X48130204Y-36381755D01*
X48140971Y-36414422D01*
X48144927Y-36429506D01*
X48148826Y-36449292D01*
X48155131Y-36481294D01*
X48156624Y-36490756D01*
X48160527Y-36523541D01*
X48166944Y-36577458D01*
X48167216Y-36579960D01*
X48178745Y-36696638D01*
X48178769Y-36696859D01*
X48178774Y-36696913D01*
X48179149Y-36700435D01*
X48179572Y-36704410D01*
X48179613Y-36704769D01*
X48180583Y-36712713D01*
X48197779Y-36844966D01*
X48197855Y-36845485D01*
X48197861Y-36845525D01*
X48199043Y-36853543D01*
X48200324Y-36862238D01*
X48200454Y-36863027D01*
X48203624Y-36880394D01*
X48203721Y-36880881D01*
X48203729Y-36880920D01*
X48232526Y-37024691D01*
X48232667Y-37025394D01*
X48237683Y-37047821D01*
X48237935Y-37048840D01*
X48243990Y-37071154D01*
X48244178Y-37071789D01*
X48244182Y-37071804D01*
X48268569Y-37154287D01*
X48268701Y-37225283D01*
X48230429Y-37285081D01*
X48165904Y-37314695D01*
X48147739Y-37316011D01*
X42459556Y-37316011D01*
X42448373Y-37315484D01*
X42440880Y-37313809D01*
X42432954Y-37314058D01*
X42432953Y-37314058D01*
X42372803Y-37315949D01*
X42368844Y-37316011D01*
X42340933Y-37316011D01*
X42336999Y-37316508D01*
X42336998Y-37316508D01*
X42336933Y-37316516D01*
X42325096Y-37317449D01*
X42292838Y-37318463D01*
X42288819Y-37318589D01*
X42280900Y-37318838D01*
X42261446Y-37324490D01*
X42242089Y-37328498D01*
X42229859Y-37330043D01*
X42229858Y-37330043D01*
X42221992Y-37331037D01*
X42214621Y-37333956D01*
X42214619Y-37333956D01*
X42180877Y-37347315D01*
X42169647Y-37351160D01*
X42134806Y-37361282D01*
X42134805Y-37361282D01*
X42127196Y-37363493D01*
X42120377Y-37367526D01*
X42120372Y-37367528D01*
X42109761Y-37373804D01*
X42092013Y-37382499D01*
X42073172Y-37389959D01*
X42066756Y-37394621D01*
X42066755Y-37394621D01*
X42037402Y-37415947D01*
X42027482Y-37422463D01*
X41996254Y-37440931D01*
X41996251Y-37440933D01*
X41989427Y-37444969D01*
X41975106Y-37459290D01*
X41960073Y-37472130D01*
X41943682Y-37484039D01*
X41919834Y-37512866D01*
X41915491Y-37518116D01*
X41907501Y-37526895D01*
X36891106Y-42543289D01*
X36828794Y-42577315D01*
X36757979Y-42572250D01*
X36701143Y-42529703D01*
X36696496Y-42522656D01*
X36657491Y-42466952D01*
X36647012Y-42458576D01*
X36633566Y-42465644D01*
X34844923Y-44254287D01*
X34838493Y-44266062D01*
X34847789Y-44278077D01*
X34903502Y-44317088D01*
X34902522Y-44318487D01*
X34946177Y-44364255D01*
X34959626Y-44433966D01*
X34933250Y-44499882D01*
X34923289Y-44511106D01*
X34415588Y-45018807D01*
X34353276Y-45052833D01*
X34282461Y-45047768D01*
X34232655Y-45013798D01*
X34179264Y-44954215D01*
X34179152Y-44954090D01*
X34172421Y-44946725D01*
X34172148Y-44946432D01*
X34165230Y-44939150D01*
X34044434Y-44814485D01*
X34037099Y-44807274D01*
X34027198Y-44797541D01*
X34027171Y-44797516D01*
X34026647Y-44797000D01*
X34025829Y-44796234D01*
X34007736Y-44780076D01*
X33874734Y-44666831D01*
X33843411Y-44642192D01*
X33841935Y-44641121D01*
X33840921Y-44640444D01*
X33840902Y-44640431D01*
X33809474Y-44619456D01*
X33808460Y-44618779D01*
X33803214Y-44615568D01*
X33799377Y-44613218D01*
X33787081Y-44604644D01*
X33778423Y-44597807D01*
X33778419Y-44597805D01*
X33774359Y-44594598D01*
X33732568Y-44571528D01*
X33682598Y-44521096D01*
X33667826Y-44451653D01*
X33692942Y-44385247D01*
X33720294Y-44358641D01*
X33895328Y-44233792D01*
X33903200Y-44227139D01*
X34054052Y-44076812D01*
X34060730Y-44068965D01*
X34185003Y-43896020D01*
X34190311Y-43887188D01*
X34207032Y-43853355D01*
X34255147Y-43801148D01*
X34323848Y-43783242D01*
X34391324Y-43805321D01*
X34423202Y-43836912D01*
X34462509Y-43893048D01*
X34472988Y-43901424D01*
X34486434Y-43894356D01*
X35187978Y-43192812D01*
X35195592Y-43178868D01*
X35195461Y-43177035D01*
X35191210Y-43170420D01*
X34485713Y-42464923D01*
X34473938Y-42458493D01*
X34461923Y-42467789D01*
X34426069Y-42518993D01*
X34424064Y-42522466D01*
X34372680Y-42571458D01*
X34302966Y-42584892D01*
X34237056Y-42558504D01*
X34209154Y-42527903D01*
X34102426Y-42362926D01*
X34096136Y-42354757D01*
X34070323Y-42326390D01*
X34039270Y-42262544D01*
X34047664Y-42192046D01*
X34074420Y-42152494D01*
X34133926Y-42092988D01*
X34838576Y-42092988D01*
X34845644Y-42106434D01*
X35547188Y-42807978D01*
X35561132Y-42815592D01*
X35562965Y-42815461D01*
X35569580Y-42811210D01*
X36275077Y-42105713D01*
X36281507Y-42093938D01*
X36272211Y-42081923D01*
X36221006Y-42046069D01*
X36211511Y-42040586D01*
X36014053Y-41948510D01*
X36003761Y-41944764D01*
X35793312Y-41888375D01*
X35782519Y-41886472D01*
X35565475Y-41867483D01*
X35554525Y-41867483D01*
X35337481Y-41886472D01*
X35326688Y-41888375D01*
X35116239Y-41944764D01*
X35105947Y-41948510D01*
X34908489Y-42040586D01*
X34898994Y-42046069D01*
X34846952Y-42082509D01*
X34838576Y-42092988D01*
X34133926Y-42092988D01*
X41271509Y-34955405D01*
X41333821Y-34921379D01*
X41360604Y-34918500D01*
X44377587Y-34918500D01*
X44445708Y-34938502D01*
G37*
%TD.AperFunction*%
%TD*%
M02*
