%TF.GenerationSoftware,KiCad,Pcbnew,(6.0.5)*%
%TF.CreationDate,2022-06-14T19:42:58+01:00*%
%TF.ProjectId,PiKVM,50694b56-4d2e-46b6-9963-61645f706362,rev?*%
%TF.SameCoordinates,Original*%
%TF.FileFunction,Soldermask,Top*%
%TF.FilePolarity,Negative*%
%FSLAX46Y46*%
G04 Gerber Fmt 4.6, Leading zero omitted, Abs format (unit mm)*
G04 Created by KiCad (PCBNEW (6.0.5)) date 2022-06-14 19:42:58*
%MOMM*%
%LPD*%
G01*
G04 APERTURE LIST*
%ADD10C,0.300000*%
%ADD11R,1.600000X1.600000*%
%ADD12O,1.600000X1.600000*%
%ADD13R,1.700000X1.700000*%
%ADD14O,1.700000X1.700000*%
%ADD15C,1.600000*%
G04 APERTURE END LIST*
D10*
X37854285Y-39048571D02*
X37854285Y-40048571D01*
X37354285Y-39048571D02*
X37354285Y-39834285D01*
X37282857Y-39977142D01*
X37140000Y-40048571D01*
X38140000Y-39048571D02*
X37211428Y-39048571D01*
X37068571Y-39120000D01*
X36997142Y-39262857D01*
X38711428Y-39477142D02*
X39854285Y-39477142D01*
X40568571Y-40048571D02*
X40568571Y-38548571D01*
X40711428Y-39477142D02*
X41140000Y-40048571D01*
X41140000Y-39048571D02*
X40568571Y-39620000D01*
X41640000Y-39048571D02*
X41997142Y-40048571D01*
X42354285Y-39048571D01*
X42925714Y-40048571D02*
X42925714Y-39048571D01*
X42925714Y-39191428D02*
X42997142Y-39120000D01*
X43140000Y-39048571D01*
X43354285Y-39048571D01*
X43497142Y-39120000D01*
X43568571Y-39262857D01*
X43568571Y-40048571D01*
X43568571Y-39262857D02*
X43640000Y-39120000D01*
X43782857Y-39048571D01*
X43997142Y-39048571D01*
X44140000Y-39120000D01*
X44211428Y-39262857D01*
X44211428Y-40048571D01*
D11*
%TO.C,U3*%
X57140000Y-44455000D03*
D12*
X57140000Y-41915000D03*
X49520000Y-41915000D03*
X49520000Y-44455000D03*
%TD*%
D13*
%TO.C,J2*%
X71095000Y-27940000D03*
D14*
X71095000Y-30480000D03*
X71095000Y-33020000D03*
X71095000Y-35560000D03*
X71095000Y-38100000D03*
X71095000Y-40640000D03*
X71095000Y-43180000D03*
X71095000Y-45720000D03*
%TD*%
D15*
%TO.C,R3*%
X35560000Y-43180000D03*
D12*
X45720000Y-43180000D03*
%TD*%
D15*
%TO.C,R1*%
X35560000Y-30480000D03*
D12*
X45720000Y-30480000D03*
%TD*%
D11*
%TO.C,U1*%
X49540000Y-27940000D03*
D12*
X49540000Y-30480000D03*
X57160000Y-30480000D03*
X57160000Y-27940000D03*
%TD*%
D11*
%TO.C,U4*%
X57140000Y-52075000D03*
D12*
X57140000Y-49535000D03*
X49520000Y-49535000D03*
X49520000Y-52075000D03*
%TD*%
D15*
%TO.C,R6*%
X66040000Y-40640000D03*
D12*
X66040000Y-50800000D03*
%TD*%
D15*
%TO.C,R2*%
X35560000Y-35560000D03*
D12*
X45720000Y-35560000D03*
%TD*%
D15*
%TO.C,R5*%
X60960000Y-40640000D03*
D12*
X60960000Y-50800000D03*
%TD*%
D11*
%TO.C,U2*%
X49540000Y-34285000D03*
D12*
X49540000Y-36825000D03*
X57160000Y-36825000D03*
X57160000Y-34285000D03*
%TD*%
D15*
%TO.C,R4*%
X35560000Y-48260000D03*
D12*
X45720000Y-48260000D03*
%TD*%
D13*
%TO.C,J1*%
X30480000Y-27950000D03*
D14*
X33020000Y-27950000D03*
X30480000Y-30490000D03*
X33020000Y-30490000D03*
X30480000Y-33030000D03*
X33020000Y-33030000D03*
X30480000Y-35570000D03*
X33020000Y-35570000D03*
X30480000Y-38110000D03*
X33020000Y-38110000D03*
X30480000Y-40650000D03*
X33020000Y-40650000D03*
X30480000Y-43190000D03*
X33020000Y-43190000D03*
X30480000Y-45730000D03*
X33020000Y-45730000D03*
X30480000Y-48270000D03*
X33020000Y-48270000D03*
%TD*%
M02*
