%TF.GenerationSoftware,KiCad,Pcbnew,(6.0.5)*%
%TF.CreationDate,2022-06-14T19:42:58+01:00*%
%TF.ProjectId,PiKVM,50694b56-4d2e-46b6-9963-61645f706362,rev?*%
%TF.SameCoordinates,Original*%
%TF.FileFunction,Copper,L2,Bot*%
%TF.FilePolarity,Positive*%
%FSLAX46Y46*%
G04 Gerber Fmt 4.6, Leading zero omitted, Abs format (unit mm)*
G04 Created by KiCad (PCBNEW (6.0.5)) date 2022-06-14 19:42:58*
%MOMM*%
%LPD*%
G01*
G04 APERTURE LIST*
%TA.AperFunction,ComponentPad*%
%ADD10R,1.600000X1.600000*%
%TD*%
%TA.AperFunction,ComponentPad*%
%ADD11O,1.600000X1.600000*%
%TD*%
%TA.AperFunction,ComponentPad*%
%ADD12R,1.700000X1.700000*%
%TD*%
%TA.AperFunction,ComponentPad*%
%ADD13O,1.700000X1.700000*%
%TD*%
%TA.AperFunction,ComponentPad*%
%ADD14C,1.600000*%
%TD*%
%TA.AperFunction,Conductor*%
%ADD15C,0.250000*%
%TD*%
%TA.AperFunction,Conductor*%
%ADD16C,0.200000*%
%TD*%
G04 APERTURE END LIST*
D10*
%TO.P,U3,1*%
%TO.N,Net-(R5-Pad1)*%
X57140000Y-44455000D03*
D11*
%TO.P,U3,2*%
%TO.N,PLED-*%
X57140000Y-41915000D03*
%TO.P,U3,3*%
%TO.N,PLED*%
X49520000Y-41915000D03*
%TO.P,U3,4*%
%TO.N,+3V3*%
X49520000Y-44455000D03*
%TD*%
D12*
%TO.P,J2,1,Pin_1*%
%TO.N,PWR+*%
X71095000Y-27940000D03*
D13*
%TO.P,J2,2,Pin_2*%
%TO.N,GND2*%
X71095000Y-30480000D03*
%TO.P,J2,3,Pin_3*%
%TO.N,RST+*%
X71095000Y-33020000D03*
%TO.P,J2,4,Pin_4*%
%TO.N,GND2*%
X71095000Y-35560000D03*
%TO.P,J2,5,Pin_5*%
%TO.N,PLED+*%
X71095000Y-38100000D03*
%TO.P,J2,6,Pin_6*%
%TO.N,PLED-*%
X71095000Y-40640000D03*
%TO.P,J2,7,Pin_7*%
%TO.N,IDLE_LED+*%
X71095000Y-43180000D03*
%TO.P,J2,8,Pin_8*%
%TO.N,IDLE_LED-*%
X71095000Y-45720000D03*
%TD*%
D14*
%TO.P,R3,1*%
%TO.N,GND1*%
X35560000Y-43180000D03*
D11*
%TO.P,R3,2*%
%TO.N,PLED*%
X45720000Y-43180000D03*
%TD*%
D14*
%TO.P,R1,1*%
%TO.N,GND1*%
X35560000Y-30480000D03*
D11*
%TO.P,R1,2*%
%TO.N,Net-(R1-Pad2)*%
X45720000Y-30480000D03*
%TD*%
D10*
%TO.P,U1,1*%
%TO.N,PWRSW*%
X49540000Y-27940000D03*
D11*
%TO.P,U1,2*%
%TO.N,Net-(R1-Pad2)*%
X49540000Y-30480000D03*
%TO.P,U1,3*%
%TO.N,GND2*%
X57160000Y-30480000D03*
%TO.P,U1,4*%
%TO.N,PWR+*%
X57160000Y-27940000D03*
%TD*%
D10*
%TO.P,U4,1*%
%TO.N,Net-(R6-Pad1)*%
X57140000Y-52075000D03*
D11*
%TO.P,U4,2*%
%TO.N,IDLE_LED-*%
X57140000Y-49535000D03*
%TO.P,U4,3*%
%TO.N,IDLE_LED*%
X49520000Y-49535000D03*
%TO.P,U4,4*%
%TO.N,+3V3*%
X49520000Y-52075000D03*
%TD*%
D14*
%TO.P,R6,1*%
%TO.N,Net-(R6-Pad1)*%
X66040000Y-40640000D03*
D11*
%TO.P,R6,2*%
%TO.N,IDLE_LED+*%
X66040000Y-50800000D03*
%TD*%
D14*
%TO.P,R2,1*%
%TO.N,GND1*%
X35560000Y-35560000D03*
D11*
%TO.P,R2,2*%
%TO.N,Net-(R2-Pad2)*%
X45720000Y-35560000D03*
%TD*%
D14*
%TO.P,R5,1*%
%TO.N,Net-(R5-Pad1)*%
X60960000Y-40640000D03*
D11*
%TO.P,R5,2*%
%TO.N,PLED+*%
X60960000Y-50800000D03*
%TD*%
D10*
%TO.P,U2,1*%
%TO.N,RSTSW*%
X49540000Y-34285000D03*
D11*
%TO.P,U2,2*%
%TO.N,Net-(R2-Pad2)*%
X49540000Y-36825000D03*
%TO.P,U2,3*%
%TO.N,GND2*%
X57160000Y-36825000D03*
%TO.P,U2,4*%
%TO.N,RST+*%
X57160000Y-34285000D03*
%TD*%
D14*
%TO.P,R4,1*%
%TO.N,GND1*%
X35560000Y-48260000D03*
D11*
%TO.P,R4,2*%
%TO.N,IDLE_LED*%
X45720000Y-48260000D03*
%TD*%
D12*
%TO.P,J1,1,3V3*%
%TO.N,+3V3*%
X30480000Y-27950000D03*
D13*
%TO.P,J1,2,5V*%
%TO.N,unconnected-(J1-Pad2)*%
X33020000Y-27950000D03*
%TO.P,J1,3,SDA/GPIO2*%
%TO.N,unconnected-(J1-Pad3)*%
X30480000Y-30490000D03*
%TO.P,J1,4,5V*%
%TO.N,unconnected-(J1-Pad4)*%
X33020000Y-30490000D03*
%TO.P,J1,5,SCL/GPIO3*%
%TO.N,unconnected-(J1-Pad5)*%
X30480000Y-33030000D03*
%TO.P,J1,6,GND*%
%TO.N,GND1*%
X33020000Y-33030000D03*
%TO.P,J1,7,GCLK0/GPIO4*%
%TO.N,unconnected-(J1-Pad7)*%
X30480000Y-35570000D03*
%TO.P,J1,8,GPIO14/TXD*%
%TO.N,unconnected-(J1-Pad8)*%
X33020000Y-35570000D03*
%TO.P,J1,9,GND*%
%TO.N,GND1*%
X30480000Y-38110000D03*
%TO.P,J1,10,GPIO15/RXD*%
%TO.N,unconnected-(J1-Pad10)*%
X33020000Y-38110000D03*
%TO.P,J1,11,GPIO17*%
%TO.N,unconnected-(J1-Pad11)*%
X30480000Y-40650000D03*
%TO.P,J1,12,GPIO18/PWM0*%
%TO.N,unconnected-(J1-Pad12)*%
X33020000Y-40650000D03*
%TO.P,J1,13,GPIO27*%
%TO.N,RSTSW*%
X30480000Y-43190000D03*
%TO.P,J1,14,GND*%
%TO.N,GND1*%
X33020000Y-43190000D03*
%TO.P,J1,15,GPIO22*%
%TO.N,IDLE_LED*%
X30480000Y-45730000D03*
%TO.P,J1,16,GPIO23*%
%TO.N,PWRSW*%
X33020000Y-45730000D03*
%TO.P,J1,17,3V3*%
%TO.N,+3V3*%
X30480000Y-48270000D03*
%TO.P,J1,18,GPIO24*%
%TO.N,PLED*%
X33020000Y-48270000D03*
%TD*%
D15*
%TO.N,GND1*%
X35560000Y-43180000D02*
X35560000Y-48260000D01*
D16*
%TO.N,PLED-*%
X57140000Y-41915000D02*
X69820000Y-41915000D01*
X69820000Y-41915000D02*
X71095000Y-40640000D01*
%TO.N,IDLE_LED-*%
X67280000Y-49535000D02*
X71095000Y-45720000D01*
X57140000Y-49535000D02*
X67280000Y-49535000D01*
%TD*%
%TA.AperFunction,Conductor*%
%TO.N,PLED-*%
G36*
X71391694Y-40342983D02*
G01*
X71395282Y-40351645D01*
X71374117Y-41434323D01*
X71370529Y-41442527D01*
X71365688Y-41445328D01*
X71198955Y-41493853D01*
X71197831Y-41494121D01*
X71040992Y-41523371D01*
X71040101Y-41523502D01*
X70985102Y-41529430D01*
X70896899Y-41538935D01*
X70896486Y-41538972D01*
X70763143Y-41548244D01*
X70636402Y-41559016D01*
X70636392Y-41559017D01*
X70636183Y-41559035D01*
X70635982Y-41559067D01*
X70635969Y-41559069D01*
X70512485Y-41578988D01*
X70512483Y-41578989D01*
X70512114Y-41579048D01*
X70511757Y-41579154D01*
X70511751Y-41579155D01*
X70392511Y-41614442D01*
X70387233Y-41616004D01*
X70386815Y-41616203D01*
X70386810Y-41616205D01*
X70304539Y-41655383D01*
X70257840Y-41677622D01*
X70120229Y-41771620D01*
X69978950Y-41898323D01*
X69970504Y-41901295D01*
X69962866Y-41897885D01*
X69837115Y-41772134D01*
X69833688Y-41763861D01*
X69836677Y-41756050D01*
X69963379Y-41614770D01*
X70057377Y-41477159D01*
X70118995Y-41347766D01*
X70155951Y-41222885D01*
X70156011Y-41222514D01*
X70175930Y-41099030D01*
X70175932Y-41099017D01*
X70175964Y-41098816D01*
X70186755Y-40971856D01*
X70196027Y-40838513D01*
X70196065Y-40838086D01*
X70211497Y-40694898D01*
X70211628Y-40694007D01*
X70240877Y-40537170D01*
X70241145Y-40536045D01*
X70289672Y-40369311D01*
X70295274Y-40362326D01*
X70300677Y-40360883D01*
X71383355Y-40339718D01*
X71391694Y-40342983D01*
G37*
%TD.AperFunction*%
%TD*%
%TA.AperFunction,Conductor*%
%TO.N,PLED-*%
G36*
X57496249Y-41199132D02*
G01*
X57638620Y-41277171D01*
X57639589Y-41277765D01*
X57763203Y-41362083D01*
X57763913Y-41362608D01*
X57869429Y-41446907D01*
X57869759Y-41447181D01*
X57964684Y-41528892D01*
X57964794Y-41528986D01*
X58033448Y-41586172D01*
X58056580Y-41605440D01*
X58152633Y-41673898D01*
X58260455Y-41731701D01*
X58387593Y-41776232D01*
X58541592Y-41804871D01*
X58541969Y-41804891D01*
X58541975Y-41804892D01*
X58718928Y-41814405D01*
X58727005Y-41818271D01*
X58730000Y-41826088D01*
X58730000Y-42003912D01*
X58726573Y-42012185D01*
X58718928Y-42015595D01*
X58541975Y-42025107D01*
X58541969Y-42025108D01*
X58541592Y-42025128D01*
X58387593Y-42053767D01*
X58260455Y-42098298D01*
X58152633Y-42156101D01*
X58056580Y-42224559D01*
X58056411Y-42224700D01*
X57964794Y-42301013D01*
X57964684Y-42301107D01*
X57869759Y-42382818D01*
X57869429Y-42383092D01*
X57763913Y-42467391D01*
X57763203Y-42467916D01*
X57639589Y-42552234D01*
X57638620Y-42552828D01*
X57496249Y-42630868D01*
X57487347Y-42631839D01*
X57482515Y-42629041D01*
X56884454Y-42053915D01*
X56748769Y-41923433D01*
X56745181Y-41915229D01*
X56748769Y-41906567D01*
X56843988Y-41815000D01*
X57141407Y-41528986D01*
X57482515Y-41200959D01*
X57490854Y-41197694D01*
X57496249Y-41199132D01*
G37*
%TD.AperFunction*%
%TD*%
%TA.AperFunction,Conductor*%
%TO.N,IDLE_LED-*%
G36*
X71391694Y-45422983D02*
G01*
X71395282Y-45431645D01*
X71374117Y-46514323D01*
X71370529Y-46522527D01*
X71365688Y-46525328D01*
X71198955Y-46573853D01*
X71197831Y-46574121D01*
X71040992Y-46603371D01*
X71040101Y-46603502D01*
X70985102Y-46609430D01*
X70896899Y-46618935D01*
X70896486Y-46618972D01*
X70763143Y-46628244D01*
X70636402Y-46639016D01*
X70636392Y-46639017D01*
X70636183Y-46639035D01*
X70635982Y-46639067D01*
X70635969Y-46639069D01*
X70512485Y-46658988D01*
X70512483Y-46658989D01*
X70512114Y-46659048D01*
X70511757Y-46659154D01*
X70511751Y-46659155D01*
X70392511Y-46694442D01*
X70387233Y-46696004D01*
X70386815Y-46696203D01*
X70386810Y-46696205D01*
X70304539Y-46735383D01*
X70257840Y-46757622D01*
X70120229Y-46851620D01*
X69978950Y-46978323D01*
X69970504Y-46981295D01*
X69962866Y-46977885D01*
X69837115Y-46852134D01*
X69833688Y-46843861D01*
X69836677Y-46836050D01*
X69963379Y-46694770D01*
X70057377Y-46557159D01*
X70118995Y-46427766D01*
X70155951Y-46302885D01*
X70156011Y-46302514D01*
X70175930Y-46179030D01*
X70175932Y-46179017D01*
X70175964Y-46178816D01*
X70186755Y-46051856D01*
X70196027Y-45918513D01*
X70196065Y-45918086D01*
X70211497Y-45774898D01*
X70211628Y-45774007D01*
X70240877Y-45617170D01*
X70241145Y-45616045D01*
X70289672Y-45449311D01*
X70295274Y-45442326D01*
X70300677Y-45440883D01*
X71383355Y-45419718D01*
X71391694Y-45422983D01*
G37*
%TD.AperFunction*%
%TD*%
%TA.AperFunction,Conductor*%
%TO.N,IDLE_LED-*%
G36*
X57496249Y-48819132D02*
G01*
X57638620Y-48897171D01*
X57639589Y-48897765D01*
X57763203Y-48982083D01*
X57763913Y-48982608D01*
X57869429Y-49066907D01*
X57869759Y-49067181D01*
X57964684Y-49148892D01*
X57964794Y-49148986D01*
X58033448Y-49206172D01*
X58056580Y-49225440D01*
X58152633Y-49293898D01*
X58260455Y-49351701D01*
X58387593Y-49396232D01*
X58541592Y-49424871D01*
X58541969Y-49424891D01*
X58541975Y-49424892D01*
X58718928Y-49434405D01*
X58727005Y-49438271D01*
X58730000Y-49446088D01*
X58730000Y-49623912D01*
X58726573Y-49632185D01*
X58718928Y-49635595D01*
X58541975Y-49645107D01*
X58541969Y-49645108D01*
X58541592Y-49645128D01*
X58387593Y-49673767D01*
X58260455Y-49718298D01*
X58152633Y-49776101D01*
X58056580Y-49844559D01*
X58056411Y-49844700D01*
X57964794Y-49921013D01*
X57964684Y-49921107D01*
X57869759Y-50002818D01*
X57869429Y-50003092D01*
X57763913Y-50087391D01*
X57763203Y-50087916D01*
X57639589Y-50172234D01*
X57638620Y-50172828D01*
X57496249Y-50250868D01*
X57487347Y-50251839D01*
X57482515Y-50249041D01*
X56884454Y-49673915D01*
X56748769Y-49543433D01*
X56745181Y-49535229D01*
X56748769Y-49526567D01*
X56843988Y-49435000D01*
X57141407Y-49148986D01*
X57482515Y-48820959D01*
X57490854Y-48817694D01*
X57496249Y-48819132D01*
G37*
%TD.AperFunction*%
%TD*%
%TA.AperFunction,Conductor*%
%TO.N,GND1*%
G36*
X35568433Y-42788769D02*
G01*
X36274063Y-43522538D01*
X36277328Y-43530877D01*
X36275909Y-43536236D01*
X36199331Y-43677102D01*
X36198789Y-43678001D01*
X36116792Y-43801072D01*
X36116326Y-43801722D01*
X36034981Y-43907382D01*
X36034759Y-43907663D01*
X35956317Y-44003306D01*
X35883331Y-44096015D01*
X35883210Y-44096196D01*
X35883203Y-44096205D01*
X35855814Y-44137036D01*
X35818278Y-44192991D01*
X35818115Y-44193315D01*
X35763730Y-44301173D01*
X35763727Y-44301180D01*
X35763538Y-44301555D01*
X35721492Y-44429031D01*
X35694519Y-44582738D01*
X35694501Y-44583090D01*
X35694501Y-44583091D01*
X35685565Y-44758894D01*
X35681723Y-44766982D01*
X35673880Y-44770000D01*
X35446120Y-44770000D01*
X35437847Y-44766573D01*
X35434435Y-44758894D01*
X35425498Y-44583091D01*
X35425498Y-44583090D01*
X35425480Y-44582738D01*
X35398507Y-44429031D01*
X35356461Y-44301555D01*
X35356272Y-44301180D01*
X35356269Y-44301173D01*
X35301884Y-44193315D01*
X35301721Y-44192991D01*
X35264185Y-44137036D01*
X35236796Y-44096205D01*
X35236789Y-44096196D01*
X35236668Y-44096015D01*
X35163682Y-44003306D01*
X35085240Y-43907663D01*
X35085018Y-43907382D01*
X35003673Y-43801722D01*
X35003207Y-43801072D01*
X34987363Y-43777291D01*
X34921202Y-43677989D01*
X34920676Y-43677116D01*
X34844091Y-43536236D01*
X34843150Y-43527331D01*
X34845937Y-43522538D01*
X35551567Y-42788769D01*
X35559771Y-42785181D01*
X35568433Y-42788769D01*
G37*
%TD.AperFunction*%
%TD*%
%TA.AperFunction,Conductor*%
%TO.N,GND1*%
G36*
X35682153Y-46673427D02*
G01*
X35685564Y-46681105D01*
X35694519Y-46857261D01*
X35721492Y-47010968D01*
X35763538Y-47138444D01*
X35763727Y-47138819D01*
X35763730Y-47138826D01*
X35797723Y-47206242D01*
X35818278Y-47247008D01*
X35855814Y-47302963D01*
X35883203Y-47343794D01*
X35883210Y-47343803D01*
X35883331Y-47343984D01*
X35956317Y-47436693D01*
X35956349Y-47436732D01*
X36034757Y-47532334D01*
X36034981Y-47532617D01*
X36116326Y-47638277D01*
X36116792Y-47638927D01*
X36198789Y-47761998D01*
X36199331Y-47762897D01*
X36275909Y-47903764D01*
X36276850Y-47912669D01*
X36274063Y-47917462D01*
X35568433Y-48651231D01*
X35560229Y-48654819D01*
X35551567Y-48651231D01*
X34845937Y-47917462D01*
X34842672Y-47909123D01*
X34844091Y-47903764D01*
X34920669Y-47762896D01*
X34921211Y-47761997D01*
X35003207Y-47638927D01*
X35003673Y-47638277D01*
X35085018Y-47532617D01*
X35085242Y-47532334D01*
X35163650Y-47436732D01*
X35163682Y-47436693D01*
X35236668Y-47343984D01*
X35236789Y-47343803D01*
X35236796Y-47343794D01*
X35264185Y-47302963D01*
X35301721Y-47247008D01*
X35322276Y-47206242D01*
X35356269Y-47138826D01*
X35356272Y-47138819D01*
X35356461Y-47138444D01*
X35398507Y-47010968D01*
X35425480Y-46857261D01*
X35434435Y-46681105D01*
X35438278Y-46673017D01*
X35446120Y-46670000D01*
X35673880Y-46670000D01*
X35682153Y-46673427D01*
G37*
%TD.AperFunction*%
%TD*%
%TA.AperFunction,Conductor*%
%TO.N,+3V3*%
G36*
X72360018Y-25910000D02*
G01*
X72374852Y-25912310D01*
X72374855Y-25912310D01*
X72383724Y-25913691D01*
X72393659Y-25912392D01*
X72394746Y-25912250D01*
X72423431Y-25911793D01*
X72496741Y-25919013D01*
X72526212Y-25921916D01*
X72550432Y-25926733D01*
X72669546Y-25962866D01*
X72692355Y-25972315D01*
X72802124Y-26030987D01*
X72822655Y-26044705D01*
X72918876Y-26123671D01*
X72936329Y-26141124D01*
X73015295Y-26237345D01*
X73029013Y-26257876D01*
X73087685Y-26367645D01*
X73097134Y-26390454D01*
X73133267Y-26509568D01*
X73138084Y-26533789D01*
X73147541Y-26629809D01*
X73147091Y-26645868D01*
X73147800Y-26645877D01*
X73147690Y-26654853D01*
X73146309Y-26663724D01*
X73147473Y-26672626D01*
X73147473Y-26672628D01*
X73150436Y-26695283D01*
X73151500Y-26711621D01*
X73151500Y-53290633D01*
X73150000Y-53310018D01*
X73146309Y-53333724D01*
X73147608Y-53343659D01*
X73147750Y-53344746D01*
X73148207Y-53373431D01*
X73140987Y-53446741D01*
X73138084Y-53476212D01*
X73133267Y-53500432D01*
X73097134Y-53619546D01*
X73087685Y-53642355D01*
X73029013Y-53752124D01*
X73015295Y-53772655D01*
X72936329Y-53868876D01*
X72918876Y-53886329D01*
X72822655Y-53965295D01*
X72802124Y-53979013D01*
X72692355Y-54037685D01*
X72669546Y-54047134D01*
X72550432Y-54083267D01*
X72526211Y-54088084D01*
X72430191Y-54097541D01*
X72414132Y-54097091D01*
X72414123Y-54097800D01*
X72405147Y-54097690D01*
X72396276Y-54096309D01*
X72387374Y-54097473D01*
X72387372Y-54097473D01*
X72374856Y-54099110D01*
X72364714Y-54100436D01*
X72348379Y-54101500D01*
X29259367Y-54101500D01*
X29239982Y-54100000D01*
X29225148Y-54097690D01*
X29225145Y-54097690D01*
X29216276Y-54096309D01*
X29206341Y-54097608D01*
X29205254Y-54097750D01*
X29176569Y-54098207D01*
X29103259Y-54090987D01*
X29073788Y-54088084D01*
X29049568Y-54083267D01*
X28930454Y-54047134D01*
X28907645Y-54037685D01*
X28797876Y-53979013D01*
X28777345Y-53965295D01*
X28681124Y-53886329D01*
X28663671Y-53868876D01*
X28584705Y-53772655D01*
X28570987Y-53752124D01*
X28512315Y-53642355D01*
X28502866Y-53619546D01*
X28466733Y-53500432D01*
X28461916Y-53476212D01*
X28452711Y-53382755D01*
X28452607Y-53359151D01*
X28452768Y-53357354D01*
X28453576Y-53352552D01*
X28453729Y-53340000D01*
X28449773Y-53312376D01*
X28448500Y-53294514D01*
X28448500Y-52341522D01*
X48237273Y-52341522D01*
X48284764Y-52518761D01*
X48288510Y-52529053D01*
X48380586Y-52726511D01*
X48386069Y-52736007D01*
X48511028Y-52914467D01*
X48518084Y-52922875D01*
X48672125Y-53076916D01*
X48680533Y-53083972D01*
X48858993Y-53208931D01*
X48868489Y-53214414D01*
X49065947Y-53306490D01*
X49076239Y-53310236D01*
X49248503Y-53356394D01*
X49262599Y-53356058D01*
X49266000Y-53348116D01*
X49266000Y-53342967D01*
X49774000Y-53342967D01*
X49777973Y-53356498D01*
X49786522Y-53357727D01*
X49963761Y-53310236D01*
X49974053Y-53306490D01*
X50171511Y-53214414D01*
X50181007Y-53208931D01*
X50359467Y-53083972D01*
X50367875Y-53076916D01*
X50521916Y-52922875D01*
X50528972Y-52914467D01*
X50653931Y-52736007D01*
X50659414Y-52726511D01*
X50751490Y-52529053D01*
X50755236Y-52518761D01*
X50801394Y-52346497D01*
X50801058Y-52332401D01*
X50793116Y-52329000D01*
X49792115Y-52329000D01*
X49776876Y-52333475D01*
X49775671Y-52334865D01*
X49774000Y-52342548D01*
X49774000Y-53342967D01*
X49266000Y-53342967D01*
X49266000Y-52347115D01*
X49261525Y-52331876D01*
X49260135Y-52330671D01*
X49252452Y-52329000D01*
X48252033Y-52329000D01*
X48238502Y-52332973D01*
X48237273Y-52341522D01*
X28448500Y-52341522D01*
X28448500Y-48537966D01*
X29148257Y-48537966D01*
X29178565Y-48672446D01*
X29181645Y-48682275D01*
X29261770Y-48879603D01*
X29266413Y-48888794D01*
X29377694Y-49070388D01*
X29383777Y-49078699D01*
X29523213Y-49239667D01*
X29530580Y-49246883D01*
X29694434Y-49382916D01*
X29702881Y-49388831D01*
X29886756Y-49496279D01*
X29896042Y-49500729D01*
X30095001Y-49576703D01*
X30104899Y-49579579D01*
X30208250Y-49600606D01*
X30222299Y-49599410D01*
X30226000Y-49589065D01*
X30226000Y-48542115D01*
X30221525Y-48526876D01*
X30220135Y-48525671D01*
X30212452Y-48524000D01*
X29163225Y-48524000D01*
X29149694Y-48527973D01*
X29148257Y-48537966D01*
X28448500Y-48537966D01*
X28448500Y-45696695D01*
X29117251Y-45696695D01*
X29117548Y-45701848D01*
X29117548Y-45701851D01*
X29123011Y-45796590D01*
X29130110Y-45919715D01*
X29131247Y-45924761D01*
X29131248Y-45924767D01*
X29150977Y-46012307D01*
X29179222Y-46137639D01*
X29263266Y-46344616D01*
X29307891Y-46417438D01*
X29377291Y-46530688D01*
X29379987Y-46535088D01*
X29526250Y-46703938D01*
X29698126Y-46846632D01*
X29749256Y-46876510D01*
X29771955Y-46889774D01*
X29820679Y-46941412D01*
X29833750Y-47011195D01*
X29807019Y-47076967D01*
X29766562Y-47110327D01*
X29758457Y-47114546D01*
X29749738Y-47120036D01*
X29579433Y-47247905D01*
X29571726Y-47254748D01*
X29424590Y-47408717D01*
X29418104Y-47416727D01*
X29298098Y-47592649D01*
X29293000Y-47601623D01*
X29203338Y-47794783D01*
X29199775Y-47804470D01*
X29144389Y-48004183D01*
X29145912Y-48012607D01*
X29158292Y-48016000D01*
X30608000Y-48016000D01*
X30676121Y-48036002D01*
X30722614Y-48089658D01*
X30734000Y-48142000D01*
X30734000Y-49588517D01*
X30738064Y-49602359D01*
X30751478Y-49604393D01*
X30758184Y-49603534D01*
X30768262Y-49601392D01*
X30972255Y-49540191D01*
X30981842Y-49536433D01*
X31173095Y-49442739D01*
X31181945Y-49437464D01*
X31355328Y-49313792D01*
X31363200Y-49307139D01*
X31514052Y-49156812D01*
X31520730Y-49148965D01*
X31648022Y-48971819D01*
X31649279Y-48972722D01*
X31696373Y-48929362D01*
X31766311Y-48917145D01*
X31831751Y-48944678D01*
X31859579Y-48976511D01*
X31919987Y-49075088D01*
X32066250Y-49243938D01*
X32238126Y-49386632D01*
X32431000Y-49499338D01*
X32639692Y-49579030D01*
X32644760Y-49580061D01*
X32644763Y-49580062D01*
X32739862Y-49599410D01*
X32858597Y-49623567D01*
X32863772Y-49623757D01*
X32863774Y-49623757D01*
X33076673Y-49631564D01*
X33076677Y-49631564D01*
X33081837Y-49631753D01*
X33086957Y-49631097D01*
X33086959Y-49631097D01*
X33298288Y-49604025D01*
X33298289Y-49604025D01*
X33303416Y-49603368D01*
X33308366Y-49601883D01*
X33512429Y-49540661D01*
X33512434Y-49540659D01*
X33517384Y-49539174D01*
X33717994Y-49440896D01*
X33899860Y-49311173D01*
X33941823Y-49269357D01*
X34054435Y-49157137D01*
X34058096Y-49153489D01*
X34090642Y-49108197D01*
X34185435Y-48976277D01*
X34188453Y-48972077D01*
X34207106Y-48934334D01*
X34255219Y-48882128D01*
X34323920Y-48864221D01*
X34391397Y-48886299D01*
X34423276Y-48917891D01*
X34540818Y-49085757D01*
X34553802Y-49104300D01*
X34715700Y-49266198D01*
X34720208Y-49269355D01*
X34720211Y-49269357D01*
X34779931Y-49311173D01*
X34903251Y-49397523D01*
X34908233Y-49399846D01*
X34908238Y-49399849D01*
X35001148Y-49443173D01*
X35110757Y-49494284D01*
X35116065Y-49495706D01*
X35116067Y-49495707D01*
X35326598Y-49552119D01*
X35326600Y-49552119D01*
X35331913Y-49553543D01*
X35560000Y-49573498D01*
X35788087Y-49553543D01*
X35793400Y-49552119D01*
X35793402Y-49552119D01*
X36003933Y-49495707D01*
X36003935Y-49495706D01*
X36009243Y-49494284D01*
X36118852Y-49443173D01*
X36211762Y-49399849D01*
X36211767Y-49399846D01*
X36216749Y-49397523D01*
X36340069Y-49311173D01*
X36399789Y-49269357D01*
X36399792Y-49269355D01*
X36404300Y-49266198D01*
X36566198Y-49104300D01*
X36582671Y-49080775D01*
X36658962Y-48971819D01*
X36697523Y-48916749D01*
X36699846Y-48911767D01*
X36699849Y-48911762D01*
X36791961Y-48714225D01*
X36791961Y-48714224D01*
X36794284Y-48709243D01*
X36802753Y-48677639D01*
X36852119Y-48493402D01*
X36852119Y-48493400D01*
X36853543Y-48488087D01*
X36873498Y-48260000D01*
X44406502Y-48260000D01*
X44426457Y-48488087D01*
X44427881Y-48493400D01*
X44427881Y-48493402D01*
X44477248Y-48677639D01*
X44485716Y-48709243D01*
X44488039Y-48714224D01*
X44488039Y-48714225D01*
X44580151Y-48911762D01*
X44580154Y-48911767D01*
X44582477Y-48916749D01*
X44621038Y-48971819D01*
X44697330Y-49080775D01*
X44713802Y-49104300D01*
X44875700Y-49266198D01*
X44880208Y-49269355D01*
X44880211Y-49269357D01*
X44939931Y-49311173D01*
X45063251Y-49397523D01*
X45068233Y-49399846D01*
X45068238Y-49399849D01*
X45161148Y-49443173D01*
X45270757Y-49494284D01*
X45276065Y-49495706D01*
X45276067Y-49495707D01*
X45486598Y-49552119D01*
X45486600Y-49552119D01*
X45491913Y-49553543D01*
X45720000Y-49573498D01*
X45948087Y-49553543D01*
X45953400Y-49552119D01*
X45953402Y-49552119D01*
X46017291Y-49535000D01*
X48206502Y-49535000D01*
X48226457Y-49763087D01*
X48285716Y-49984243D01*
X48288039Y-49989224D01*
X48288039Y-49989225D01*
X48380151Y-50186762D01*
X48380154Y-50186767D01*
X48382477Y-50191749D01*
X48513802Y-50379300D01*
X48675700Y-50541198D01*
X48680208Y-50544355D01*
X48680211Y-50544357D01*
X48754601Y-50596445D01*
X48863251Y-50672523D01*
X48868233Y-50674846D01*
X48868238Y-50674849D01*
X48903049Y-50691081D01*
X48956334Y-50737998D01*
X48975795Y-50806275D01*
X48955253Y-50874235D01*
X48903049Y-50919471D01*
X48868489Y-50935586D01*
X48858993Y-50941069D01*
X48680533Y-51066028D01*
X48672125Y-51073084D01*
X48518084Y-51227125D01*
X48511028Y-51235533D01*
X48386069Y-51413993D01*
X48380586Y-51423489D01*
X48288510Y-51620947D01*
X48284764Y-51631239D01*
X48238606Y-51803503D01*
X48238942Y-51817599D01*
X48246884Y-51821000D01*
X50787967Y-51821000D01*
X50801498Y-51817027D01*
X50802727Y-51808478D01*
X50755236Y-51631239D01*
X50751490Y-51620947D01*
X50659414Y-51423489D01*
X50653931Y-51413993D01*
X50528972Y-51235533D01*
X50521916Y-51227125D01*
X50367875Y-51073084D01*
X50359467Y-51066028D01*
X50181007Y-50941069D01*
X50171511Y-50935586D01*
X50136951Y-50919471D01*
X50083666Y-50872554D01*
X50064205Y-50804277D01*
X50084747Y-50736317D01*
X50136951Y-50691081D01*
X50171762Y-50674849D01*
X50171767Y-50674846D01*
X50176749Y-50672523D01*
X50285399Y-50596445D01*
X50359789Y-50544357D01*
X50359792Y-50544355D01*
X50364300Y-50541198D01*
X50526198Y-50379300D01*
X50657523Y-50191749D01*
X50659846Y-50186767D01*
X50659849Y-50186762D01*
X50751961Y-49989225D01*
X50751961Y-49989224D01*
X50754284Y-49984243D01*
X50813543Y-49763087D01*
X50833498Y-49535000D01*
X55826502Y-49535000D01*
X55846457Y-49763087D01*
X55905716Y-49984243D01*
X55908039Y-49989224D01*
X55908039Y-49989225D01*
X56000151Y-50186762D01*
X56000154Y-50186767D01*
X56002477Y-50191749D01*
X56133802Y-50379300D01*
X56295700Y-50541198D01*
X56300211Y-50544357D01*
X56304424Y-50547892D01*
X56303473Y-50549026D01*
X56343471Y-50599071D01*
X56350776Y-50669690D01*
X56318742Y-50733049D01*
X56257538Y-50769030D01*
X56240483Y-50772082D01*
X56229684Y-50773255D01*
X56093295Y-50824385D01*
X55976739Y-50911739D01*
X55889385Y-51028295D01*
X55838255Y-51164684D01*
X55831500Y-51226866D01*
X55831500Y-52923134D01*
X55838255Y-52985316D01*
X55889385Y-53121705D01*
X55976739Y-53238261D01*
X56093295Y-53325615D01*
X56229684Y-53376745D01*
X56291866Y-53383500D01*
X57988134Y-53383500D01*
X58050316Y-53376745D01*
X58186705Y-53325615D01*
X58303261Y-53238261D01*
X58390615Y-53121705D01*
X58441745Y-52985316D01*
X58448500Y-52923134D01*
X58448500Y-51226866D01*
X58441745Y-51164684D01*
X58390615Y-51028295D01*
X58303261Y-50911739D01*
X58186705Y-50824385D01*
X58050316Y-50773255D01*
X58043902Y-50772558D01*
X57982813Y-50737661D01*
X57949992Y-50674706D01*
X57956416Y-50604001D01*
X58002603Y-50546203D01*
X58052074Y-50512459D01*
X58052108Y-50512435D01*
X58052560Y-50512127D01*
X58053050Y-50511779D01*
X58068002Y-50501158D01*
X58068048Y-50501125D01*
X58068505Y-50500800D01*
X58069215Y-50500275D01*
X58069661Y-50499932D01*
X58069689Y-50499911D01*
X58083932Y-50488961D01*
X58083942Y-50488953D01*
X58084430Y-50488578D01*
X58084861Y-50488234D01*
X58084904Y-50488200D01*
X58189662Y-50404506D01*
X58189676Y-50404495D01*
X58189946Y-50404279D01*
X58197457Y-50398162D01*
X58197787Y-50397888D01*
X58198031Y-50397682D01*
X58204515Y-50392200D01*
X58204601Y-50392127D01*
X58204759Y-50391993D01*
X58204935Y-50391842D01*
X58205034Y-50391757D01*
X58295801Y-50313625D01*
X58297359Y-50312306D01*
X58366722Y-50254529D01*
X58374235Y-50248735D01*
X58417522Y-50217884D01*
X58431117Y-50209443D01*
X58459251Y-50194360D01*
X58477132Y-50186492D01*
X58490296Y-50181881D01*
X58511069Y-50174605D01*
X58529679Y-50169647D01*
X58594497Y-50157593D01*
X58610768Y-50155651D01*
X58665747Y-50152696D01*
X58745212Y-50148424D01*
X58745222Y-50148423D01*
X58746492Y-50148355D01*
X58747737Y-50148238D01*
X58747748Y-50148237D01*
X58787511Y-50144494D01*
X58787541Y-50144813D01*
X58801666Y-50143500D01*
X59624581Y-50143500D01*
X59692702Y-50163502D01*
X59739195Y-50217158D01*
X59749299Y-50287432D01*
X59738776Y-50322749D01*
X59725716Y-50350757D01*
X59724294Y-50356065D01*
X59724293Y-50356067D01*
X59667881Y-50566598D01*
X59666457Y-50571913D01*
X59646502Y-50800000D01*
X59666457Y-51028087D01*
X59667881Y-51033400D01*
X59667881Y-51033402D01*
X59720636Y-51230283D01*
X59725716Y-51249243D01*
X59728039Y-51254224D01*
X59728039Y-51254225D01*
X59820151Y-51451762D01*
X59820154Y-51451767D01*
X59822477Y-51456749D01*
X59825634Y-51461257D01*
X59944657Y-51631239D01*
X59953802Y-51644300D01*
X60115700Y-51806198D01*
X60120208Y-51809355D01*
X60120211Y-51809357D01*
X60131165Y-51817027D01*
X60303251Y-51937523D01*
X60308233Y-51939846D01*
X60308238Y-51939849D01*
X60505775Y-52031961D01*
X60510757Y-52034284D01*
X60516065Y-52035706D01*
X60516067Y-52035707D01*
X60726598Y-52092119D01*
X60726600Y-52092119D01*
X60731913Y-52093543D01*
X60960000Y-52113498D01*
X61188087Y-52093543D01*
X61193400Y-52092119D01*
X61193402Y-52092119D01*
X61403933Y-52035707D01*
X61403935Y-52035706D01*
X61409243Y-52034284D01*
X61414225Y-52031961D01*
X61611762Y-51939849D01*
X61611767Y-51939846D01*
X61616749Y-51937523D01*
X61788835Y-51817027D01*
X61799789Y-51809357D01*
X61799792Y-51809355D01*
X61804300Y-51806198D01*
X61966198Y-51644300D01*
X61975344Y-51631239D01*
X62094366Y-51461257D01*
X62097523Y-51456749D01*
X62099846Y-51451767D01*
X62099849Y-51451762D01*
X62191961Y-51254225D01*
X62191961Y-51254224D01*
X62194284Y-51249243D01*
X62199365Y-51230283D01*
X62252119Y-51033402D01*
X62252119Y-51033400D01*
X62253543Y-51028087D01*
X62273498Y-50800000D01*
X62253543Y-50571913D01*
X62252119Y-50566598D01*
X62195707Y-50356067D01*
X62195706Y-50356065D01*
X62194284Y-50350757D01*
X62181224Y-50322749D01*
X62170563Y-50252559D01*
X62199543Y-50187746D01*
X62258962Y-50148889D01*
X62295419Y-50143500D01*
X64704581Y-50143500D01*
X64772702Y-50163502D01*
X64819195Y-50217158D01*
X64829299Y-50287432D01*
X64818776Y-50322749D01*
X64805716Y-50350757D01*
X64804294Y-50356065D01*
X64804293Y-50356067D01*
X64747881Y-50566598D01*
X64746457Y-50571913D01*
X64726502Y-50800000D01*
X64746457Y-51028087D01*
X64747881Y-51033400D01*
X64747881Y-51033402D01*
X64800636Y-51230283D01*
X64805716Y-51249243D01*
X64808039Y-51254224D01*
X64808039Y-51254225D01*
X64900151Y-51451762D01*
X64900154Y-51451767D01*
X64902477Y-51456749D01*
X64905634Y-51461257D01*
X65024657Y-51631239D01*
X65033802Y-51644300D01*
X65195700Y-51806198D01*
X65200208Y-51809355D01*
X65200211Y-51809357D01*
X65211165Y-51817027D01*
X65383251Y-51937523D01*
X65388233Y-51939846D01*
X65388238Y-51939849D01*
X65585775Y-52031961D01*
X65590757Y-52034284D01*
X65596065Y-52035706D01*
X65596067Y-52035707D01*
X65806598Y-52092119D01*
X65806600Y-52092119D01*
X65811913Y-52093543D01*
X66040000Y-52113498D01*
X66268087Y-52093543D01*
X66273400Y-52092119D01*
X66273402Y-52092119D01*
X66483933Y-52035707D01*
X66483935Y-52035706D01*
X66489243Y-52034284D01*
X66494225Y-52031961D01*
X66691762Y-51939849D01*
X66691767Y-51939846D01*
X66696749Y-51937523D01*
X66868835Y-51817027D01*
X66879789Y-51809357D01*
X66879792Y-51809355D01*
X66884300Y-51806198D01*
X67046198Y-51644300D01*
X67055344Y-51631239D01*
X67174366Y-51461257D01*
X67177523Y-51456749D01*
X67179846Y-51451767D01*
X67179849Y-51451762D01*
X67271961Y-51254225D01*
X67271961Y-51254224D01*
X67274284Y-51249243D01*
X67279365Y-51230283D01*
X67332119Y-51033402D01*
X67332119Y-51033400D01*
X67333543Y-51028087D01*
X67353498Y-50800000D01*
X67333543Y-50571913D01*
X67332119Y-50566598D01*
X67275707Y-50356067D01*
X67275706Y-50356065D01*
X67274284Y-50350757D01*
X67271959Y-50345770D01*
X67258490Y-50316885D01*
X67247829Y-50246693D01*
X67276810Y-50181881D01*
X67336230Y-50143025D01*
X67356239Y-50138714D01*
X67426226Y-50129500D01*
X67430664Y-50128916D01*
X67430666Y-50128916D01*
X67438851Y-50127838D01*
X67586876Y-50066524D01*
X67682072Y-49993477D01*
X67682075Y-49993474D01*
X67713987Y-49968987D01*
X67719017Y-49962432D01*
X67733452Y-49943621D01*
X67744319Y-49931230D01*
X70292406Y-47383143D01*
X70311580Y-47367420D01*
X70321793Y-47360607D01*
X70431657Y-47262078D01*
X70444712Y-47251838D01*
X70506516Y-47209622D01*
X70523408Y-47199908D01*
X70527740Y-47197845D01*
X70562675Y-47181208D01*
X70581090Y-47174149D01*
X70618598Y-47163050D01*
X70634285Y-47159479D01*
X70694229Y-47149810D01*
X70703622Y-47148655D01*
X70801739Y-47140315D01*
X70803670Y-47140166D01*
X70837695Y-47137800D01*
X70932106Y-47131235D01*
X70932265Y-47131222D01*
X70932311Y-47131219D01*
X70936232Y-47130907D01*
X70942306Y-47130424D01*
X70942719Y-47130387D01*
X70951917Y-47129479D01*
X71040120Y-47119974D01*
X71040187Y-47120592D01*
X71040196Y-47120589D01*
X71040130Y-47119973D01*
X71094499Y-47114113D01*
X71094509Y-47114112D01*
X71095129Y-47114045D01*
X71114796Y-47111540D01*
X71115687Y-47111409D01*
X71135135Y-47108167D01*
X71291974Y-47078917D01*
X71301159Y-47076967D01*
X71316153Y-47073784D01*
X71316187Y-47073776D01*
X71316928Y-47073619D01*
X71318052Y-47073351D01*
X71342448Y-47066897D01*
X71343127Y-47066699D01*
X71343150Y-47066693D01*
X71505530Y-47019435D01*
X71505537Y-47019433D01*
X71509181Y-47018372D01*
X71535918Y-47006945D01*
X71549229Y-47002121D01*
X71576721Y-46993873D01*
X71592384Y-46989174D01*
X71792994Y-46890896D01*
X71974860Y-46761173D01*
X72133096Y-46603489D01*
X72187365Y-46527966D01*
X72260435Y-46426277D01*
X72263453Y-46422077D01*
X72282593Y-46383351D01*
X72360136Y-46226453D01*
X72360137Y-46226451D01*
X72362430Y-46221811D01*
X72427370Y-46008069D01*
X72456529Y-45786590D01*
X72457102Y-45763131D01*
X72458074Y-45723365D01*
X72458074Y-45723361D01*
X72458156Y-45720000D01*
X72439852Y-45497361D01*
X72385431Y-45280702D01*
X72296354Y-45075840D01*
X72184291Y-44902617D01*
X72177822Y-44892617D01*
X72177820Y-44892614D01*
X72175014Y-44888277D01*
X72024670Y-44723051D01*
X72020619Y-44719852D01*
X72020615Y-44719848D01*
X71853414Y-44587800D01*
X71853410Y-44587798D01*
X71849359Y-44584598D01*
X71808053Y-44561796D01*
X71758084Y-44511364D01*
X71743312Y-44441921D01*
X71768428Y-44375516D01*
X71795780Y-44348909D01*
X71859684Y-44303327D01*
X71974860Y-44221173D01*
X72006788Y-44189357D01*
X72123061Y-44073489D01*
X72133096Y-44063489D01*
X72164498Y-44019789D01*
X72260435Y-43886277D01*
X72263453Y-43882077D01*
X72279037Y-43850546D01*
X72360136Y-43686453D01*
X72360137Y-43686451D01*
X72362430Y-43681811D01*
X72427370Y-43468069D01*
X72456529Y-43246590D01*
X72458022Y-43185475D01*
X72458074Y-43183365D01*
X72458074Y-43183361D01*
X72458156Y-43180000D01*
X72439852Y-42957361D01*
X72385431Y-42740702D01*
X72296354Y-42535840D01*
X72181908Y-42358933D01*
X72177822Y-42352617D01*
X72177820Y-42352614D01*
X72175014Y-42348277D01*
X72024670Y-42183051D01*
X72020619Y-42179852D01*
X72020615Y-42179848D01*
X71853414Y-42047800D01*
X71853410Y-42047798D01*
X71849359Y-42044598D01*
X71808053Y-42021796D01*
X71758084Y-41971364D01*
X71743312Y-41901921D01*
X71768428Y-41835516D01*
X71795780Y-41808909D01*
X71956637Y-41694171D01*
X71974860Y-41681173D01*
X72133096Y-41523489D01*
X72174581Y-41465757D01*
X72260435Y-41346277D01*
X72263453Y-41342077D01*
X72285423Y-41297625D01*
X72360136Y-41146453D01*
X72360137Y-41146451D01*
X72362430Y-41141811D01*
X72424392Y-40937872D01*
X72425865Y-40933023D01*
X72425865Y-40933021D01*
X72427370Y-40928069D01*
X72456529Y-40706590D01*
X72456611Y-40703240D01*
X72458074Y-40643365D01*
X72458074Y-40643361D01*
X72458156Y-40640000D01*
X72439852Y-40417361D01*
X72385431Y-40200702D01*
X72296354Y-39995840D01*
X72184291Y-39822617D01*
X72177822Y-39812617D01*
X72177820Y-39812614D01*
X72175014Y-39808277D01*
X72024670Y-39643051D01*
X72020619Y-39639852D01*
X72020615Y-39639848D01*
X71853414Y-39507800D01*
X71853410Y-39507798D01*
X71849359Y-39504598D01*
X71808053Y-39481796D01*
X71758084Y-39431364D01*
X71743312Y-39361921D01*
X71768428Y-39295516D01*
X71795780Y-39268909D01*
X71859684Y-39223327D01*
X71974860Y-39141173D01*
X72133096Y-38983489D01*
X72192594Y-38900689D01*
X72260435Y-38806277D01*
X72263453Y-38802077D01*
X72285423Y-38757625D01*
X72360136Y-38606453D01*
X72360137Y-38606451D01*
X72362430Y-38601811D01*
X72427370Y-38388069D01*
X72456529Y-38166590D01*
X72456611Y-38163240D01*
X72458074Y-38103365D01*
X72458074Y-38103361D01*
X72458156Y-38100000D01*
X72439852Y-37877361D01*
X72385431Y-37660702D01*
X72296354Y-37455840D01*
X72182097Y-37279225D01*
X72177822Y-37272617D01*
X72177820Y-37272614D01*
X72175014Y-37268277D01*
X72024670Y-37103051D01*
X72020619Y-37099852D01*
X72020615Y-37099848D01*
X71853414Y-36967800D01*
X71853410Y-36967798D01*
X71849359Y-36964598D01*
X71808053Y-36941796D01*
X71758084Y-36891364D01*
X71743312Y-36821921D01*
X71768428Y-36755516D01*
X71795780Y-36728909D01*
X71859684Y-36683327D01*
X71974860Y-36601173D01*
X72006788Y-36569357D01*
X72123061Y-36453489D01*
X72133096Y-36443489D01*
X72164498Y-36399789D01*
X72260435Y-36266277D01*
X72263453Y-36262077D01*
X72277164Y-36234336D01*
X72360136Y-36066453D01*
X72360137Y-36066451D01*
X72362430Y-36061811D01*
X72427370Y-35848069D01*
X72456529Y-35626590D01*
X72456611Y-35623240D01*
X72458074Y-35563365D01*
X72458074Y-35563361D01*
X72458156Y-35560000D01*
X72439852Y-35337361D01*
X72385431Y-35120702D01*
X72296354Y-34915840D01*
X72182097Y-34739225D01*
X72177822Y-34732617D01*
X72177820Y-34732614D01*
X72175014Y-34728277D01*
X72024670Y-34563051D01*
X72020619Y-34559852D01*
X72020615Y-34559848D01*
X71853414Y-34427800D01*
X71853410Y-34427798D01*
X71849359Y-34424598D01*
X71808053Y-34401796D01*
X71758084Y-34351364D01*
X71743312Y-34281921D01*
X71768428Y-34215516D01*
X71795780Y-34188909D01*
X71859684Y-34143327D01*
X71974860Y-34061173D01*
X72133096Y-33903489D01*
X72192594Y-33820689D01*
X72260435Y-33726277D01*
X72263453Y-33722077D01*
X72285423Y-33677625D01*
X72360136Y-33526453D01*
X72360137Y-33526451D01*
X72362430Y-33521811D01*
X72427370Y-33308069D01*
X72456529Y-33086590D01*
X72457805Y-33034385D01*
X72458074Y-33023365D01*
X72458074Y-33023361D01*
X72458156Y-33020000D01*
X72439852Y-32797361D01*
X72385431Y-32580702D01*
X72296354Y-32375840D01*
X72184291Y-32202617D01*
X72177822Y-32192617D01*
X72177820Y-32192614D01*
X72175014Y-32188277D01*
X72024670Y-32023051D01*
X72020619Y-32019852D01*
X72020615Y-32019848D01*
X71853414Y-31887800D01*
X71853410Y-31887798D01*
X71849359Y-31884598D01*
X71808053Y-31861796D01*
X71758084Y-31811364D01*
X71743312Y-31741921D01*
X71768428Y-31675516D01*
X71795780Y-31648909D01*
X71859684Y-31603327D01*
X71974860Y-31521173D01*
X72006788Y-31489357D01*
X72123061Y-31373489D01*
X72133096Y-31363489D01*
X72164498Y-31319789D01*
X72260435Y-31186277D01*
X72263453Y-31182077D01*
X72277164Y-31154336D01*
X72360136Y-30986453D01*
X72360137Y-30986451D01*
X72362430Y-30981811D01*
X72427370Y-30768069D01*
X72456529Y-30546590D01*
X72458156Y-30480000D01*
X72439852Y-30257361D01*
X72385431Y-30040702D01*
X72296354Y-29835840D01*
X72184291Y-29662617D01*
X72177822Y-29652617D01*
X72177820Y-29652614D01*
X72175014Y-29648277D01*
X72164217Y-29636411D01*
X72027798Y-29486488D01*
X71996746Y-29422642D01*
X72005141Y-29352143D01*
X72050317Y-29297375D01*
X72076761Y-29283706D01*
X72183297Y-29243767D01*
X72191705Y-29240615D01*
X72308261Y-29153261D01*
X72395615Y-29036705D01*
X72446745Y-28900316D01*
X72453500Y-28838134D01*
X72453500Y-27041866D01*
X72446745Y-26979684D01*
X72395615Y-26843295D01*
X72308261Y-26726739D01*
X72191705Y-26639385D01*
X72055316Y-26588255D01*
X71993134Y-26581500D01*
X70196866Y-26581500D01*
X70134684Y-26588255D01*
X69998295Y-26639385D01*
X69881739Y-26726739D01*
X69794385Y-26843295D01*
X69743255Y-26979684D01*
X69736500Y-27041866D01*
X69736500Y-28838134D01*
X69743255Y-28900316D01*
X69794385Y-29036705D01*
X69881739Y-29153261D01*
X69998295Y-29240615D01*
X70006704Y-29243767D01*
X70006705Y-29243768D01*
X70115451Y-29284535D01*
X70172216Y-29327176D01*
X70196916Y-29393738D01*
X70181709Y-29463087D01*
X70162316Y-29489568D01*
X70035629Y-29622138D01*
X70032715Y-29626410D01*
X70032714Y-29626411D01*
X70023300Y-29640211D01*
X69909743Y-29806680D01*
X69880122Y-29870494D01*
X69819355Y-30001406D01*
X69815688Y-30009305D01*
X69755989Y-30224570D01*
X69732251Y-30446695D01*
X69732548Y-30451848D01*
X69732548Y-30451851D01*
X69738011Y-30546590D01*
X69745110Y-30669715D01*
X69746247Y-30674761D01*
X69746248Y-30674767D01*
X69754955Y-30713402D01*
X69794222Y-30887639D01*
X69878266Y-31094616D01*
X69994987Y-31285088D01*
X70141250Y-31453938D01*
X70313126Y-31596632D01*
X70383595Y-31637811D01*
X70386445Y-31639476D01*
X70435169Y-31691114D01*
X70448240Y-31760897D01*
X70421509Y-31826669D01*
X70381055Y-31860027D01*
X70368607Y-31866507D01*
X70364474Y-31869610D01*
X70364471Y-31869612D01*
X70194100Y-31997530D01*
X70189965Y-32000635D01*
X70035629Y-32162138D01*
X70032715Y-32166410D01*
X70032714Y-32166411D01*
X70020404Y-32184457D01*
X69909743Y-32346680D01*
X69891566Y-32385840D01*
X69819355Y-32541406D01*
X69815688Y-32549305D01*
X69755989Y-32764570D01*
X69732251Y-32986695D01*
X69732548Y-32991848D01*
X69732548Y-32991851D01*
X69738011Y-33086590D01*
X69745110Y-33209715D01*
X69746247Y-33214761D01*
X69746248Y-33214767D01*
X69761558Y-33282699D01*
X69794222Y-33427639D01*
X69878266Y-33634616D01*
X69994987Y-33825088D01*
X70141250Y-33993938D01*
X70313126Y-34136632D01*
X70330239Y-34146632D01*
X70386445Y-34179476D01*
X70435169Y-34231114D01*
X70448240Y-34300897D01*
X70421509Y-34366669D01*
X70381055Y-34400027D01*
X70368607Y-34406507D01*
X70364474Y-34409610D01*
X70364471Y-34409612D01*
X70194100Y-34537530D01*
X70189965Y-34540635D01*
X70035629Y-34702138D01*
X70032715Y-34706410D01*
X70032714Y-34706411D01*
X70023300Y-34720211D01*
X69909743Y-34886680D01*
X69880122Y-34950494D01*
X69819355Y-35081406D01*
X69815688Y-35089305D01*
X69755989Y-35304570D01*
X69732251Y-35526695D01*
X69732548Y-35531848D01*
X69732548Y-35531851D01*
X69741387Y-35685151D01*
X69745110Y-35749715D01*
X69746247Y-35754761D01*
X69746248Y-35754767D01*
X69761558Y-35822699D01*
X69794222Y-35967639D01*
X69878266Y-36174616D01*
X69994987Y-36365088D01*
X70141250Y-36533938D01*
X70313126Y-36676632D01*
X70383595Y-36717811D01*
X70386445Y-36719476D01*
X70435169Y-36771114D01*
X70448240Y-36840897D01*
X70421509Y-36906669D01*
X70381055Y-36940027D01*
X70368607Y-36946507D01*
X70364474Y-36949610D01*
X70364471Y-36949612D01*
X70194100Y-37077530D01*
X70189965Y-37080635D01*
X70035629Y-37242138D01*
X70032715Y-37246410D01*
X70032714Y-37246411D01*
X70020404Y-37264457D01*
X69909743Y-37426680D01*
X69862715Y-37527993D01*
X69819355Y-37621406D01*
X69815688Y-37629305D01*
X69755989Y-37844570D01*
X69732251Y-38066695D01*
X69732548Y-38071848D01*
X69732548Y-38071851D01*
X69738011Y-38166590D01*
X69745110Y-38289715D01*
X69746247Y-38294761D01*
X69746248Y-38294767D01*
X69748502Y-38304767D01*
X69794222Y-38507639D01*
X69878266Y-38714616D01*
X69994987Y-38905088D01*
X70141250Y-39073938D01*
X70313126Y-39216632D01*
X70330239Y-39226632D01*
X70386445Y-39259476D01*
X70435169Y-39311114D01*
X70448240Y-39380897D01*
X70421509Y-39446669D01*
X70381055Y-39480027D01*
X70368607Y-39486507D01*
X70364474Y-39489610D01*
X70364471Y-39489612D01*
X70194100Y-39617530D01*
X70189965Y-39620635D01*
X70035629Y-39782138D01*
X70032715Y-39786410D01*
X70032714Y-39786411D01*
X70023300Y-39800211D01*
X69909743Y-39966680D01*
X69815688Y-40169305D01*
X69808266Y-40196067D01*
X69807960Y-40197171D01*
X69801283Y-40215560D01*
X69799739Y-40218963D01*
X69796630Y-40225814D01*
X69748103Y-40392548D01*
X69747909Y-40393280D01*
X69747908Y-40393285D01*
X69744863Y-40404798D01*
X69741623Y-40417048D01*
X69741355Y-40418173D01*
X69736080Y-40443029D01*
X69706831Y-40599866D01*
X69706746Y-40600377D01*
X69706740Y-40600410D01*
X69704882Y-40611562D01*
X69703590Y-40619312D01*
X69703459Y-40620203D01*
X69700954Y-40639874D01*
X69685522Y-40783062D01*
X69685513Y-40783155D01*
X69685509Y-40783192D01*
X69684605Y-40792374D01*
X69684586Y-40792568D01*
X69684548Y-40792995D01*
X69683764Y-40802893D01*
X69675417Y-40922939D01*
X69674833Y-40931334D01*
X69674687Y-40933221D01*
X69672324Y-40961038D01*
X69666346Y-41031371D01*
X69665193Y-41040752D01*
X69658227Y-41083933D01*
X69655520Y-41100715D01*
X69651949Y-41116400D01*
X69640851Y-41153904D01*
X69633793Y-41172316D01*
X69615090Y-41211593D01*
X69605375Y-41228488D01*
X69589609Y-41251570D01*
X69534670Y-41296537D01*
X69485565Y-41306500D01*
X67370756Y-41306500D01*
X67302635Y-41286498D01*
X67256142Y-41232842D01*
X67246038Y-41162568D01*
X67256561Y-41127250D01*
X67271961Y-41094225D01*
X67271961Y-41094224D01*
X67274284Y-41089243D01*
X67282753Y-41057639D01*
X67332119Y-40873402D01*
X67332119Y-40873400D01*
X67333543Y-40868087D01*
X67353498Y-40640000D01*
X67333543Y-40411913D01*
X67332119Y-40406598D01*
X67275707Y-40196067D01*
X67275706Y-40196065D01*
X67274284Y-40190757D01*
X67266755Y-40174610D01*
X67179849Y-39988238D01*
X67179846Y-39988233D01*
X67177523Y-39983251D01*
X67059332Y-39814457D01*
X67049357Y-39800211D01*
X67049355Y-39800208D01*
X67046198Y-39795700D01*
X66884300Y-39633802D01*
X66879792Y-39630645D01*
X66879789Y-39630643D01*
X66718632Y-39517800D01*
X66696749Y-39502477D01*
X66691767Y-39500154D01*
X66691762Y-39500151D01*
X66494225Y-39408039D01*
X66494224Y-39408039D01*
X66489243Y-39405716D01*
X66483935Y-39404294D01*
X66483933Y-39404293D01*
X66273402Y-39347881D01*
X66273400Y-39347881D01*
X66268087Y-39346457D01*
X66040000Y-39326502D01*
X65811913Y-39346457D01*
X65806600Y-39347881D01*
X65806598Y-39347881D01*
X65596067Y-39404293D01*
X65596065Y-39404294D01*
X65590757Y-39405716D01*
X65585776Y-39408039D01*
X65585775Y-39408039D01*
X65388238Y-39500151D01*
X65388233Y-39500154D01*
X65383251Y-39502477D01*
X65361368Y-39517800D01*
X65200211Y-39630643D01*
X65200208Y-39630645D01*
X65195700Y-39633802D01*
X65033802Y-39795700D01*
X65030645Y-39800208D01*
X65030643Y-39800211D01*
X65020668Y-39814457D01*
X64902477Y-39983251D01*
X64900154Y-39988233D01*
X64900151Y-39988238D01*
X64813245Y-40174610D01*
X64805716Y-40190757D01*
X64804294Y-40196065D01*
X64804293Y-40196067D01*
X64747881Y-40406598D01*
X64746457Y-40411913D01*
X64726502Y-40640000D01*
X64746457Y-40868087D01*
X64747881Y-40873400D01*
X64747881Y-40873402D01*
X64797248Y-41057639D01*
X64805716Y-41089243D01*
X64808039Y-41094224D01*
X64808039Y-41094225D01*
X64823439Y-41127250D01*
X64834100Y-41197442D01*
X64805120Y-41262254D01*
X64745700Y-41301111D01*
X64709244Y-41306500D01*
X62290756Y-41306500D01*
X62222635Y-41286498D01*
X62176142Y-41232842D01*
X62166038Y-41162568D01*
X62176561Y-41127250D01*
X62191961Y-41094225D01*
X62191961Y-41094224D01*
X62194284Y-41089243D01*
X62202753Y-41057639D01*
X62252119Y-40873402D01*
X62252119Y-40873400D01*
X62253543Y-40868087D01*
X62273498Y-40640000D01*
X62253543Y-40411913D01*
X62252119Y-40406598D01*
X62195707Y-40196067D01*
X62195706Y-40196065D01*
X62194284Y-40190757D01*
X62186755Y-40174610D01*
X62099849Y-39988238D01*
X62099846Y-39988233D01*
X62097523Y-39983251D01*
X61979332Y-39814457D01*
X61969357Y-39800211D01*
X61969355Y-39800208D01*
X61966198Y-39795700D01*
X61804300Y-39633802D01*
X61799792Y-39630645D01*
X61799789Y-39630643D01*
X61638632Y-39517800D01*
X61616749Y-39502477D01*
X61611767Y-39500154D01*
X61611762Y-39500151D01*
X61414225Y-39408039D01*
X61414224Y-39408039D01*
X61409243Y-39405716D01*
X61403935Y-39404294D01*
X61403933Y-39404293D01*
X61193402Y-39347881D01*
X61193400Y-39347881D01*
X61188087Y-39346457D01*
X60960000Y-39326502D01*
X60731913Y-39346457D01*
X60726600Y-39347881D01*
X60726598Y-39347881D01*
X60516067Y-39404293D01*
X60516065Y-39404294D01*
X60510757Y-39405716D01*
X60505776Y-39408039D01*
X60505775Y-39408039D01*
X60308238Y-39500151D01*
X60308233Y-39500154D01*
X60303251Y-39502477D01*
X60281368Y-39517800D01*
X60120211Y-39630643D01*
X60120208Y-39630645D01*
X60115700Y-39633802D01*
X59953802Y-39795700D01*
X59950645Y-39800208D01*
X59950643Y-39800211D01*
X59940668Y-39814457D01*
X59822477Y-39983251D01*
X59820154Y-39988233D01*
X59820151Y-39988238D01*
X59733245Y-40174610D01*
X59725716Y-40190757D01*
X59724294Y-40196065D01*
X59724293Y-40196067D01*
X59667881Y-40406598D01*
X59666457Y-40411913D01*
X59646502Y-40640000D01*
X59666457Y-40868087D01*
X59667881Y-40873400D01*
X59667881Y-40873402D01*
X59717248Y-41057639D01*
X59725716Y-41089243D01*
X59728039Y-41094224D01*
X59728039Y-41094225D01*
X59743439Y-41127250D01*
X59754100Y-41197442D01*
X59725120Y-41262254D01*
X59665700Y-41301111D01*
X59629244Y-41306500D01*
X58783301Y-41306500D01*
X58758701Y-41304075D01*
X58755781Y-41303494D01*
X58750901Y-41302522D01*
X58750896Y-41302521D01*
X58746494Y-41301645D01*
X58610771Y-41294349D01*
X58594502Y-41292407D01*
X58529680Y-41280352D01*
X58511072Y-41275395D01*
X58477132Y-41263507D01*
X58459251Y-41255639D01*
X58431117Y-41240556D01*
X58417522Y-41232115D01*
X58374232Y-41201262D01*
X58366719Y-41195468D01*
X58297363Y-41137697D01*
X58295805Y-41136378D01*
X58268225Y-41112638D01*
X58204757Y-41058005D01*
X58197787Y-41052111D01*
X58197457Y-41051837D01*
X58189946Y-41045720D01*
X58171986Y-41031371D01*
X58084904Y-40961799D01*
X58084861Y-40961765D01*
X58084430Y-40961421D01*
X58083932Y-40961038D01*
X58069689Y-40950088D01*
X58069661Y-40950067D01*
X58069215Y-40949724D01*
X58068505Y-40949199D01*
X58068048Y-40948874D01*
X58068002Y-40948841D01*
X58053050Y-40938220D01*
X58053044Y-40938216D01*
X58052560Y-40937872D01*
X58052108Y-40937564D01*
X58052074Y-40937540D01*
X57929552Y-40853967D01*
X57929533Y-40853954D01*
X57928946Y-40853554D01*
X57907956Y-40839974D01*
X57906987Y-40839380D01*
X57885441Y-40826881D01*
X57806008Y-40783341D01*
X57803569Y-40781969D01*
X57801257Y-40780634D01*
X57796749Y-40777477D01*
X57790822Y-40774713D01*
X57783532Y-40771021D01*
X57743070Y-40748842D01*
X57739554Y-40747434D01*
X57739544Y-40747429D01*
X57691509Y-40728190D01*
X57685108Y-40725418D01*
X57594232Y-40683042D01*
X57594228Y-40683041D01*
X57589243Y-40680716D01*
X57416857Y-40634525D01*
X57373402Y-40622881D01*
X57373400Y-40622881D01*
X57368087Y-40621457D01*
X57140000Y-40601502D01*
X56911913Y-40621457D01*
X56906600Y-40622881D01*
X56906598Y-40622881D01*
X56696067Y-40679293D01*
X56696065Y-40679294D01*
X56690757Y-40680716D01*
X56685776Y-40683039D01*
X56685775Y-40683039D01*
X56488238Y-40775151D01*
X56488233Y-40775154D01*
X56483251Y-40777477D01*
X56413242Y-40826498D01*
X56300211Y-40905643D01*
X56300208Y-40905645D01*
X56295700Y-40908802D01*
X56133802Y-41070700D01*
X56130645Y-41075208D01*
X56130643Y-41075211D01*
X56101802Y-41116400D01*
X56002477Y-41258251D01*
X56000154Y-41263233D01*
X56000151Y-41263238D01*
X55912743Y-41450688D01*
X55905716Y-41465757D01*
X55904294Y-41471065D01*
X55904293Y-41471067D01*
X55864378Y-41620031D01*
X55846457Y-41686913D01*
X55826502Y-41915000D01*
X55846457Y-42143087D01*
X55847881Y-42148400D01*
X55847881Y-42148402D01*
X55899277Y-42340211D01*
X55905716Y-42364243D01*
X55908039Y-42369224D01*
X55908039Y-42369225D01*
X56000151Y-42566762D01*
X56000154Y-42566767D01*
X56002477Y-42571749D01*
X56020269Y-42597158D01*
X56127782Y-42750702D01*
X56133802Y-42759300D01*
X56295700Y-42921198D01*
X56300211Y-42924357D01*
X56304424Y-42927892D01*
X56303473Y-42929026D01*
X56343471Y-42979071D01*
X56350776Y-43049690D01*
X56318742Y-43113049D01*
X56257538Y-43149030D01*
X56240483Y-43152082D01*
X56229684Y-43153255D01*
X56093295Y-43204385D01*
X55976739Y-43291739D01*
X55889385Y-43408295D01*
X55838255Y-43544684D01*
X55831500Y-43606866D01*
X55831500Y-45303134D01*
X55838255Y-45365316D01*
X55889385Y-45501705D01*
X55976739Y-45618261D01*
X56093295Y-45705615D01*
X56229684Y-45756745D01*
X56291866Y-45763500D01*
X57988134Y-45763500D01*
X58050316Y-45756745D01*
X58186705Y-45705615D01*
X58303261Y-45618261D01*
X58390615Y-45501705D01*
X58441745Y-45365316D01*
X58448500Y-45303134D01*
X58448500Y-43606866D01*
X58441745Y-43544684D01*
X58390615Y-43408295D01*
X58303261Y-43291739D01*
X58186705Y-43204385D01*
X58050316Y-43153255D01*
X58043902Y-43152558D01*
X57982813Y-43117661D01*
X57949992Y-43054706D01*
X57956416Y-42984001D01*
X58002603Y-42926203D01*
X58052074Y-42892459D01*
X58052108Y-42892435D01*
X58052560Y-42892127D01*
X58053050Y-42891779D01*
X58068002Y-42881158D01*
X58068048Y-42881125D01*
X58068505Y-42880800D01*
X58069215Y-42880275D01*
X58069661Y-42879932D01*
X58069689Y-42879911D01*
X58083932Y-42868961D01*
X58083942Y-42868953D01*
X58084430Y-42868578D01*
X58084861Y-42868234D01*
X58084904Y-42868200D01*
X58189662Y-42784506D01*
X58189676Y-42784495D01*
X58189946Y-42784279D01*
X58197457Y-42778162D01*
X58197787Y-42777888D01*
X58198031Y-42777682D01*
X58204515Y-42772200D01*
X58204601Y-42772127D01*
X58204759Y-42771993D01*
X58204935Y-42771842D01*
X58205034Y-42771757D01*
X58295801Y-42693625D01*
X58297359Y-42692306D01*
X58366722Y-42634529D01*
X58374235Y-42628735D01*
X58417522Y-42597884D01*
X58431117Y-42589443D01*
X58459251Y-42574360D01*
X58477132Y-42566492D01*
X58502664Y-42557549D01*
X58511069Y-42554605D01*
X58529679Y-42549647D01*
X58594497Y-42537593D01*
X58610768Y-42535651D01*
X58665747Y-42532696D01*
X58745212Y-42528424D01*
X58745222Y-42528423D01*
X58746492Y-42528355D01*
X58747737Y-42528238D01*
X58747748Y-42528237D01*
X58787511Y-42524494D01*
X58787541Y-42524813D01*
X58801666Y-42523500D01*
X69704536Y-42523500D01*
X69772657Y-42543502D01*
X69819150Y-42597158D01*
X69829254Y-42667432D01*
X69818822Y-42702553D01*
X69815688Y-42709305D01*
X69755989Y-42924570D01*
X69732251Y-43146695D01*
X69732548Y-43151848D01*
X69732548Y-43151851D01*
X69740304Y-43286358D01*
X69745110Y-43369715D01*
X69746247Y-43374761D01*
X69746248Y-43374767D01*
X69754955Y-43413402D01*
X69794222Y-43587639D01*
X69830784Y-43677680D01*
X69874274Y-43784784D01*
X69878266Y-43794616D01*
X69929019Y-43877438D01*
X69969275Y-43943129D01*
X69994987Y-43985088D01*
X70141250Y-44153938D01*
X70313126Y-44296632D01*
X70363281Y-44325940D01*
X70386445Y-44339476D01*
X70435169Y-44391114D01*
X70448240Y-44460897D01*
X70421509Y-44526669D01*
X70381055Y-44560027D01*
X70374405Y-44563489D01*
X70368607Y-44566507D01*
X70364474Y-44569610D01*
X70364471Y-44569612D01*
X70194100Y-44697530D01*
X70189965Y-44700635D01*
X70168544Y-44723051D01*
X70069426Y-44826772D01*
X70035629Y-44862138D01*
X70032715Y-44866410D01*
X70032714Y-44866411D01*
X70020404Y-44884457D01*
X69909743Y-45046680D01*
X69815688Y-45249305D01*
X69807960Y-45277171D01*
X69801283Y-45295560D01*
X69799739Y-45298963D01*
X69796630Y-45305814D01*
X69748103Y-45472548D01*
X69747909Y-45473280D01*
X69747908Y-45473285D01*
X69744863Y-45484798D01*
X69741623Y-45497048D01*
X69741355Y-45498173D01*
X69736080Y-45523029D01*
X69735937Y-45523798D01*
X69735930Y-45523831D01*
X69717316Y-45623642D01*
X69706831Y-45679866D01*
X69703590Y-45699312D01*
X69703459Y-45700203D01*
X69700954Y-45719874D01*
X69685522Y-45863062D01*
X69684586Y-45872568D01*
X69684548Y-45872995D01*
X69683764Y-45882893D01*
X69675417Y-46002939D01*
X69674833Y-46011334D01*
X69674687Y-46013221D01*
X69673855Y-46023023D01*
X69666346Y-46111371D01*
X69665193Y-46120752D01*
X69662469Y-46137639D01*
X69655520Y-46180715D01*
X69651949Y-46196400D01*
X69640851Y-46233904D01*
X69633793Y-46252316D01*
X69615090Y-46291593D01*
X69605374Y-46308490D01*
X69563155Y-46370297D01*
X69552920Y-46383344D01*
X69454391Y-46493210D01*
X69428222Y-46524848D01*
X69427965Y-46524635D01*
X69418951Y-46535500D01*
X67064856Y-48889595D01*
X67002544Y-48923621D01*
X66975761Y-48926500D01*
X58783301Y-48926500D01*
X58758701Y-48924075D01*
X58755781Y-48923494D01*
X58750901Y-48922522D01*
X58750896Y-48922521D01*
X58746494Y-48921645D01*
X58610771Y-48914349D01*
X58594502Y-48912407D01*
X58529680Y-48900352D01*
X58511072Y-48895395D01*
X58477132Y-48883507D01*
X58459251Y-48875639D01*
X58431117Y-48860556D01*
X58417522Y-48852115D01*
X58374232Y-48821262D01*
X58366719Y-48815468D01*
X58297363Y-48757697D01*
X58295805Y-48756378D01*
X58268225Y-48732638D01*
X58204757Y-48678005D01*
X58201830Y-48675530D01*
X58197940Y-48672240D01*
X58197906Y-48672211D01*
X58197787Y-48672111D01*
X58197457Y-48671837D01*
X58189946Y-48665720D01*
X58189662Y-48665493D01*
X58084904Y-48581799D01*
X58084861Y-48581765D01*
X58084430Y-48581421D01*
X58083932Y-48581038D01*
X58069689Y-48570088D01*
X58069661Y-48570067D01*
X58069215Y-48569724D01*
X58068505Y-48569199D01*
X58068048Y-48568874D01*
X58068002Y-48568841D01*
X58053050Y-48558220D01*
X58053044Y-48558216D01*
X58052560Y-48557872D01*
X58052108Y-48557564D01*
X58052074Y-48557540D01*
X57929552Y-48473967D01*
X57929533Y-48473954D01*
X57928946Y-48473554D01*
X57907956Y-48459974D01*
X57906987Y-48459380D01*
X57885441Y-48446881D01*
X57806008Y-48403341D01*
X57803569Y-48401969D01*
X57801257Y-48400634D01*
X57796749Y-48397477D01*
X57790822Y-48394713D01*
X57783532Y-48391021D01*
X57743070Y-48368842D01*
X57739554Y-48367434D01*
X57739544Y-48367429D01*
X57691509Y-48348190D01*
X57685108Y-48345418D01*
X57594232Y-48303042D01*
X57594228Y-48303041D01*
X57589243Y-48300716D01*
X57416857Y-48254525D01*
X57373402Y-48242881D01*
X57373400Y-48242881D01*
X57368087Y-48241457D01*
X57140000Y-48221502D01*
X56911913Y-48241457D01*
X56906600Y-48242881D01*
X56906598Y-48242881D01*
X56696067Y-48299293D01*
X56696065Y-48299294D01*
X56690757Y-48300716D01*
X56685776Y-48303039D01*
X56685775Y-48303039D01*
X56488238Y-48395151D01*
X56488233Y-48395154D01*
X56483251Y-48397477D01*
X56413242Y-48446498D01*
X56300211Y-48525643D01*
X56300208Y-48525645D01*
X56295700Y-48528802D01*
X56133802Y-48690700D01*
X56130645Y-48695208D01*
X56130643Y-48695211D01*
X56087814Y-48756378D01*
X56002477Y-48878251D01*
X56000154Y-48883233D01*
X56000151Y-48883238D01*
X55912743Y-49070688D01*
X55905716Y-49085757D01*
X55904294Y-49091065D01*
X55904293Y-49091067D01*
X55856520Y-49269357D01*
X55846457Y-49306913D01*
X55826502Y-49535000D01*
X50833498Y-49535000D01*
X50813543Y-49306913D01*
X50803480Y-49269357D01*
X50755707Y-49091067D01*
X50755706Y-49091065D01*
X50754284Y-49085757D01*
X50747257Y-49070688D01*
X50659849Y-48883238D01*
X50659846Y-48883233D01*
X50657523Y-48878251D01*
X50572186Y-48756378D01*
X50529357Y-48695211D01*
X50529355Y-48695208D01*
X50526198Y-48690700D01*
X50364300Y-48528802D01*
X50359792Y-48525645D01*
X50359789Y-48525643D01*
X50246758Y-48446498D01*
X50176749Y-48397477D01*
X50171767Y-48395154D01*
X50171762Y-48395151D01*
X49974225Y-48303039D01*
X49974224Y-48303039D01*
X49969243Y-48300716D01*
X49963935Y-48299294D01*
X49963933Y-48299293D01*
X49753402Y-48242881D01*
X49753400Y-48242881D01*
X49748087Y-48241457D01*
X49520000Y-48221502D01*
X49291913Y-48241457D01*
X49286600Y-48242881D01*
X49286598Y-48242881D01*
X49076067Y-48299293D01*
X49076065Y-48299294D01*
X49070757Y-48300716D01*
X49065776Y-48303039D01*
X49065775Y-48303039D01*
X48868238Y-48395151D01*
X48868233Y-48395154D01*
X48863251Y-48397477D01*
X48793242Y-48446498D01*
X48680211Y-48525643D01*
X48680208Y-48525645D01*
X48675700Y-48528802D01*
X48513802Y-48690700D01*
X48510645Y-48695208D01*
X48510643Y-48695211D01*
X48467814Y-48756378D01*
X48382477Y-48878251D01*
X48380154Y-48883233D01*
X48380151Y-48883238D01*
X48292743Y-49070688D01*
X48285716Y-49085757D01*
X48284294Y-49091065D01*
X48284293Y-49091067D01*
X48236520Y-49269357D01*
X48226457Y-49306913D01*
X48206502Y-49535000D01*
X46017291Y-49535000D01*
X46163933Y-49495707D01*
X46163935Y-49495706D01*
X46169243Y-49494284D01*
X46278852Y-49443173D01*
X46371762Y-49399849D01*
X46371767Y-49399846D01*
X46376749Y-49397523D01*
X46500069Y-49311173D01*
X46559789Y-49269357D01*
X46559792Y-49269355D01*
X46564300Y-49266198D01*
X46726198Y-49104300D01*
X46742671Y-49080775D01*
X46818962Y-48971819D01*
X46857523Y-48916749D01*
X46859846Y-48911767D01*
X46859849Y-48911762D01*
X46951961Y-48714225D01*
X46951961Y-48714224D01*
X46954284Y-48709243D01*
X46962753Y-48677639D01*
X47012119Y-48493402D01*
X47012119Y-48493400D01*
X47013543Y-48488087D01*
X47033498Y-48260000D01*
X47013543Y-48031913D01*
X46954284Y-47810757D01*
X46908824Y-47713267D01*
X46859849Y-47608238D01*
X46859846Y-47608233D01*
X46857523Y-47603251D01*
X46726198Y-47415700D01*
X46564300Y-47253802D01*
X46559792Y-47250645D01*
X46559789Y-47250643D01*
X46415784Y-47149810D01*
X46376749Y-47122477D01*
X46371767Y-47120154D01*
X46371762Y-47120151D01*
X46174225Y-47028039D01*
X46174224Y-47028039D01*
X46169243Y-47025716D01*
X46163935Y-47024294D01*
X46163933Y-47024293D01*
X45953402Y-46967881D01*
X45953400Y-46967881D01*
X45948087Y-46966457D01*
X45720000Y-46946502D01*
X45491913Y-46966457D01*
X45486600Y-46967881D01*
X45486598Y-46967881D01*
X45276067Y-47024293D01*
X45276065Y-47024294D01*
X45270757Y-47025716D01*
X45265776Y-47028039D01*
X45265775Y-47028039D01*
X45068238Y-47120151D01*
X45068233Y-47120154D01*
X45063251Y-47122477D01*
X45024216Y-47149810D01*
X44880211Y-47250643D01*
X44880208Y-47250645D01*
X44875700Y-47253802D01*
X44713802Y-47415700D01*
X44582477Y-47603251D01*
X44580154Y-47608233D01*
X44580151Y-47608238D01*
X44531176Y-47713267D01*
X44485716Y-47810757D01*
X44426457Y-48031913D01*
X44406502Y-48260000D01*
X36873498Y-48260000D01*
X36853543Y-48031913D01*
X36794284Y-47810757D01*
X36791959Y-47805770D01*
X36743847Y-47702592D01*
X36739905Y-47693156D01*
X36728624Y-47662738D01*
X36728620Y-47662729D01*
X36727056Y-47658512D01*
X36702438Y-47613226D01*
X36700423Y-47609231D01*
X36699844Y-47608229D01*
X36697523Y-47603251D01*
X36696480Y-47601761D01*
X36695961Y-47599622D01*
X36695252Y-47600007D01*
X36650823Y-47518280D01*
X36650478Y-47517645D01*
X36639092Y-47497769D01*
X36638550Y-47496870D01*
X36626127Y-47477280D01*
X36625763Y-47476734D01*
X36625734Y-47476689D01*
X36544415Y-47354637D01*
X36544130Y-47354209D01*
X36543794Y-47353722D01*
X36538672Y-47346313D01*
X36534123Y-47339733D01*
X36533657Y-47339083D01*
X36523212Y-47325026D01*
X36441867Y-47219366D01*
X36437617Y-47213922D01*
X36437393Y-47213639D01*
X36431801Y-47206698D01*
X36410899Y-47181212D01*
X36357418Y-47116002D01*
X36355852Y-47114055D01*
X36301842Y-47045450D01*
X36296217Y-47037717D01*
X36287212Y-47024293D01*
X36266803Y-46993867D01*
X36258936Y-46980408D01*
X36243455Y-46949704D01*
X36236304Y-46932446D01*
X36230998Y-46916360D01*
X36223688Y-46894198D01*
X36219244Y-46876510D01*
X36207092Y-46807260D01*
X36205359Y-46791879D01*
X36200888Y-46703938D01*
X36198402Y-46655035D01*
X36194565Y-46613282D01*
X36194824Y-46613258D01*
X36193500Y-46598862D01*
X36193500Y-44822203D01*
X36195854Y-44797963D01*
X36197536Y-44789382D01*
X36198403Y-44784961D01*
X36201628Y-44721522D01*
X48237273Y-44721522D01*
X48284764Y-44898761D01*
X48288510Y-44909053D01*
X48380586Y-45106511D01*
X48386069Y-45116007D01*
X48511028Y-45294467D01*
X48518084Y-45302875D01*
X48672125Y-45456916D01*
X48680533Y-45463972D01*
X48858993Y-45588931D01*
X48868489Y-45594414D01*
X49065947Y-45686490D01*
X49076239Y-45690236D01*
X49248503Y-45736394D01*
X49262599Y-45736058D01*
X49266000Y-45728116D01*
X49266000Y-45722967D01*
X49774000Y-45722967D01*
X49777973Y-45736498D01*
X49786522Y-45737727D01*
X49963761Y-45690236D01*
X49974053Y-45686490D01*
X50171511Y-45594414D01*
X50181007Y-45588931D01*
X50359467Y-45463972D01*
X50367875Y-45456916D01*
X50521916Y-45302875D01*
X50528972Y-45294467D01*
X50653931Y-45116007D01*
X50659414Y-45106511D01*
X50751490Y-44909053D01*
X50755236Y-44898761D01*
X50801394Y-44726497D01*
X50801058Y-44712401D01*
X50793116Y-44709000D01*
X49792115Y-44709000D01*
X49776876Y-44713475D01*
X49775671Y-44714865D01*
X49774000Y-44722548D01*
X49774000Y-45722967D01*
X49266000Y-45722967D01*
X49266000Y-44727115D01*
X49261525Y-44711876D01*
X49260135Y-44710671D01*
X49252452Y-44709000D01*
X48252033Y-44709000D01*
X48238502Y-44712973D01*
X48237273Y-44721522D01*
X36201628Y-44721522D01*
X36205360Y-44648105D01*
X36207092Y-44632739D01*
X36219244Y-44563486D01*
X36223689Y-44545799D01*
X36236303Y-44507556D01*
X36243454Y-44490297D01*
X36258935Y-44459593D01*
X36266806Y-44446126D01*
X36282252Y-44423101D01*
X36282329Y-44422987D01*
X36296224Y-44402274D01*
X36301860Y-44394525D01*
X36355854Y-44325940D01*
X36357432Y-44323977D01*
X36431588Y-44233560D01*
X36431596Y-44233551D01*
X36431802Y-44233299D01*
X36437686Y-44225990D01*
X36437908Y-44225709D01*
X36441867Y-44220633D01*
X36459601Y-44197599D01*
X36522881Y-44115403D01*
X36522884Y-44115400D01*
X36523212Y-44114973D01*
X36533657Y-44100916D01*
X36534123Y-44100266D01*
X36544130Y-44085790D01*
X36558988Y-44063489D01*
X36625734Y-43963310D01*
X36625763Y-43963265D01*
X36626127Y-43962719D01*
X36638550Y-43943129D01*
X36639092Y-43942230D01*
X36650477Y-43922356D01*
X36695251Y-43839994D01*
X36695792Y-43840288D01*
X36696360Y-43838410D01*
X36697523Y-43836749D01*
X36699851Y-43831757D01*
X36700435Y-43830745D01*
X36702437Y-43826775D01*
X36715096Y-43803489D01*
X36727055Y-43781490D01*
X36747472Y-43730133D01*
X36750362Y-43723434D01*
X36791961Y-43634225D01*
X36791961Y-43634224D01*
X36794284Y-43629243D01*
X36799365Y-43610283D01*
X36852119Y-43413402D01*
X36852119Y-43413400D01*
X36853543Y-43408087D01*
X36873498Y-43180000D01*
X44406502Y-43180000D01*
X44426457Y-43408087D01*
X44427881Y-43413400D01*
X44427881Y-43413402D01*
X44480636Y-43610283D01*
X44485716Y-43629243D01*
X44488039Y-43634224D01*
X44488039Y-43634225D01*
X44580151Y-43831762D01*
X44580154Y-43831767D01*
X44582477Y-43836749D01*
X44610968Y-43877438D01*
X44704657Y-44011239D01*
X44713802Y-44024300D01*
X44875700Y-44186198D01*
X44880208Y-44189355D01*
X44880211Y-44189357D01*
X44939931Y-44231173D01*
X45063251Y-44317523D01*
X45068233Y-44319846D01*
X45068238Y-44319849D01*
X45260150Y-44409338D01*
X45270757Y-44414284D01*
X45276065Y-44415706D01*
X45276067Y-44415707D01*
X45486598Y-44472119D01*
X45486600Y-44472119D01*
X45491913Y-44473543D01*
X45720000Y-44493498D01*
X45948087Y-44473543D01*
X45953400Y-44472119D01*
X45953402Y-44472119D01*
X46163933Y-44415707D01*
X46163935Y-44415706D01*
X46169243Y-44414284D01*
X46179850Y-44409338D01*
X46371762Y-44319849D01*
X46371767Y-44319846D01*
X46376749Y-44317523D01*
X46500069Y-44231173D01*
X46559789Y-44189357D01*
X46559792Y-44189355D01*
X46564300Y-44186198D01*
X46726198Y-44024300D01*
X46735344Y-44011239D01*
X46829032Y-43877438D01*
X46857523Y-43836749D01*
X46859846Y-43831767D01*
X46859849Y-43831762D01*
X46951961Y-43634225D01*
X46951961Y-43634224D01*
X46954284Y-43629243D01*
X46959365Y-43610283D01*
X47012119Y-43413402D01*
X47012119Y-43413400D01*
X47013543Y-43408087D01*
X47033498Y-43180000D01*
X47013543Y-42951913D01*
X47012119Y-42946598D01*
X46955707Y-42736067D01*
X46955706Y-42736065D01*
X46954284Y-42730757D01*
X46944281Y-42709305D01*
X46859849Y-42528238D01*
X46859846Y-42528233D01*
X46857523Y-42523251D01*
X46739332Y-42354457D01*
X46729357Y-42340211D01*
X46729355Y-42340208D01*
X46726198Y-42335700D01*
X46564300Y-42173802D01*
X46559792Y-42170645D01*
X46559789Y-42170643D01*
X46398632Y-42057800D01*
X46376749Y-42042477D01*
X46371767Y-42040154D01*
X46371762Y-42040151D01*
X46174225Y-41948039D01*
X46174224Y-41948039D01*
X46169243Y-41945716D01*
X46163935Y-41944294D01*
X46163933Y-41944293D01*
X46054611Y-41915000D01*
X48206502Y-41915000D01*
X48226457Y-42143087D01*
X48227881Y-42148400D01*
X48227881Y-42148402D01*
X48279277Y-42340211D01*
X48285716Y-42364243D01*
X48288039Y-42369224D01*
X48288039Y-42369225D01*
X48380151Y-42566762D01*
X48380154Y-42566767D01*
X48382477Y-42571749D01*
X48400269Y-42597158D01*
X48507782Y-42750702D01*
X48513802Y-42759300D01*
X48675700Y-42921198D01*
X48680208Y-42924355D01*
X48680211Y-42924357D01*
X48754601Y-42976445D01*
X48863251Y-43052523D01*
X48868233Y-43054846D01*
X48868238Y-43054849D01*
X48903049Y-43071081D01*
X48956334Y-43117998D01*
X48975795Y-43186275D01*
X48955253Y-43254235D01*
X48903049Y-43299471D01*
X48868489Y-43315586D01*
X48858993Y-43321069D01*
X48680533Y-43446028D01*
X48672125Y-43453084D01*
X48518084Y-43607125D01*
X48511028Y-43615533D01*
X48386069Y-43793993D01*
X48380586Y-43803489D01*
X48288510Y-44000947D01*
X48284764Y-44011239D01*
X48238606Y-44183503D01*
X48238942Y-44197599D01*
X48246884Y-44201000D01*
X50787967Y-44201000D01*
X50801498Y-44197027D01*
X50802727Y-44188478D01*
X50755236Y-44011239D01*
X50751490Y-44000947D01*
X50659414Y-43803489D01*
X50653931Y-43793993D01*
X50528972Y-43615533D01*
X50521916Y-43607125D01*
X50367875Y-43453084D01*
X50359467Y-43446028D01*
X50181007Y-43321069D01*
X50171511Y-43315586D01*
X50136951Y-43299471D01*
X50083666Y-43252554D01*
X50064205Y-43184277D01*
X50084747Y-43116317D01*
X50136951Y-43071081D01*
X50171762Y-43054849D01*
X50171767Y-43054846D01*
X50176749Y-43052523D01*
X50285399Y-42976445D01*
X50359789Y-42924357D01*
X50359792Y-42924355D01*
X50364300Y-42921198D01*
X50526198Y-42759300D01*
X50532219Y-42750702D01*
X50639731Y-42597158D01*
X50657523Y-42571749D01*
X50659846Y-42566767D01*
X50659849Y-42566762D01*
X50751961Y-42369225D01*
X50751961Y-42369224D01*
X50754284Y-42364243D01*
X50760724Y-42340211D01*
X50812119Y-42148402D01*
X50812119Y-42148400D01*
X50813543Y-42143087D01*
X50833498Y-41915000D01*
X50813543Y-41686913D01*
X50795622Y-41620031D01*
X50755707Y-41471067D01*
X50755706Y-41471065D01*
X50754284Y-41465757D01*
X50747257Y-41450688D01*
X50659849Y-41263238D01*
X50659846Y-41263233D01*
X50657523Y-41258251D01*
X50558198Y-41116400D01*
X50529357Y-41075211D01*
X50529355Y-41075208D01*
X50526198Y-41070700D01*
X50364300Y-40908802D01*
X50359792Y-40905645D01*
X50359789Y-40905643D01*
X50246758Y-40826498D01*
X50176749Y-40777477D01*
X50171767Y-40775154D01*
X50171762Y-40775151D01*
X49974225Y-40683039D01*
X49974224Y-40683039D01*
X49969243Y-40680716D01*
X49963935Y-40679294D01*
X49963933Y-40679293D01*
X49753402Y-40622881D01*
X49753400Y-40622881D01*
X49748087Y-40621457D01*
X49520000Y-40601502D01*
X49291913Y-40621457D01*
X49286600Y-40622881D01*
X49286598Y-40622881D01*
X49076067Y-40679293D01*
X49076065Y-40679294D01*
X49070757Y-40680716D01*
X49065776Y-40683039D01*
X49065775Y-40683039D01*
X48868238Y-40775151D01*
X48868233Y-40775154D01*
X48863251Y-40777477D01*
X48793242Y-40826498D01*
X48680211Y-40905643D01*
X48680208Y-40905645D01*
X48675700Y-40908802D01*
X48513802Y-41070700D01*
X48510645Y-41075208D01*
X48510643Y-41075211D01*
X48481802Y-41116400D01*
X48382477Y-41258251D01*
X48380154Y-41263233D01*
X48380151Y-41263238D01*
X48292743Y-41450688D01*
X48285716Y-41465757D01*
X48284294Y-41471065D01*
X48284293Y-41471067D01*
X48244378Y-41620031D01*
X48226457Y-41686913D01*
X48206502Y-41915000D01*
X46054611Y-41915000D01*
X45953402Y-41887881D01*
X45953400Y-41887881D01*
X45948087Y-41886457D01*
X45720000Y-41866502D01*
X45491913Y-41886457D01*
X45486600Y-41887881D01*
X45486598Y-41887881D01*
X45276067Y-41944293D01*
X45276065Y-41944294D01*
X45270757Y-41945716D01*
X45265776Y-41948039D01*
X45265775Y-41948039D01*
X45068238Y-42040151D01*
X45068233Y-42040154D01*
X45063251Y-42042477D01*
X45041368Y-42057800D01*
X44880211Y-42170643D01*
X44880208Y-42170645D01*
X44875700Y-42173802D01*
X44713802Y-42335700D01*
X44710645Y-42340208D01*
X44710643Y-42340211D01*
X44700668Y-42354457D01*
X44582477Y-42523251D01*
X44580154Y-42528233D01*
X44580151Y-42528238D01*
X44495719Y-42709305D01*
X44485716Y-42730757D01*
X44484294Y-42736065D01*
X44484293Y-42736067D01*
X44427881Y-42946598D01*
X44426457Y-42951913D01*
X44406502Y-43180000D01*
X36873498Y-43180000D01*
X36853543Y-42951913D01*
X36852119Y-42946598D01*
X36795707Y-42736067D01*
X36795706Y-42736065D01*
X36794284Y-42730757D01*
X36784281Y-42709305D01*
X36699849Y-42528238D01*
X36699846Y-42528233D01*
X36697523Y-42523251D01*
X36579332Y-42354457D01*
X36569357Y-42340211D01*
X36569355Y-42340208D01*
X36566198Y-42335700D01*
X36404300Y-42173802D01*
X36399792Y-42170645D01*
X36399789Y-42170643D01*
X36238632Y-42057800D01*
X36216749Y-42042477D01*
X36211767Y-42040154D01*
X36211762Y-42040151D01*
X36014225Y-41948039D01*
X36014224Y-41948039D01*
X36009243Y-41945716D01*
X36003935Y-41944294D01*
X36003933Y-41944293D01*
X35793402Y-41887881D01*
X35793400Y-41887881D01*
X35788087Y-41886457D01*
X35560000Y-41866502D01*
X35331913Y-41886457D01*
X35326600Y-41887881D01*
X35326598Y-41887881D01*
X35116067Y-41944293D01*
X35116065Y-41944294D01*
X35110757Y-41945716D01*
X35105776Y-41948039D01*
X35105775Y-41948039D01*
X34908238Y-42040151D01*
X34908233Y-42040154D01*
X34903251Y-42042477D01*
X34881368Y-42057800D01*
X34720211Y-42170643D01*
X34720208Y-42170645D01*
X34715700Y-42173802D01*
X34553802Y-42335700D01*
X34550645Y-42340208D01*
X34550643Y-42340211D01*
X34430074Y-42512401D01*
X34422477Y-42523251D01*
X34422321Y-42523141D01*
X34372662Y-42570494D01*
X34302949Y-42583933D01*
X34237037Y-42557549D01*
X34209129Y-42526943D01*
X34102822Y-42362617D01*
X34102820Y-42362614D01*
X34100014Y-42358277D01*
X33949670Y-42193051D01*
X33945619Y-42189852D01*
X33945615Y-42189848D01*
X33778414Y-42057800D01*
X33778410Y-42057798D01*
X33774359Y-42054598D01*
X33733053Y-42031796D01*
X33683084Y-41981364D01*
X33668312Y-41911921D01*
X33693428Y-41845516D01*
X33720780Y-41818909D01*
X33764603Y-41787650D01*
X33899860Y-41691173D01*
X34058096Y-41533489D01*
X34062661Y-41527137D01*
X34185435Y-41356277D01*
X34188453Y-41352077D01*
X34193396Y-41342077D01*
X34285136Y-41156453D01*
X34285137Y-41156451D01*
X34287430Y-41151811D01*
X34345275Y-40961421D01*
X34350865Y-40943023D01*
X34350865Y-40943021D01*
X34352370Y-40938069D01*
X34381529Y-40716590D01*
X34383156Y-40650000D01*
X34364852Y-40427361D01*
X34310431Y-40210702D01*
X34221354Y-40005840D01*
X34100014Y-39818277D01*
X33949670Y-39653051D01*
X33945619Y-39649852D01*
X33945615Y-39649848D01*
X33778414Y-39517800D01*
X33778410Y-39517798D01*
X33774359Y-39514598D01*
X33733053Y-39491796D01*
X33683084Y-39441364D01*
X33668312Y-39371921D01*
X33693428Y-39305516D01*
X33720780Y-39278909D01*
X33764603Y-39247650D01*
X33899860Y-39151173D01*
X34058096Y-38993489D01*
X34062661Y-38987137D01*
X34185435Y-38816277D01*
X34188453Y-38812077D01*
X34193396Y-38802077D01*
X34285136Y-38616453D01*
X34285137Y-38616451D01*
X34287430Y-38611811D01*
X34352370Y-38398069D01*
X34381529Y-38176590D01*
X34382460Y-38138498D01*
X34383074Y-38113365D01*
X34383074Y-38113361D01*
X34383156Y-38110000D01*
X34364852Y-37887361D01*
X34310431Y-37670702D01*
X34221354Y-37465840D01*
X34100014Y-37278277D01*
X33949670Y-37113051D01*
X33945619Y-37109852D01*
X33945615Y-37109848D01*
X33778414Y-36977800D01*
X33778410Y-36977798D01*
X33774359Y-36974598D01*
X33733053Y-36951796D01*
X33683084Y-36901364D01*
X33668312Y-36831921D01*
X33693428Y-36765516D01*
X33720780Y-36738909D01*
X33783227Y-36694366D01*
X33899860Y-36611173D01*
X33941823Y-36569357D01*
X34054435Y-36457137D01*
X34058096Y-36453489D01*
X34062661Y-36447137D01*
X34185435Y-36276277D01*
X34188453Y-36272077D01*
X34207106Y-36234334D01*
X34255219Y-36182128D01*
X34323920Y-36164221D01*
X34391397Y-36186299D01*
X34423276Y-36217891D01*
X34537534Y-36381067D01*
X34553802Y-36404300D01*
X34715700Y-36566198D01*
X34720208Y-36569355D01*
X34720211Y-36569357D01*
X34779931Y-36611173D01*
X34903251Y-36697523D01*
X34908233Y-36699846D01*
X34908238Y-36699849D01*
X35100150Y-36789338D01*
X35110757Y-36794284D01*
X35116065Y-36795706D01*
X35116067Y-36795707D01*
X35326598Y-36852119D01*
X35326600Y-36852119D01*
X35331913Y-36853543D01*
X35560000Y-36873498D01*
X35788087Y-36853543D01*
X35793400Y-36852119D01*
X35793402Y-36852119D01*
X36003933Y-36795707D01*
X36003935Y-36795706D01*
X36009243Y-36794284D01*
X36019850Y-36789338D01*
X36211762Y-36699849D01*
X36211767Y-36699846D01*
X36216749Y-36697523D01*
X36340069Y-36611173D01*
X36399789Y-36569357D01*
X36399792Y-36569355D01*
X36404300Y-36566198D01*
X36566198Y-36404300D01*
X36583921Y-36378990D01*
X36658782Y-36272077D01*
X36697523Y-36216749D01*
X36699846Y-36211767D01*
X36699849Y-36211762D01*
X36791961Y-36014225D01*
X36791961Y-36014224D01*
X36794284Y-36009243D01*
X36800724Y-35985211D01*
X36852119Y-35793402D01*
X36852119Y-35793400D01*
X36853543Y-35788087D01*
X36873498Y-35560000D01*
X44406502Y-35560000D01*
X44426457Y-35788087D01*
X44427881Y-35793400D01*
X44427881Y-35793402D01*
X44479277Y-35985211D01*
X44485716Y-36009243D01*
X44488039Y-36014224D01*
X44488039Y-36014225D01*
X44580151Y-36211762D01*
X44580154Y-36211767D01*
X44582477Y-36216749D01*
X44621218Y-36272077D01*
X44696080Y-36378990D01*
X44713802Y-36404300D01*
X44875700Y-36566198D01*
X44880208Y-36569355D01*
X44880211Y-36569357D01*
X44939931Y-36611173D01*
X45063251Y-36697523D01*
X45068233Y-36699846D01*
X45068238Y-36699849D01*
X45260150Y-36789338D01*
X45270757Y-36794284D01*
X45276065Y-36795706D01*
X45276067Y-36795707D01*
X45486598Y-36852119D01*
X45486600Y-36852119D01*
X45491913Y-36853543D01*
X45720000Y-36873498D01*
X45948087Y-36853543D01*
X45953400Y-36852119D01*
X45953402Y-36852119D01*
X46054611Y-36825000D01*
X48226502Y-36825000D01*
X48246457Y-37053087D01*
X48247881Y-37058400D01*
X48247881Y-37058402D01*
X48298792Y-37248401D01*
X48305716Y-37274243D01*
X48308039Y-37279224D01*
X48308039Y-37279225D01*
X48400151Y-37476762D01*
X48400154Y-37476767D01*
X48402477Y-37481749D01*
X48405634Y-37486257D01*
X48527782Y-37660702D01*
X48533802Y-37669300D01*
X48695700Y-37831198D01*
X48700208Y-37834355D01*
X48700211Y-37834357D01*
X48761627Y-37877361D01*
X48883251Y-37962523D01*
X48888233Y-37964846D01*
X48888238Y-37964849D01*
X49085775Y-38056961D01*
X49090757Y-38059284D01*
X49096065Y-38060706D01*
X49096067Y-38060707D01*
X49306598Y-38117119D01*
X49306600Y-38117119D01*
X49311913Y-38118543D01*
X49540000Y-38138498D01*
X49768087Y-38118543D01*
X49773400Y-38117119D01*
X49773402Y-38117119D01*
X49983933Y-38060707D01*
X49983935Y-38060706D01*
X49989243Y-38059284D01*
X49994225Y-38056961D01*
X50191762Y-37964849D01*
X50191767Y-37964846D01*
X50196749Y-37962523D01*
X50318373Y-37877361D01*
X50379789Y-37834357D01*
X50379792Y-37834355D01*
X50384300Y-37831198D01*
X50546198Y-37669300D01*
X50552219Y-37660702D01*
X50674366Y-37486257D01*
X50677523Y-37481749D01*
X50679846Y-37476767D01*
X50679849Y-37476762D01*
X50771961Y-37279225D01*
X50771961Y-37279224D01*
X50774284Y-37274243D01*
X50781209Y-37248401D01*
X50832119Y-37058402D01*
X50832119Y-37058400D01*
X50833543Y-37053087D01*
X50853498Y-36825000D01*
X55846502Y-36825000D01*
X55866457Y-37053087D01*
X55867881Y-37058400D01*
X55867881Y-37058402D01*
X55918792Y-37248401D01*
X55925716Y-37274243D01*
X55928039Y-37279224D01*
X55928039Y-37279225D01*
X56020151Y-37476762D01*
X56020154Y-37476767D01*
X56022477Y-37481749D01*
X56025634Y-37486257D01*
X56147782Y-37660702D01*
X56153802Y-37669300D01*
X56315700Y-37831198D01*
X56320208Y-37834355D01*
X56320211Y-37834357D01*
X56381627Y-37877361D01*
X56503251Y-37962523D01*
X56508233Y-37964846D01*
X56508238Y-37964849D01*
X56705775Y-38056961D01*
X56710757Y-38059284D01*
X56716065Y-38060706D01*
X56716067Y-38060707D01*
X56926598Y-38117119D01*
X56926600Y-38117119D01*
X56931913Y-38118543D01*
X57160000Y-38138498D01*
X57388087Y-38118543D01*
X57393400Y-38117119D01*
X57393402Y-38117119D01*
X57603933Y-38060707D01*
X57603935Y-38060706D01*
X57609243Y-38059284D01*
X57614225Y-38056961D01*
X57811762Y-37964849D01*
X57811767Y-37964846D01*
X57816749Y-37962523D01*
X57938373Y-37877361D01*
X57999789Y-37834357D01*
X57999792Y-37834355D01*
X58004300Y-37831198D01*
X58166198Y-37669300D01*
X58172219Y-37660702D01*
X58294366Y-37486257D01*
X58297523Y-37481749D01*
X58299846Y-37476767D01*
X58299849Y-37476762D01*
X58391961Y-37279225D01*
X58391961Y-37279224D01*
X58394284Y-37274243D01*
X58401209Y-37248401D01*
X58452119Y-37058402D01*
X58452119Y-37058400D01*
X58453543Y-37053087D01*
X58473498Y-36825000D01*
X58453543Y-36596913D01*
X58452119Y-36591598D01*
X58395707Y-36381067D01*
X58395706Y-36381065D01*
X58394284Y-36375757D01*
X58387258Y-36360689D01*
X58299849Y-36173238D01*
X58299846Y-36173233D01*
X58297523Y-36168251D01*
X58166198Y-35980700D01*
X58004300Y-35818802D01*
X57999792Y-35815645D01*
X57999789Y-35815643D01*
X57898253Y-35744547D01*
X57816749Y-35687477D01*
X57811767Y-35685154D01*
X57811762Y-35685151D01*
X57777543Y-35669195D01*
X57724258Y-35622278D01*
X57704797Y-35554001D01*
X57725339Y-35486041D01*
X57777543Y-35440805D01*
X57811762Y-35424849D01*
X57811767Y-35424846D01*
X57816749Y-35422523D01*
X57938373Y-35337361D01*
X57999789Y-35294357D01*
X57999792Y-35294355D01*
X58004300Y-35291198D01*
X58166198Y-35129300D01*
X58172219Y-35120702D01*
X58224098Y-35046611D01*
X58297523Y-34941749D01*
X58299846Y-34936767D01*
X58299849Y-34936762D01*
X58391961Y-34739225D01*
X58391961Y-34739224D01*
X58394284Y-34734243D01*
X58401209Y-34708401D01*
X58452119Y-34518402D01*
X58452119Y-34518400D01*
X58453543Y-34513087D01*
X58473498Y-34285000D01*
X58453543Y-34056913D01*
X58439348Y-34003938D01*
X58395707Y-33841067D01*
X58395706Y-33841065D01*
X58394284Y-33835757D01*
X58387258Y-33820689D01*
X58299849Y-33633238D01*
X58299846Y-33633233D01*
X58297523Y-33628251D01*
X58166198Y-33440700D01*
X58004300Y-33278802D01*
X57999792Y-33275645D01*
X57999789Y-33275643D01*
X57898253Y-33204547D01*
X57816749Y-33147477D01*
X57811767Y-33145154D01*
X57811762Y-33145151D01*
X57614225Y-33053039D01*
X57614224Y-33053039D01*
X57609243Y-33050716D01*
X57603935Y-33049294D01*
X57603933Y-33049293D01*
X57393402Y-32992881D01*
X57393400Y-32992881D01*
X57388087Y-32991457D01*
X57160000Y-32971502D01*
X56931913Y-32991457D01*
X56926600Y-32992881D01*
X56926598Y-32992881D01*
X56716067Y-33049293D01*
X56716065Y-33049294D01*
X56710757Y-33050716D01*
X56705776Y-33053039D01*
X56705775Y-33053039D01*
X56508238Y-33145151D01*
X56508233Y-33145154D01*
X56503251Y-33147477D01*
X56421747Y-33204547D01*
X56320211Y-33275643D01*
X56320208Y-33275645D01*
X56315700Y-33278802D01*
X56153802Y-33440700D01*
X56022477Y-33628251D01*
X56020154Y-33633233D01*
X56020151Y-33633238D01*
X55932742Y-33820689D01*
X55925716Y-33835757D01*
X55924294Y-33841065D01*
X55924293Y-33841067D01*
X55880652Y-34003938D01*
X55866457Y-34056913D01*
X55846502Y-34285000D01*
X55866457Y-34513087D01*
X55867881Y-34518400D01*
X55867881Y-34518402D01*
X55918792Y-34708401D01*
X55925716Y-34734243D01*
X55928039Y-34739224D01*
X55928039Y-34739225D01*
X56020151Y-34936762D01*
X56020154Y-34936767D01*
X56022477Y-34941749D01*
X56095902Y-35046611D01*
X56147782Y-35120702D01*
X56153802Y-35129300D01*
X56315700Y-35291198D01*
X56320208Y-35294355D01*
X56320211Y-35294357D01*
X56381627Y-35337361D01*
X56503251Y-35422523D01*
X56508233Y-35424846D01*
X56508238Y-35424849D01*
X56542457Y-35440805D01*
X56595742Y-35487722D01*
X56615203Y-35555999D01*
X56594661Y-35623959D01*
X56542457Y-35669195D01*
X56508238Y-35685151D01*
X56508233Y-35685154D01*
X56503251Y-35687477D01*
X56421747Y-35744547D01*
X56320211Y-35815643D01*
X56320208Y-35815645D01*
X56315700Y-35818802D01*
X56153802Y-35980700D01*
X56022477Y-36168251D01*
X56020154Y-36173233D01*
X56020151Y-36173238D01*
X55932742Y-36360689D01*
X55925716Y-36375757D01*
X55924294Y-36381065D01*
X55924293Y-36381067D01*
X55867881Y-36591598D01*
X55866457Y-36596913D01*
X55846502Y-36825000D01*
X50853498Y-36825000D01*
X50833543Y-36596913D01*
X50832119Y-36591598D01*
X50775707Y-36381067D01*
X50775706Y-36381065D01*
X50774284Y-36375757D01*
X50767258Y-36360689D01*
X50679849Y-36173238D01*
X50679846Y-36173233D01*
X50677523Y-36168251D01*
X50546198Y-35980700D01*
X50384300Y-35818802D01*
X50379789Y-35815643D01*
X50375576Y-35812108D01*
X50376527Y-35810974D01*
X50336529Y-35760929D01*
X50329224Y-35690310D01*
X50361258Y-35626951D01*
X50422462Y-35590970D01*
X50439517Y-35587918D01*
X50450316Y-35586745D01*
X50586705Y-35535615D01*
X50703261Y-35448261D01*
X50790615Y-35331705D01*
X50841745Y-35195316D01*
X50848500Y-35133134D01*
X50848500Y-33436866D01*
X50841745Y-33374684D01*
X50790615Y-33238295D01*
X50703261Y-33121739D01*
X50586705Y-33034385D01*
X50450316Y-32983255D01*
X50388134Y-32976500D01*
X48691866Y-32976500D01*
X48629684Y-32983255D01*
X48493295Y-33034385D01*
X48376739Y-33121739D01*
X48289385Y-33238295D01*
X48238255Y-33374684D01*
X48231500Y-33436866D01*
X48231500Y-35133134D01*
X48238255Y-35195316D01*
X48289385Y-35331705D01*
X48376739Y-35448261D01*
X48493295Y-35535615D01*
X48629684Y-35586745D01*
X48640474Y-35587917D01*
X48642606Y-35588803D01*
X48645222Y-35589425D01*
X48645121Y-35589848D01*
X48706035Y-35615155D01*
X48746463Y-35673517D01*
X48748922Y-35744471D01*
X48712629Y-35805490D01*
X48703969Y-35812489D01*
X48700207Y-35815646D01*
X48695700Y-35818802D01*
X48533802Y-35980700D01*
X48402477Y-36168251D01*
X48400154Y-36173233D01*
X48400151Y-36173238D01*
X48312742Y-36360689D01*
X48305716Y-36375757D01*
X48304294Y-36381065D01*
X48304293Y-36381067D01*
X48247881Y-36591598D01*
X48246457Y-36596913D01*
X48226502Y-36825000D01*
X46054611Y-36825000D01*
X46163933Y-36795707D01*
X46163935Y-36795706D01*
X46169243Y-36794284D01*
X46179850Y-36789338D01*
X46371762Y-36699849D01*
X46371767Y-36699846D01*
X46376749Y-36697523D01*
X46500069Y-36611173D01*
X46559789Y-36569357D01*
X46559792Y-36569355D01*
X46564300Y-36566198D01*
X46726198Y-36404300D01*
X46743921Y-36378990D01*
X46818782Y-36272077D01*
X46857523Y-36216749D01*
X46859846Y-36211767D01*
X46859849Y-36211762D01*
X46951961Y-36014225D01*
X46951961Y-36014224D01*
X46954284Y-36009243D01*
X46960724Y-35985211D01*
X47012119Y-35793402D01*
X47012119Y-35793400D01*
X47013543Y-35788087D01*
X47033498Y-35560000D01*
X47013543Y-35331913D01*
X47011234Y-35323297D01*
X46955707Y-35116067D01*
X46955706Y-35116065D01*
X46954284Y-35110757D01*
X46942092Y-35084610D01*
X46859849Y-34908238D01*
X46859846Y-34908233D01*
X46857523Y-34903251D01*
X46745046Y-34742617D01*
X46729357Y-34720211D01*
X46729355Y-34720208D01*
X46726198Y-34715700D01*
X46564300Y-34553802D01*
X46559792Y-34550645D01*
X46559789Y-34550643D01*
X46398632Y-34437800D01*
X46376749Y-34422477D01*
X46371767Y-34420154D01*
X46371762Y-34420151D01*
X46174225Y-34328039D01*
X46174224Y-34328039D01*
X46169243Y-34325716D01*
X46163935Y-34324294D01*
X46163933Y-34324293D01*
X45953402Y-34267881D01*
X45953400Y-34267881D01*
X45948087Y-34266457D01*
X45720000Y-34246502D01*
X45491913Y-34266457D01*
X45486600Y-34267881D01*
X45486598Y-34267881D01*
X45276067Y-34324293D01*
X45276065Y-34324294D01*
X45270757Y-34325716D01*
X45265776Y-34328039D01*
X45265775Y-34328039D01*
X45068238Y-34420151D01*
X45068233Y-34420154D01*
X45063251Y-34422477D01*
X45041368Y-34437800D01*
X44880211Y-34550643D01*
X44880208Y-34550645D01*
X44875700Y-34553802D01*
X44713802Y-34715700D01*
X44710645Y-34720208D01*
X44710643Y-34720211D01*
X44694954Y-34742617D01*
X44582477Y-34903251D01*
X44580154Y-34908233D01*
X44580151Y-34908238D01*
X44497908Y-35084610D01*
X44485716Y-35110757D01*
X44484294Y-35116065D01*
X44484293Y-35116067D01*
X44428766Y-35323297D01*
X44426457Y-35331913D01*
X44406502Y-35560000D01*
X36873498Y-35560000D01*
X36853543Y-35331913D01*
X36851234Y-35323297D01*
X36795707Y-35116067D01*
X36795706Y-35116065D01*
X36794284Y-35110757D01*
X36782092Y-35084610D01*
X36699849Y-34908238D01*
X36699846Y-34908233D01*
X36697523Y-34903251D01*
X36585046Y-34742617D01*
X36569357Y-34720211D01*
X36569355Y-34720208D01*
X36566198Y-34715700D01*
X36404300Y-34553802D01*
X36399792Y-34550645D01*
X36399789Y-34550643D01*
X36238632Y-34437800D01*
X36216749Y-34422477D01*
X36211767Y-34420154D01*
X36211762Y-34420151D01*
X36014225Y-34328039D01*
X36014224Y-34328039D01*
X36009243Y-34325716D01*
X36003935Y-34324294D01*
X36003933Y-34324293D01*
X35793402Y-34267881D01*
X35793400Y-34267881D01*
X35788087Y-34266457D01*
X35560000Y-34246502D01*
X35331913Y-34266457D01*
X35326600Y-34267881D01*
X35326598Y-34267881D01*
X35116067Y-34324293D01*
X35116065Y-34324294D01*
X35110757Y-34325716D01*
X35105776Y-34328039D01*
X35105775Y-34328039D01*
X34908238Y-34420151D01*
X34908233Y-34420154D01*
X34903251Y-34422477D01*
X34881368Y-34437800D01*
X34720211Y-34550643D01*
X34720208Y-34550645D01*
X34715700Y-34553802D01*
X34553802Y-34715700D01*
X34550645Y-34720208D01*
X34550643Y-34720211D01*
X34430074Y-34892401D01*
X34422477Y-34903251D01*
X34422321Y-34903141D01*
X34372662Y-34950494D01*
X34302949Y-34963933D01*
X34237037Y-34937549D01*
X34209129Y-34906943D01*
X34102822Y-34742617D01*
X34102820Y-34742614D01*
X34100014Y-34738277D01*
X33949670Y-34573051D01*
X33945619Y-34569852D01*
X33945615Y-34569848D01*
X33778414Y-34437800D01*
X33778410Y-34437798D01*
X33774359Y-34434598D01*
X33733053Y-34411796D01*
X33683084Y-34361364D01*
X33668312Y-34291921D01*
X33693428Y-34225516D01*
X33720780Y-34198909D01*
X33764603Y-34167650D01*
X33899860Y-34071173D01*
X34058096Y-33913489D01*
X34062661Y-33907137D01*
X34185435Y-33736277D01*
X34188453Y-33732077D01*
X34193396Y-33722077D01*
X34285136Y-33536453D01*
X34285137Y-33536451D01*
X34287430Y-33531811D01*
X34352370Y-33318069D01*
X34381529Y-33096590D01*
X34383156Y-33030000D01*
X34364852Y-32807361D01*
X34310431Y-32590702D01*
X34221354Y-32385840D01*
X34100014Y-32198277D01*
X33949670Y-32033051D01*
X33945619Y-32029852D01*
X33945615Y-32029848D01*
X33778414Y-31897800D01*
X33778410Y-31897798D01*
X33774359Y-31894598D01*
X33733053Y-31871796D01*
X33683084Y-31821364D01*
X33668312Y-31751921D01*
X33693428Y-31685516D01*
X33720780Y-31658909D01*
X33783227Y-31614366D01*
X33899860Y-31531173D01*
X33941823Y-31489357D01*
X34054435Y-31377137D01*
X34058096Y-31373489D01*
X34062661Y-31367137D01*
X34185435Y-31196277D01*
X34188453Y-31192077D01*
X34207106Y-31154334D01*
X34255219Y-31102128D01*
X34323920Y-31084221D01*
X34391397Y-31106299D01*
X34423276Y-31137891D01*
X34550643Y-31319789D01*
X34553802Y-31324300D01*
X34715700Y-31486198D01*
X34720208Y-31489355D01*
X34720211Y-31489357D01*
X34779931Y-31531173D01*
X34903251Y-31617523D01*
X34908233Y-31619846D01*
X34908238Y-31619849D01*
X35100150Y-31709338D01*
X35110757Y-31714284D01*
X35116065Y-31715706D01*
X35116067Y-31715707D01*
X35326598Y-31772119D01*
X35326600Y-31772119D01*
X35331913Y-31773543D01*
X35560000Y-31793498D01*
X35788087Y-31773543D01*
X35793400Y-31772119D01*
X35793402Y-31772119D01*
X36003933Y-31715707D01*
X36003935Y-31715706D01*
X36009243Y-31714284D01*
X36019850Y-31709338D01*
X36211762Y-31619849D01*
X36211767Y-31619846D01*
X36216749Y-31617523D01*
X36340069Y-31531173D01*
X36399789Y-31489357D01*
X36399792Y-31489355D01*
X36404300Y-31486198D01*
X36566198Y-31324300D01*
X36583921Y-31298990D01*
X36658782Y-31192077D01*
X36697523Y-31136749D01*
X36699846Y-31131767D01*
X36699849Y-31131762D01*
X36791961Y-30934225D01*
X36791961Y-30934224D01*
X36794284Y-30929243D01*
X36802753Y-30897639D01*
X36852119Y-30713402D01*
X36852119Y-30713400D01*
X36853543Y-30708087D01*
X36873498Y-30480000D01*
X44406502Y-30480000D01*
X44426457Y-30708087D01*
X44427881Y-30713400D01*
X44427881Y-30713402D01*
X44477248Y-30897639D01*
X44485716Y-30929243D01*
X44488039Y-30934224D01*
X44488039Y-30934225D01*
X44580151Y-31131762D01*
X44580154Y-31131767D01*
X44582477Y-31136749D01*
X44621218Y-31192077D01*
X44696080Y-31298990D01*
X44713802Y-31324300D01*
X44875700Y-31486198D01*
X44880208Y-31489355D01*
X44880211Y-31489357D01*
X44939931Y-31531173D01*
X45063251Y-31617523D01*
X45068233Y-31619846D01*
X45068238Y-31619849D01*
X45260150Y-31709338D01*
X45270757Y-31714284D01*
X45276065Y-31715706D01*
X45276067Y-31715707D01*
X45486598Y-31772119D01*
X45486600Y-31772119D01*
X45491913Y-31773543D01*
X45720000Y-31793498D01*
X45948087Y-31773543D01*
X45953400Y-31772119D01*
X45953402Y-31772119D01*
X46163933Y-31715707D01*
X46163935Y-31715706D01*
X46169243Y-31714284D01*
X46179850Y-31709338D01*
X46371762Y-31619849D01*
X46371767Y-31619846D01*
X46376749Y-31617523D01*
X46500069Y-31531173D01*
X46559789Y-31489357D01*
X46559792Y-31489355D01*
X46564300Y-31486198D01*
X46726198Y-31324300D01*
X46743921Y-31298990D01*
X46818782Y-31192077D01*
X46857523Y-31136749D01*
X46859846Y-31131767D01*
X46859849Y-31131762D01*
X46951961Y-30934225D01*
X46951961Y-30934224D01*
X46954284Y-30929243D01*
X46962753Y-30897639D01*
X47012119Y-30713402D01*
X47012119Y-30713400D01*
X47013543Y-30708087D01*
X47033498Y-30480000D01*
X48226502Y-30480000D01*
X48246457Y-30708087D01*
X48247881Y-30713400D01*
X48247881Y-30713402D01*
X48297248Y-30897639D01*
X48305716Y-30929243D01*
X48308039Y-30934224D01*
X48308039Y-30934225D01*
X48400151Y-31131762D01*
X48400154Y-31131767D01*
X48402477Y-31136749D01*
X48441218Y-31192077D01*
X48516080Y-31298990D01*
X48533802Y-31324300D01*
X48695700Y-31486198D01*
X48700208Y-31489355D01*
X48700211Y-31489357D01*
X48759931Y-31531173D01*
X48883251Y-31617523D01*
X48888233Y-31619846D01*
X48888238Y-31619849D01*
X49080150Y-31709338D01*
X49090757Y-31714284D01*
X49096065Y-31715706D01*
X49096067Y-31715707D01*
X49306598Y-31772119D01*
X49306600Y-31772119D01*
X49311913Y-31773543D01*
X49540000Y-31793498D01*
X49768087Y-31773543D01*
X49773400Y-31772119D01*
X49773402Y-31772119D01*
X49983933Y-31715707D01*
X49983935Y-31715706D01*
X49989243Y-31714284D01*
X49999850Y-31709338D01*
X50191762Y-31619849D01*
X50191767Y-31619846D01*
X50196749Y-31617523D01*
X50320069Y-31531173D01*
X50379789Y-31489357D01*
X50379792Y-31489355D01*
X50384300Y-31486198D01*
X50546198Y-31324300D01*
X50563921Y-31298990D01*
X50638782Y-31192077D01*
X50677523Y-31136749D01*
X50679846Y-31131767D01*
X50679849Y-31131762D01*
X50771961Y-30934225D01*
X50771961Y-30934224D01*
X50774284Y-30929243D01*
X50782753Y-30897639D01*
X50832119Y-30713402D01*
X50832119Y-30713400D01*
X50833543Y-30708087D01*
X50853498Y-30480000D01*
X55846502Y-30480000D01*
X55866457Y-30708087D01*
X55867881Y-30713400D01*
X55867881Y-30713402D01*
X55917248Y-30897639D01*
X55925716Y-30929243D01*
X55928039Y-30934224D01*
X55928039Y-30934225D01*
X56020151Y-31131762D01*
X56020154Y-31131767D01*
X56022477Y-31136749D01*
X56061218Y-31192077D01*
X56136080Y-31298990D01*
X56153802Y-31324300D01*
X56315700Y-31486198D01*
X56320208Y-31489355D01*
X56320211Y-31489357D01*
X56379931Y-31531173D01*
X56503251Y-31617523D01*
X56508233Y-31619846D01*
X56508238Y-31619849D01*
X56700150Y-31709338D01*
X56710757Y-31714284D01*
X56716065Y-31715706D01*
X56716067Y-31715707D01*
X56926598Y-31772119D01*
X56926600Y-31772119D01*
X56931913Y-31773543D01*
X57160000Y-31793498D01*
X57388087Y-31773543D01*
X57393400Y-31772119D01*
X57393402Y-31772119D01*
X57603933Y-31715707D01*
X57603935Y-31715706D01*
X57609243Y-31714284D01*
X57619850Y-31709338D01*
X57811762Y-31619849D01*
X57811767Y-31619846D01*
X57816749Y-31617523D01*
X57940069Y-31531173D01*
X57999789Y-31489357D01*
X57999792Y-31489355D01*
X58004300Y-31486198D01*
X58166198Y-31324300D01*
X58183921Y-31298990D01*
X58258782Y-31192077D01*
X58297523Y-31136749D01*
X58299846Y-31131767D01*
X58299849Y-31131762D01*
X58391961Y-30934225D01*
X58391961Y-30934224D01*
X58394284Y-30929243D01*
X58402753Y-30897639D01*
X58452119Y-30713402D01*
X58452119Y-30713400D01*
X58453543Y-30708087D01*
X58473498Y-30480000D01*
X58453543Y-30251913D01*
X58452119Y-30246598D01*
X58395707Y-30036067D01*
X58395706Y-30036065D01*
X58394284Y-30030757D01*
X58382092Y-30004610D01*
X58299849Y-29828238D01*
X58299846Y-29828233D01*
X58297523Y-29823251D01*
X58179327Y-29654450D01*
X58169357Y-29640211D01*
X58169355Y-29640208D01*
X58166198Y-29635700D01*
X58004300Y-29473802D01*
X57999792Y-29470645D01*
X57999789Y-29470643D01*
X57903677Y-29403345D01*
X57816749Y-29342477D01*
X57811767Y-29340154D01*
X57811762Y-29340151D01*
X57777543Y-29324195D01*
X57724258Y-29277278D01*
X57704797Y-29209001D01*
X57725339Y-29141041D01*
X57777543Y-29095805D01*
X57811762Y-29079849D01*
X57811767Y-29079846D01*
X57816749Y-29077523D01*
X57940069Y-28991173D01*
X57999789Y-28949357D01*
X57999792Y-28949355D01*
X58004300Y-28946198D01*
X58166198Y-28784300D01*
X58297523Y-28596749D01*
X58299846Y-28591767D01*
X58299849Y-28591762D01*
X58391961Y-28394225D01*
X58391961Y-28394224D01*
X58394284Y-28389243D01*
X58402753Y-28357639D01*
X58452119Y-28173402D01*
X58452119Y-28173400D01*
X58453543Y-28168087D01*
X58473498Y-27940000D01*
X58453543Y-27711913D01*
X58448896Y-27694570D01*
X58395707Y-27496067D01*
X58395706Y-27496065D01*
X58394284Y-27490757D01*
X58388944Y-27479305D01*
X58299849Y-27288238D01*
X58299846Y-27288233D01*
X58297523Y-27283251D01*
X58166198Y-27095700D01*
X58004300Y-26933802D01*
X57999792Y-26930645D01*
X57999789Y-26930643D01*
X57838632Y-26817800D01*
X57816749Y-26802477D01*
X57811767Y-26800154D01*
X57811762Y-26800151D01*
X57614225Y-26708039D01*
X57614224Y-26708039D01*
X57609243Y-26705716D01*
X57603935Y-26704294D01*
X57603933Y-26704293D01*
X57393402Y-26647881D01*
X57393400Y-26647881D01*
X57388087Y-26646457D01*
X57160000Y-26626502D01*
X56931913Y-26646457D01*
X56926600Y-26647881D01*
X56926598Y-26647881D01*
X56716067Y-26704293D01*
X56716065Y-26704294D01*
X56710757Y-26705716D01*
X56705776Y-26708039D01*
X56705775Y-26708039D01*
X56508238Y-26800151D01*
X56508233Y-26800154D01*
X56503251Y-26802477D01*
X56481368Y-26817800D01*
X56320211Y-26930643D01*
X56320208Y-26930645D01*
X56315700Y-26933802D01*
X56153802Y-27095700D01*
X56022477Y-27283251D01*
X56020154Y-27288233D01*
X56020151Y-27288238D01*
X55931056Y-27479305D01*
X55925716Y-27490757D01*
X55924294Y-27496065D01*
X55924293Y-27496067D01*
X55871104Y-27694570D01*
X55866457Y-27711913D01*
X55846502Y-27940000D01*
X55866457Y-28168087D01*
X55867881Y-28173400D01*
X55867881Y-28173402D01*
X55917248Y-28357639D01*
X55925716Y-28389243D01*
X55928039Y-28394224D01*
X55928039Y-28394225D01*
X56020151Y-28591762D01*
X56020154Y-28591767D01*
X56022477Y-28596749D01*
X56153802Y-28784300D01*
X56315700Y-28946198D01*
X56320208Y-28949355D01*
X56320211Y-28949357D01*
X56379931Y-28991173D01*
X56503251Y-29077523D01*
X56508233Y-29079846D01*
X56508238Y-29079849D01*
X56542457Y-29095805D01*
X56595742Y-29142722D01*
X56615203Y-29210999D01*
X56594661Y-29278959D01*
X56542457Y-29324195D01*
X56508238Y-29340151D01*
X56508233Y-29340154D01*
X56503251Y-29342477D01*
X56416323Y-29403345D01*
X56320211Y-29470643D01*
X56320208Y-29470645D01*
X56315700Y-29473802D01*
X56153802Y-29635700D01*
X56150645Y-29640208D01*
X56150643Y-29640211D01*
X56140673Y-29654450D01*
X56022477Y-29823251D01*
X56020154Y-29828233D01*
X56020151Y-29828238D01*
X55937908Y-30004610D01*
X55925716Y-30030757D01*
X55924294Y-30036065D01*
X55924293Y-30036067D01*
X55867881Y-30246598D01*
X55866457Y-30251913D01*
X55846502Y-30480000D01*
X50853498Y-30480000D01*
X50833543Y-30251913D01*
X50832119Y-30246598D01*
X50775707Y-30036067D01*
X50775706Y-30036065D01*
X50774284Y-30030757D01*
X50762092Y-30004610D01*
X50679849Y-29828238D01*
X50679846Y-29828233D01*
X50677523Y-29823251D01*
X50559327Y-29654450D01*
X50549357Y-29640211D01*
X50549355Y-29640208D01*
X50546198Y-29635700D01*
X50384300Y-29473802D01*
X50379789Y-29470643D01*
X50375576Y-29467108D01*
X50376527Y-29465974D01*
X50336529Y-29415929D01*
X50329224Y-29345310D01*
X50361258Y-29281951D01*
X50422462Y-29245970D01*
X50439517Y-29242918D01*
X50450316Y-29241745D01*
X50586705Y-29190615D01*
X50703261Y-29103261D01*
X50790615Y-28986705D01*
X50841745Y-28850316D01*
X50848500Y-28788134D01*
X50848500Y-27091866D01*
X50841745Y-27029684D01*
X50790615Y-26893295D01*
X50703261Y-26776739D01*
X50586705Y-26689385D01*
X50450316Y-26638255D01*
X50388134Y-26631500D01*
X48691866Y-26631500D01*
X48629684Y-26638255D01*
X48493295Y-26689385D01*
X48376739Y-26776739D01*
X48289385Y-26893295D01*
X48238255Y-27029684D01*
X48231500Y-27091866D01*
X48231500Y-28788134D01*
X48238255Y-28850316D01*
X48289385Y-28986705D01*
X48376739Y-29103261D01*
X48493295Y-29190615D01*
X48629684Y-29241745D01*
X48640474Y-29242917D01*
X48642606Y-29243803D01*
X48645222Y-29244425D01*
X48645121Y-29244848D01*
X48706035Y-29270155D01*
X48746463Y-29328517D01*
X48748922Y-29399471D01*
X48712629Y-29460490D01*
X48703969Y-29467489D01*
X48700207Y-29470646D01*
X48695700Y-29473802D01*
X48533802Y-29635700D01*
X48530645Y-29640208D01*
X48530643Y-29640211D01*
X48520673Y-29654450D01*
X48402477Y-29823251D01*
X48400154Y-29828233D01*
X48400151Y-29828238D01*
X48317908Y-30004610D01*
X48305716Y-30030757D01*
X48304294Y-30036065D01*
X48304293Y-30036067D01*
X48247881Y-30246598D01*
X48246457Y-30251913D01*
X48226502Y-30480000D01*
X47033498Y-30480000D01*
X47013543Y-30251913D01*
X47012119Y-30246598D01*
X46955707Y-30036067D01*
X46955706Y-30036065D01*
X46954284Y-30030757D01*
X46942092Y-30004610D01*
X46859849Y-29828238D01*
X46859846Y-29828233D01*
X46857523Y-29823251D01*
X46739327Y-29654450D01*
X46729357Y-29640211D01*
X46729355Y-29640208D01*
X46726198Y-29635700D01*
X46564300Y-29473802D01*
X46559792Y-29470645D01*
X46559789Y-29470643D01*
X46463677Y-29403345D01*
X46376749Y-29342477D01*
X46371767Y-29340154D01*
X46371762Y-29340151D01*
X46174225Y-29248039D01*
X46174224Y-29248039D01*
X46169243Y-29245716D01*
X46163935Y-29244294D01*
X46163933Y-29244293D01*
X45953402Y-29187881D01*
X45953400Y-29187881D01*
X45948087Y-29186457D01*
X45720000Y-29166502D01*
X45491913Y-29186457D01*
X45486600Y-29187881D01*
X45486598Y-29187881D01*
X45276067Y-29244293D01*
X45276065Y-29244294D01*
X45270757Y-29245716D01*
X45265776Y-29248039D01*
X45265775Y-29248039D01*
X45068238Y-29340151D01*
X45068233Y-29340154D01*
X45063251Y-29342477D01*
X44976323Y-29403345D01*
X44880211Y-29470643D01*
X44880208Y-29470645D01*
X44875700Y-29473802D01*
X44713802Y-29635700D01*
X44710645Y-29640208D01*
X44710643Y-29640211D01*
X44700673Y-29654450D01*
X44582477Y-29823251D01*
X44580154Y-29828233D01*
X44580151Y-29828238D01*
X44497908Y-30004610D01*
X44485716Y-30030757D01*
X44484294Y-30036065D01*
X44484293Y-30036067D01*
X44427881Y-30246598D01*
X44426457Y-30251913D01*
X44406502Y-30480000D01*
X36873498Y-30480000D01*
X36853543Y-30251913D01*
X36852119Y-30246598D01*
X36795707Y-30036067D01*
X36795706Y-30036065D01*
X36794284Y-30030757D01*
X36782092Y-30004610D01*
X36699849Y-29828238D01*
X36699846Y-29828233D01*
X36697523Y-29823251D01*
X36579327Y-29654450D01*
X36569357Y-29640211D01*
X36569355Y-29640208D01*
X36566198Y-29635700D01*
X36404300Y-29473802D01*
X36399792Y-29470645D01*
X36399789Y-29470643D01*
X36303677Y-29403345D01*
X36216749Y-29342477D01*
X36211767Y-29340154D01*
X36211762Y-29340151D01*
X36014225Y-29248039D01*
X36014224Y-29248039D01*
X36009243Y-29245716D01*
X36003935Y-29244294D01*
X36003933Y-29244293D01*
X35793402Y-29187881D01*
X35793400Y-29187881D01*
X35788087Y-29186457D01*
X35560000Y-29166502D01*
X35331913Y-29186457D01*
X35326600Y-29187881D01*
X35326598Y-29187881D01*
X35116067Y-29244293D01*
X35116065Y-29244294D01*
X35110757Y-29245716D01*
X35105776Y-29248039D01*
X35105775Y-29248039D01*
X34908238Y-29340151D01*
X34908233Y-29340154D01*
X34903251Y-29342477D01*
X34816323Y-29403345D01*
X34720211Y-29470643D01*
X34720208Y-29470645D01*
X34715700Y-29473802D01*
X34553802Y-29635700D01*
X34550645Y-29640208D01*
X34550643Y-29640211D01*
X34430074Y-29812401D01*
X34422477Y-29823251D01*
X34422321Y-29823141D01*
X34372662Y-29870494D01*
X34302949Y-29883933D01*
X34237037Y-29857549D01*
X34209129Y-29826943D01*
X34102822Y-29662617D01*
X34102820Y-29662614D01*
X34100014Y-29658277D01*
X33949670Y-29493051D01*
X33945619Y-29489852D01*
X33945615Y-29489848D01*
X33778414Y-29357800D01*
X33778410Y-29357798D01*
X33774359Y-29354598D01*
X33733053Y-29331796D01*
X33683084Y-29281364D01*
X33668312Y-29211921D01*
X33693428Y-29145516D01*
X33720780Y-29118909D01*
X33783227Y-29074366D01*
X33899860Y-28991173D01*
X33941823Y-28949357D01*
X34000701Y-28890684D01*
X34058096Y-28833489D01*
X34090642Y-28788197D01*
X34185435Y-28656277D01*
X34188453Y-28652077D01*
X34218263Y-28591762D01*
X34285136Y-28456453D01*
X34285137Y-28456451D01*
X34287430Y-28451811D01*
X34352370Y-28238069D01*
X34381529Y-28016590D01*
X34383156Y-27950000D01*
X34364852Y-27727361D01*
X34310431Y-27510702D01*
X34221354Y-27305840D01*
X34100014Y-27118277D01*
X33949670Y-26953051D01*
X33945619Y-26949852D01*
X33945615Y-26949848D01*
X33778414Y-26817800D01*
X33778410Y-26817798D01*
X33774359Y-26814598D01*
X33578789Y-26706638D01*
X33573920Y-26704914D01*
X33573916Y-26704912D01*
X33373087Y-26633795D01*
X33373083Y-26633794D01*
X33368212Y-26632069D01*
X33363119Y-26631162D01*
X33363116Y-26631161D01*
X33153373Y-26593800D01*
X33153367Y-26593799D01*
X33148284Y-26592894D01*
X33074452Y-26591992D01*
X32930081Y-26590228D01*
X32930079Y-26590228D01*
X32924911Y-26590165D01*
X32704091Y-26623955D01*
X32491756Y-26693357D01*
X32293607Y-26796507D01*
X32289474Y-26799610D01*
X32289471Y-26799612D01*
X32119100Y-26927530D01*
X32114965Y-26930635D01*
X32097283Y-26949138D01*
X32033898Y-27015466D01*
X31972374Y-27050895D01*
X31901462Y-27047438D01*
X31843676Y-27006192D01*
X31824823Y-26972644D01*
X31783324Y-26861946D01*
X31774786Y-26846351D01*
X31698285Y-26744276D01*
X31685724Y-26731715D01*
X31583649Y-26655214D01*
X31568054Y-26646676D01*
X31447606Y-26601522D01*
X31432351Y-26597895D01*
X31381486Y-26592369D01*
X31374672Y-26592000D01*
X30752115Y-26592000D01*
X30736876Y-26596475D01*
X30735671Y-26597865D01*
X30734000Y-26605548D01*
X30734000Y-28078000D01*
X30713998Y-28146121D01*
X30660342Y-28192614D01*
X30608000Y-28204000D01*
X29140116Y-28204000D01*
X29124877Y-28208475D01*
X29123672Y-28209865D01*
X29122001Y-28217548D01*
X29122001Y-28844669D01*
X29122371Y-28851490D01*
X29127895Y-28902352D01*
X29131521Y-28917604D01*
X29176676Y-29038054D01*
X29185214Y-29053649D01*
X29261715Y-29155724D01*
X29274276Y-29168285D01*
X29376351Y-29244786D01*
X29391946Y-29253324D01*
X29500827Y-29294142D01*
X29557591Y-29336784D01*
X29582291Y-29403345D01*
X29567083Y-29472694D01*
X29547691Y-29499175D01*
X29433756Y-29618401D01*
X29420629Y-29632138D01*
X29294743Y-29816680D01*
X29263525Y-29883933D01*
X29203013Y-30014297D01*
X29200688Y-30019305D01*
X29140989Y-30234570D01*
X29117251Y-30456695D01*
X29117548Y-30461848D01*
X29117548Y-30461851D01*
X29129235Y-30664547D01*
X29130110Y-30679715D01*
X29131247Y-30684761D01*
X29131248Y-30684767D01*
X29150022Y-30768069D01*
X29179222Y-30897639D01*
X29217461Y-30991811D01*
X29257262Y-31089829D01*
X29263266Y-31104616D01*
X29307891Y-31177438D01*
X29377291Y-31290688D01*
X29379987Y-31295088D01*
X29526250Y-31463938D01*
X29698126Y-31606632D01*
X29754332Y-31639476D01*
X29771445Y-31649476D01*
X29820169Y-31701114D01*
X29833240Y-31770897D01*
X29806509Y-31836669D01*
X29766055Y-31870027D01*
X29753607Y-31876507D01*
X29749474Y-31879610D01*
X29749471Y-31879612D01*
X29583305Y-32004373D01*
X29574965Y-32010635D01*
X29420629Y-32172138D01*
X29417720Y-32176403D01*
X29417714Y-32176411D01*
X29409620Y-32188277D01*
X29294743Y-32356680D01*
X29279003Y-32390590D01*
X29203013Y-32554297D01*
X29200688Y-32559305D01*
X29140989Y-32774570D01*
X29117251Y-32996695D01*
X29117548Y-33001848D01*
X29117548Y-33001851D01*
X29124461Y-33121739D01*
X29130110Y-33219715D01*
X29131247Y-33224761D01*
X29131248Y-33224767D01*
X29150022Y-33308069D01*
X29179222Y-33437639D01*
X29217461Y-33531811D01*
X29257262Y-33629829D01*
X29263266Y-33644616D01*
X29307891Y-33717438D01*
X29377291Y-33830688D01*
X29379987Y-33835088D01*
X29526250Y-34003938D01*
X29698126Y-34146632D01*
X29754332Y-34179476D01*
X29771445Y-34189476D01*
X29820169Y-34241114D01*
X29833240Y-34310897D01*
X29806509Y-34376669D01*
X29766055Y-34410027D01*
X29753607Y-34416507D01*
X29749474Y-34419610D01*
X29749471Y-34419612D01*
X29583305Y-34544373D01*
X29574965Y-34550635D01*
X29420629Y-34712138D01*
X29417720Y-34716403D01*
X29417714Y-34716411D01*
X29399838Y-34742617D01*
X29294743Y-34896680D01*
X29263525Y-34963933D01*
X29203013Y-35094297D01*
X29200688Y-35099305D01*
X29140989Y-35314570D01*
X29117251Y-35536695D01*
X29117548Y-35541848D01*
X29117548Y-35541851D01*
X29124891Y-35669195D01*
X29130110Y-35759715D01*
X29131247Y-35764761D01*
X29131248Y-35764767D01*
X29150022Y-35848069D01*
X29179222Y-35977639D01*
X29217461Y-36071811D01*
X29257262Y-36169829D01*
X29263266Y-36184616D01*
X29307891Y-36257438D01*
X29377291Y-36370688D01*
X29379987Y-36375088D01*
X29526250Y-36543938D01*
X29698126Y-36686632D01*
X29754332Y-36719476D01*
X29771445Y-36729476D01*
X29820169Y-36781114D01*
X29833240Y-36850897D01*
X29806509Y-36916669D01*
X29766055Y-36950027D01*
X29753607Y-36956507D01*
X29749474Y-36959610D01*
X29749471Y-36959612D01*
X29583305Y-37084373D01*
X29574965Y-37090635D01*
X29420629Y-37252138D01*
X29417720Y-37256403D01*
X29417714Y-37256411D01*
X29399838Y-37282617D01*
X29294743Y-37436680D01*
X29279003Y-37470590D01*
X29203013Y-37634297D01*
X29200688Y-37639305D01*
X29140989Y-37854570D01*
X29117251Y-38076695D01*
X29117548Y-38081848D01*
X29117548Y-38081851D01*
X29123011Y-38176590D01*
X29130110Y-38299715D01*
X29131247Y-38304761D01*
X29131248Y-38304767D01*
X29150022Y-38388069D01*
X29179222Y-38517639D01*
X29217461Y-38611811D01*
X29257262Y-38709829D01*
X29263266Y-38724616D01*
X29307891Y-38797438D01*
X29377291Y-38910688D01*
X29379987Y-38915088D01*
X29526250Y-39083938D01*
X29698126Y-39226632D01*
X29754332Y-39259476D01*
X29771445Y-39269476D01*
X29820169Y-39321114D01*
X29833240Y-39390897D01*
X29806509Y-39456669D01*
X29766055Y-39490027D01*
X29753607Y-39496507D01*
X29749474Y-39499610D01*
X29749471Y-39499612D01*
X29583305Y-39624373D01*
X29574965Y-39630635D01*
X29420629Y-39792138D01*
X29417720Y-39796403D01*
X29417714Y-39796411D01*
X29409620Y-39808277D01*
X29294743Y-39976680D01*
X29279003Y-40010590D01*
X29203018Y-40174286D01*
X29200688Y-40179305D01*
X29140989Y-40394570D01*
X29117251Y-40616695D01*
X29117548Y-40621848D01*
X29117548Y-40621851D01*
X29127380Y-40792374D01*
X29130110Y-40839715D01*
X29131247Y-40844761D01*
X29131248Y-40844767D01*
X29150977Y-40932307D01*
X29179222Y-41057639D01*
X29235188Y-41195468D01*
X29251959Y-41236769D01*
X29263266Y-41264616D01*
X29307891Y-41337438D01*
X29377291Y-41450688D01*
X29379987Y-41455088D01*
X29526250Y-41623938D01*
X29698126Y-41766632D01*
X29768595Y-41807811D01*
X29771445Y-41809476D01*
X29820169Y-41861114D01*
X29833240Y-41930897D01*
X29806509Y-41996669D01*
X29766055Y-42030027D01*
X29753607Y-42036507D01*
X29749474Y-42039610D01*
X29749471Y-42039612D01*
X29579100Y-42167530D01*
X29574965Y-42170635D01*
X29420629Y-42332138D01*
X29417720Y-42336403D01*
X29417714Y-42336411D01*
X29409620Y-42348277D01*
X29294743Y-42516680D01*
X29263525Y-42583933D01*
X29203013Y-42714297D01*
X29200688Y-42719305D01*
X29140989Y-42934570D01*
X29117251Y-43156695D01*
X29117548Y-43161848D01*
X29117548Y-43161851D01*
X29129235Y-43364547D01*
X29130110Y-43379715D01*
X29131247Y-43384761D01*
X29131248Y-43384767D01*
X29150022Y-43468069D01*
X29179222Y-43597639D01*
X29237860Y-43742047D01*
X29257262Y-43789829D01*
X29263266Y-43804616D01*
X29307891Y-43877438D01*
X29377291Y-43990688D01*
X29379987Y-43995088D01*
X29526250Y-44163938D01*
X29698126Y-44306632D01*
X29731168Y-44325940D01*
X29771445Y-44349476D01*
X29820169Y-44401114D01*
X29833240Y-44470897D01*
X29806509Y-44536669D01*
X29766055Y-44570027D01*
X29753607Y-44576507D01*
X29749474Y-44579610D01*
X29749471Y-44579612D01*
X29583305Y-44704373D01*
X29574965Y-44710635D01*
X29559216Y-44727115D01*
X29460413Y-44830507D01*
X29420629Y-44872138D01*
X29417720Y-44876403D01*
X29417714Y-44876411D01*
X29409620Y-44888277D01*
X29294743Y-45056680D01*
X29247715Y-45157993D01*
X29203018Y-45254286D01*
X29200688Y-45259305D01*
X29140989Y-45474570D01*
X29117251Y-45696695D01*
X28448500Y-45696695D01*
X28448500Y-27677885D01*
X29122000Y-27677885D01*
X29126475Y-27693124D01*
X29127865Y-27694329D01*
X29135548Y-27696000D01*
X30207885Y-27696000D01*
X30223124Y-27691525D01*
X30224329Y-27690135D01*
X30226000Y-27682452D01*
X30226000Y-26610116D01*
X30221525Y-26594877D01*
X30220135Y-26593672D01*
X30212452Y-26592001D01*
X29585331Y-26592001D01*
X29578510Y-26592371D01*
X29527648Y-26597895D01*
X29512396Y-26601521D01*
X29391946Y-26646676D01*
X29376351Y-26655214D01*
X29274276Y-26731715D01*
X29261715Y-26744276D01*
X29185214Y-26846351D01*
X29176676Y-26861946D01*
X29131522Y-26982394D01*
X29127895Y-26997649D01*
X29122369Y-27048514D01*
X29122000Y-27055328D01*
X29122000Y-27677885D01*
X28448500Y-27677885D01*
X28448500Y-26723250D01*
X28450246Y-26702345D01*
X28452770Y-26687344D01*
X28452770Y-26687341D01*
X28453576Y-26682552D01*
X28453729Y-26670000D01*
X28452788Y-26663429D01*
X28452123Y-26633218D01*
X28461916Y-26533789D01*
X28466733Y-26509568D01*
X28502866Y-26390454D01*
X28512315Y-26367645D01*
X28570987Y-26257876D01*
X28584705Y-26237345D01*
X28663671Y-26141124D01*
X28681124Y-26123671D01*
X28777345Y-26044705D01*
X28797876Y-26030987D01*
X28907645Y-25972315D01*
X28930454Y-25962866D01*
X29049568Y-25926733D01*
X29073789Y-25921916D01*
X29169809Y-25912459D01*
X29185868Y-25912909D01*
X29185877Y-25912200D01*
X29194853Y-25912310D01*
X29203724Y-25913691D01*
X29212626Y-25912527D01*
X29212628Y-25912527D01*
X29229059Y-25910378D01*
X29235286Y-25909564D01*
X29251621Y-25908500D01*
X72340633Y-25908500D01*
X72360018Y-25910000D01*
G37*
%TD.AperFunction*%
%TD*%
M02*
