%TF.GenerationSoftware,KiCad,Pcbnew,(6.0.5)*%
%TF.CreationDate,2022-06-14T20:52:44+01:00*%
%TF.ProjectId,PiKVM,50694b56-4d2e-46b6-9963-61645f706362,rev?*%
%TF.SameCoordinates,Original*%
%TF.FileFunction,Legend,Top*%
%TF.FilePolarity,Positive*%
%FSLAX46Y46*%
G04 Gerber Fmt 4.6, Leading zero omitted, Abs format (unit mm)*
G04 Created by KiCad (PCBNEW (6.0.5)) date 2022-06-14 20:52:44*
%MOMM*%
%LPD*%
G01*
G04 APERTURE LIST*
%ADD10C,0.150000*%
%ADD11C,0.075000*%
%ADD12C,0.120000*%
%ADD13C,0.300000*%
%ADD14R,1.600000X1.600000*%
%ADD15O,1.600000X1.600000*%
%ADD16R,1.700000X1.700000*%
%ADD17O,1.700000X1.700000*%
%ADD18C,1.600000*%
G04 APERTURE END LIST*
D10*
X69024500Y-29210000D02*
X68135500Y-29210000D01*
X68135500Y-38100000D02*
X69024500Y-38100000D01*
X69024500Y-38100000D02*
X69024500Y-29210000D01*
X68135500Y-32893000D02*
X69024500Y-32893000D01*
X68135500Y-29210000D02*
X68135500Y-38100000D01*
X68135500Y-31115000D02*
X69024500Y-31115000D01*
X68135500Y-35687000D02*
X69024500Y-35687000D01*
D11*
X68315709Y-31730190D02*
X68553804Y-31563523D01*
X68315709Y-31444476D02*
X68815709Y-31444476D01*
X68815709Y-31634952D01*
X68791900Y-31682571D01*
X68768090Y-31706380D01*
X68720471Y-31730190D01*
X68649042Y-31730190D01*
X68601423Y-31706380D01*
X68577614Y-31682571D01*
X68553804Y-31634952D01*
X68553804Y-31444476D01*
X68339519Y-31920666D02*
X68315709Y-31992095D01*
X68315709Y-32111142D01*
X68339519Y-32158761D01*
X68363328Y-32182571D01*
X68410947Y-32206380D01*
X68458566Y-32206380D01*
X68506185Y-32182571D01*
X68529995Y-32158761D01*
X68553804Y-32111142D01*
X68577614Y-32015904D01*
X68601423Y-31968285D01*
X68625233Y-31944476D01*
X68672852Y-31920666D01*
X68720471Y-31920666D01*
X68768090Y-31944476D01*
X68791900Y-31968285D01*
X68815709Y-32015904D01*
X68815709Y-32134952D01*
X68791900Y-32206380D01*
X68815709Y-32349238D02*
X68815709Y-32634952D01*
X68315709Y-32492095D02*
X68815709Y-32492095D01*
X68290309Y-29432333D02*
X68790309Y-29432333D01*
X68790309Y-29622809D01*
X68766500Y-29670428D01*
X68742690Y-29694238D01*
X68695071Y-29718047D01*
X68623642Y-29718047D01*
X68576023Y-29694238D01*
X68552214Y-29670428D01*
X68528404Y-29622809D01*
X68528404Y-29432333D01*
X68790309Y-29884714D02*
X68290309Y-30003761D01*
X68647452Y-30099000D01*
X68290309Y-30194238D01*
X68790309Y-30313285D01*
X68290309Y-30789476D02*
X68528404Y-30622809D01*
X68290309Y-30503761D02*
X68790309Y-30503761D01*
X68790309Y-30694238D01*
X68766500Y-30741857D01*
X68742690Y-30765666D01*
X68695071Y-30789476D01*
X68623642Y-30789476D01*
X68576023Y-30765666D01*
X68552214Y-30741857D01*
X68528404Y-30694238D01*
X68528404Y-30503761D01*
X68506185Y-33120152D02*
X68506185Y-33501104D01*
X68315709Y-33310628D02*
X68696661Y-33310628D01*
X68315709Y-33739200D02*
X68815709Y-33739200D01*
X68815709Y-33929676D01*
X68791900Y-33977295D01*
X68768090Y-34001104D01*
X68720471Y-34024914D01*
X68649042Y-34024914D01*
X68601423Y-34001104D01*
X68577614Y-33977295D01*
X68553804Y-33929676D01*
X68553804Y-33739200D01*
X68315709Y-34477295D02*
X68315709Y-34239200D01*
X68815709Y-34239200D01*
X68577614Y-34643961D02*
X68577614Y-34810628D01*
X68315709Y-34882057D02*
X68315709Y-34643961D01*
X68815709Y-34643961D01*
X68815709Y-34882057D01*
X68315709Y-35096342D02*
X68815709Y-35096342D01*
X68815709Y-35215390D01*
X68791900Y-35286819D01*
X68744280Y-35334438D01*
X68696661Y-35358247D01*
X68601423Y-35382057D01*
X68529995Y-35382057D01*
X68434757Y-35358247D01*
X68387138Y-35334438D01*
X68339519Y-35286819D01*
X68315709Y-35215390D01*
X68315709Y-35096342D01*
X68556985Y-35877619D02*
X68556985Y-36258571D01*
X68366509Y-36068095D02*
X68747461Y-36068095D01*
X68366509Y-36496666D02*
X68866509Y-36496666D01*
X68628414Y-36496666D02*
X68628414Y-36782380D01*
X68366509Y-36782380D02*
X68866509Y-36782380D01*
X68366509Y-37020476D02*
X68866509Y-37020476D01*
X68866509Y-37139523D01*
X68842700Y-37210952D01*
X68795080Y-37258571D01*
X68747461Y-37282380D01*
X68652223Y-37306190D01*
X68580795Y-37306190D01*
X68485557Y-37282380D01*
X68437938Y-37258571D01*
X68390319Y-37210952D01*
X68366509Y-37139523D01*
X68366509Y-37020476D01*
X68366509Y-37520476D02*
X68866509Y-37520476D01*
X68866509Y-37639523D01*
X68842700Y-37710952D01*
X68795080Y-37758571D01*
X68747461Y-37782380D01*
X68652223Y-37806190D01*
X68580795Y-37806190D01*
X68485557Y-37782380D01*
X68437938Y-37758571D01*
X68390319Y-37710952D01*
X68366509Y-37639523D01*
X68366509Y-37520476D01*
D10*
%TO.C,U3*%
X52568095Y-42632380D02*
X52568095Y-43441904D01*
X52615714Y-43537142D01*
X52663333Y-43584761D01*
X52758571Y-43632380D01*
X52949047Y-43632380D01*
X53044285Y-43584761D01*
X53091904Y-43537142D01*
X53139523Y-43441904D01*
X53139523Y-42632380D01*
X53520476Y-42632380D02*
X54139523Y-42632380D01*
X53806190Y-43013333D01*
X53949047Y-43013333D01*
X54044285Y-43060952D01*
X54091904Y-43108571D01*
X54139523Y-43203809D01*
X54139523Y-43441904D01*
X54091904Y-43537142D01*
X54044285Y-43584761D01*
X53949047Y-43632380D01*
X53663333Y-43632380D01*
X53568095Y-43584761D01*
X53520476Y-43537142D01*
%TO.C,J2*%
X67611666Y-26757380D02*
X67611666Y-27471666D01*
X67564047Y-27614523D01*
X67468809Y-27709761D01*
X67325952Y-27757380D01*
X67230714Y-27757380D01*
X68040238Y-26852619D02*
X68087857Y-26805000D01*
X68183095Y-26757380D01*
X68421190Y-26757380D01*
X68516428Y-26805000D01*
X68564047Y-26852619D01*
X68611666Y-26947857D01*
X68611666Y-27043095D01*
X68564047Y-27185952D01*
X67992619Y-27757380D01*
X68611666Y-27757380D01*
%TO.C,R3*%
X38568333Y-43632380D02*
X38235000Y-43156190D01*
X37996904Y-43632380D02*
X37996904Y-42632380D01*
X38377857Y-42632380D01*
X38473095Y-42680000D01*
X38520714Y-42727619D01*
X38568333Y-42822857D01*
X38568333Y-42965714D01*
X38520714Y-43060952D01*
X38473095Y-43108571D01*
X38377857Y-43156190D01*
X37996904Y-43156190D01*
X38901666Y-42632380D02*
X39520714Y-42632380D01*
X39187380Y-43013333D01*
X39330238Y-43013333D01*
X39425476Y-43060952D01*
X39473095Y-43108571D01*
X39520714Y-43203809D01*
X39520714Y-43441904D01*
X39473095Y-43537142D01*
X39425476Y-43584761D01*
X39330238Y-43632380D01*
X39044523Y-43632380D01*
X38949285Y-43584761D01*
X38901666Y-43537142D01*
%TO.C,R1*%
X38568333Y-30932380D02*
X38235000Y-30456190D01*
X37996904Y-30932380D02*
X37996904Y-29932380D01*
X38377857Y-29932380D01*
X38473095Y-29980000D01*
X38520714Y-30027619D01*
X38568333Y-30122857D01*
X38568333Y-30265714D01*
X38520714Y-30360952D01*
X38473095Y-30408571D01*
X38377857Y-30456190D01*
X37996904Y-30456190D01*
X39520714Y-30932380D02*
X38949285Y-30932380D01*
X39235000Y-30932380D02*
X39235000Y-29932380D01*
X39139761Y-30075238D01*
X39044523Y-30170476D01*
X38949285Y-30218095D01*
%TO.C,U1*%
X52588095Y-28667380D02*
X52588095Y-29476904D01*
X52635714Y-29572142D01*
X52683333Y-29619761D01*
X52778571Y-29667380D01*
X52969047Y-29667380D01*
X53064285Y-29619761D01*
X53111904Y-29572142D01*
X53159523Y-29476904D01*
X53159523Y-28667380D01*
X54159523Y-29667380D02*
X53588095Y-29667380D01*
X53873809Y-29667380D02*
X53873809Y-28667380D01*
X53778571Y-28810238D01*
X53683333Y-28905476D01*
X53588095Y-28953095D01*
%TO.C,U4*%
X52568095Y-50252380D02*
X52568095Y-51061904D01*
X52615714Y-51157142D01*
X52663333Y-51204761D01*
X52758571Y-51252380D01*
X52949047Y-51252380D01*
X53044285Y-51204761D01*
X53091904Y-51157142D01*
X53139523Y-51061904D01*
X53139523Y-50252380D01*
X54044285Y-50585714D02*
X54044285Y-51252380D01*
X53806190Y-50204761D02*
X53568095Y-50919047D01*
X54187142Y-50919047D01*
%TO.C,R6*%
X66492380Y-47791666D02*
X66016190Y-48125000D01*
X66492380Y-48363095D02*
X65492380Y-48363095D01*
X65492380Y-47982142D01*
X65540000Y-47886904D01*
X65587619Y-47839285D01*
X65682857Y-47791666D01*
X65825714Y-47791666D01*
X65920952Y-47839285D01*
X65968571Y-47886904D01*
X66016190Y-47982142D01*
X66016190Y-48363095D01*
X65492380Y-46934523D02*
X65492380Y-47125000D01*
X65540000Y-47220238D01*
X65587619Y-47267857D01*
X65730476Y-47363095D01*
X65920952Y-47410714D01*
X66301904Y-47410714D01*
X66397142Y-47363095D01*
X66444761Y-47315476D01*
X66492380Y-47220238D01*
X66492380Y-47029761D01*
X66444761Y-46934523D01*
X66397142Y-46886904D01*
X66301904Y-46839285D01*
X66063809Y-46839285D01*
X65968571Y-46886904D01*
X65920952Y-46934523D01*
X65873333Y-47029761D01*
X65873333Y-47220238D01*
X65920952Y-47315476D01*
X65968571Y-47363095D01*
X66063809Y-47410714D01*
%TO.C,R2*%
X38568333Y-36012380D02*
X38235000Y-35536190D01*
X37996904Y-36012380D02*
X37996904Y-35012380D01*
X38377857Y-35012380D01*
X38473095Y-35060000D01*
X38520714Y-35107619D01*
X38568333Y-35202857D01*
X38568333Y-35345714D01*
X38520714Y-35440952D01*
X38473095Y-35488571D01*
X38377857Y-35536190D01*
X37996904Y-35536190D01*
X38949285Y-35107619D02*
X38996904Y-35060000D01*
X39092142Y-35012380D01*
X39330238Y-35012380D01*
X39425476Y-35060000D01*
X39473095Y-35107619D01*
X39520714Y-35202857D01*
X39520714Y-35298095D01*
X39473095Y-35440952D01*
X38901666Y-36012380D01*
X39520714Y-36012380D01*
%TO.C,R5*%
X61412380Y-47791666D02*
X60936190Y-48125000D01*
X61412380Y-48363095D02*
X60412380Y-48363095D01*
X60412380Y-47982142D01*
X60460000Y-47886904D01*
X60507619Y-47839285D01*
X60602857Y-47791666D01*
X60745714Y-47791666D01*
X60840952Y-47839285D01*
X60888571Y-47886904D01*
X60936190Y-47982142D01*
X60936190Y-48363095D01*
X60412380Y-46886904D02*
X60412380Y-47363095D01*
X60888571Y-47410714D01*
X60840952Y-47363095D01*
X60793333Y-47267857D01*
X60793333Y-47029761D01*
X60840952Y-46934523D01*
X60888571Y-46886904D01*
X60983809Y-46839285D01*
X61221904Y-46839285D01*
X61317142Y-46886904D01*
X61364761Y-46934523D01*
X61412380Y-47029761D01*
X61412380Y-47267857D01*
X61364761Y-47363095D01*
X61317142Y-47410714D01*
%TO.C,U2*%
X52588095Y-35012380D02*
X52588095Y-35821904D01*
X52635714Y-35917142D01*
X52683333Y-35964761D01*
X52778571Y-36012380D01*
X52969047Y-36012380D01*
X53064285Y-35964761D01*
X53111904Y-35917142D01*
X53159523Y-35821904D01*
X53159523Y-35012380D01*
X53588095Y-35107619D02*
X53635714Y-35060000D01*
X53730952Y-35012380D01*
X53969047Y-35012380D01*
X54064285Y-35060000D01*
X54111904Y-35107619D01*
X54159523Y-35202857D01*
X54159523Y-35298095D01*
X54111904Y-35440952D01*
X53540476Y-36012380D01*
X54159523Y-36012380D01*
%TO.C,R4*%
X38568333Y-48712380D02*
X38235000Y-48236190D01*
X37996904Y-48712380D02*
X37996904Y-47712380D01*
X38377857Y-47712380D01*
X38473095Y-47760000D01*
X38520714Y-47807619D01*
X38568333Y-47902857D01*
X38568333Y-48045714D01*
X38520714Y-48140952D01*
X38473095Y-48188571D01*
X38377857Y-48236190D01*
X37996904Y-48236190D01*
X39425476Y-48045714D02*
X39425476Y-48712380D01*
X39187380Y-47664761D02*
X38949285Y-48379047D01*
X39568333Y-48379047D01*
D12*
%TO.C,U3*%
X55980000Y-45785000D02*
X55980000Y-40585000D01*
X55980000Y-40585000D02*
X50680000Y-40585000D01*
X50680000Y-45785000D02*
X52330000Y-45785000D01*
X50680000Y-40585000D02*
X50680000Y-45785000D01*
X54330000Y-45785000D02*
X55980000Y-45785000D01*
X54330000Y-45785000D02*
G75*
G03*
X52330000Y-45785000I-1000000J0D01*
G01*
%TO.C,J2*%
X72425000Y-29210000D02*
X72425000Y-47050000D01*
X71095000Y-26610000D02*
X72425000Y-26610000D01*
X72425000Y-26610000D02*
X72425000Y-27940000D01*
X69765000Y-47050000D02*
X72425000Y-47050000D01*
X69765000Y-29210000D02*
X72425000Y-29210000D01*
X69765000Y-29210000D02*
X69765000Y-47050000D01*
%TO.C,R3*%
X43910000Y-44550000D02*
X43910000Y-41810000D01*
X37370000Y-44550000D02*
X43910000Y-44550000D01*
X36600000Y-43180000D02*
X37370000Y-43180000D01*
X43910000Y-41810000D02*
X37370000Y-41810000D01*
X37370000Y-41810000D02*
X37370000Y-44550000D01*
X44680000Y-43180000D02*
X43910000Y-43180000D01*
%TO.C,R1*%
X43910000Y-31850000D02*
X43910000Y-29110000D01*
X37370000Y-29110000D02*
X37370000Y-31850000D01*
X44680000Y-30480000D02*
X43910000Y-30480000D01*
X36600000Y-30480000D02*
X37370000Y-30480000D01*
X43910000Y-29110000D02*
X37370000Y-29110000D01*
X37370000Y-31850000D02*
X43910000Y-31850000D01*
%TO.C,U1*%
X56000000Y-31810000D02*
X56000000Y-26610000D01*
X56000000Y-26610000D02*
X54350000Y-26610000D01*
X50700000Y-26610000D02*
X50700000Y-31810000D01*
X50700000Y-31810000D02*
X56000000Y-31810000D01*
X52350000Y-26610000D02*
X50700000Y-26610000D01*
X52350000Y-26610000D02*
G75*
G03*
X54350000Y-26610000I1000000J0D01*
G01*
%TO.C,U4*%
X54330000Y-53405000D02*
X55980000Y-53405000D01*
X55980000Y-48205000D02*
X50680000Y-48205000D01*
X50680000Y-53405000D02*
X52330000Y-53405000D01*
X55980000Y-53405000D02*
X55980000Y-48205000D01*
X50680000Y-48205000D02*
X50680000Y-53405000D01*
X54330000Y-53405000D02*
G75*
G03*
X52330000Y-53405000I-1000000J0D01*
G01*
%TO.C,R6*%
X66040000Y-49760000D02*
X66040000Y-48990000D01*
X67410000Y-48990000D02*
X67410000Y-42450000D01*
X66040000Y-41680000D02*
X66040000Y-42450000D01*
X67410000Y-42450000D02*
X64670000Y-42450000D01*
X64670000Y-48990000D02*
X67410000Y-48990000D01*
X64670000Y-42450000D02*
X64670000Y-48990000D01*
%TO.C,R2*%
X43910000Y-34190000D02*
X37370000Y-34190000D01*
X36600000Y-35560000D02*
X37370000Y-35560000D01*
X43910000Y-36930000D02*
X43910000Y-34190000D01*
X37370000Y-36930000D02*
X43910000Y-36930000D01*
X37370000Y-34190000D02*
X37370000Y-36930000D01*
X44680000Y-35560000D02*
X43910000Y-35560000D01*
%TO.C,R5*%
X62330000Y-42450000D02*
X59590000Y-42450000D01*
X59590000Y-48990000D02*
X62330000Y-48990000D01*
X59590000Y-42450000D02*
X59590000Y-48990000D01*
X60960000Y-49760000D02*
X60960000Y-48990000D01*
X60960000Y-41680000D02*
X60960000Y-42450000D01*
X62330000Y-48990000D02*
X62330000Y-42450000D01*
%TO.C,U2*%
X50700000Y-38155000D02*
X56000000Y-38155000D01*
X56000000Y-32955000D02*
X54350000Y-32955000D01*
X52350000Y-32955000D02*
X50700000Y-32955000D01*
X56000000Y-38155000D02*
X56000000Y-32955000D01*
X50700000Y-32955000D02*
X50700000Y-38155000D01*
X52350000Y-32955000D02*
G75*
G03*
X54350000Y-32955000I1000000J0D01*
G01*
%TO.C,R4*%
X43910000Y-49630000D02*
X43910000Y-46890000D01*
X44680000Y-48260000D02*
X43910000Y-48260000D01*
X36600000Y-48260000D02*
X37370000Y-48260000D01*
X37370000Y-49630000D02*
X43910000Y-49630000D01*
X43910000Y-46890000D02*
X37370000Y-46890000D01*
X37370000Y-46890000D02*
X37370000Y-49630000D01*
%TD*%
%LPC*%
D13*
X37854285Y-39048571D02*
X37854285Y-40048571D01*
X37354285Y-39048571D02*
X37354285Y-39834285D01*
X37282857Y-39977142D01*
X37140000Y-40048571D01*
X38140000Y-39048571D02*
X37211428Y-39048571D01*
X37068571Y-39120000D01*
X36997142Y-39262857D01*
X38711428Y-39477142D02*
X39854285Y-39477142D01*
X40568571Y-40048571D02*
X40568571Y-38548571D01*
X40711428Y-39477142D02*
X41140000Y-40048571D01*
X41140000Y-39048571D02*
X40568571Y-39620000D01*
X41640000Y-39048571D02*
X41997142Y-40048571D01*
X42354285Y-39048571D01*
X42925714Y-40048571D02*
X42925714Y-39048571D01*
X42925714Y-39191428D02*
X42997142Y-39120000D01*
X43140000Y-39048571D01*
X43354285Y-39048571D01*
X43497142Y-39120000D01*
X43568571Y-39262857D01*
X43568571Y-40048571D01*
X43568571Y-39262857D02*
X43640000Y-39120000D01*
X43782857Y-39048571D01*
X43997142Y-39048571D01*
X44140000Y-39120000D01*
X44211428Y-39262857D01*
X44211428Y-40048571D01*
D14*
%TO.C,U3*%
X57140000Y-44455000D03*
D15*
X57140000Y-41915000D03*
X49520000Y-41915000D03*
X49520000Y-44455000D03*
%TD*%
D16*
%TO.C,J2*%
X71095000Y-27940000D03*
D17*
X71095000Y-30480000D03*
X71095000Y-33020000D03*
X71095000Y-35560000D03*
X71095000Y-38100000D03*
X71095000Y-40640000D03*
X71095000Y-43180000D03*
X71095000Y-45720000D03*
%TD*%
D18*
%TO.C,R3*%
X35560000Y-43180000D03*
D15*
X45720000Y-43180000D03*
%TD*%
D18*
%TO.C,R1*%
X35560000Y-30480000D03*
D15*
X45720000Y-30480000D03*
%TD*%
D14*
%TO.C,U1*%
X49540000Y-27940000D03*
D15*
X49540000Y-30480000D03*
X57160000Y-30480000D03*
X57160000Y-27940000D03*
%TD*%
D14*
%TO.C,U4*%
X57140000Y-52075000D03*
D15*
X57140000Y-49535000D03*
X49520000Y-49535000D03*
X49520000Y-52075000D03*
%TD*%
D18*
%TO.C,R6*%
X66040000Y-40640000D03*
D15*
X66040000Y-50800000D03*
%TD*%
D18*
%TO.C,R2*%
X35560000Y-35560000D03*
D15*
X45720000Y-35560000D03*
%TD*%
D18*
%TO.C,R5*%
X60960000Y-40640000D03*
D15*
X60960000Y-50800000D03*
%TD*%
D14*
%TO.C,U2*%
X49540000Y-34285000D03*
D15*
X49540000Y-36825000D03*
X57160000Y-36825000D03*
X57160000Y-34285000D03*
%TD*%
D18*
%TO.C,R4*%
X35560000Y-48260000D03*
D15*
X45720000Y-48260000D03*
%TD*%
D16*
%TO.C,J1*%
X30480000Y-27950000D03*
D17*
X33020000Y-27950000D03*
X30480000Y-30490000D03*
X33020000Y-30490000D03*
X30480000Y-33030000D03*
X33020000Y-33030000D03*
X30480000Y-35570000D03*
X33020000Y-35570000D03*
X30480000Y-38110000D03*
X33020000Y-38110000D03*
X30480000Y-40650000D03*
X33020000Y-40650000D03*
X30480000Y-43190000D03*
X33020000Y-43190000D03*
X30480000Y-45730000D03*
X33020000Y-45730000D03*
X30480000Y-48270000D03*
X33020000Y-48270000D03*
%TD*%
M02*
