%FSLAX45Y45*%
G04 Gerber Fmt 4.5, Leading zero omitted, Abs format (unit mm)*
G04 Created by KiCad (PCBNEW (6.0.5)) date 2022-06-14 20:53:04*
%MOMM*%
%LPD*%
G01*
G04 APERTURE LIST*
%TA.AperFunction,Profile*%
%ADD10C,0.100000*%
%TD*%
%ADD11C,0.200000*%
G04 APERTURE END LIST*
D10*
X7366000Y-2667000D02*
G75*
G03*
X7239000Y-2540000I-127000J0D01*
G01*
X7239000Y-2540000D02*
X2921000Y-2540000D01*
X7239000Y-5461000D02*
G75*
G03*
X7366000Y-5334000I0J127000D01*
G01*
X2794000Y-5334000D02*
G75*
G03*
X2921000Y-5461000I127000J0D01*
G01*
X2921000Y-5461000D02*
X7239000Y-5461000D01*
X2921000Y-2540000D02*
G75*
G03*
X2794000Y-2667000I0J-127000D01*
G01*
X7366000Y-5334000D02*
X7366000Y-2667000D01*
X2794000Y-2667000D02*
X2794000Y-5334000D01*
D11*
X3046619Y-5776476D02*
X3046619Y-5576476D01*
X3094238Y-5576476D01*
X3122809Y-5586000D01*
X3141857Y-5605048D01*
X3151381Y-5624095D01*
X3160905Y-5662190D01*
X3160905Y-5690762D01*
X3151381Y-5728857D01*
X3141857Y-5747905D01*
X3122809Y-5766952D01*
X3094238Y-5776476D01*
X3046619Y-5776476D01*
X3246619Y-5776476D02*
X3246619Y-5643143D01*
X3246619Y-5681238D02*
X3256143Y-5662190D01*
X3265667Y-5652667D01*
X3284714Y-5643143D01*
X3303762Y-5643143D01*
X3370428Y-5776476D02*
X3370428Y-5643143D01*
X3370428Y-5576476D02*
X3360905Y-5586000D01*
X3370428Y-5595524D01*
X3379952Y-5586000D01*
X3370428Y-5576476D01*
X3370428Y-5595524D01*
X3494238Y-5776476D02*
X3475190Y-5766952D01*
X3465667Y-5747905D01*
X3465667Y-5576476D01*
X3599000Y-5776476D02*
X3579952Y-5766952D01*
X3570428Y-5747905D01*
X3570428Y-5576476D01*
X3827571Y-5776476D02*
X3827571Y-5576476D01*
X3894238Y-5719333D01*
X3960905Y-5576476D01*
X3960905Y-5776476D01*
X4141857Y-5776476D02*
X4141857Y-5671714D01*
X4132333Y-5652667D01*
X4113286Y-5643143D01*
X4075190Y-5643143D01*
X4056143Y-5652667D01*
X4141857Y-5766952D02*
X4122809Y-5776476D01*
X4075190Y-5776476D01*
X4056143Y-5766952D01*
X4046619Y-5747905D01*
X4046619Y-5728857D01*
X4056143Y-5709809D01*
X4075190Y-5700286D01*
X4122809Y-5700286D01*
X4141857Y-5690762D01*
X4237095Y-5643143D02*
X4237095Y-5843143D01*
X4237095Y-5652667D02*
X4256143Y-5643143D01*
X4294238Y-5643143D01*
X4313286Y-5652667D01*
X4322810Y-5662190D01*
X4332333Y-5681238D01*
X4332333Y-5738381D01*
X4322810Y-5757428D01*
X4313286Y-5766952D01*
X4294238Y-5776476D01*
X4256143Y-5776476D01*
X4237095Y-5766952D01*
X4418048Y-5757428D02*
X4427571Y-5766952D01*
X4418048Y-5776476D01*
X4408524Y-5766952D01*
X4418048Y-5757428D01*
X4418048Y-5776476D01*
X4418048Y-5652667D02*
X4427571Y-5662190D01*
X4418048Y-5671714D01*
X4408524Y-5662190D01*
X4418048Y-5652667D01*
X4418048Y-5671714D01*
M02*
