M48
; DRILL file {KiCad (6.0.5)} date Tue 14 Jun 2022 20:53:03 BST
; FORMAT={-:-/ absolute / metric / decimal}
; #@! TF.CreationDate,2022-06-14T20:53:03+01:00
; #@! TF.GenerationSoftware,Kicad,Pcbnew,(6.0.5)
; #@! TF.FileFunction,Plated,1,2,PTH
FMAT,2
METRIC
; #@! TA.AperFunction,Plated,PTH,ComponentDrill
T1C0.800
; #@! TA.AperFunction,Plated,PTH,ComponentDrill
T2C1.000
%
G90
G05
T1
X35.56Y-30.48
X35.56Y-35.56
X35.56Y-43.18
X35.56Y-48.26
X45.72Y-30.48
X45.72Y-35.56
X45.72Y-43.18
X45.72Y-48.26
X49.52Y-41.915
X49.52Y-44.455
X49.52Y-49.535
X49.52Y-52.075
X49.54Y-27.94
X49.54Y-30.48
X49.54Y-34.285
X49.54Y-36.825
X57.14Y-41.915
X57.14Y-44.455
X57.14Y-49.535
X57.14Y-52.075
X57.16Y-27.94
X57.16Y-30.48
X57.16Y-34.285
X57.16Y-36.825
X60.96Y-40.64
X60.96Y-50.8
X66.04Y-40.64
X66.04Y-50.8
T2
X30.48Y-27.95
X30.48Y-30.49
X30.48Y-33.03
X30.48Y-35.57
X30.48Y-38.11
X30.48Y-40.65
X30.48Y-43.19
X30.48Y-45.73
X30.48Y-48.27
X33.02Y-27.95
X33.02Y-30.49
X33.02Y-33.03
X33.02Y-35.57
X33.02Y-38.11
X33.02Y-40.65
X33.02Y-43.19
X33.02Y-45.73
X33.02Y-48.27
X71.095Y-27.94
X71.095Y-30.48
X71.095Y-33.02
X71.095Y-35.56
X71.095Y-38.1
X71.095Y-40.64
X71.095Y-43.18
X71.095Y-45.72
T0
M30
